<?xml version="1.0" encoding="UTF-8"?>
<svg id="Layer_2" data-name="Layer 2" xmlns="http://www.w3.org/2000/svg" viewBox="0 0 1644.7 491.46">
  <defs>
    <style>
      .cls-1 {
        fill: none;
        stroke: #027248;
        stroke-miterlimit: 10;
        stroke-width: 27px;
      }

      .cls-2 {
        fill: #027248;
      }
    </style>
  </defs>
  <g id="Layer_1-2" data-name="Layer 1">
    <rect class="cls-1" x="13.5" y="13.5" width="1617.7" height="464.46" rx="80.78" ry="80.78"/>
  </g>
  <g id="Layer_5" data-name="Layer 5">
    <g>
      <path class="cls-2" d="M336.73,348.57c0,7.78,1.6,15.37,1.6,19.96,0,12.17-28.14,16.76-39.32,16.76-4.59,0-5.99-.2-14.97-1.2-1.6-.2-3.39-.4-5.39-.4-15.57,0-29.54,4.39-42.91,4.39-14.97-1.4-26.94-5.19-36.32-5.19-6.59,0-10.98,2.79-16.37,2.79h-1.4c-.6,0-1.2-.2-1.6-.4-2,0-20.36-8.38-22.35-10.98-4.99-5.99-4.39-15.77-4.99-24.15-.6-6.19-2-12.97-2-19.16,0-13.57,21.16-24.75,40.92-40.12,15.57-12.37,33.53-30.94,49.5-40.52,14.37-8.98,33.33-11.98,33.33-33.93,0-13.17-8.98-18.96-8.98-28.94,0-2.59.4-4.99.4-7.38,0-4.79-3.99-8.78-3.99-16.37,0-1.4.4-2.2.4-3.59,0-2.99-.4-6.59-7.38-6.59-20.76,0-35.93,1.6-35.93,18.76s4.39,17.96,4.39,28.54c0,16.96-10.38,31.13-28.94,31.13-3.99,0-8.18-.4-12.17-.4-5.79,0-14.37,3.59-22.95,3.59-13.77,0-15.17-21.16-15.17-31.33,0-2.4.8-15.17.8-16.37,0-33.93,1.6-43.91,17.56-54.49,7.38-4.79,20.16-12.37,30.34-14.97,4.79-1.4,9.18-1.2,13.77-2.59,6.59-2.2,14.37-8.98,19.36-8.98,20.16,0,44.31,8.58,58.08,17.56,13.37,9.58,13.37,14.37,18.76,34.33,1.6,6.59,6.79,16.17,7.78,22.55.4,2,.6,4.19.6,6.79,0,2.4-.2,4.79-.2,6.99,0,2.99.2,6.19.8,9.18,1.4,8.58,4.39,13.37,4.39,19.56,0,9.58-7.58,14.77-14.57,23.35-8.38,10.58-10.78,16.96-18.96,22.35-16.17,11.78-39.52,23.35-56.68,39.32,15.97-.6,31.53-1.6,46.5-1.6,9.38,0,17.96.2,26.54,1.6,5.79,1,10.78,4.99,14.77,4.99h.8c2.99,0,7.78-1,11.98-1,10.38,0,9.78,10.38,12.97,20.16,0,3.99-2.79,9.78-2.79,15.97Z"/>
      <path class="cls-2" d="M601.18,276.92c0,5.79.4,10.18.4,14.37,0,9.58-4.39,33.93-11.78,42.51-2.59,3.79-19.16,9.18-24.95,13.97-6.39,4.79-16.77,17.56-24.15,22.35-2.99,2.39-7.98,3.59-12.57,6.59-6.39,4.39-7.19,9.38-13.57,9.38-10.18,0-27.34-3.19-42.11-3.19-11.78,0-21.95,6.39-28.94,6.39-8.18,0-18.96-4.19-29.14-6.39-8.58-1.6-22.15-2.4-30.14-4.99-4.59-1.6-7.19-6.99-15.17-10.18-17.56-6.39-24.95-2.2-24.95-27.34,0-12.77,2.4-21.36,7.38-21.36s11.18,4.59,14.37,4.59c8.78,0,10.58-18.76,10.58-35.53,0-15.77-1.2-31.93-1.2-40.12,0-6.59,2.79-10.18,2.79-18.36,0-11.18-1.6-25.75-1.6-38.52,0-6.59,2-21.36,2-27.74,0-8.78-28.54,1-28.54-20.56,0-18.56,46.7-30.54,59.68-36.33,8.98-3.79,17.36-8.98,21.95-8.98s7.78,2.99,11.98,2.99c6.39-.6,12.57-6.59,21.16-6.59,12.57,0,15.77,7.58,25.35,11.38,4.99,2.4,10.58,2,15.17,3.79,22.55,9.18,34.53,19.16,48.3,36.72,4.79,6.19,12.57,10.98,16.37,16.37,5.39,8.18,12.77,26.54,17.56,39.12,5.39,14.97,13.97,38.92,14.97,60.47v1.8c0,3.99-1.2,8.78-1.2,13.37ZM518.35,251.57c0-3.59-.2-6.99-.8-10.38-.6-3.39-2.2-9.78-4.79-19.16-1-2.99-1.6-6.19-2.2-9.58-2.79-14.17-2.4-26.15-7.78-36.52-1.6-2.99-4.99-5.59-7.38-8.98-2.99-3.19-4.19-7.58-6.59-9.78-2.2-2.2-8.58-3.59-13.97-7.78-9.38-7.38-10.58-16.37-21.95-16.37-8.18,0-17.16,3.39-17.16,5.39,0,4.39,1.6,15.97,1.6,18.76-.8,15.17-2.4,34.13-2.4,50.69,0,20.16,5.79,32.53,7.38,51.49,1.4,14.37,4.79,27.74,4.79,37.32,0,7.18-1.2,15.77-1.2,24.35,0,3.99.4,7.78,1.2,11.58,2.2-.2,8.18-.4,18.36-.4,13.57,0,24.55-.8,34.73-20.16,2.2-3.79,4.59-13.97,7.78-23.55,2.59-7.78,6.99-15.97,8.58-22.95,1.2-4.99,1.8-9.58,1.8-13.97Z"/>
    </g>
    <g>
      <path class="cls-2" d="M672.83,269.43c-10.88-1.13-14.16-7.9-14.98-18.88,0-2.77,1.33-5.44,1.33-8.83,0-3.8-.82-7.8-.82-11.6,0-9.34,1.95-37.36,4.82-43.11,2.36-4.82,6.06-6.88,10.26-6.88,10.98,0,14.47,9.13,14.47,23.5,0,3.18-.41,6.16-.41,9.03,0,11.49,5.75,22.68,5.75,30.69,0,1.23-.21,2.98-.21,4.21,0,5.03,1.44,8,1.44,10.57,0,1.23-.31,2.36-.82,3.49-2.26,3.39-14.98,7.8-20.83,7.8ZM672.83,161.56c-7.49,0-11.49-3.08-11.49-13.24,0-8.11,5.75-13.96,5.75-16.93,3.49-2.67,13.65-4.52,15.19-4.52,7.39,0,12.62,3.08,12.62,6.36,0,1.64-.41,3.59-.41,4.93.31,3.69,1.95,8.62,1.95,12.42,0,10.06-16.42,10.98-23.6,10.98Z"/>
      <path class="cls-2" d="M758.43,249.31c0,3.18-1.54,5.23-2.77,7.7-1.44,2.57-2.57,8.83-7.18,8.83-2.46,0-6.06-.41-8.83-.41-3.28,0-8.21.62-13.24.62h-2.05c-5.23,0-10.57,1.33-14.27,1.33s-9.03-3.8-9.03-10.37c0-5.64,10.67-4.82,10.67-10.67,0-5.44-2.57-14.16-2.57-20.42,0-5.03.21-10.06.21-15.29,0-28.33-3.49-45.77-3.49-68.76,0-9.24,2.46-15.09,15.91-15.09s18.06,5.34,18.06,17.14c0,5.34-1.03,9.85-1.03,15.6v5.64c0,6.77-2.05,13.75-2.05,21.86,0,11.08,1.23,22.68,1.23,34.89s-.41,18.27,2.36,18.27c2.05,0,5.03-1.23,7.49-1.23,6.36.41,10.57,3.9,10.57,10.37Z"/>
      <path class="cls-2" d="M816.21,249.31c0,3.18-1.54,5.23-2.77,7.7-1.44,2.57-2.57,8.83-7.18,8.83-2.46,0-6.06-.41-8.83-.41-3.28,0-8.21.62-13.24.62h-2.05c-5.23,0-10.57,1.33-14.27,1.33s-9.03-3.8-9.03-10.37c0-5.64,10.67-4.82,10.67-10.67,0-5.44-2.57-14.16-2.57-20.42,0-5.03.21-10.06.21-15.29,0-28.33-3.49-45.77-3.49-68.76,0-9.24,2.46-15.09,15.91-15.09s18.06,5.34,18.06,17.14c0,5.34-1.03,9.85-1.03,15.6v5.64c0,6.77-2.05,13.75-2.05,21.86,0,11.08,1.23,22.68,1.23,34.89s-.41,18.27,2.36,18.27c2.05,0,5.03-1.23,7.49-1.23,6.36.41,10.57,3.9,10.57,10.37Z"/>
      <path class="cls-2" d="M924.48,242.34c0,3.69-1.74,5.23-7.49,8.83-5.75,3.49-6.77,5.85-12.01,5.85s-9.65-3.49-9.65-10.06c0-1.95.21-4.62.21-7.39,0-3.59-.21-7.08-1.74-7.08-2.87,0-21.55,9.24-22.89,9.65-1.13.31-2.05.41-3.59.41-1.95,0-4.11-.21-6.47-.21-9.54,0-17.65,4.82-25.45,4.82-15.7,0-16.63-29.04-16.63-40.74,0-5.03,2.98-10.37,2.98-14.37,0-3.18-.41-6.47-.41-9.85,0-5.03,2.26-11.19,4.21-17.24,2.67-8.42,2.36-13.03,11.7-13.03,3.28,0,21.86,3.8,24.02,7.18.82,1.54,1.03,3.28,1.03,5.23,0,5.75-2.26,12.32-2.26,15.39,0,1.54.62,3.28.62,5.23-.31,2.05-1.23,4.21-1.54,5.85,0,2.98.92,7.18.92,11.19s-1.54,7.18-1.54,8.62v.41c.31,5.85.72,6.67,4,6.67,11.39,0,23.71-1.03,29.87-4.21,1.23-1.23,1.64-4.93,1.74-7.08v-2.16c0-2.36-.31-5.34-.31-6.47,0-13.96-1.44-23.6-1.44-28.43,0-2.46,2.57-9.03,8.21-9.03s10.88,3.8,10.88,7.8c0,1.64-.41,4-.41,6.06,0,7.49,3.39,18.37,3.39,24.43,0,3.18-.82,5.85-.82,8.62,0,6.57,5.03,10.26,6.67,14.06,1.13,2.77,1.44,7.59,2.57,11.8,1.13,4.41,1.64,7.08,1.64,9.24Z"/>
      <path class="cls-2" d="M1013.87,258.34c-2.36,2.77-3.49,6.47-5.23,8.42-.1.41-6.26,4.62-5.95,4.62-1.23.72-2.67.62-4.41.62-3.28,0-7.29-.62-11.08-.62s-7.59,1.85-11.6,1.85c-3.39,0-6.67.21-10.06.21-15.7,0-27.4-3.18-33.46-18.88-1.33-3.18-.72-8.31-1.23-12.42-1.13-5.44-2.36-9.24-2.36-12.62,0-7.39,8.21-12.21,18.37-12.21,5.44,0,6.67,0,13.24,5.23,1.23,1.33,3.69,2.57,4.41,3.39,1.85,2.46,1.54,7.08,4.62,9.03,2.67,2.98,7.08,1.95,7.08,6.98,0,1.23-.21,2.26-.21,3.39,0,4.41,5.03,6.67,8.83,6.67,4.82,0,10.98-3.39,10.98-10.06,0-2.57-1.54-5.85-1.54-9.85,0-1.95.21-4.21.21-5.95,0-9.54-26.48-10.16-38.38-16.32-2.16-1.13-4.21-3.59-6.57-5.34-5.85-4.41-10.67-6.47-10.67-18.27,0-21.35,11.91-23.3,30.89-25.25,4.21-.41,9.24-1.03,14.06-1.03,6.77,0,20.53,5.34,25.45,16.63,1.44,3.39,2.67,4.21,2.67,7.18-1.13,6.67-4.62,7.29-11.7,7.29h-1.95c-.62,0-1.03-.1-1.23-.21-5.64-1.03-14.47-10.06-19.5-10.88-1.95-.41-3.8-.62-5.34-.62-6.26,0-10.26,2.87-10.26,6.47,0,4.41,10.67,10.98,12.42,11.6.41.1.92.21,1.64.21h1.13c.82,0,1.54.1,2.26.41,1.23.41,2.05,1.54,3.39,1.85,3.39,1.13,7.49,1.03,10.88,2.16,20.83,6.26,23.71,12.83,26.68,37.56.41,3.59,1.54,5.64,1.54,8.01,0,1.13-.31,2.26-.82,3.59-1.13,2.57-4.52,4-7.18,7.18Z"/>
      <path class="cls-2" d="M1110.35,177.58c0,4.82-4,11.6-9.85,11.6-1.33,0-2.77-.21-4-.21-4.11,0-8.42,1.85-10.37,1.85-2.05,0-4.52-.62-6.88-.62-7.7,0-7.18,3.18-7.18,10.98,0,12.73-2.67,29.35-2.67,40.95,0,3.59.41,6.67.41,9.65,0,.82-.21,1.95-.21,2.77-.51,1.95-5.54,15.09-7.8,16.83-1.13.72-2.67.82-4.62.82-9.34,0-13.44-2.87-13.44-9.03,0-2.57.41-5.44.41-7.8,0-15.39-4.41-38.28-4.41-61.99-1.95.41-3.8.62-5.44.62-7.8,0-14.16-4.21-14.16-11.6,0-9.44,8.83-9.54,18.17-11.7v-3.8c0-12.32-4-21.14-4-29.87s2.16-10.88,9.85-13.65c3.28-1.33,10.78-2.98,17.24-2.98,7.7,0,15.5,1.23,15.5,17.04,0,4.21-.1,9.03-.82,11.8-.82,3.69-4,6.47-4,8.93v.31c0,1.54.62,4.11.62,5.64,0,2.16-1.23,3.7-1.23,5.23,0,1.95,2.16,2.16,6.16,2.16,11.19,0,16.32-2.36,23.71-2.36,1.64,0,3.39.1,4.62.82,2.98,1.74,4.41,4.21,4.41,7.59Z"/>
      <path class="cls-2" d="M1203.64,209.8c0,1.13.21,1.75.21,2.87,0,8.31-8.01,8.11-16.83,10.57-3.18.82-6.88,2.26-10.26,2.26-8.52,0-8.83-8.83-8.83-14.27,0-1.64.21-3.8.21-6.16,0-4.11.41-13.03-6.47-13.03-3.9,0-8.42,3.18-10.37,4-4,1.85-11.8,3.9-11.8,7.59,0,6.26,6.77,21.45,6.77,23.3,0,.92-.62,1.74-.62,2.98,0,3.8,2.46,8.83,2.46,14.06,0,1.75-.51,11.91-1.85,14.37-1.44,2.26-3.8,1.64-6.47,3.28-5.95,3.8-4,6.57-12.42,6.57-11.8,0-15.6-5.64-15.6-18.88,0-9.03,3.49-17.65,4.62-27.4.72-6.57,1.23-14.68,1.23-21.24,0-2.77-.21-5.85-.62-9.24-.31-1.64-1.23-3.28-1.23-4.82,0-4.21,2.26-9.24,2.57-13.86,0-2.36-.92-3.49-.92-5.03,0-5.75,4.11-7.29,5.64-7.49.31-.1.51-.1.62-.1,2.46,0,4.52.51,6.06,1.54,4.41,3.39,4.72,9.24,5.13,14.16.31,3.18.51,5.54,2.16,5.54,2.46,0,7.08-4.41,6.67-4l2.67-2.05c1.54-1.13,3.39-2.57,4.93-3.39,2.36-1.54,5.44-1.64,7.8-3.18,2.05-1.54,4.21-3.49,5.85-4.62,3.18-1.33,10.37-2.77,14.37-2.77s4.82,3.08,9.03,4.21c5.34,1.74,14.47.21,14.47,11.08v.51c0,5.34,2.57,7.7,2.57,10.98,0,1.54-.31,3.28-.31,5.03,0,2.77,1.54,6.26,1.54,8-.31,2.67-2.98,3.18-2.98,8.62ZM1143.29,177.78q.1,0,.21-.1c.1-.1.21-.21.41-.31h-.21l-.41.41Z"/>
      <path class="cls-2" d="M1310.68,214.42c0,9.75-1.13,19.81-2.36,29.15-.41,2.98-1.23,6.26-1.23,8.62,0,5.03,1.44,9.85,1.44,13.85,0,1.75-4.21,13.03-14.88,13.03-6.16,0-7.8-4-7.8-9.44,0-3.8.82-8.42,1.64-13.03-3.18.72-6.26,2.98-9.03,4.62-12.01,7.08-23.09,16.83-44.34,16.83-.31,0-1.85.1-2.57.1-1.74,0-6.47-.1-9.65-1.95-5.95-5.95-11.49-19.4-11.49-20.83-.1-.31-.21-1.03-.21-1.95,0-5.64,2.05-13.24,2.05-14.47,0-3.39-.82-6.47-.82-10.26,0-1.74.1-3.8.82-5.95,0-.21,3.18-7.7,4-8.31,1.95-1.64,6.98-1.95,10.98-3.8,3.18-1.54,5.64-4.41,7.7-5.23,1.33-.72,4-.82,6.57-1.95,3.69-1.13,10.78-4.1,16.22-4.62,1.23,0,3.08.62,5.64.62,1.95,0,4.62-1.23,8.42-1.23s7.7.82,9.65.82c1.54,0,1.64-1.03,1.64-2.26,0-4.11-3.9-11.91-4.62-12.83-2.05-2.57-4.82-4-6.88-4-2.16,0-4.21.82-6.77.82-1.95,0-3.9-.41-5.85-.41-9.24,0-25.86,10.98-32.33,12.62-1.74.41-3.8.82-5.54.82-2.16,0-8.83-5.03-8.83-9.44,0-6.67,8.01-7.7,13.03-10.78,3.18-1.95,8.01-4.72,10.98-7.08,3.18-2.57,3.9-4.82,5.85-5.95s6.67-1.95,10.26-3.08c2.26-.82,8.52-3.39,10.78-3.39h.41c5.13,1.85,13.75,1.75,20.22,3.39,1.13.31,1.95,1.44,3.08,1.85,10.16,2.98,12.73,4.41,18.27,25.86.51,2.46,2.46,4.41,3.18,6.47,1.85,5.54,2.36,16.63,2.36,22.78ZM1286.46,225.71c0-7.08-.51-8.62-2.67-8.62-.82,0-1.44.21-1.95.31-.31.1-.51.21-.82.31-1.13-.1-3.08-.21-5.85-.21-7.59,0-12.52,2.05-19.4,3.39-9.85,2.46-16.83.31-16.83,11.6,0,5.75,3.08,7.29,8.83,7.29,3.49,0,9.54-2.67,15.19-4l3.39-.72c3.49-.62,7.39-1.33,9.65-1.74.51-.1,2.26-.31,5.34-.62,2.05-.1,4.11-.41,4.31-.62.72-.72.82-3.39.82-6.36Z"/>
      <path class="cls-2" d="M1403.16,177.58c0,4.82-4,11.6-9.85,11.6-1.33,0-2.77-.21-4-.21-4.11,0-8.42,1.85-10.37,1.85-2.05,0-4.52-.62-6.88-.62-7.7,0-7.18,3.18-7.18,10.98,0,12.73-2.67,29.35-2.67,40.95,0,3.59.41,6.67.41,9.65,0,.82-.21,1.95-.21,2.77-.51,1.95-5.54,15.09-7.8,16.83-1.13.72-2.67.82-4.62.82-9.34,0-13.44-2.87-13.44-9.03,0-2.57.41-5.44.41-7.8,0-15.39-4.41-38.28-4.41-61.99-1.95.41-3.8.62-5.44.62-7.8,0-14.16-4.21-14.16-11.6,0-9.44,8.83-9.54,18.17-11.7v-3.8c0-12.32-4-21.14-4-29.87s2.16-10.88,9.85-13.65c3.28-1.33,10.78-2.98,17.24-2.98,7.7,0,15.5,1.23,15.5,17.04,0,4.21-.1,9.03-.82,11.8-.82,3.69-4,6.47-4,8.93v.31c0,1.54.62,4.11.62,5.64,0,2.16-1.23,3.7-1.23,5.23,0,1.95,2.16,2.16,6.16,2.16,11.19,0,16.32-2.36,23.71-2.36,1.64,0,3.39.1,4.62.82,2.98,1.74,4.41,4.21,4.41,7.59Z"/>
      <path class="cls-2" d="M1498.4,251.16c0,4.41-1.03,3.59-4,7.39-3.28,5.23-5.95,12.11-13.96,12.11-4.93,0-11.49-1.64-15.91-1.64-9.44,0-19.4,0-28.02-2.05-5.64-1.64-13.24-2.36-17.45-5.75-11.7-11.7-13.14-27.5-14.27-53.98-.31-4.62-1.23-9.24-1.23-11.6,0-1.13,1.44-3.8,1.85-5.85.31-1.33.51-2.77.51-4.11,0-.31-.1-.72-.1-1.13,0-1.03.1-1.64.21-1.95.82-1.85,5.64-5.44,7.8-8.42,2.87-4.11,33.05-15.09,51.93-15.5,5.23,0,13.44,4.21,17.65,8.42,1.13,1.13,1.95,4.21,3.18,5.85,4.41,5.65,4.41,6.57,4.41,8.62v1.44c0,.92.1,2.05.21,3.39.31,3.8.41,7.39.41,11.19,0,7.9-8.62,9.13-20.22,14.68-4.82,2.36-10.67,3.18-15.29,3.18h-.82c-.21,0-.51-.1-.82-.21h-.31c-1.64,0-9.44,3.39-16.11,3.39-4.41,0-8.21,2.87-8.21,4.41,0,5.34,2.87,9.85,8.21,10.88,3.39,1.54,6.47,1.85,9.65,1.85,5.23,0,10.57-1.23,17.86-1.23,3.39,0,5.44,1.23,8.21,1.23,5.85,0,11.39-2.67,15.5-2.67,5.34,0,7.29,3.59,8.42,11.08.31,2.77.72,5.03.72,6.98ZM1458.37,194.61c0-8.21-3.28-13.03-5.23-13.03-5.34,0-22.99,4.62-24.94,7.59-.72,1.13-.92,3.28-.92,6.06,0,5.75.62,9.03,2.57,9.03,2.46,0,6.36-1.85,7.59-2.05,6.16-1.13,18.88-.62,20.53-5.23.31-.72.41-1.54.41-2.36Z"/>
    </g>
    <g>
      <path class="cls-2" d="M711.46,382.78c-1.47,1.72-2.17,4.02-3.25,5.23-.06.25-3.89,2.87-3.7,2.87-.77.45-1.66.38-2.74.38-2.04,0-4.53-.38-6.89-.38s-4.72,1.15-7.21,1.15c-2.1,0-4.15.13-6.25.13-9.76,0-17.03-1.98-20.79-11.74-.83-1.98-.45-5.17-.77-7.72-.7-3.38-1.47-5.74-1.47-7.85,0-4.59,5.1-7.59,11.42-7.59,3.38,0,4.15,0,8.23,3.25.77.83,2.3,1.59,2.74,2.1,1.15,1.53.96,4.4,2.87,5.61,1.66,1.85,4.4,1.21,4.4,4.34,0,.77-.13,1.4-.13,2.1,0,2.74,3.13,4.15,5.49,4.15,3,0,6.82-2.11,6.82-6.25,0-1.59-.96-3.64-.96-6.12,0-1.21.13-2.62.13-3.7,0-5.93-16.46-6.31-23.85-10.14-1.34-.7-2.62-2.23-4.08-3.32-3.64-2.74-6.63-4.02-6.63-11.35,0-13.27,7.4-14.48,19.2-15.69,2.61-.26,5.74-.64,8.74-.64,4.21,0,12.76,3.32,15.82,10.33.89,2.1,1.66,2.62,1.66,4.46-.7,4.15-2.87,4.53-7.27,4.53h-1.21c-.38,0-.64-.06-.77-.13-3.51-.64-8.99-6.25-12.12-6.76-1.21-.25-2.36-.38-3.32-.38-3.89,0-6.38,1.79-6.38,4.02,0,2.74,6.63,6.83,7.72,7.21.26.06.57.13,1.02.13h.7c.51,0,.96.06,1.4.25.77.26,1.28.96,2.1,1.15,2.1.7,4.66.64,6.76,1.34,12.95,3.89,14.73,7.97,16.58,23.34.26,2.23.96,3.51.96,4.97,0,.7-.19,1.4-.51,2.23-.7,1.59-2.81,2.49-4.46,4.46Z"/>
      <path class="cls-2" d="M778.36,378.31c0,2.74-.64,2.23-2.49,4.59-2.04,3.25-3.7,7.53-8.67,7.53-3.06,0-7.14-1.02-9.89-1.02-5.87,0-12.05,0-17.41-1.28-3.51-1.02-8.23-1.47-10.84-3.57-7.27-7.27-8.16-17.09-8.87-33.55-.19-2.87-.77-5.74-.77-7.21,0-.7.89-2.36,1.15-3.64.19-.83.32-1.72.32-2.55,0-.19-.06-.45-.06-.7,0-.64.06-1.02.13-1.21.51-1.15,3.51-3.38,4.85-5.23,1.79-2.55,20.54-9.38,32.27-9.63,3.25,0,8.36,2.61,10.97,5.23.7.7,1.21,2.62,1.98,3.64,2.74,3.51,2.74,4.08,2.74,5.36v.89c0,.57.06,1.28.13,2.1.19,2.36.26,4.59.26,6.95,0,4.91-5.36,5.68-12.56,9.12-3,1.47-6.63,1.98-9.5,1.98h-.51c-.13,0-.32-.06-.51-.13h-.19c-1.02,0-5.87,2.1-10.01,2.1-2.74,0-5.1,1.79-5.1,2.74,0,3.32,1.79,6.12,5.1,6.76,2.1.96,4.02,1.15,6,1.15,3.25,0,6.57-.76,11.1-.76,2.1,0,3.38.76,5.1.76,3.64,0,7.08-1.66,9.63-1.66,3.32,0,4.53,2.23,5.23,6.89.19,1.72.45,3.12.45,4.34ZM753.49,343.17c0-5.1-2.04-8.1-3.25-8.1-3.32,0-14.29,2.87-15.5,4.72-.45.7-.57,2.04-.57,3.76,0,3.57.38,5.61,1.59,5.61,1.53,0,3.95-1.15,4.72-1.28,3.83-.7,11.74-.38,12.76-3.25.19-.45.26-.96.26-1.47Z"/>
      <path class="cls-2" d="M837.23,351.4c-3.06,1.85-7.65,4.21-11.74,4.21-11.1,0-6.7-13.33-11.23-16.58-.96-.7-3.13-.96-5.36-.96-3,0-5.93.38-6.06.51-2.23,1.21-2.23,7.91-2.74,10.46-.51,3.57-1.79,7.21-1.79,10.46,0,1.85,2.49,8.48,4.53,9.7,1.53.89,5.74.25,8.1.76,4.59,1.02,9.18,3.64,13.46,3.64,4.02,0,6.31-1.4,9.18-4.02,1.47-1.47,2.42-3.57,4.97-3.57,2.23,0,2.87,2.23,2.87,5.1,0,6.44-1.85,11.86-8.23,15.44-.51.32-1.02.45-1.59.45h-.51c-.57,0-1.08.13-1.59.32-3,1.53-4.02,4.85-8.87,4.85-2.23,0-4.72-1.15-7.59-1.98-2.55-.7-5.17-.06-6.89-.76-3.44-1.21-9.57-6.25-14.54-9.7l-2.49-1.66c-1.98-1.34-2.62-2.3-4.4-6-1.21-2.49-2.1-4.34-2.1-5.87,0-2.49.51-5.8.51-9.06,0-2.62-.38-5.23-.38-7.85,0-2.36.26-4.66.77-6.76.26-.77,1.21-1.4,1.72-2.36,1.21-2.61,1.98-6.06,3.51-8.1,1.85-2.3,7.21-8.36,10.08-8.36,2.61,0,6,.89,8.61.89,5.36,0,1.59-3.38,8.48-3.38,1.34,0,3,.06,4.72.25,11.61,1.02,13.2-2.17,21.43,14.22,1.02,2.23,2.36,6.44,2.36,8.1-.32,4.34-6.38,7.21-7.21,7.59Z"/>
      <path class="cls-2" d="M899.79,332.58c0,3-2.49,7.21-6.12,7.21-.83,0-1.72-.13-2.49-.13-2.55,0-5.23,1.15-6.44,1.15-1.28,0-2.81-.38-4.27-.38-4.78,0-4.46,1.98-4.46,6.82,0,7.91-1.66,18.24-1.66,25.45,0,2.23.26,4.15.26,6,0,.51-.13,1.21-.13,1.72-.32,1.21-3.44,9.38-4.85,10.46-.7.45-1.66.51-2.87.51-5.8,0-8.36-1.79-8.36-5.61,0-1.59.26-3.38.26-4.85,0-9.57-2.74-23.79-2.74-38.52-1.21.26-2.36.38-3.38.38-4.85,0-8.8-2.62-8.8-7.21,0-5.87,5.49-5.93,11.29-7.27v-2.36c0-7.65-2.49-13.14-2.49-18.56s1.34-6.76,6.12-8.48c2.04-.83,6.7-1.85,10.72-1.85,4.78,0,9.63.77,9.63,10.59,0,2.62-.06,5.61-.51,7.33-.51,2.3-2.49,4.02-2.49,5.55v.19c0,.96.38,2.55.38,3.51,0,1.34-.77,2.3-.77,3.25,0,1.21,1.34,1.34,3.83,1.34,6.95,0,10.14-1.47,14.73-1.47,1.02,0,2.1.06,2.87.51,1.85,1.08,2.74,2.62,2.74,4.72Z"/>
      <path class="cls-2" d="M910.12,389.67c-6.76-.7-8.8-4.91-9.31-11.74,0-1.72.83-3.38.83-5.49,0-2.36-.51-4.85-.51-7.21,0-5.8,1.21-23.22,3-26.79,1.47-3,3.76-4.27,6.38-4.27,6.82,0,8.99,5.68,8.99,14.61,0,1.98-.26,3.83-.26,5.61,0,7.14,3.57,14.1,3.57,19.07,0,.76-.13,1.85-.13,2.61,0,3.13.89,4.98.89,6.57,0,.77-.19,1.47-.51,2.17-1.4,2.1-9.31,4.85-12.95,4.85ZM910.12,322.63c-4.66,0-7.14-1.91-7.14-8.23,0-5.04,3.57-8.67,3.57-10.52,2.17-1.66,8.48-2.81,9.44-2.81,4.59,0,7.85,1.91,7.85,3.95,0,1.02-.26,2.23-.26,3.06.19,2.3,1.21,5.36,1.21,7.72,0,6.25-10.21,6.82-14.67,6.82Z"/>
      <path class="cls-2" d="M983.91,351.91c0,3.95-2.3,8.04-3,12.31-.06.45-.13,1.47-.13,3.06,0,1.08-.06,2.17-.26,2.93-.45,2.1-1.91,4.72-3.13,6.95-3.57,6.63-4.72,8.87-14.22,8.87-8.1,0-17.22-1.85-22.13-4.08-5.8-2.55-6.19-5.1-9.25-14.1-1.53-4.59-3.13-9.12-3.13-12.88v-.7c0-2.68.83-7.78,1.85-9.76.83-1.98,2.42-2.62,2.42-4.59,0-1.15-.51-1.66-.77-2.62-.06-.25-.13-.57-.13-.89,0,0,.13-.25.32-.7.77-2.36,4.02-9.38,7.65-9.38h1.98c2.36,0,7.02,1.15,11.48,1.15,3.89,0,8.04-.38,11.61-.38,10.27,0,9.5,5.68,11.35,9.7.7,1.53,2.74,3.12,4.08,5.61.7,1.21.57,3.13,1.28,4.4.7,1.85,1.79,2.62,1.98,3.7,0,.51.13.89.13,1.4ZM968.92,346.17c0-2.74-.96-8.36-7.84-8.36-2.1,0-4.46.64-6.57.64-1.02,0-2.17-.13-3.25-.13-5.93,0-7.14,5.23-7.14,11.54,0,8.16,1.15,10.46,4.15,11.99,1.34.51,1.98.25,3.25.76,1.47.51,1.53,2.11,3,2.11.57,0,1.34-.13,2.1-.13,2.1,0,2.81,1.72,3.83,1.72.51-.19,6.95-3.7,7.14-4.08.83-1.34.77-6.5.96-8.48.19-1.72.38-4.85.38-7.59Z"/>
      <path class="cls-2" d="M1047.43,370.21c0,1.72.38,3.38.38,4.97,0,.57-1.34,5.17-4.46,6.38-1.98.83-5.42.25-8.48.77-2.1.45-3.51,1.08-5.23,1.08-6.06,0-5.8-7.59-6.12-11.93-.25-2.87-.77-4.91-.96-6.89,0-1.21.19-2.17.19-3.12,0-4.46-.57-7.72-6.44-7.72-4.08,0-10.21,2.23-10.21,7.08,0,.96.57,2.04.57,3.38,0,2.36-.83,4.98-.83,7.27,0,3.57.83,6.7.83,8.93,0,5.87-.96,8.87-5.93,8.87-3.89,0-6.12-1.85-6.12-5.74,0-1.47.13-3,.13-4.72,0-4.59-2.3-5.49-3.51-10.59-.06-.13-.13-.45-.13-1.02,0-.96.13-2.23.13-3.51,0-6.76-2.1-16.07-2.1-23.15,0-6.38,6.06-7.84,10.84-7.84s7.59,2.74,7.59,6.31c0,1.21-.26,2.55-.26,3.89,0,.96.19,2.49,1.15,2.49,1.79,0,10.27-3.06,11.54-3.38,1.4-.25,2.68-.38,3.76-.38h.83c1.08,0,2.04-.13,2.93-.45,3.89-1.02,4.4-2.17,7.97-2.17,5.74,0,4.53,2.81,6.57,5.04,2.62,2.93,5.87,3.25,5.87,6.44,0,1.21-.51,2.36-.51,4.15,0,2.23.77,4.72.77,7.21,0,2.87-.77,5.74-.77,8.36Z"/>
    </g>
  </g>
</svg>