<?xml version="1.0" encoding="UTF-8"?>
<svg id="Layer_2" data-name="Layer 2" xmlns="http://www.w3.org/2000/svg" viewBox="0 0 510.96 820.17">
  <defs>
    <style>
      .cls-1 {
        fill: #37489e;
      }

      .cls-2 {
        fill: none;
        stroke: #37489e;
        stroke-miterlimit: 10;
        stroke-width: 4px;
      }
    </style>
  </defs>
  <g id="Layer_1-2" data-name="Layer 1">
    <g>
      <path class="cls-1" d="M27.53,381.33c.54-1.3.52-2.79.86-4.18.88-4.25,2.29-8.36,4.28-12.26,2.6-4.89,5.93-9.68,8.7-14.47,16.51-28.19,31.82-57.27,46.6-86.25,7.79-16.25,15.06-32.53,17.51-50.18,1.27-12.77.21-25.57-.24-38.85-1.69-38.39-5.44-79.33-1.24-117.72,2.56-20.23,7.87-46.5,30.25-53.57,18.62-6.48,38.92-5.02,55.36,6.32,39.04,26.78,54.61,94.76,66.38,138.36,7.35,27,13.46,58.64,25.33,83.74,2.41,4.54,5.51,9.95,9.88,12.56,1.23.66,4.48,1.61,5.87,2.1,47.3,14.75,95.62,26.25,143.78,37.88,0,0,16.14,3.75,16.14,3.75,5.8,1.39,11.4,3.73,16.34,7.11,9.34,6.23,16.47,15.79,19.7,26.55,12.34,43.68,19.2,89.23,17.73,134.72-.88,22.3-3.21,44.57-5.9,66.71-6.67,49.9-15.06,99.66-31.12,147.64-1.98,5.46-4.25,11.45-6.88,16.66-.69,1.31-1.81,3.37-2.64,4.61-1.02,1.64-2.34,3.3-3.67,4.72-6.95,6.76-15.99,11.83-24.32,15.92-15.49,7.56-31.51,13.35-47.78,18.73-3.47,1.22-6.1,1.81-8.4,2.99-10.47,5.19-18.47,14.27-27.45,22.37-5.23,4.9-11.62,10.4-18.38,14.42-14.02,7.68-28.66,13.63-43.35,19.47-31.86,12.25-64.55,22.36-98.55,27.02-25.3,3.14-53.18,3.92-76.74-8.25-4.22-1.99-8.3-5.24-12-8.03-6.56-4.94-13.75-10.72-19.93-16.14-23.96-20.79-45.46-45.1-59.95-73.57-8.02-15.5-13.71-32.55-16.68-49.77-3.92-22.14-5.34-44.71-6.38-67.13-1.2-36.14-1-72.55,3.23-108.51.27-2.33.74-5.96,1.17-8.34.44-2.49.85-5.92,1.45-8.33,3.64-16.61,16.99-71.35,21.05-88.79h0ZM29.98,381.82c-2.17,11.95-12.65,70.93-14.52,81.61-1.37,7.99-2.33,16.08-2.75,24.19-1.66,30.02-.17,60.26,2.21,90.21,3.08,32.15,6.08,65.04,15.48,95.7,15.83,47.12,53.23,83.15,93.01,111.24,36.62,23.18,119.32-3.49,158.2-17.85,12.54-4.74,25.01-9.68,36.96-15.47,1.93-.89,4.08-2.18,5.78-3.26,15.7-10.98,28.36-27.93,46.89-35.82,9.18-3.28,16.53-5.21,25.32-8.31,14.52-5.08,29.78-10.69,42.6-18.89,1.92-1.19,3.56-2.63,5.23-4.07.07-.12.12-.22.24-.28,0,0,.16-.24.16-.24.17-.23.5-.77.68-1,5.25-9.38,8.76-20.61,12.19-31.11,6.44-20.7,12.08-41.87,17.06-63.04,9-38.6,16.64-77.67,20.99-117.11,2.68-25.64,2.74-51.48.5-77.29-1.86-21.73-5.3-43.4-10.47-64.66-.6-2.52-1.36-4.87-2.38-7.22-4.92-11.71-15.67-20.6-28.03-23.47-50.72-11.74-111.51-24.7-161.49-38.19-2.3-.67-5.68-1.55-7.82-2.59-9.14-4.99-13.91-13.93-18.38-22.75-7.34-15.32-12.39-31.55-17.45-47.55-9.35-30.08-19.1-64.83-30.83-93.65-6-14.82-12.67-29.1-21.64-42.06-13.19-19.28-30.66-32.07-54.22-23.72,0,0-1.64.58-1.64.58,0,0-.82.29-.82.29-2.83,1.13-4.6,3.37-6.17,6.41-5.98,12.87-6.5,28.82-6.92,43.18-.65,43.6,6.44,88.32,5.36,132.35-.62,18.39-7.39,36.13-15.04,52.51-6.25,12.91-13.2,25.35-21.25,37.19-14.12,21.03-31.23,39.85-48.68,58.06-2.99,3.23-8.54,8.55-11.26,11.94-2.46,3.08-4.49,6.59-5.96,10.28-.44,1.26-1.13,2.52-1.13,3.86h0Z"/>
      <path class="cls-1" d="M34.82,380c58.11-25.42,104.37-65.43,110.79-131.52,1.86-15.37.46-31.23.46-46.74-.07-24.06-.88-48.12,1.84-72.12,2-16.68,7.01-37.26,25.39-42.7,8.58-2.6,17.79-3,26.55-1.22,42.08,8.37,83.06,64.15,109.21,96.58,14.61,18.8,28.54,37.75,43.08,56.43,22.43,27.7,49.69,63.34,84.71,73.64,14.61,4.13,30.22,1.71,43.99-5.04,0,0,1.11,1.78,1.11,1.78-20.99,16.97-47.57,17.73-71.54,6.45-58.44-27.53-107.77-107.2-147.45-157.49-17.01-21.06-40.8-50.59-66.39-59.46-6.58-2.22-13.78-2.7-20.57-1.54-6.84,1.17-11.73,5.72-14.96,11.89-14.74,30.18-7.14,82.84-1.44,115.47,3.72,20.53,3.4,42.31-3.03,62.39-13.99,44.66-54.08,76.64-97.54,89.96-7.77,2.39-15.62,4.3-23.71,5.27l-.49-2.04h0Z"/>
      <path class="cls-1" d="M118.73,217.57c6.12-2.24,12.13-3.21,18.39-3.88,5.94-.47,11.82-.97,17.72.12,5.87,1.1,11.93,3.61,17.96,3.67,9.12.44,17.61-4.16,25.64-7.94,7.76-3.45,16.02-6.26,23.57-9.88,10.01-4.65,18.74-11.03,26.43-18.87,0,0,11.39,8.81,11.39,8.81-3.69,5.64-8.37,10.62-13.54,14.9-5.12,4.12-10.94,7.77-16.85,10.59-11.69,5.77-24.61,8.9-37.59,7.46-6.12-.49-12.57-.73-18.62.38-6.06.98-12.12,3.95-18.37,5.07-6.23,1.11-12.5.2-18.63-1.08-6.33-1.51-12.38-3.66-17.77-7.68,0,0,.28-1.68.28-1.68h0Z"/>
      <path class="cls-1" d="M146.06,240.08c7.84-.16,15.3.39,22.92,1.06,7.28.67,14.44,1.12,21.58,2.6,5.4,1.18,10.88,2.96,16.4,3.46,9.26.98,18.73-1.89,26.32-7.16,26.72-19.15,39.23-34.7,52.04-65.36,0,0,13.67,4.53,13.67,4.53-4.13,16.32-11.97,32.37-23.13,45.8-7.39,8.66-16.55,16.2-27.23,20.39-7.57,3.06-15.83,3.86-23.79,5.27-7.83,1.17-15.51,2.91-23.15,5.03-3.87,1.02-8,1.94-12,2.22-4.02.36-8.07,0-12.02-.75-7.9-1.45-15.54-4.11-22.52-8.12-3.48-2.06-6.83-4.33-9.77-7.4l.68-1.56h0Z"/>
      <path class="cls-1" d="M59.47,376.16c-3.14,20.75-7.21,45.91-9.82,66.52-1.71,13.26-3.27,26.66-3.84,39.98-.14,4.42-.25,8.89.41,13.13.09.86.44,2.19.7,3.03,1.86,5.36,3.07,10.98,3.95,16.55,2.03,12.29,4.12,34.18,5.57,46.83,1.09,8.82,1.98,17.82,4.56,26.33,8.53,25.5,20.02,49.95,28.69,75.45,7.85,25.6,15.31,51.56,27.68,75.38,2.03,4.05,4.59,7.84,6.17,12.1,4.98,12.82,4.09,27.29-.03,40.2,0,0-.38-.12-.38-.12,2.14-8.67,2.69-17.73,1.52-26.46-.62-4.93-2.12-9.65-4.19-14.1-1.78-3.45-4.01-6.7-5.87-10.11-10.98-19.82-18.68-41.12-25.04-62.75-3.54-13-8.08-25.47-12.82-38.09-5.85-15.69-12.1-31.57-16.94-47.62-3.01-9.67-3.66-20.06-4.7-30.06-1.78-17.78-3.3-35.79-7.62-53.13-.77-3.15-1.86-6.42-3.03-9.45-1.92-5.5-1.92-11.54-1.95-17.18.1-9.05.93-18.03,2.02-26.99,3.31-26.77,8.35-53.29,14.57-79.51,0,0,.39.08.39.08h0Z"/>
      <path class="cls-1" d="M47.49,377.17c-4.09,20.59-9.33,45.53-12.89,65.99-2.32,13.17-4.5,26.48-5.68,39.76-.35,4.41-.66,8.87-.2,13.13.05.86.34,2.21.56,3.06,1.61,5.44,2.56,11.11,3.18,16.72,1.46,12.37,2.53,34.34,3.4,47.04.68,8.86,1.15,17.89,3.33,26.51,7.34,25.86,17.68,50.83,25.17,76.7,6.65,25.94,12.9,52.22,24.15,76.58,1.84,4.14,4.22,8.04,5.61,12.37,4.38,13.04,2.82,27.45-1.89,40.15,0,0-.37-.14-.37-.14,3.62-12.7,4.55-26.7-.2-39.12-.73-2.05-1.78-3.95-2.79-5.89-9.89-17.83-16.41-37.27-21.94-56.75-2.45-8.61-4.24-17.49-6.59-26.08-2.35-8.59-5.08-17.13-7.82-25.66-5.11-15.94-10.62-32.1-14.71-48.36-2.56-9.79-2.72-20.2-3.31-30.24-1.19-20.01-1.56-40.43-6.74-59.86,0,0-1-3.14-1-3.14-1.66-5.58-1.38-11.62-1.15-17.25.52-9.03,1.76-17.97,3.27-26.87,4.54-26.58,10.81-52.84,18.24-78.75,0,0,.39.1.39.1h0Z"/>
      <path class="cls-1" d="M77.27,363.86c-4.39,33.36-8.1,67.22-5.52,100.86,1.36,14.34,3.24,28.82,5.27,43.06,1.54,11.22,3.69,22.37,5.11,33.65.66,2.86,2.06,5.52,3.26,8.29,2.01,4.35,4.13,8.69,6.25,13.02,8.5,17.4,17.19,34.74,23.82,53,1.61,4.6,3.14,9.25,3.99,14.15.78,4.81,1.52,9.51,2.46,14.26,5.68,28.24,12.12,56.81,23.35,83.43,1.94,4.41,4.34,8.52,6.86,12.67,12.31,20.59,24.97,41.59,37.42,62.07,0,0-1.67-.21-1.67-.21,44.82-46.33,93.61-96.25,138.93-142.37,29.17-29.8,50.86-65.75,71.3-101.88,7.55-12.71,14.33-26.18,24.57-37.11,3.65-3.56,7.88-6.01,11.83-9.11,21.88-16.42,47.78-37.78,69.16-55,0,0,.26.31.26.31-22.26,19.35-44.64,38.54-67.83,56.79-3.71,3.04-8.01,5.69-11.34,9.07-9.77,10.82-16.33,24.15-23.6,36.78-18.92,34.51-39.16,68.83-66.19,97.75-47.09,48.04-98.04,98.91-145.59,146.26,0,0-.98.97-.98.97-9.99-17.07-19.91-34.18-30.02-51.18-4.38-7.61-10.76-17.4-14.23-25.32-3.95-8.87-7.03-18.07-9.9-27.3-7.05-23.12-13.05-46.64-17.31-70.43-3.12-13.99-9.75-27.03-15.74-40.04-6.22-13.09-12.92-25.94-19.07-39.09-1.34-3.15-3.1-6.39-3.56-9.9-1.34-11.03-3.34-22.01-4.78-33.08-1.65-11.9-3.07-24.06-4.3-36.03-.45-4.63-.89-9.89-.99-14.54-.69-21.81,1.21-43.61,3.96-65.21,1.25-9.59,2.68-19.16,4.44-28.67,0,0,.39.07.39.07h0Z"/>
      <path class="cls-1" d="M94.59,353.05c-.24,30.04-1.94,64.23-1.31,94.21-.02.99.24,2.59.33,3.58,2.4,18.15,3.16,37.55,6.12,55.58,2.29,15.2,5.77,30.25,13.11,43.87,6.66,13.92,12.08,28.42,17.6,42.82,9.34,23.8,16.79,48.53,26.76,71.98,16.57,30.78,33.13,64.86,51.63,94.43,3.7,5.45,7.06,11.28,12.08,15.51.71.45,1.17.82,2.16.94,2.47.53,5,.91,7.53,1.3,10.13,1.47,20.35,2.54,30.58,3.53l-.02.4c-10.29-.33-20.56-.85-30.81-1.92-2.57-.3-5.13-.59-7.7-1.03-.55-.06-1.53-.3-2.18-.66-1.82-.99-3.34-2.51-4.73-3.97-3.59-3.88-6.6-8.1-9.51-12.38-19.88-30.05-36.15-62.38-52.56-94.37-9.33-22.29-17.31-50.04-25.28-73.02-5.05-14.52-9.97-29.15-16.63-43.02-2.25-4.55-4.61-9.26-6.31-14.12-2.5-6.75-4.69-15.3-6.32-22.33-4.73-20.67-6.51-41.86-9.03-62.85,0,0-.22-2.08-.22-2.08-.09-.71-.12-1.36-.13-2.01-.36-11.02.12-21.96.53-32.88.87-20.55,2.19-41.06,3.94-61.54,0,0,.4.02.4.02h0Z"/>
      <path class="cls-1" d="M105.7,346.85c9.85,39.78,19.28,80.12,24.64,120.78,3.96,30.47,7.65,61.19,16.43,90.73,3.73,12.14,8.09,24.33,15.53,34.71,10.27,14.75,20.21,29.85,29.38,45.3,9.13,15.51,18.12,31.46,23.52,48.76,8.39,21.02,24.93,38.42,44.02,50.33,14.06,8.65,30.07,14.1,46.48,16.12,0,0,3.82.38,3.82.38,0,0,1.91.19,1.91.19,0,0,1.92.11,1.92.11,0,0,3.84.21,3.84.21,0,0,0,.4,0,.4-10.3.26-20.69-.64-30.72-3.17-34.87-8.64-67.19-35.29-77.74-70.38-1.26-3.37-2.86-7.19-4.34-10.52-9.04-19.73-20.38-38.39-31.78-56.86-2.69-4.28-9.68-15.38-12.35-19.49-7.23-10.8-11.21-23.41-14.79-35.7-5.51-19.83-9.45-40.02-13.24-60.23-3.73-19.87-6.62-40.82-10.09-60.74-1.6-9.15-3.84-21.12-5.54-30.27-3.8-20.17-7.62-40.34-11.28-60.56,0,0,.39-.09.39-.09h0Z"/>
      <path class="cls-1" d="M125.76,330.2c9.35,39.82,17.94,80.34,25.62,120.52,2.81,15.14,5.32,30.3,9.18,45.2,6.23,24.95,18.18,47.87,30.72,70.18,10.12,17.85,20.33,35.66,31.16,53.03,10.88,17.03,22.14,34.54,36.94,48.32,3.72,3.31,7.72,6.28,12.17,8.01,4.83,1.87,9.59,3.88,14.29,6,14.08,6.41,27.99,13.27,41.09,21.53,6.52,4.19,13.07,8.57,18.45,14.24,3.53,3.84,5.84,8.61,8.23,13.21.94,2.06,1.96,4.18,2.18,6.47-.02.35.07.66-.24,1.1l-.26-.3c.06-.11.09-.49.04-.77-.36-2.19-1.49-4.15-2.51-6.1-1.85-3.3-3.93-6.62-6.16-9.66-2.32-2.97-5.29-5.36-8.28-7.66-16.6-11.81-35.43-20.42-54.08-28.53-4.71-1.97-9.44-3.91-14.2-5.7-5.18-1.96-9.57-5.2-13.54-8.65-7.79-7.02-14.3-15.18-20.38-23.62-17.86-25.25-32.57-52.52-46.81-79.87-11.8-22.81-23.33-45.99-30.38-70.78-8.45-29.55-13.94-60.16-19.96-90.28-4.78-25.03-9.55-50.67-13.65-75.8,0,0,.39-.08.39-.08h0Z"/>
      <path class="cls-1" d="M140.16,302.18c14.32,40.43,25.24,82.38,30.32,125.02,2.37,15.65,3.28,32.19,11.24,46.14,5.53,9.1,13.98,16.17,20.93,24.17,10.57,12.27,17.43,27.3,23.5,42.18,6.09,14.91,10.64,30.39,16.11,45.48.4.99.97,2.67,1.45,3.63,1.61,3.51,3.87,6.72,6.19,9.84,6.39,8.45,13.71,16.27,21.17,23.83,18.86,18.85,38.87,36.66,60.39,52.43,8.47,6.3,17.83,11.87,27.13,16.86,9.36,5.29,18.64,10.76,27.41,17,4.37,3.15,8.74,6.32,12.52,10.19,0,0-.29.27-.29.27-3.97-3.55-8.48-6.5-12.95-9.39-9.04-5.71-18.43-10.86-27.93-15.76-4.45-2.21-10.12-5.07-14.29-7.55-9.3-5.5-18.11-11.74-26.7-18.26-17.11-13.09-33.23-27.44-48.27-42.86-7.49-7.8-14.77-15.77-21.21-24.51-2.64-3.62-5.18-7.42-6.91-11.62-6.63-18.65-11.29-37.93-18.72-56.27-5.84-14.81-13.36-29.41-24.97-40.53-12.16-12.29-19.35-19.55-23.7-37.04-1.66-6.21-2.91-13.46-4.09-19.79,0,0-1.31-7.95-1.31-7.95-5.17-42.35-16.78-84.83-27.02-125.5h0Z"/>
      <path class="cls-1" d="M149.69,277.45c13.53,54.68,28.52,109.22,51.61,160.63,3.4,7.28,7.11,14.42,11.25,21.32,5.32,9.11,12.18,17.84,19.08,25.83,6.82,8.33,13.39,16.88,19.57,25.71,18.86,26.23,33.25,55.3,50.58,82.41,5.8,8.71,12.06,17.48,20.33,23.88,0,0,6.38,5.08,6.38,5.08,3.02,2.57,9.15,8.17,12.01,10.95,24.91,24.59,47.79,51.15,69.75,78.36,0,0-.31.26-.31.26-21.71-23.81-43.37-47.68-66.41-70.17-7.73-7.41-15.44-14.82-24.01-21.08-8.81-6.79-15.3-15.82-21.25-25-22.58-36.56-40.56-75.97-67.71-109.54-6.81-8.13-13.69-16.92-19.13-26.01-19.74-32.2-33.33-67.79-43.89-103.95-7.49-25.84-13.76-52.07-18.25-78.59,0,0,.39-.08.39-.08h0Z"/>
      <path class="cls-1" d="M200.46,251.3c.14,21.1.47,43.79,1.7,64.75,1.03,16.07,2.21,32.22,5.72,47.93,1.04,4.31,2.36,9.02,4.36,12.99,19.97,38.98,38.82,78.96,61.98,116.16,4.2,6.89,8.97,13.32,14.43,19.27,30.46,34.39,63.19,66.85,91.79,102.89,0,0,2.46,3.27,2.46,3.27,0,0,1.23,1.64,1.23,1.64l1.16,1.71c2.05,3.03,4.54,6.91,7.02,9.67,9.86,10.96,21.84,19.71,34,28.07,8.93,6.03,18.08,11.78,27.44,17.18,0,0-.19.35-.19.35-9.7-4.82-19.15-10.12-28.36-15.84-9.2-5.79-18.24-11.86-26.52-18.95-5.21-4.51-10.23-9.37-14.1-15.13-1.41-1.95-3.21-4.62-4.7-6.43-27.2-33.56-60.08-67.52-88.26-100.28-4.39-5.15-8.91-10.28-12.8-15.87-8.27-12.41-15.06-25.76-22.19-38.81-8.58-16.13-22.1-41.23-30.82-57.08,0,0-15.59-28.42-15.59-28.42l-.97-1.78c-.87-1.66-1.9-4.03-2.55-5.81-4.38-12.99-5.63-26.75-6.78-40.31-1.87-27.02-1.57-54.17.11-81.16,0,0,.4.02.4.02h0Z"/>
      <path class="cls-1" d="M211.68,254.43c13.6,53.62,26.72,107.47,46.72,159.06,3.35,8.1,7.15,16.08,11.53,23.67,8.56,13.92,19.67,26.06,29.89,38.76,28.83,34.26,58.81,69.44,88.52,103.01,3.35,3.65,6.54,7.45,10.3,10.66,7.65,6.37,15.78,12.43,23.75,18.48,0,0,48.16,36.48,48.16,36.48l-.23.33c-25.11-16.9-50.15-33.84-74.15-52.33-7.73-6.62-14.11-14.65-21-22.1-33.16-37.81-65.11-77.01-95.46-117.13-3.62-4.68-7.84-10.44-10.81-15.55-19.2-34.13-31.43-71.73-41.48-109.43-6.37-24.38-11.89-49-16.13-73.84,0,0,.39-.08.39-.08h0Z"/>
      <path class="cls-1" d="M224.93,247.48c.41.13.2.15.29.19l.06.1.1.2.2.39c1.48,3.02,4.04,8.74,5.47,11.9,12.97,28.97,26.39,60.41,38.69,89.69,7.12,17.18,14.08,34.44,21.99,51.27,7.65,17,18.52,32.2,28.62,47.78,15.57,23.08,30.85,46.45,48.69,67.79,5.21,6,10.46,12.11,16.91,16.76,16.75,10.9,56.81,36.48,73.25,47.15,6.47,3.97,16.92,11.11,23.72,14.62,0,0-.14.37-.14.37-8.54-3.83-16.5-8.67-24.62-13.27-24.68-14.27-48.98-29.19-73.14-44.32-2.56-1.68-4.9-3.59-7.14-5.64-4.31-4.04-8.32-8.47-12.03-12.99-17.7-21.75-32.75-45.45-47.34-69.3-5-8.47-17.12-27.54-21.61-35.92-10.69-20.69-20.53-41.81-30.21-62.98-14.57-32.82-27.97-66.69-40.6-100.29,0,0-.62-1.63-.62-1.63l-.32-.81-.16-.4s-.08-.2-.08-.2c0,0-.04-.09-.04-.09.05-.02-.18-.07.17,0l-.09-.39h0Z"/>
      <path class="cls-1" d="M236.87,243.59c26.72,44.31,51.13,90.99,73.31,137.77,6.96,13.74,15.7,33.33,22.92,46.65,4.09,7.6,8.94,14.75,13.8,21.85,22.51,31.36,51.72,58.44,86.22,76.08,15.04,8.12,30.84,16.2,46.17,23.85,0,0,11.67,5.75,11.67,5.75l-.16.37c-16.13-6.41-31.96-13.56-47.63-21.05-15.67-7.54-31.48-15.39-45.29-26.12-15.72-11.83-29.66-25.94-42.01-41.22-9.45-11.98-17.92-24.8-24.7-38.49-4-7.71-7.18-15.82-10.81-23.71-3.62-7.87-7.44-15.65-11.34-23.39-6.67-13.02-17.57-32.84-24.66-45.79-7.33-13.41-17.09-32.33-24.27-45.99-8-15.38-15.89-30.82-23.58-46.38,0,0,.35-.19.35-.19h0Z"/>
      <path class="cls-1" d="M245.04,239.64c18.09,32.7,40.7,74.37,58.45,107.3,11.62,21.37,24.45,42.5,39.3,61.74,4.97,6.4,10.19,12.67,15.99,18.15,12.19,10.59,25.53,20.07,38.7,29.44,26.68,18.5,53.59,36.97,82.41,51.99,7.24,3.46,14.58,7.41,22.67,8.25,0,0,0,.4,0,.4-8.28-.19-16.03-3.68-23.53-6.82-7.48-3.34-14.8-7.02-21.97-10.95-32.19-17.81-62.64-38.67-91.19-61.86-4.7-3.86-9.5-8.02-13.56-12.68-14.49-17.23-25.92-36.74-37.88-55.73-17.17-27.26-34.29-56.13-48.62-84.91-7.4-14.54-14.51-29.22-21.13-44.14l.36-.18h0Z"/>
      <path class="cls-1" d="M260.51,234.04c.22.03.23.1.29.13,0,0,.13.12.13.12l.23.24c.27.3.96,1.16,1.22,1.49,11.14,14.88,22.72,32.52,33.25,47.98,11.41,16.66,22.06,34.16,33.77,50.62,13.88,18.93,28.65,37.75,46.84,52.68,20.9,15.59,60.84,18.54,86.69,20.44,9.8.68,20.5.92,30.37,1.12,3.38.04,6.76.06,10.15.06l.02.4c-13.5,1.34-27.08,1.74-40.66,1.58-27.9-.74-65.94-3.33-88.76-20.81-7.97-6.53-14.61-14.44-21.05-22.36-7.41-9.09-17.47-22.84-24.64-32.34-7.17-9.59-17.39-23.01-24.23-32.64-11.6-16.44-22.68-33.95-33.14-51.13-2.79-4.53-7.31-12.34-10.19-16.8,0,0-.18-.24-.18-.24,0,0-.09-.11-.09-.11-.02-.03-.08-.04.03-.04l-.03-.4h0Z"/>
      <path class="cls-2" d="M19.21,428.45s96.75-38.23,118.84-63.7c22.09-25.48,88.98-72.14,115.86-72,26.88.14,80.8-17.59,81.59-28.12"/>
      <path class="cls-2" d="M10.35,470.51s106.96-56.42,127.66-78.22c20.7-21.8,97.97-64.56,118.43-69.24,20.45-4.69,97.73-47.62,114.24-47.36"/>
      <path class="cls-2" d="M6.44,544.53c3.1.41,75.7-69.05,105.85-87.71s57.7-61.62,57.7-61.62c0,0,101.14-60.2,123.26-63.96,22.12-3.77,85.56-47.57,85.56-47.57"/>
      <path class="cls-2" d="M32.73,691.73c7.25-2.91,166.06-157.72,191.01-214.98,24.95-57.25,75.65-99.08,93.66-104.26,18.01-5.19,75.55,21.14,98.02,7.17,22.47-13.98,44.04-64.44,44.04-64.44"/>
      <path class="cls-2" d="M14.33,639.08s122.33-95.75,143.04-128.2c20.71-32.45,46.16-94.16,65.89-115.19,19.72-21.03,94.89-55.76,112.63-57.24,17.75-1.48,66.44-35.67,66.44-35.67"/>
      <path class="cls-2" d="M52.45,741.56s116.02-132.63,162.22-150.89c46.19-18.26,69.27-149.32,88.02-159.53,18.75-10.21,88.92-22.51,108.39-23.45s76.99-47.51,80.52-74.82"/>
      <path class="cls-2" d="M83.67,769.26c.57.51,86.42-75.52,97.73-100.44,11.31-24.91,38.43-69.94,55.08-77.67s87.58-86.28,106.88-112.68c19.3-26.4,71.87-52.69,96.11-59.32,24.23-6.63,61.63-38.21,61.63-38.21"/>
      <path class="cls-2" d="M118.45,796.82s103.76-144.52,147.96-169.54c44.21-25.02,95.57-79.64,106-99.73,10.43-20.09,114.09-92.64,122.92-97.49,8.83-4.85,9.03-9.98,9.03-9.98"/>
      <path class="cls-2" d="M317.74,761.35s61.87-85.29,101.85-138.2c39.98-52.91,54.17-115.43,80.11-140.82"/>
    </g>
  </g>
</svg>