<?xml version="1.0" encoding="UTF-8"?>
<svg id="Layer_2" data-name="Layer 2" xmlns="http://www.w3.org/2000/svg" viewBox="0 0 399.9 290.28">
  <defs>
    <style>
      .cls-1 {
        letter-spacing: 0em;
      }

      .cls-2 {
        fill: #74a535;
        font-family: DFVN-FreckleFace-Regular, 'DFVN Freckle Face';
        font-size: 42.45px;
      }

      .cls-3 {
        fill: #fff099;
      }

      .cls-4 {
        fill: #d12026;
      }

      .cls-5 {
        letter-spacing: 0em;
      }

      .cls-6 {
        fill: #bf4b22;
      }

      .cls-7 {
        fill: #f36c32;
      }
    </style>
  </defs>
  <g id="Layer_1-2" data-name="Layer 1">
    <g>
      <path class="cls-7" d="M75.9,48.69s51.82-29.74,78.4,10.81,4.06,85.16-32.44,89.22c-36.5,4.06-82.01.45-85.61-46.86-3.6-47.31,39.65-53.17,39.65-53.17Z"/>
      <path class="cls-6" d="M87.14,62.59l8.66.12c.84.01,1.26,1.02.68,1.63l-5.37,5.55c-.24.25-.33.61-.23.94l.83,2.79c.28.95-.88,1.65-1.59.96l-3.78-3.66c-.26-.25-.64-.34-.99-.21l-5.93,2.1c-.95.34-1.71-.84-1.01-1.57l4.99-5.16c.27-.28.35-.7.19-1.06l-2.1-4.71c-.42-.95.75-1.8,1.52-1.1l3.5,3.15c.17.16.4.24.63.25Z"/>
    </g>
    <g>
      <path class="cls-7" d="M179.82,163.84s51.82-29.74,78.4,10.81c26.58,40.55,4.06,85.16-32.44,89.22-36.5,4.06-82.01.45-85.61-46.86-3.6-47.31,39.65-53.17,39.65-53.17Z"/>
      <path class="cls-6" d="M191.06,177.74l8.66.12c.84.01,1.26,1.02.68,1.63l-5.37,5.55c-.24.25-.33.61-.23.94l.83,2.79c.28.95-.88,1.65-1.59.96l-3.78-3.66c-.26-.25-.64-.34-.99-.21l-5.93,2.1c-.95.34-1.71-.84-1.01-1.57l4.99-5.16c.27-.28.35-.7.19-1.06l-2.1-4.71c-.42-.95.75-1.8,1.52-1.1l3.5,3.15c.17.16.4.24.63.25Z"/>
    </g>
    <g>
      <path class="cls-7" d="M323.57,45.65s58.6,11.62,52,59.66c-6.6,48.04-52.89,66.87-83.07,45.95-30.18-20.92-62.12-53.54-33.76-91.57,28.36-38.04,64.82-14.04,64.82-14.04Z"/>
      <path class="cls-6" d="M322.92,63.51l6.45,5.78c.63.56.28,1.6-.56,1.67l-7.7.66c-.34.03-.65.24-.79.56l-1.21,2.65c-.41.9-1.74.66-1.83-.32l-.45-5.24c-.03-.36-.26-.68-.6-.81l-5.85-2.31c-.94-.37-.74-1.76.27-1.85l7.16-.61c.39-.03.72-.3.83-.67l1.51-4.93c.3-.99,1.74-.86,1.87.16l.57,4.67c.03.23.14.44.31.6Z"/>
    </g>
    <g>
      <path class="cls-7" d="M123.91,151.33s58.6,11.62,52,59.66c-6.6,48.04-52.89,66.87-83.07,45.95-30.18-20.92-62.12-53.54-33.76-91.57,28.36-38.04,64.82-14.04,64.82-14.04Z"/>
      <path class="cls-6" d="M123.26,169.2l6.45,5.78c.63.56.28,1.6-.56,1.67l-7.7.66c-.34.03-.65.24-.79.56l-1.21,2.65c-.41.9-1.74.66-1.83-.32l-.45-5.24c-.03-.36-.26-.68-.6-.81l-5.85-2.31c-.94-.37-.74-1.76.27-1.85l7.16-.61c.39-.03.72-.3.83-.67l1.51-4.93c.3-.99,1.74-.86,1.87.16l.57,4.67c.03.23.14.44.31.6Z"/>
    </g>
    <g>
      <path class="cls-7" d="M256.44,160.95s46-38.13,79.1-2.69,18.49,83.23-16.78,93.44c-35.27,10.21-80.73,14.41-92.34-31.6s30.02-59.14,30.02-59.14Z"/>
      <path class="cls-6" d="M269.88,172.73l8.56-1.36c.83-.13,1.42.79.94,1.49l-4.35,6.39c-.19.29-.22.65-.07.96l1.29,2.61c.44.88-.58,1.77-1.4,1.22l-4.35-2.96c-.3-.2-.69-.22-1.01-.04l-5.48,3.07c-.88.49-1.83-.54-1.26-1.38l4.04-5.94c.22-.32.22-.75,0-1.07l-2.87-4.28c-.58-.86.43-1.9,1.31-1.35l3.99,2.5c.2.12.43.17.66.14Z"/>
    </g>
    <g>
      <path class="cls-7" d="M162.21,55.95s46-38.13,79.1-2.69c33.1,35.43,18.49,83.23-16.78,93.44-35.27,10.21-80.73,14.41-92.34-31.6-11.61-46.01,30.02-59.14,30.02-59.14Z"/>
      <path class="cls-6" d="M175.65,67.73l8.56-1.36c.83-.13,1.42.79.94,1.49l-4.35,6.39c-.19.29-.22.65-.07.96l1.29,2.61c.44.88-.58,1.77-1.4,1.22l-4.35-2.96c-.3-.2-.69-.22-1.01-.04l-5.48,3.07c-.88.49-1.83-.54-1.26-1.38l4.04-5.94c.22-.32.22-.75,0-1.07l-2.87-4.28c-.58-.86.43-1.9,1.31-1.35l3.99,2.5c.2.12.43.17.66.14Z"/>
    </g>
    <path class="cls-4" d="M399.9,113.43c0-7.26-5.88-13.14-13.14-13.14h-120.85L221.76,4.44c-1.76-3.83-6.28-5.51-10.11-3.74l-5.24,2.41c-3.83,1.76-5.5,6.29-3.74,10.11l40.08,87.06h-89.73L193.11,13.23c1.76-3.82.09-8.35-3.74-10.11l-5.24-2.41c-3.83-1.77-8.35-.09-10.11,3.74l-44.14,95.84H13.14c-3.63,0-6.91,1.47-9.29,3.85-2.38,2.38-3.85,5.66-3.85,9.29,0,5.67,3.61,10.51,8.66,12.34-.39.73-.61,1.57-.61,2.46v.04c0,2.91,2.37,5.28,5.28,5.28h9.56c-.32,1.21-.47,2.49-.4,3.81l2.77,53.4c.08,1.49.43,2.94,1.03,4.29.6,1.34,1.45,2.57,2.5,3.63,2.07,2.07,3.32,4.82,3.51,7.75l4,61.26c.14,2.22.9,4.36,2.18,6.17l7.99,11.32c2.27,3.21,5.94,5.11,9.87,5.11h287.23c3.86,0,7.49-1.85,9.77-4.97l6.45-8.85c1.35-1.86,2.15-4.07,2.29-6.36l3.79-60.9c.14-2.38,1-4.66,2.43-6.55l1.89-2.5c1.38-1.82,2.21-3.99,2.41-6.27l4.8-56.13c.12-1.46-.02-2.88-.39-4.2h7.44c2.92,0,5.28-2.37,5.28-5.28v-.04c0-.67-.13-1.33-.37-1.92,2.59-.52,4.9-1.8,6.69-3.59,2.38-2.38,3.85-5.66,3.85-9.28ZM58.6,254.41s0,0,0,0v3.25c0,2.65-2.15,4.8-4.8,4.8s-4.8-2.15-4.8-4.8v-48.86h0v-3.25c0-2.65,2.15-4.8,4.8-4.8,1.33,0,2.53.53,3.4,1.4.86.87,1.41,2.07,1.41,3.4v48.86ZM58.6,190.31s0,0,0,0v3.25c0,2.64-2.15,4.8-4.8,4.8s-4.8-2.16-4.8-4.8v-48.87h0v-3.25c0-2.64,2.15-4.8,4.8-4.8,1.33,0,2.53.54,3.4,1.4.86.87,1.41,2.07,1.41,3.4v48.87ZM78.09,254.41h0v3.25c0,2.65-2.15,4.8-4.8,4.8s-4.8-2.15-4.8-4.8v-48.86s0,0,0,0v-3.25c0-2.65,2.15-4.8,4.8-4.8,1.33,0,2.53.53,3.4,1.4.86.87,1.4,2.07,1.4,3.4v48.86ZM78.09,190.31h0v3.25c0,2.64-2.15,4.8-4.8,4.8s-4.8-2.16-4.8-4.8v-48.87s0,0,0,0v-3.25c0-2.64,2.15-4.8,4.8-4.8,1.33,0,2.53.54,3.4,1.4.86.87,1.4,2.07,1.4,3.4v48.87ZM97.58,254.41h0v3.25c0,2.65-2.16,4.8-4.8,4.8s-4.8-2.15-4.8-4.8v-48.86s0,0,0,0v-3.25c0-2.65,2.15-4.8,4.8-4.8,1.32,0,2.52.53,3.4,1.4.86.87,1.4,2.07,1.4,3.4v48.86ZM97.58,190.31h0v3.25c0,2.64-2.16,4.8-4.8,4.8s-4.8-2.16-4.8-4.8v-48.87s0,0,0,0v-3.25c0-2.64,2.15-4.8,4.8-4.8,1.32,0,2.52.54,3.4,1.4.86.87,1.4,2.07,1.4,3.4v48.87ZM117.06,255.26s0,0,0,0v3.25c0,2.65-2.15,4.8-4.8,4.8s-4.8-2.15-4.8-4.8v-48.86s0,0,0,0v-3.25c0-2.65,2.16-4.8,4.8-4.8,1.33,0,2.52.54,3.4,1.4s1.4,2.07,1.4,3.4v48.86ZM117.06,191.15s0,0,0,0v3.25c0,2.65-2.15,4.8-4.8,4.8s-4.8-2.15-4.8-4.8v-48.86s0,0,0,0v-3.25c0-2.65,2.16-4.8,4.8-4.8,1.33,0,2.52.54,3.4,1.4s1.4,2.07,1.4,3.4v48.86ZM136.55,255.26s0,0,0,0v3.25c0,2.65-2.15,4.8-4.8,4.8s-4.8-2.15-4.8-4.8v-48.86h0v-3.25c0-2.65,2.15-4.8,4.8-4.8,1.33,0,2.52.54,3.4,1.4s1.4,2.07,1.4,3.4v48.86ZM136.55,191.15s0,0,0,0v3.25c0,2.65-2.15,4.8-4.8,4.8s-4.8-2.15-4.8-4.8v-48.86h0v-3.25c0-2.65,2.15-4.8,4.8-4.8,1.33,0,2.52.54,3.4,1.4.87.86,1.4,2.07,1.4,3.4v48.86ZM156.04,255.26s0,0,0,0v3.25c0,2.65-2.16,4.8-4.8,4.8s-4.8-2.15-4.8-4.8v-48.86h0v-3.25c0-2.65,2.15-4.8,4.8-4.8,1.33,0,2.52.54,3.4,1.4.86.86,1.4,2.07,1.4,3.4v48.86ZM156.04,191.15s0,0,0,0v3.25c0,2.65-2.16,4.8-4.8,4.8s-4.8-2.15-4.8-4.8v-48.86h0v-3.25c0-2.65,2.15-4.8,4.8-4.8,1.33,0,2.52.54,3.4,1.4.86.86,1.4,2.07,1.4,3.4v48.86ZM175.52,255.26h0v3.25c0,2.65-2.15,4.8-4.8,4.8s-4.8-2.15-4.8-4.8v-48.86s0,0,0,0v-3.25c0-2.65,2.16-4.8,4.8-4.8,1.33,0,2.53.54,3.4,1.4.86.86,1.4,2.07,1.4,3.4v48.86ZM175.52,191.15h0v3.25c0,2.65-2.15,4.8-4.8,4.8s-4.8-2.15-4.8-4.8v-48.86s0,0,0,0v-3.25c0-2.65,2.16-4.8,4.8-4.8,1.33,0,2.53.54,3.4,1.4.86.86,1.4,2.07,1.4,3.4v48.86ZM195.01,255.26h0v3.25c0,2.65-2.15,4.8-4.8,4.8s-4.8-2.15-4.8-4.8v-48.86s0,0,0,0v-3.25c0-2.65,2.15-4.8,4.8-4.8,1.33,0,2.53.54,3.4,1.4.86.86,1.4,2.07,1.4,3.4v48.86ZM195.01,191.15h0v3.25c0,2.65-2.15,4.8-4.8,4.8s-4.8-2.15-4.8-4.8v-48.86s0,0,0,0v-3.25c0-2.65,2.15-4.8,4.8-4.8,1.33,0,2.53.54,3.4,1.4.86.86,1.4,2.07,1.4,3.4v48.86ZM214.49,255.26s0,0,0,0v3.25c0,2.65-2.16,4.8-4.8,4.8s-4.8-2.15-4.8-4.8v-48.86s0,0,0,0v-3.25c0-2.65,2.15-4.8,4.8-4.8,1.32,0,2.52.54,3.4,1.4.86.86,1.4,2.07,1.4,3.4v48.86ZM214.49,191.15s0,0,0,0v3.25c0,2.65-2.16,4.8-4.8,4.8s-4.8-2.15-4.8-4.8v-48.86s0,0,0,0v-3.25c0-2.65,2.15-4.8,4.8-4.8,1.32,0,2.52.54,3.4,1.4.86.86,1.4,2.07,1.4,3.4v48.86ZM233.98,255.26s0,0,0,0v3.25c0,2.65-2.16,4.8-4.81,4.8s-4.8-2.15-4.8-4.8v-48.86h0v-3.25c0-2.65,2.16-4.8,4.8-4.8,1.33,0,2.53.54,3.41,1.4.86.86,1.4,2.07,1.4,3.4v48.86ZM233.98,191.15s0,0,0,0v3.25c0,2.65-2.16,4.8-4.81,4.8s-4.8-2.15-4.8-4.8v-48.86h0v-3.25c0-2.65,2.16-4.8,4.8-4.8,1.33,0,2.53.54,3.41,1.4.86.86,1.4,2.07,1.4,3.4v48.86ZM253.46,255.26s0,0,0,0v3.25c0,2.65-2.15,4.8-4.8,4.8s-4.8-2.15-4.8-4.8v-48.86h0v-3.25c0-2.65,2.15-4.8,4.8-4.8,1.33,0,2.52.54,3.4,1.4.87.86,1.4,2.07,1.4,3.4v48.86ZM253.46,191.15s0,0,0,0v3.25c0,2.65-2.15,4.8-4.8,4.8s-4.8-2.15-4.8-4.8v-48.86h0v-3.25c0-2.65,2.15-4.8,4.8-4.8,1.33,0,2.52.54,3.4,1.4.87.86,1.4,2.07,1.4,3.4v48.86ZM272.95,255.26h0v3.25c0,2.65-2.15,4.8-4.8,4.8s-4.8-2.15-4.8-4.8v-48.86h0v-3.25c0-2.65,2.15-4.8,4.8-4.8,1.33,0,2.52.54,3.4,1.4s1.4,2.07,1.4,3.4v48.86ZM272.95,191.15h0v3.25c0,2.65-2.15,4.8-4.8,4.8s-4.8-2.15-4.8-4.8v-48.86h0v-3.25c0-2.65,2.15-4.8,4.8-4.8,1.33,0,2.52.54,3.4,1.4s1.4,2.07,1.4,3.4v48.86ZM292.44,255.26h0v3.25c0,2.65-2.16,4.8-4.8,4.8s-4.8-2.15-4.8-4.8v-48.86s0,0,0,0v-3.25c0-2.65,2.15-4.8,4.8-4.8,1.33,0,2.52.54,3.4,1.4.86.86,1.4,2.07,1.4,3.4v48.86ZM292.44,191.15h0v3.25c0,2.65-2.16,4.8-4.8,4.8s-4.8-2.15-4.8-4.8v-48.86s0,0,0,0v-3.25c0-2.65,2.15-4.8,4.8-4.8,1.33,0,2.52.54,3.4,1.4.86.86,1.4,2.07,1.4,3.4v48.86ZM311.92,255.26s0,0,0,0v3.25c0,2.65-2.15,4.8-4.8,4.8s-4.8-2.15-4.8-4.8v-48.86s0,0,0,0v-3.25c0-2.65,2.16-4.8,4.8-4.8,1.33,0,2.53.54,3.4,1.4.86.86,1.4,2.07,1.4,3.4v48.86ZM311.92,191.15s0,0,0,0v3.25c0,2.65-2.15,4.8-4.8,4.8s-4.8-2.15-4.8-4.8v-48.86s0,0,0,0v-3.25c0-2.65,2.16-4.8,4.8-4.8,1.33,0,2.53.54,3.4,1.4.86.86,1.4,2.07,1.4,3.4v48.86ZM331.41,255.26s0,0,0,0v3.25c0,2.65-2.15,4.8-4.8,4.8s-4.8-2.15-4.8-4.8v-48.86s0,0,0,0v-3.25c0-2.65,2.15-4.8,4.8-4.8,1.33,0,2.53.54,3.4,1.4.86.86,1.4,2.07,1.4,3.4v48.86ZM331.41,191.15s0,0,0,0v3.25c0,2.65-2.15,4.8-4.8,4.8s-4.8-2.15-4.8-4.8v-48.86s0,0,0,0v-3.25c0-2.65,2.15-4.8,4.8-4.8,1.33,0,2.53.54,3.4,1.4.86.86,1.4,2.07,1.4,3.4v48.86ZM350.9,255.26s0,0,0,0v3.25c0,2.65-2.16,4.8-4.8,4.8s-4.8-2.15-4.8-4.8v-48.86h0v-3.25c0-2.65,2.15-4.8,4.8-4.8,1.32,0,2.52.54,3.4,1.4.86.86,1.4,2.07,1.4,3.4v48.86ZM350.9,191.15s0,0,0,0v3.25c0,2.65-2.16,4.8-4.8,4.8s-4.8-2.15-4.8-4.8v-48.86h0v-3.25c0-2.65,2.15-4.8,4.8-4.8,1.32,0,2.52.54,3.4,1.4.86.86,1.4,2.07,1.4,3.4v48.86Z"/>
    <rect class="cls-3" x="71.13" y="158.52" width="247.75" height="86.17" rx="30.45" ry="30.45"/>
    <text class="cls-2" transform="translate(94.07 218.09)"><tspan x="0" y="0">Il</tspan><tspan class="cls-5" x="23.3" y="0">l</tspan><tspan x="34.82" y="0">ustrato</tspan><tspan class="cls-1" x="172.58" y="0">r</tspan></text>
  </g>
</svg>