<?xml version="1.0" encoding="UTF-8"?>
<svg id="Layer_2" data-name="Layer 2" xmlns="http://www.w3.org/2000/svg" viewBox="0 0 399.9 290.28">
  <defs>
    <style>
      .cls-1 {
        fill: #74a535;
      }

      .cls-2 {
        fill: #fff099;
      }

      .cls-3 {
        fill: #d12026;
      }

      .cls-4 {
        fill: #bf4b22;
      }

      .cls-5 {
        fill: #f36c32;
      }
    </style>
  </defs>
  <g id="Layer_1-2" data-name="Layer 1">
    <g>
      <path class="cls-5" d="M75.9,48.69s51.82-29.74,78.4,10.81,4.06,85.16-32.44,89.22c-36.5,4.06-82.01.45-85.61-46.86-3.6-47.31,39.65-53.17,39.65-53.17Z"/>
      <path class="cls-4" d="M87.14,62.59l8.66.12c.84.01,1.26,1.02.68,1.63l-5.37,5.55c-.24.25-.33.61-.23.94l.83,2.79c.28.95-.88,1.65-1.59.96l-3.78-3.66c-.26-.25-.64-.34-.99-.21l-5.93,2.1c-.95.34-1.71-.84-1.01-1.57l4.99-5.16c.27-.28.35-.7.19-1.06l-2.1-4.71c-.42-.95.75-1.8,1.52-1.1l3.5,3.15c.17.16.4.24.63.25Z"/>
    </g>
    <g>
      <path class="cls-5" d="M179.82,163.84s51.82-29.74,78.4,10.81c26.58,40.55,4.06,85.16-32.44,89.22-36.5,4.06-82.01.45-85.61-46.86-3.6-47.31,39.65-53.17,39.65-53.17Z"/>
      <path class="cls-4" d="M191.06,177.74l8.66.12c.84.01,1.26,1.02.68,1.63l-5.37,5.55c-.24.25-.33.61-.23.94l.83,2.79c.28.95-.88,1.65-1.59.96l-3.78-3.66c-.26-.25-.64-.34-.99-.21l-5.93,2.1c-.95.34-1.71-.84-1.01-1.57l4.99-5.16c.27-.28.35-.7.19-1.06l-2.1-4.71c-.42-.95.75-1.8,1.52-1.1l3.5,3.15c.17.16.4.24.63.25Z"/>
    </g>
    <g>
      <path class="cls-5" d="M323.57,45.65s58.6,11.62,52,59.66c-6.6,48.04-52.89,66.87-83.07,45.95-30.18-20.92-62.12-53.54-33.76-91.57,28.36-38.04,64.82-14.04,64.82-14.04Z"/>
      <path class="cls-4" d="M322.92,63.51l6.45,5.78c.63.56.28,1.6-.56,1.67l-7.7.66c-.34.03-.65.24-.79.56l-1.21,2.65c-.41.9-1.74.66-1.83-.32l-.45-5.24c-.03-.36-.26-.68-.6-.81l-5.85-2.31c-.94-.37-.74-1.76.27-1.85l7.16-.61c.39-.03.72-.3.83-.67l1.51-4.93c.3-.99,1.74-.86,1.87.16l.57,4.67c.03.23.14.44.31.6Z"/>
    </g>
    <g>
      <path class="cls-5" d="M123.91,151.33s58.6,11.62,52,59.66c-6.6,48.04-52.89,66.87-83.07,45.95-30.18-20.92-62.12-53.54-33.76-91.57,28.36-38.04,64.82-14.04,64.82-14.04Z"/>
      <path class="cls-4" d="M123.26,169.2l6.45,5.78c.63.56.28,1.6-.56,1.67l-7.7.66c-.34.03-.65.24-.79.56l-1.21,2.65c-.41.9-1.74.66-1.83-.32l-.45-5.24c-.03-.36-.26-.68-.6-.81l-5.85-2.31c-.94-.37-.74-1.76.27-1.85l7.16-.61c.39-.03.72-.3.83-.67l1.51-4.93c.3-.99,1.74-.86,1.87.16l.57,4.67c.03.23.14.44.31.6Z"/>
    </g>
    <g>
      <path class="cls-5" d="M256.44,160.95s46-38.13,79.1-2.69,18.49,83.23-16.78,93.44c-35.27,10.21-80.73,14.41-92.34-31.6s30.02-59.14,30.02-59.14Z"/>
      <path class="cls-4" d="M269.88,172.73l8.56-1.36c.83-.13,1.42.79.94,1.49l-4.35,6.39c-.19.29-.22.65-.07.96l1.29,2.61c.44.88-.58,1.77-1.4,1.22l-4.35-2.96c-.3-.2-.69-.22-1.01-.04l-5.48,3.07c-.88.49-1.83-.54-1.26-1.38l4.04-5.94c.22-.32.22-.75,0-1.07l-2.87-4.28c-.58-.86.43-1.9,1.31-1.35l3.99,2.5c.2.12.43.17.66.14Z"/>
    </g>
    <g>
      <path class="cls-5" d="M162.21,55.95s46-38.13,79.1-2.69c33.1,35.43,18.49,83.23-16.78,93.44-35.27,10.21-80.73,14.41-92.34-31.6-11.61-46.01,30.02-59.14,30.02-59.14Z"/>
      <path class="cls-4" d="M175.65,67.73l8.56-1.36c.83-.13,1.42.79.94,1.49l-4.35,6.39c-.19.29-.22.65-.07.96l1.29,2.61c.44.88-.58,1.77-1.4,1.22l-4.35-2.96c-.3-.2-.69-.22-1.01-.04l-5.48,3.07c-.88.49-1.83-.54-1.26-1.38l4.04-5.94c.22-.32.22-.75,0-1.07l-2.87-4.28c-.58-.86.43-1.9,1.31-1.35l3.99,2.5c.2.12.43.17.66.14Z"/>
    </g>
    <path class="cls-3" d="M399.9,113.43c0-7.26-5.88-13.14-13.14-13.14h-120.85L221.76,4.44c-1.76-3.83-6.28-5.51-10.11-3.74l-5.24,2.41c-3.83,1.76-5.5,6.29-3.74,10.11l40.08,87.06h-89.73L193.11,13.23c1.76-3.82.09-8.35-3.74-10.11l-5.24-2.41c-3.83-1.77-8.35-.09-10.11,3.74l-44.14,95.84H13.14c-3.63,0-6.91,1.47-9.29,3.85-2.38,2.38-3.85,5.66-3.85,9.29,0,5.67,3.61,10.51,8.66,12.34-.39.73-.61,1.57-.61,2.46v.04c0,2.91,2.37,5.28,5.28,5.28h9.56c-.32,1.21-.47,2.49-.4,3.81l2.77,53.4c.08,1.49.43,2.94,1.03,4.29.6,1.34,1.45,2.57,2.5,3.63,2.07,2.07,3.32,4.82,3.51,7.75l4,61.26c.14,2.22.9,4.36,2.18,6.17l7.99,11.32c2.27,3.21,5.94,5.11,9.87,5.11h287.23c3.86,0,7.49-1.85,9.77-4.97l6.45-8.85c1.35-1.86,2.15-4.07,2.29-6.36l3.79-60.9c.14-2.38,1-4.66,2.43-6.55l1.89-2.5c1.38-1.82,2.21-3.99,2.41-6.27l4.8-56.13c.12-1.46-.02-2.88-.39-4.2h7.44c2.92,0,5.28-2.37,5.28-5.28v-.04c0-.67-.13-1.33-.37-1.92,2.59-.52,4.9-1.8,6.69-3.59,2.38-2.38,3.85-5.66,3.85-9.28ZM58.6,254.41s0,0,0,0v3.25c0,2.65-2.15,4.8-4.8,4.8s-4.8-2.15-4.8-4.8v-48.86h0v-3.25c0-2.65,2.15-4.8,4.8-4.8,1.33,0,2.53.53,3.4,1.4.86.87,1.41,2.07,1.41,3.4v48.86ZM58.6,190.31s0,0,0,0v3.25c0,2.64-2.15,4.8-4.8,4.8s-4.8-2.16-4.8-4.8v-48.87h0v-3.25c0-2.64,2.15-4.8,4.8-4.8,1.33,0,2.53.54,3.4,1.4.86.87,1.41,2.07,1.41,3.4v48.87ZM78.09,254.41h0v3.25c0,2.65-2.15,4.8-4.8,4.8s-4.8-2.15-4.8-4.8v-48.86s0,0,0,0v-3.25c0-2.65,2.15-4.8,4.8-4.8,1.33,0,2.53.53,3.4,1.4.86.87,1.4,2.07,1.4,3.4v48.86ZM78.09,190.31h0v3.25c0,2.64-2.15,4.8-4.8,4.8s-4.8-2.16-4.8-4.8v-48.87s0,0,0,0v-3.25c0-2.64,2.15-4.8,4.8-4.8,1.33,0,2.53.54,3.4,1.4.86.87,1.4,2.07,1.4,3.4v48.87ZM97.58,254.41h0v3.25c0,2.65-2.16,4.8-4.8,4.8s-4.8-2.15-4.8-4.8v-48.86s0,0,0,0v-3.25c0-2.65,2.15-4.8,4.8-4.8,1.32,0,2.52.53,3.4,1.4.86.87,1.4,2.07,1.4,3.4v48.86ZM97.58,190.31h0v3.25c0,2.64-2.16,4.8-4.8,4.8s-4.8-2.16-4.8-4.8v-48.87s0,0,0,0v-3.25c0-2.64,2.15-4.8,4.8-4.8,1.32,0,2.52.54,3.4,1.4.86.87,1.4,2.07,1.4,3.4v48.87ZM117.06,255.26s0,0,0,0v3.25c0,2.65-2.15,4.8-4.8,4.8s-4.8-2.15-4.8-4.8v-48.86s0,0,0,0v-3.25c0-2.65,2.16-4.8,4.8-4.8,1.33,0,2.52.54,3.4,1.4s1.4,2.07,1.4,3.4v48.86ZM117.06,191.15s0,0,0,0v3.25c0,2.65-2.15,4.8-4.8,4.8s-4.8-2.15-4.8-4.8v-48.86s0,0,0,0v-3.25c0-2.65,2.16-4.8,4.8-4.8,1.33,0,2.52.54,3.4,1.4s1.4,2.07,1.4,3.4v48.86ZM136.55,255.26s0,0,0,0v3.25c0,2.65-2.15,4.8-4.8,4.8s-4.8-2.15-4.8-4.8v-48.86h0v-3.25c0-2.65,2.15-4.8,4.8-4.8,1.33,0,2.52.54,3.4,1.4s1.4,2.07,1.4,3.4v48.86ZM136.55,191.15s0,0,0,0v3.25c0,2.65-2.15,4.8-4.8,4.8s-4.8-2.15-4.8-4.8v-48.86h0v-3.25c0-2.65,2.15-4.8,4.8-4.8,1.33,0,2.52.54,3.4,1.4.87.86,1.4,2.07,1.4,3.4v48.86ZM156.04,255.26s0,0,0,0v3.25c0,2.65-2.16,4.8-4.8,4.8s-4.8-2.15-4.8-4.8v-48.86h0v-3.25c0-2.65,2.15-4.8,4.8-4.8,1.33,0,2.52.54,3.4,1.4.86.86,1.4,2.07,1.4,3.4v48.86ZM156.04,191.15s0,0,0,0v3.25c0,2.65-2.16,4.8-4.8,4.8s-4.8-2.15-4.8-4.8v-48.86h0v-3.25c0-2.65,2.15-4.8,4.8-4.8,1.33,0,2.52.54,3.4,1.4.86.86,1.4,2.07,1.4,3.4v48.86ZM175.52,255.26h0v3.25c0,2.65-2.15,4.8-4.8,4.8s-4.8-2.15-4.8-4.8v-48.86s0,0,0,0v-3.25c0-2.65,2.16-4.8,4.8-4.8,1.33,0,2.53.54,3.4,1.4.86.86,1.4,2.07,1.4,3.4v48.86ZM175.52,191.15h0v3.25c0,2.65-2.15,4.8-4.8,4.8s-4.8-2.15-4.8-4.8v-48.86s0,0,0,0v-3.25c0-2.65,2.16-4.8,4.8-4.8,1.33,0,2.53.54,3.4,1.4.86.86,1.4,2.07,1.4,3.4v48.86ZM195.01,255.26h0v3.25c0,2.65-2.15,4.8-4.8,4.8s-4.8-2.15-4.8-4.8v-48.86s0,0,0,0v-3.25c0-2.65,2.15-4.8,4.8-4.8,1.33,0,2.53.54,3.4,1.4.86.86,1.4,2.07,1.4,3.4v48.86ZM195.01,191.15h0v3.25c0,2.65-2.15,4.8-4.8,4.8s-4.8-2.15-4.8-4.8v-48.86s0,0,0,0v-3.25c0-2.65,2.15-4.8,4.8-4.8,1.33,0,2.53.54,3.4,1.4.86.86,1.4,2.07,1.4,3.4v48.86ZM214.49,255.26s0,0,0,0v3.25c0,2.65-2.16,4.8-4.8,4.8s-4.8-2.15-4.8-4.8v-48.86s0,0,0,0v-3.25c0-2.65,2.15-4.8,4.8-4.8,1.32,0,2.52.54,3.4,1.4.86.86,1.4,2.07,1.4,3.4v48.86ZM214.49,191.15s0,0,0,0v3.25c0,2.65-2.16,4.8-4.8,4.8s-4.8-2.15-4.8-4.8v-48.86s0,0,0,0v-3.25c0-2.65,2.15-4.8,4.8-4.8,1.32,0,2.52.54,3.4,1.4.86.86,1.4,2.07,1.4,3.4v48.86ZM233.98,255.26s0,0,0,0v3.25c0,2.65-2.16,4.8-4.81,4.8s-4.8-2.15-4.8-4.8v-48.86h0v-3.25c0-2.65,2.16-4.8,4.8-4.8,1.33,0,2.53.54,3.41,1.4.86.86,1.4,2.07,1.4,3.4v48.86ZM233.98,191.15s0,0,0,0v3.25c0,2.65-2.16,4.8-4.81,4.8s-4.8-2.15-4.8-4.8v-48.86h0v-3.25c0-2.65,2.16-4.8,4.8-4.8,1.33,0,2.53.54,3.41,1.4.86.86,1.4,2.07,1.4,3.4v48.86ZM253.46,255.26s0,0,0,0v3.25c0,2.65-2.15,4.8-4.8,4.8s-4.8-2.15-4.8-4.8v-48.86h0v-3.25c0-2.65,2.15-4.8,4.8-4.8,1.33,0,2.52.54,3.4,1.4.87.86,1.4,2.07,1.4,3.4v48.86ZM253.46,191.15s0,0,0,0v3.25c0,2.65-2.15,4.8-4.8,4.8s-4.8-2.15-4.8-4.8v-48.86h0v-3.25c0-2.65,2.15-4.8,4.8-4.8,1.33,0,2.52.54,3.4,1.4.87.86,1.4,2.07,1.4,3.4v48.86ZM272.95,255.26h0v3.25c0,2.65-2.15,4.8-4.8,4.8s-4.8-2.15-4.8-4.8v-48.86h0v-3.25c0-2.65,2.15-4.8,4.8-4.8,1.33,0,2.52.54,3.4,1.4s1.4,2.07,1.4,3.4v48.86ZM272.95,191.15h0v3.25c0,2.65-2.15,4.8-4.8,4.8s-4.8-2.15-4.8-4.8v-48.86h0v-3.25c0-2.65,2.15-4.8,4.8-4.8,1.33,0,2.52.54,3.4,1.4s1.4,2.07,1.4,3.4v48.86ZM292.44,255.26h0v3.25c0,2.65-2.16,4.8-4.8,4.8s-4.8-2.15-4.8-4.8v-48.86s0,0,0,0v-3.25c0-2.65,2.15-4.8,4.8-4.8,1.33,0,2.52.54,3.4,1.4.86.86,1.4,2.07,1.4,3.4v48.86ZM292.44,191.15h0v3.25c0,2.65-2.16,4.8-4.8,4.8s-4.8-2.15-4.8-4.8v-48.86s0,0,0,0v-3.25c0-2.65,2.15-4.8,4.8-4.8,1.33,0,2.52.54,3.4,1.4.86.86,1.4,2.07,1.4,3.4v48.86ZM311.92,255.26s0,0,0,0v3.25c0,2.65-2.15,4.8-4.8,4.8s-4.8-2.15-4.8-4.8v-48.86s0,0,0,0v-3.25c0-2.65,2.16-4.8,4.8-4.8,1.33,0,2.53.54,3.4,1.4.86.86,1.4,2.07,1.4,3.4v48.86ZM311.92,191.15s0,0,0,0v3.25c0,2.65-2.15,4.8-4.8,4.8s-4.8-2.15-4.8-4.8v-48.86s0,0,0,0v-3.25c0-2.65,2.16-4.8,4.8-4.8,1.33,0,2.53.54,3.4,1.4.86.86,1.4,2.07,1.4,3.4v48.86ZM331.41,255.26s0,0,0,0v3.25c0,2.65-2.15,4.8-4.8,4.8s-4.8-2.15-4.8-4.8v-48.86s0,0,0,0v-3.25c0-2.65,2.15-4.8,4.8-4.8,1.33,0,2.53.54,3.4,1.4.86.86,1.4,2.07,1.4,3.4v48.86ZM331.41,191.15s0,0,0,0v3.25c0,2.65-2.15,4.8-4.8,4.8s-4.8-2.15-4.8-4.8v-48.86s0,0,0,0v-3.25c0-2.65,2.15-4.8,4.8-4.8,1.33,0,2.53.54,3.4,1.4.86.86,1.4,2.07,1.4,3.4v48.86ZM350.9,255.26s0,0,0,0v3.25c0,2.65-2.16,4.8-4.8,4.8s-4.8-2.15-4.8-4.8v-48.86h0v-3.25c0-2.65,2.15-4.8,4.8-4.8,1.32,0,2.52.54,3.4,1.4.86.86,1.4,2.07,1.4,3.4v48.86ZM350.9,191.15s0,0,0,0v3.25c0,2.65-2.16,4.8-4.8,4.8s-4.8-2.15-4.8-4.8v-48.86h0v-3.25c0-2.65,2.15-4.8,4.8-4.8,1.32,0,2.52.54,3.4,1.4.86.86,1.4,2.07,1.4,3.4v48.86Z"/>
    <rect class="cls-2" x="71.13" y="158.52" width="247.75" height="86.17" rx="30.45" ry="30.45"/>
    <g>
      <path class="cls-1" d="M104.44,198.61c0,.81.08,1.66.08,2.38,0,2.26-1.57,1.59-1.57,4.54,0,1.97.17,4.02.17,6.36,0,1.53-.29,2.71-.62,4.21-.37,1.7-.44,2.63-2.94,2.63-1.8,0-1.41-1.74-2.07-3.44-.44-.99-1.06-.89-1.06-2.67,0-1.45.33-3.34.33-5.1,0-1.57-.52-2.11-.52-3.69s.48-1.72.48-2.67c0-.5-.35-.95-.68-1.37-.35-.42-.64-.79-.64-1.1v-.08c0-.43.39-1.26.39-1.91,0-1.14-.44-2.18-.44-3.15v-.21c0-.06.02-.15.04-.21.1-.66,1.39-2.38,1.8-2.38.17,0,.31.04.46.04.56,0,1.49-.17,2.42-.17,1.39,0,2.84.12,3.32.56.17.12,1.08,2.18,1.18,2.49.08.48.17,1.41.17,2.34,0,.33-.04.73-.04,1.06-.06.52-.25.89-.25,1.53Z"/>
      <path class="cls-1" d="M117.76,214.15c0,.64-.31,1.06-.56,1.55-.29.52-.52,1.78-1.45,1.78-.5,0-1.22-.08-1.78-.08-.66,0-1.66.12-2.67.12h-.41c-1.06,0-2.13.27-2.88.27s-1.82-.77-1.82-2.09c0-1.14,2.16-.97,2.16-2.16,0-1.1-.52-2.86-.52-4.12,0-1.02.04-2.03.04-3.09,0-5.72-.71-9.24-.71-13.88,0-1.86.5-3.05,3.21-3.05s3.65,1.08,3.65,3.46c0,1.08-.21,1.99-.21,3.15v1.14c0,1.37-.42,2.78-.42,4.41,0,2.24.25,4.58.25,7.04s-.08,3.69.48,3.69c.41,0,1.02-.25,1.51-.25,1.28.08,2.13.79,2.13,2.09Z"/>
      <path class="cls-1" d="M129.43,214.15c0,.64-.31,1.06-.56,1.55-.29.52-.52,1.78-1.45,1.78-.5,0-1.22-.08-1.78-.08-.66,0-1.66.12-2.67.12h-.41c-1.06,0-2.13.27-2.88.27s-1.82-.77-1.82-2.09c0-1.14,2.16-.97,2.16-2.16,0-1.1-.52-2.86-.52-4.12,0-1.02.04-2.03.04-3.09,0-5.72-.71-9.24-.71-13.88,0-1.86.5-3.05,3.21-3.05s3.65,1.08,3.65,3.46c0,1.08-.21,1.99-.21,3.15v1.14c0,1.37-.42,2.78-.42,4.41,0,2.24.25,4.58.25,7.04s-.08,3.69.48,3.69c.41,0,1.02-.25,1.51-.25,1.28.08,2.13.79,2.13,2.09Z"/>
      <path class="cls-1" d="M151.3,212.74c0,.75-.35,1.06-1.51,1.78-1.16.71-1.37,1.18-2.42,1.18s-1.95-.71-1.95-2.03c0-.39.04-.93.04-1.49,0-.73-.04-1.43-.35-1.43-.58,0-4.35,1.86-4.62,1.95-.23.06-.41.08-.72.08-.39,0-.83-.04-1.31-.04-1.93,0-3.56.97-5.14.97-3.17,0-3.36-5.86-3.36-8.23,0-1.02.6-2.09.6-2.9,0-.64-.08-1.3-.08-1.99,0-1.01.46-2.26.85-3.48.54-1.7.48-2.63,2.36-2.63.66,0,4.41.77,4.85,1.45.17.31.21.66.21,1.06,0,1.16-.46,2.49-.46,3.11,0,.31.12.66.12,1.06-.06.42-.25.85-.31,1.18,0,.6.19,1.45.19,2.26s-.31,1.45-.31,1.74v.08c.06,1.18.14,1.35.81,1.35,2.3,0,4.79-.21,6.03-.85.25-.25.33-.99.35-1.43v-.44c0-.48-.06-1.08-.06-1.3,0-2.82-.29-4.77-.29-5.74,0-.5.52-1.82,1.66-1.82s2.2.77,2.2,1.57c0,.33-.08.81-.08,1.22,0,1.51.68,3.71.68,4.93,0,.64-.17,1.18-.17,1.74,0,1.33,1.02,2.07,1.35,2.84.23.56.29,1.53.52,2.38.23.89.33,1.43.33,1.87Z"/>
      <path class="cls-1" d="M169.35,215.98c-.48.56-.71,1.3-1.06,1.7-.02.08-1.26.93-1.2.93-.25.15-.54.12-.89.12-.66,0-1.47-.12-2.24-.12s-1.53.37-2.34.37c-.68,0-1.35.04-2.03.04-3.17,0-5.53-.64-6.75-3.81-.27-.64-.14-1.68-.25-2.51-.23-1.1-.48-1.87-.48-2.55,0-1.49,1.66-2.47,3.71-2.47,1.1,0,1.35,0,2.67,1.06.25.27.75.52.89.68.37.5.31,1.43.93,1.82.54.6,1.43.39,1.43,1.41,0,.25-.04.46-.04.68,0,.89,1.02,1.35,1.78,1.35.97,0,2.22-.68,2.22-2.03,0-.52-.31-1.18-.31-1.99,0-.39.04-.85.04-1.2,0-1.93-5.35-2.05-7.75-3.29-.43-.23-.85-.72-1.33-1.08-1.18-.89-2.15-1.31-2.15-3.69,0-4.31,2.4-4.7,6.24-5.1.85-.08,1.87-.21,2.84-.21,1.37,0,4.14,1.08,5.14,3.36.29.68.54.85.54,1.45-.23,1.35-.93,1.47-2.36,1.47h-.39c-.12,0-.21-.02-.25-.04-1.14-.21-2.92-2.03-3.94-2.2-.39-.08-.77-.12-1.08-.12-1.26,0-2.07.58-2.07,1.31,0,.89,2.16,2.22,2.51,2.34.08.02.19.04.33.04h.23c.17,0,.31.02.46.08.25.08.41.31.68.37.68.23,1.51.21,2.2.44,4.21,1.26,4.79,2.59,5.39,7.58.08.72.31,1.14.31,1.62,0,.23-.06.46-.17.72-.23.52-.91.81-1.45,1.45Z"/>
      <path class="cls-1" d="M188.84,199.67c0,.97-.81,2.34-1.99,2.34-.27,0-.56-.04-.81-.04-.83,0-1.7.37-2.09.37-.41,0-.91-.12-1.39-.12-1.55,0-1.45.64-1.45,2.22,0,2.57-.54,5.93-.54,8.27,0,.73.08,1.35.08,1.95,0,.17-.04.39-.04.56-.1.39-1.12,3.05-1.58,3.4-.23.15-.54.17-.93.17-1.89,0-2.71-.58-2.71-1.82,0-.52.08-1.1.08-1.58,0-3.11-.89-7.73-.89-12.52-.39.08-.77.12-1.1.12-1.58,0-2.86-.85-2.86-2.34,0-1.91,1.78-1.93,3.67-2.36v-.77c0-2.49-.81-4.27-.81-6.03s.43-2.2,1.99-2.76c.66-.27,2.18-.6,3.48-.6,1.55,0,3.13.25,3.13,3.44,0,.85-.02,1.82-.17,2.38-.17.75-.81,1.31-.81,1.8v.06c0,.31.12.83.12,1.14,0,.43-.25.75-.25,1.06,0,.39.43.44,1.24.44,2.26,0,3.29-.48,4.79-.48.33,0,.68.02.93.17.6.35.89.85.89,1.53Z"/>
      <path class="cls-1" d="M207.68,206.18c0,.23.04.35.04.58,0,1.68-1.62,1.64-3.4,2.13-.64.17-1.39.46-2.07.46-1.72,0-1.78-1.78-1.78-2.88,0-.33.04-.77.04-1.24,0-.83.08-2.63-1.31-2.63-.79,0-1.7.64-2.09.81-.81.37-2.38.79-2.38,1.53,0,1.26,1.37,4.33,1.37,4.7,0,.19-.12.35-.12.6,0,.77.5,1.78.5,2.84,0,.35-.1,2.4-.37,2.9-.29.46-.77.33-1.31.66-1.2.77-.81,1.33-2.51,1.33-2.38,0-3.15-1.14-3.15-3.81,0-1.82.7-3.56.93-5.53.14-1.33.25-2.96.25-4.29,0-.56-.04-1.18-.12-1.87-.06-.33-.25-.66-.25-.97,0-.85.46-1.87.52-2.8,0-.48-.19-.7-.19-1.01,0-1.16.83-1.47,1.14-1.51.06-.02.1-.02.12-.02.5,0,.91.1,1.22.31.89.68.95,1.86,1.04,2.86.06.64.1,1.12.44,1.12.5,0,1.43-.89,1.35-.81l.54-.41c.31-.23.68-.52,1-.68.48-.31,1.1-.33,1.58-.64.41-.31.85-.71,1.18-.93.64-.27,2.09-.56,2.9-.56s.97.62,1.82.85c1.08.35,2.92.04,2.92,2.24v.1c0,1.08.52,1.55.52,2.22,0,.31-.06.66-.06,1.02,0,.56.31,1.26.31,1.62-.06.54-.6.64-.6,1.74ZM195.49,199.71s.02,0,.04-.02c.02-.02.04-.04.08-.06h-.04l-.08.08Z"/>
      <path class="cls-1" d="M229.3,207.11c0,1.97-.23,4-.48,5.88-.08.6-.25,1.26-.25,1.74,0,1.01.29,1.99.29,2.8,0,.35-.85,2.63-3,2.63-1.24,0-1.58-.81-1.58-1.91,0-.77.17-1.7.33-2.63-.64.15-1.26.6-1.82.93-2.42,1.43-4.66,3.4-8.95,3.4-.06,0-.37.02-.52.02-.35,0-1.31-.02-1.95-.39-1.2-1.2-2.32-3.92-2.32-4.21-.02-.06-.04-.21-.04-.39,0-1.14.42-2.67.42-2.92,0-.68-.17-1.3-.17-2.07,0-.35.02-.77.17-1.2,0-.04.64-1.55.81-1.68.39-.33,1.41-.39,2.22-.77.64-.31,1.14-.89,1.55-1.06.27-.15.81-.17,1.33-.39.75-.23,2.18-.83,3.27-.93.25,0,.62.12,1.14.12.39,0,.93-.25,1.7-.25s1.55.17,1.95.17c.31,0,.33-.21.33-.46,0-.83-.79-2.4-.93-2.59-.42-.52-.97-.81-1.39-.81-.44,0-.85.17-1.37.17-.39,0-.79-.08-1.18-.08-1.87,0-5.22,2.22-6.53,2.55-.35.08-.77.17-1.12.17-.43,0-1.78-1.02-1.78-1.91,0-1.35,1.62-1.55,2.63-2.18.64-.39,1.62-.95,2.22-1.43.64-.52.79-.97,1.18-1.2.39-.23,1.35-.39,2.07-.62.46-.17,1.72-.68,2.18-.68h.08c1.04.37,2.78.35,4.08.68.23.06.39.29.62.37,2.05.6,2.57.89,3.69,5.22.1.5.5.89.64,1.31.37,1.12.48,3.36.48,4.6ZM224.41,209.39c0-1.43-.1-1.74-.54-1.74-.17,0-.29.04-.39.06-.06.02-.1.04-.17.06-.23-.02-.62-.04-1.18-.04-1.53,0-2.53.41-3.92.68-1.99.5-3.4.06-3.4,2.34,0,1.16.62,1.47,1.78,1.47.71,0,1.93-.54,3.07-.81l.68-.15c.7-.12,1.49-.27,1.95-.35.1-.02.46-.06,1.08-.12.41-.02.83-.08.87-.12.15-.15.17-.68.17-1.29Z"/>
      <path class="cls-1" d="M247.97,199.67c0,.97-.81,2.34-1.99,2.34-.27,0-.56-.04-.81-.04-.83,0-1.7.37-2.09.37-.41,0-.91-.12-1.39-.12-1.55,0-1.45.64-1.45,2.22,0,2.57-.54,5.93-.54,8.27,0,.73.08,1.35.08,1.95,0,.17-.04.39-.04.56-.1.39-1.12,3.05-1.58,3.4-.23.15-.54.17-.93.17-1.89,0-2.71-.58-2.71-1.82,0-.52.08-1.1.08-1.58,0-3.11-.89-7.73-.89-12.52-.39.08-.77.12-1.1.12-1.58,0-2.86-.85-2.86-2.34,0-1.91,1.78-1.93,3.67-2.36v-.77c0-2.49-.81-4.27-.81-6.03s.43-2.2,1.99-2.76c.66-.27,2.18-.6,3.48-.6,1.55,0,3.13.25,3.13,3.44,0,.85-.02,1.82-.17,2.38-.17.75-.81,1.31-.81,1.8v.06c0,.31.12.83.12,1.14,0,.43-.25.75-.25,1.06,0,.39.43.44,1.24.44,2.26,0,3.29-.48,4.79-.48.33,0,.68.02.93.17.6.35.89.85.89,1.53Z"/>
      <path class="cls-1" d="M266.01,205.95c0,1.28-.75,2.61-.97,4-.02.15-.04.48-.04,1,0,.35-.02.7-.08.95-.14.68-.62,1.53-1.01,2.26-1.16,2.16-1.53,2.88-4.62,2.88-2.63,0-5.59-.6-7.19-1.33-1.89-.83-2.01-1.66-3-4.58-.5-1.49-1.01-2.96-1.01-4.19v-.23c0-.87.27-2.53.6-3.17.27-.64.79-.85.79-1.49,0-.37-.17-.54-.25-.85-.02-.08-.04-.19-.04-.29,0,0,.04-.08.1-.23.25-.77,1.31-3.05,2.49-3.05h.64c.77,0,2.28.37,3.73.37,1.26,0,2.61-.12,3.77-.12,3.34,0,3.09,1.84,3.69,3.15.23.5.89,1.02,1.33,1.82.23.39.19,1.02.42,1.43.23.6.58.85.64,1.2,0,.17.04.29.04.46ZM261.14,204.08c0-.89-.31-2.71-2.55-2.71-.68,0-1.45.21-2.13.21-.33,0-.7-.04-1.06-.04-1.93,0-2.32,1.7-2.32,3.75,0,2.65.37,3.4,1.35,3.9.43.17.64.08,1.06.25.48.17.5.68.97.68.19,0,.44-.04.68-.04.68,0,.91.56,1.24.56.17-.06,2.26-1.2,2.32-1.33.27-.43.25-2.11.31-2.76.06-.56.12-1.57.12-2.47Z"/>
      <path class="cls-1" d="M286.22,206.18c0,.23.04.35.04.58,0,1.68-1.62,1.64-3.4,2.13-.64.17-1.39.46-2.07.46-1.72,0-1.78-1.78-1.78-2.88,0-.33.04-.77.04-1.24,0-.83.08-2.63-1.31-2.63-.79,0-1.7.64-2.09.81-.81.37-2.38.79-2.38,1.53,0,1.26,1.37,4.33,1.37,4.7,0,.19-.12.35-.12.6,0,.77.5,1.78.5,2.84,0,.35-.1,2.4-.37,2.9-.29.46-.77.33-1.31.66-1.2.77-.81,1.33-2.51,1.33-2.38,0-3.15-1.14-3.15-3.81,0-1.82.7-3.56.93-5.53.14-1.33.25-2.96.25-4.29,0-.56-.04-1.18-.12-1.87-.06-.33-.25-.66-.25-.97,0-.85.46-1.87.52-2.8,0-.48-.19-.7-.19-1.01,0-1.16.83-1.47,1.14-1.51.06-.02.1-.02.12-.02.5,0,.91.1,1.22.31.89.68.95,1.86,1.04,2.86.06.64.1,1.12.44,1.12.5,0,1.43-.89,1.35-.81l.54-.41c.31-.23.68-.52,1-.68.48-.31,1.1-.33,1.58-.64.41-.31.85-.71,1.18-.93.64-.27,2.09-.56,2.9-.56s.97.62,1.82.85c1.08.35,2.92.04,2.92,2.24v.1c0,1.08.52,1.55.52,2.22,0,.31-.06.66-.06,1.02,0,.56.31,1.26.31,1.62-.06.54-.6.64-.6,1.74ZM274.03,199.71s.02,0,.04-.02c.02-.02.04-.04.08-.06h-.04l-.08.08Z"/>
    </g>
  </g>
</svg>