<?xml version="1.0" encoding="UTF-8"?>
<svg id="Layer_2" data-name="Layer 2" xmlns="http://www.w3.org/2000/svg" viewBox="0 0 404.95 290.28">
  <defs>
    <style>
      .cls-1 {
        font-family: DFVN-FreckleFace-Regular, 'DFVN Freckle Face';
        font-size: 42.45px;
      }

      .cls-1, .cls-2 {
        fill: #74a535;
      }

      .cls-3 {
        fill: #fff099;
      }

      .cls-4 {
        fill: #d12026;
      }

      .cls-5 {
        fill: #efd7bc;
      }

      .cls-6 {
        fill: #027248;
      }

      .cls-7 {
        letter-spacing: 0em;
      }
    </style>
  </defs>
  <g id="Layer_1-2" data-name="Layer 1">
    <g>
      <g>
        <path class="cls-6" d="M29.52,98.17s-5.5-25.87,14.62-32.62c0,0,3.98-17.06,26.59-17.46,0,0,12.13-15.95,28.69,1.01,0,0,13.02-2.5,20.1,12.32,0,0,12.06,15.81,12.63,41.22s-5.64,27.92-9.91,30.13c0,0-4.58,19.61-21.81,17.87,0,0-10.09,5.84-21.31.23,0,0-28.59,16.62-49.6-52.68Z"/>
        <path class="cls-2" d="M53.76,82.67s2.41-.39,4.42,2c0,0,4.74-9.83,24.27-1.76,0,0,4.96-9.72,10.8-10.67l-.37-7.04-12-1.07s-5.05-26.93,8.66-27.45l-5.37-15.38s-20.28,11.08-15.28,40.75l-15.78,10.96.65,9.67Z"/>
        <path class="cls-5" d="M89.84,30.18s-2.41-7.62-5.13-8.84c-2.72-1.22-.29,11.49,3.15,14.46,3.45,2.97,3.09-2.63,1.97-5.62Z"/>
        <g>
          <path class="cls-3" d="M95.45,76.1s-3.57.3-4.47,2.59c-.9,2.29,4.84,3.34,6.58.81,1.74-2.53-.69-3.68-2.12-3.4Z"/>
          <path class="cls-3" d="M42.09,69.66s-1.12,1.6-.09,3.23c1.03,1.62,3.72-.12,2.86-2.21s-2.42-1.75-2.77-1.01Z"/>
          <path class="cls-3" d="M59.99,52.79s-2.95.37-3.6,2.25c-.66,1.88,4.14,2.51,5.49.4,1.35-2.1-.71-2.94-1.88-2.66Z"/>
          <path class="cls-3" d="M108.26,58.05s-1.51.24-1.88,1.73c-.36,1.49,2.08,2.08,2.8.43s-.32-2.36-.92-2.16Z"/>
          <path class="cls-3" d="M90.84,48.33s-3.29-1.43-5.16.17c-1.87,1.6,2.69,5.23,5.42,3.83,2.73-1.4,1.13-3.57-.26-3.99Z"/>
          <path class="cls-3" d="M69.58,87.67s-6.18-.66-8.19,2.07c-2.01,2.73,5.8.85,11.11,2.99,4.15,1.67-.43-5.01-2.93-5.06Z"/>
          <path class="cls-3" d="M50.93,85.21s-4.33-2.31-6.52-1.03c-2.19,1.29,4,2.33,7.31,5.4,2.58,2.4,1.01-3.59-.79-4.38Z"/>
        </g>
      </g>
      <g>
        <path class="cls-6" d="M312.79,35.64s21.76-15.03,35.74.94c0,0,17.28-2.89,26.35,17.82,0,0,19.39,5.06,10.11,26.86,0,0,7.32,11.05-3.63,23.3,0,0-9.95,17.22-33.18,27.52-23.23,10.3-27.94,5.54-31.62,2.45,0,0-19.86,3.33-24.89-13.25,0,0-9.27-7.06-8.41-19.58,0,0-26.34-19.99,29.53-66.06Z"/>
        <path class="cls-2" d="M336.43,52.04s1.28,2.07-.14,4.85c0,0,10.9.59,10.96,21.72,0,0,10.88.83,14.01,5.86l6.36-3.05-3.63-11.49s22.91-15.03,28.67-2.57l12.12-10.88s-18.04-14.45-43.49,1.59l-16.19-10.35-8.67,4.33Z"/>
        <path class="cls-5" d="M398.76,65.13s6.1-5.16,6.19-8.14c.08-2.98-10.71,4.15-12.13,8.48-1.42,4.32,3.62,1.84,5.95-.34Z"/>
        <g>
          <path class="cls-3" d="M358.53,88s-1.65-3.18-4.11-3.13c-2.46.05-1.22,5.75,1.79,6.39,3,.63,3.13-2.05,2.32-3.26Z"/>
          <path class="cls-3" d="M343.94,36.26s-1.91-.41-3.01,1.16c-1.1,1.57,1.54,3.38,3.14,1.78,1.6-1.6.68-2.9-.13-2.94Z"/>
          <path class="cls-3" d="M366.4,46.29s-1.48-2.58-3.47-2.46c-1.99.12-.72,4.78,1.74,5.22s2.44-1.79,1.73-2.76Z"/>
          <path class="cls-3" d="M380.13,92.86s-.8-1.3-2.32-1.07-1.13,2.72.68,2.75c1.8.03,2.06-1.2,1.64-1.68Z"/>
          <path class="cls-3" d="M382.39,73.04s.05-3.58-2.14-4.7c-2.19-1.12-3.8,4.49-1.45,6.47,2.35,1.98,3.73-.33,3.59-1.77Z"/>
          <path class="cls-3" d="M337.9,68.57s-1.77-5.96-5.06-6.76c-3.29-.8,1.45,5.68,1.52,11.41.06,4.48,4.46-2.32,3.54-4.65Z"/>
          <path class="cls-3" d="M332.99,50.41s.47-4.89-1.56-6.41c-2.03-1.52-.61,4.59-2.17,8.83-1.22,3.31,3.71-.45,3.73-2.42Z"/>
        </g>
      </g>
      <g>
        <path class="cls-6" d="M204.85,155.34s-20.65-16.51-9.39-34.49c0,0-7.74-15.71,9.48-30.36,0,0-.74-20.03,22.82-17.41,0,0,8.48-10.19,23.36-3.23,0,0,19.35,4.57,35.91,23.86,16.55,19.28,13.35,25.16,11.45,29.57,0,0,8.9,18.06-5.53,27.65,0,0-4.1,10.91-16.33,13.69,0,0-11.56,30.98-71.76-9.28Z"/>
        <path class="cls-2" d="M213.76,127.98s1.62-1.83,4.68-1.26c0,0-2.57-10.6,17.65-16.75,0,0-2.33-10.66,1.58-15.1l-4.75-5.21-9.96,6.78s-20.98-17.62-10.71-26.72l-13.91-8.48s-8.65,21.43,14.03,41.19l-5.25,18.49,6.64,7.06Z"/>
        <path class="cls-5" d="M208.36,64.52s-6.69-4.36-9.57-3.58c-2.88.78,7.06,9.07,11.61,9.18,4.55.11.72-4-2.04-5.6Z"/>
        <g>
          <path class="cls-3" d="M241.83,96.47s-2.57,2.49-1.81,4.83c.76,2.34,5.86-.49,5.6-3.55-.26-3.06-2.87-2.41-3.79-1.29Z"/>
          <path class="cls-3" d="M196.49,125.33s.15,1.95,1.98,2.55,2.8-2.45.81-3.52c-1.99-1.07-2.98.18-2.78.97Z"/>
          <path class="cls-3" d="M199.63,100.93s-2.04,2.16-1.36,4.03c.68,1.87,4.79-.69,4.5-3.17-.29-2.48-2.41-1.82-3.14-.86Z"/>
          <path class="cls-3" d="M240.28,74.38s-1.02,1.14-.35,2.53,2.93.3,2.43-1.44c-.49-1.74-1.74-1.62-2.08-1.09Z"/>
          <path class="cls-3" d="M220.65,77.92s-3.45.98-3.89,3.4,5.4,2.34,6.62-.48c1.22-2.82-1.39-3.48-2.73-2.93Z"/>
          <path class="cls-3" d="M229.16,121.81s-5.2,3.41-5.02,6.79c.18,3.38,5.03-3.02,10.49-4.74,4.27-1.34-3.51-3.6-5.47-2.05Z"/>
          <path class="cls-3" d="M213.18,131.74s-4.81.96-5.69,3.34c-.87,2.38,4.58-.74,9.08-.46,3.52.22-1.5-3.42-3.39-2.88Z"/>
        </g>
      </g>
      <g>
        <path class="cls-6" d="M110.23,72.52s8.33-25.1,29.1-20.76c0,0,12.06-12.7,31.77-1.63,0,0,18.53-7.63,24.24,15.37,0,0,12.5,4.42,11.12,20.79,0,0,2.42,19.74-9.94,41.95-12.35,22.21-18.98,21.24-23.78,20.99,0,0-13.86,14.61-27.85,4.39,0,0-11.66-.06-18.5-10.58,0,0-33.07-.11-16.17-70.53Z"/>
        <path class="cls-2" d="M138.98,71.4s2.27.88,2.81,3.96c0,0,9.06-6.08,21.83,10.75,0,0,9.19-5.88,14.71-3.75l3.24-6.27-9.81-6.99s9.25-25.79,21.35-19.31l3.14-15.98s-23.1-.69-33.78,27.44l-19.16,1.48-4.32,8.67Z"/>
        <path class="cls-5" d="M196.64,44.35s1.77-7.79.04-10.22c-1.73-2.43-6.06,9.76-4.59,14.07,1.47,4.31,4-.71,4.54-3.85Z"/>
        <g>
          <path class="cls-3" d="M178.27,86.81s-3.23-1.55-5.16-.03c-1.93,1.52,2.49,5.33,5.27,4.03,2.78-1.3,1.26-3.53-.11-4Z"/>
          <path class="cls-3" d="M135.48,54.28s-1.77.82-1.71,2.74,3.27,1.78,3.58-.46c.32-2.24-1.2-2.73-1.87-2.27Z"/>
          <path class="cls-3" d="M159.46,48.77s-2.73-1.17-4.25.12,2.3,4.25,4.53,3.12c2.22-1.13.87-2.89-.28-3.24Z"/>
          <path class="cls-3" d="M198.45,77.71s-1.43-.56-2.49.54.74,2.85,2.19,1.78.92-2.2.3-2.33Z"/>
          <path class="cls-3" d="M188.33,60.52s-2.11-2.89-4.54-2.47-.33,5.87,2.74,6.04,2.78-2.51,1.8-3.58Z"/>
          <path class="cls-3" d="M150.11,83.71s-5-3.7-8.11-2.35c-3.11,1.34,4.58,3.67,8.08,8.2,2.74,3.54,2.16-4.54.03-5.84Z"/>
          <path class="cls-3" d="M135.25,72.16s-2.57-4.18-5.1-4.18c-2.54,0,2.28,4.04,3.58,8.36,1.02,3.38,2.69-2.59,1.53-4.18Z"/>
        </g>
      </g>
      <g>
        <path class="cls-6" d="M46.77,171.81s8.33-25.1,29.1-20.76c0,0,12.06-12.7,31.77-1.63,0,0,18.53-7.63,24.24,15.37,0,0,12.5,4.42,11.12,20.79,0,0,2.42,19.74-9.94,41.95-12.35,22.21-18.98,21.24-23.78,20.99,0,0-13.86,14.61-27.85,4.39,0,0-11.66-.06-18.5-10.58,0,0-33.07-.11-16.17-70.53Z"/>
        <path class="cls-2" d="M75.53,170.68s2.27.88,2.81,3.96c0,0,9.06-6.08,21.83,10.75,0,0,9.19-5.88,14.71-3.75l3.24-6.27-9.81-6.99s9.25-25.79,21.35-19.31l3.14-15.98s-23.1-.69-33.78,27.44l-19.16,1.48-4.32,8.67Z"/>
        <path class="cls-5" d="M133.18,143.63s1.77-7.79.04-10.22-6.06,9.76-4.59,14.07c1.47,4.31,4-.71,4.54-3.85Z"/>
        <g>
          <path class="cls-3" d="M114.82,186.09s-3.23-1.55-5.16-.03c-1.93,1.52,2.49,5.33,5.27,4.03,2.78-1.3,1.26-3.53-.11-4Z"/>
          <path class="cls-3" d="M72.03,153.56s-1.77.82-1.71,2.74,3.27,1.78,3.58-.46c.32-2.24-1.2-2.73-1.87-2.27Z"/>
          <path class="cls-3" d="M96,148.06s-2.73-1.17-4.25.12,2.3,4.25,4.53,3.12c2.22-1.13.87-2.89-.28-3.24Z"/>
          <path class="cls-3" d="M134.99,176.99s-1.43-.56-2.49.54c-1.07,1.1.74,2.85,2.19,1.78,1.46-1.06.92-2.2.3-2.33Z"/>
          <path class="cls-3" d="M124.87,159.8s-2.11-2.89-4.54-2.47-.33,5.87,2.74,6.04c3.07.17,2.78-2.51,1.8-3.58Z"/>
          <path class="cls-3" d="M86.65,183s-5-3.7-8.11-2.35c-3.11,1.34,4.58,3.67,8.08,8.2,2.74,3.54,2.16-4.54.03-5.84Z"/>
          <path class="cls-3" d="M71.8,171.45s-2.57-4.18-5.1-4.18c-2.54,0,2.28,4.04,3.58,8.36,1.02,3.38,2.69-2.59,1.53-4.18Z"/>
        </g>
      </g>
      <g>
        <path class="cls-6" d="M257.86,205.23s-10.91-24.09,7.29-35c0,0,.24-17.51,22.23-22.75,0,0,8.43-18.18,28.24-5.16,0,0,12.18-5.24,22.28,7.72,0,0,15.17,12.86,21.17,37.56,6,24.7.48,28.48-3.22,31.55,0,0-.27,20.14-17.48,22.13,0,0-8.6,7.87-20.77,4.79,0,0-24.36,22.36-59.73-40.83Z"/>
        <path class="cls-2" d="M278.22,184.89s2.27-.89,4.75,1c0,0,2.52-10.62,23.33-6.92,0,0,2.76-10.56,8.26-12.74l-1.87-6.8-11.95,1.52s-10.7-25.22,2.58-28.67l-8.54-13.87s-17.44,15.17-6.19,43.08l-13.07,14.09,2.71,9.3Z"/>
        <path class="cls-5" d="M302.21,125.89s-3.99-6.92-6.9-7.54c-2.92-.61,2.18,11.28,6.18,13.45,4,2.17,2.46-3.23.72-5.91Z"/>
        <g>
          <path class="cls-3" d="M317.54,169.55s-3.43,1.05-3.81,3.48c-.38,2.43,5.45,2.22,6.6-.62,1.16-2.84-1.46-3.45-2.79-2.87Z"/>
          <path class="cls-3" d="M264.03,174.69s-.75,1.81.6,3.17c1.35,1.36,3.61-.91,2.32-2.77-1.29-1.86-2.74-1.19-2.92-.4Z"/>
          <path class="cls-3" d="M277.9,154.38s-2.8,1-3.04,2.97c-.24,1.98,4.58,1.56,5.45-.78s-1.32-2.72-2.41-2.19Z"/>
          <path class="cls-3" d="M326.17,149.17s-1.43.56-1.46,2.09,2.47,1.59,2.82-.18c.35-1.77-.82-2.24-1.36-1.91Z"/>
          <path class="cls-3" d="M307.07,143.41s-3.52-.69-5.01,1.27,3.75,4.54,6.11,2.58c2.37-1.96.34-3.73-1.11-3.85Z"/>
          <path class="cls-3" d="M294.74,186.39s-6.18.68-7.55,3.77c-1.37,3.1,5.85-.41,11.5.54,4.42.74-1.49-4.8-3.94-4.31Z"/>
          <path class="cls-3" d="M276,187.98s-4.72-1.33-6.58.39c-1.86,1.72,4.41,1.42,8.3,3.71,3.04,1.79.22-3.73-1.71-4.11Z"/>
        </g>
      </g>
      <g>
        <path class="cls-6" d="M184.27,263.55s-26.2-3.59-25.74-24.81c0,0-14.7-9.53-7.42-30.93,0,0-10.9-16.82,10.67-26.65,0,0,2.05-13.1,18.4-14.74,0,0,18.96-5.99,43.06,2.08,24.1,8.07,24.36,14.76,24.99,19.53,0,0,16.9,10.95,9.42,26.57,0,0,2.08,11.47-7.01,20.13,0,0,5.95,32.53-66.37,28.82Z"/>
        <path class="cls-2" d="M177.9,235.49s.45-2.4,3.38-3.48c0,0-7.64-7.79,6.57-23.43,0,0-7.47-7.96-6.38-13.78l-6.75-2.04-5.08,10.93s-27.05-4.37-22.9-17.45l-16.29-.15s3.55,22.84,33.17,28.18l4.97,18.56,9.32,2.66Z"/>
        <path class="cls-5" d="M140.74,183.76s-7.98-.31-10.06,1.83c-2.07,2.14,10.71,4.17,14.67,1.93,3.97-2.23-1.43-3.8-4.62-3.76Z"/>
        <g>
          <path class="cls-3" d="M185.85,194.04s-.93,3.46.92,5.08c1.85,1.62,4.78-3.42,2.99-5.92-1.79-2.5-3.7-.6-3.91.84Z"/>
          <path class="cls-3" d="M161.71,242.07s1.13,1.59,3.01,1.18,1.15-3.54-1.11-3.44c-2.26.1-2.46,1.68-1.89,2.26Z"/>
          <path class="cls-3" d="M151.9,219.5s-.65,2.9.9,4.15,3.76-3.04,2.24-5.02-3.01-.33-3.14.87Z"/>
          <path class="cls-3" d="M173.2,175.87s-.29,1.5.99,2.35c1.28.85,2.66-1.25,1.35-2.48s-2.33-.5-2.34.13Z"/>
          <path class="cls-3" d="M158.16,188.97s-2.46,2.61-1.59,4.91c.87,2.3,5.83-.76,5.44-3.8s-2.98-2.28-3.84-1.11Z"/>
          <path class="cls-3" d="M187.97,222.29s-2.72,5.59-.83,8.4c1.89,2.81,2.77-5.17,6.58-9.44,2.98-3.34-4.86-1.29-5.75,1.04Z"/>
          <path class="cls-3" d="M179.33,239.01s-3.64,3.29-3.17,5.78,3.55-2.98,7.56-5.05c3.14-1.62-3.04-2.17-4.39-.74Z"/>
        </g>
      </g>
      <path class="cls-4" d="M399.9,113.43c0-7.26-5.88-13.14-13.14-13.14h-120.85L221.76,4.44c-1.76-3.83-6.28-5.51-10.11-3.74l-5.24,2.41c-3.83,1.76-5.5,6.29-3.74,10.11l40.08,87.06h-89.73L193.11,13.23c1.76-3.82.09-8.35-3.74-10.11l-5.24-2.41c-3.83-1.77-8.35-.09-10.11,3.74l-44.14,95.84H13.14c-3.63,0-6.91,1.47-9.29,3.85-2.38,2.38-3.85,5.66-3.85,9.29,0,5.67,3.61,10.51,8.66,12.34-.39.73-.61,1.57-.61,2.46v.04c0,2.91,2.37,5.28,5.28,5.28h9.56c-.32,1.21-.47,2.49-.4,3.81l2.77,53.4c.08,1.49.43,2.94,1.03,4.29.6,1.34,1.45,2.57,2.5,3.63,2.07,2.07,3.32,4.82,3.51,7.75l4,61.26c.14,2.22.9,4.36,2.18,6.17l7.99,11.32c2.27,3.21,5.94,5.11,9.87,5.11h287.23c3.86,0,7.49-1.85,9.77-4.97l6.45-8.85c1.35-1.86,2.15-4.07,2.29-6.36l3.79-60.9c.14-2.38,1-4.66,2.43-6.55l1.89-2.5c1.38-1.82,2.21-3.99,2.41-6.27l4.8-56.13c.12-1.46-.02-2.88-.39-4.2h7.44c2.92,0,5.28-2.37,5.28-5.28v-.04c0-.67-.13-1.33-.37-1.92,2.59-.52,4.9-1.8,6.69-3.59,2.38-2.38,3.85-5.66,3.85-9.28ZM58.6,254.41s0,0,0,0v3.25c0,2.65-2.15,4.8-4.8,4.8s-4.8-2.15-4.8-4.8v-48.86h0v-3.25c0-2.65,2.15-4.8,4.8-4.8,1.33,0,2.53.53,3.4,1.4.86.87,1.41,2.07,1.41,3.4v48.86ZM58.6,190.31s0,0,0,0v3.25c0,2.64-2.15,4.8-4.8,4.8s-4.8-2.16-4.8-4.8v-48.87h0v-3.25c0-2.64,2.15-4.8,4.8-4.8,1.33,0,2.53.54,3.4,1.4.86.87,1.41,2.07,1.41,3.4v48.87ZM78.09,254.41h0v3.25c0,2.65-2.15,4.8-4.8,4.8s-4.8-2.15-4.8-4.8v-48.86s0,0,0,0v-3.25c0-2.65,2.15-4.8,4.8-4.8,1.33,0,2.53.53,3.4,1.4.86.87,1.4,2.07,1.4,3.4v48.86ZM78.09,190.31h0v3.25c0,2.64-2.15,4.8-4.8,4.8s-4.8-2.16-4.8-4.8v-48.87s0,0,0,0v-3.25c0-2.64,2.15-4.8,4.8-4.8,1.33,0,2.53.54,3.4,1.4.86.87,1.4,2.07,1.4,3.4v48.87ZM97.58,254.41h0v3.25c0,2.65-2.16,4.8-4.8,4.8s-4.8-2.15-4.8-4.8v-48.86s0,0,0,0v-3.25c0-2.65,2.15-4.8,4.8-4.8,1.32,0,2.52.53,3.4,1.4.86.87,1.4,2.07,1.4,3.4v48.86ZM97.58,190.31h0v3.25c0,2.64-2.16,4.8-4.8,4.8s-4.8-2.16-4.8-4.8v-48.87s0,0,0,0v-3.25c0-2.64,2.15-4.8,4.8-4.8,1.32,0,2.52.54,3.4,1.4.86.87,1.4,2.07,1.4,3.4v48.87ZM117.06,255.26s0,0,0,0v3.25c0,2.65-2.15,4.8-4.8,4.8s-4.8-2.15-4.8-4.8v-48.86s0,0,0,0v-3.25c0-2.65,2.16-4.8,4.8-4.8,1.33,0,2.52.54,3.4,1.4s1.4,2.07,1.4,3.4v48.86ZM117.06,191.15s0,0,0,0v3.25c0,2.65-2.15,4.8-4.8,4.8s-4.8-2.15-4.8-4.8v-48.86s0,0,0,0v-3.25c0-2.65,2.16-4.8,4.8-4.8,1.33,0,2.52.54,3.4,1.4s1.4,2.07,1.4,3.4v48.86ZM136.55,255.26s0,0,0,0v3.25c0,2.65-2.15,4.8-4.8,4.8s-4.8-2.15-4.8-4.8v-48.86h0v-3.25c0-2.65,2.15-4.8,4.8-4.8,1.33,0,2.52.54,3.4,1.4.87.86,1.4,2.07,1.4,3.4v48.86ZM136.55,191.15s0,0,0,0v3.25c0,2.65-2.15,4.8-4.8,4.8s-4.8-2.15-4.8-4.8v-48.86h0v-3.25c0-2.65,2.15-4.8,4.8-4.8,1.33,0,2.52.54,3.4,1.4s1.4,2.07,1.4,3.4v48.86ZM156.04,255.26s0,0,0,0v3.25c0,2.65-2.16,4.8-4.8,4.8s-4.8-2.15-4.8-4.8v-48.86h0v-3.25c0-2.65,2.15-4.8,4.8-4.8,1.33,0,2.52.54,3.4,1.4.86.86,1.4,2.07,1.4,3.4v48.86ZM156.04,191.15s0,0,0,0v3.25c0,2.65-2.16,4.8-4.8,4.8s-4.8-2.15-4.8-4.8v-48.86h0v-3.25c0-2.65,2.15-4.8,4.8-4.8,1.33,0,2.52.54,3.4,1.4.86.86,1.4,2.07,1.4,3.4v48.86ZM175.52,255.26h0v3.25c0,2.65-2.15,4.8-4.8,4.8s-4.8-2.15-4.8-4.8v-48.86s0,0,0,0v-3.25c0-2.65,2.16-4.8,4.8-4.8,1.33,0,2.53.54,3.4,1.4.86.86,1.4,2.07,1.4,3.4v48.86ZM175.52,191.15h0v3.25c0,2.65-2.15,4.8-4.8,4.8s-4.8-2.15-4.8-4.8v-48.86s0,0,0,0v-3.25c0-2.65,2.16-4.8,4.8-4.8,1.33,0,2.53.54,3.4,1.4.86.86,1.4,2.07,1.4,3.4v48.86ZM195.01,255.26h0v3.25c0,2.65-2.15,4.8-4.8,4.8s-4.8-2.15-4.8-4.8v-48.86s0,0,0,0v-3.25c0-2.65,2.15-4.8,4.8-4.8,1.33,0,2.53.54,3.4,1.4.86.86,1.4,2.07,1.4,3.4v48.86ZM195.01,191.15h0v3.25c0,2.65-2.15,4.8-4.8,4.8s-4.8-2.15-4.8-4.8v-48.86s0,0,0,0v-3.25c0-2.65,2.15-4.8,4.8-4.8,1.33,0,2.53.54,3.4,1.4.86.86,1.4,2.07,1.4,3.4v48.86ZM214.49,255.26s0,0,0,0v3.25c0,2.65-2.16,4.8-4.8,4.8s-4.8-2.15-4.8-4.8v-48.86s0,0,0,0v-3.25c0-2.65,2.15-4.8,4.8-4.8,1.32,0,2.52.54,3.4,1.4.86.86,1.4,2.07,1.4,3.4v48.86ZM214.49,191.15s0,0,0,0v3.25c0,2.65-2.16,4.8-4.8,4.8s-4.8-2.15-4.8-4.8v-48.86s0,0,0,0v-3.25c0-2.65,2.15-4.8,4.8-4.8,1.32,0,2.52.54,3.4,1.4.86.86,1.4,2.07,1.4,3.4v48.86ZM233.98,255.26s0,0,0,0v3.25c0,2.65-2.16,4.8-4.81,4.8s-4.8-2.15-4.8-4.8v-48.86h0v-3.25c0-2.65,2.16-4.8,4.8-4.8,1.33,0,2.53.54,3.41,1.4.86.86,1.4,2.07,1.4,3.4v48.86ZM233.98,191.15s0,0,0,0v3.25c0,2.65-2.16,4.8-4.81,4.8s-4.8-2.15-4.8-4.8v-48.86h0v-3.25c0-2.65,2.16-4.8,4.8-4.8,1.33,0,2.53.54,3.41,1.4.86.86,1.4,2.07,1.4,3.4v48.86ZM253.46,255.26s0,0,0,0v3.25c0,2.65-2.15,4.8-4.8,4.8s-4.8-2.15-4.8-4.8v-48.86h0v-3.25c0-2.65,2.15-4.8,4.8-4.8,1.33,0,2.52.54,3.4,1.4.87.86,1.4,2.07,1.4,3.4v48.86ZM253.46,191.15s0,0,0,0v3.25c0,2.65-2.15,4.8-4.8,4.8s-4.8-2.15-4.8-4.8v-48.86h0v-3.25c0-2.65,2.15-4.8,4.8-4.8,1.33,0,2.52.54,3.4,1.4.87.86,1.4,2.07,1.4,3.4v48.86ZM272.95,255.26h0v3.25c0,2.65-2.15,4.8-4.8,4.8s-4.8-2.15-4.8-4.8v-48.86h0v-3.25c0-2.65,2.15-4.8,4.8-4.8,1.33,0,2.52.54,3.4,1.4s1.4,2.07,1.4,3.4v48.86ZM272.95,191.15h0v3.25c0,2.65-2.15,4.8-4.8,4.8s-4.8-2.15-4.8-4.8v-48.86h0v-3.25c0-2.65,2.15-4.8,4.8-4.8,1.33,0,2.52.54,3.4,1.4s1.4,2.07,1.4,3.4v48.86ZM292.44,255.26h0v3.25c0,2.65-2.16,4.8-4.8,4.8s-4.8-2.15-4.8-4.8v-48.86s0,0,0,0v-3.25c0-2.65,2.15-4.8,4.8-4.8,1.33,0,2.52.54,3.4,1.4.86.86,1.4,2.07,1.4,3.4v48.86ZM292.44,191.15h0v3.25c0,2.65-2.16,4.8-4.8,4.8s-4.8-2.15-4.8-4.8v-48.86s0,0,0,0v-3.25c0-2.65,2.15-4.8,4.8-4.8,1.33,0,2.52.54,3.4,1.4.86.86,1.4,2.07,1.4,3.4v48.86ZM311.92,255.26s0,0,0,0v3.25c0,2.65-2.15,4.8-4.8,4.8s-4.8-2.15-4.8-4.8v-48.86s0,0,0,0v-3.25c0-2.65,2.16-4.8,4.8-4.8,1.33,0,2.53.54,3.4,1.4.86.86,1.4,2.07,1.4,3.4v48.86ZM311.92,191.15s0,0,0,0v3.25c0,2.65-2.15,4.8-4.8,4.8s-4.8-2.15-4.8-4.8v-48.86s0,0,0,0v-3.25c0-2.65,2.16-4.8,4.8-4.8,1.33,0,2.53.54,3.4,1.4.86.86,1.4,2.07,1.4,3.4v48.86ZM331.41,255.26s0,0,0,0v3.25c0,2.65-2.15,4.8-4.8,4.8s-4.8-2.15-4.8-4.8v-48.86s0,0,0,0v-3.25c0-2.65,2.15-4.8,4.8-4.8,1.33,0,2.53.54,3.4,1.4.86.86,1.4,2.07,1.4,3.4v48.86ZM331.41,191.15s0,0,0,0v3.25c0,2.65-2.15,4.8-4.8,4.8s-4.8-2.15-4.8-4.8v-48.86s0,0,0,0v-3.25c0-2.65,2.15-4.8,4.8-4.8,1.33,0,2.53.54,3.4,1.4.86.86,1.4,2.07,1.4,3.4v48.86ZM350.9,255.26s0,0,0,0v3.25c0,2.65-2.16,4.8-4.8,4.8s-4.8-2.15-4.8-4.8v-48.86h0v-3.25c0-2.65,2.15-4.8,4.8-4.8,1.32,0,2.52.54,3.4,1.4.86.86,1.4,2.07,1.4,3.4v48.86ZM350.9,191.15s0,0,0,0v3.25c0,2.65-2.16,4.8-4.8,4.8s-4.8-2.15-4.8-4.8v-48.86h0v-3.25c0-2.65,2.15-4.8,4.8-4.8,1.32,0,2.52.54,3.4,1.4.86.86,1.4,2.07,1.4,3.4v48.86Z"/>
      <rect class="cls-3" x="76.21" y="153.72" width="247.75" height="86.17" rx="30.45" ry="30.45"/>
      <text class="cls-1" transform="translate(111.07 218.09)"><tspan x="0" y="0">Anima</tspan><tspan class="cls-7" x="106.96" y="0">t</tspan><tspan x="123.68" y="0">ion</tspan></text>
    </g>
  </g>
</svg>