<?xml version="1.0" encoding="UTF-8"?>
<svg id="Layer_2" data-name="Layer 2" xmlns="http://www.w3.org/2000/svg" viewBox="0 0 399.9 298.15">
  <defs>
    <style>
      .cls-1 {
        fill: #74a535;
      }

      .cls-2 {
        fill: #fff099;
      }

      .cls-3 {
        fill: #d12026;
      }

      .cls-4 {
        fill: #efd7bc;
      }

      .cls-5 {
        fill: #461e52;
      }
    </style>
  </defs>
  <g id="Layer_1-2" data-name="Layer 1">
    <g>
      <path class="cls-5" d="M350.05,46.11c-.43.82-25.02,47.74-39.65,65.76s-37.47,49.23-9.6,71.98,64.02-5.13,76.96-49.17,8.52-84.96,1.33-92.61-22.49-8.4-29.04,4.04Z"/>
      <path class="cls-1" d="M349.41,0s-2.25,8.32-4.15,7.51c0,0,14.01,5.52,15.91,11.33,1.89,5.81-5.21,13.68-6.52,15.14s-4.64,4.46-3.96,13.54-1.75,12.25-1.75,12.25c0,0,14.67-20.81,16.16-21.09,0,0-15.36,22.37,1.35,47.24,0,0,17.93-30.66,18.48-34.38,0,0,1.87,17.51.55,20.21,0,0,8.12-13.5-2.06-35.51,0,0-.99-3.06-9.3-9.06-8.31-6.01-24.72-27.17-24.72-27.17Z"/>
      <path class="cls-4" d="M302.67,170.49s-13.2-8.63-5.23-23.02c7.97-14.39,1.88,8.8,4.64,14.67,2.77,5.87,5.64,11.42.59,8.35Z"/>
      <path class="cls-4" d="M303.51,139.22s-3.52-2.5.56-6.89c4.08-4.39,3.6.03,4.83,2.62s-3.01,6.1-5.39,4.27Z"/>
    </g>
    <g>
      <path class="cls-5" d="M131.67,170.85c-.47-.8-27.69-46.25-35.43-68.13-7.74-21.88-22.46-57.65-56.41-45.73-33.95,11.92-29.01,57.3,1.82,91.31,30.83,34.01,68.05,51.57,78.33,49.43,10.28-2.15,18.9-14.8,11.69-26.88Z"/>
      <path class="cls-1" d="M171.34,194.35s-5.92-6.26-4.25-7.45c0,0-12.02,9.08-17.97,7.66-5.95-1.42-8.96-11.58-9.52-13.46s-1.39-6.29-9.48-10.44c-8.09-4.15-9.54-7.88-9.54-7.88,0,0,10.11,23.37,9.57,24.79,0,0-11.07-24.77-41.01-23.48,0,0,16.81,31.29,19.69,33.7,0,0-15.92-7.53-17.53-10.07,0,0,7.28,13.97,31.37,16.77,0,0,3.12.75,12.58-3.21,9.46-3.95,36.08-6.92,36.08-6.92Z"/>
      <path class="cls-4" d="M50.25,65.55s14.25-6.76,22.37,7.54c8.12,14.3-8.48-2.99-14.94-3.69-6.45-.7-12.69-1.14-7.44-3.85Z"/>
      <path class="cls-4" d="M76.49,82.58s3.97-1.7,5.58,4.07c1.62,5.77-1.9,3.05-4.75,2.75-2.84-.3-3.63-5.75-.83-6.83Z"/>
    </g>
    <g>
      <path class="cls-5" d="M97.67,96.36c.56.74,32.83,42.75,43.04,63.6,10.21,20.84,28.95,54.68,61.31,38.93,32.35-15.75,22.21-60.26-12.33-90.49-34.54-30.23-73.54-43.39-83.5-40.08-9.96,3.32-17.06,16.88-8.52,28.05Z"/>
      <path class="cls-1" d="M55.56,77.59s6.61,5.54,5.08,6.92c0,0,10.89-10.4,16.96-9.68,6.07.72,10.23,10.47,11,12.27.77,1.79,2.1,6.08,10.62,9.28,8.52,3.19,10.39,6.73,10.39,6.73,0,0-12.73-22.05-12.36-23.52,0,0,13.85,23.33,43.44,18.6,0,0-20.3-29.15-23.44-31.2,0,0,16.68,5.65,18.57,7.98,0,0-8.84-13.04-33.09-13.04,0,0-3.19-.38-12.13,4.63-8.94,5.02-35.04,11.03-35.04,11.03Z"/>
      <path class="cls-4" d="M190.68,191.57s-13.38,8.35-23.09-4.92c-9.71-13.27,8.77,1.99,15.26,1.94,6.49-.05,12.73-.33,7.83,2.97Z"/>
      <path class="cls-4" d="M162.65,177.69s-3.74,2.15-6.01-3.4c-2.27-5.55,1.54-3.25,4.4-3.28s4.27,5.29,1.61,6.69Z"/>
    </g>
    <g>
      <path class="cls-5" d="M293.02,76.58c-.92.11-53.53,6.35-76.66,4.46-23.13-1.88-61.79-3.08-64.8,32.78-3.01,35.86,40.42,49.91,84.07,35.68,43.64-14.22,74.89-41,77.14-51.26,2.25-10.26-5.78-23.3-19.75-21.67Z"/>
      <path class="cls-1" d="M330.69,49.98s-8.14,2.85-8.54.83c0,0,3.37,14.68-.36,19.53-3.72,4.85-14.23,3.43-16.17,3.18-1.94-.25-6.3-1.3-13.41,4.38s-11.09,5.49-11.09,5.49c0,0,25.46.34,26.53,1.41,0,0-27.13-.03-38.2,27.82,0,0,35.43-2.54,38.8-4.19,0,0-13.39,11.44-16.36,11.88,0,0,15.73-.93,28.13-21.77,0,0,1.96-2.54,2.22-12.79.26-10.25,8.44-35.76,8.44-35.76Z"/>
      <path class="cls-4" d="M163.63,107.81s-.34-15.77,16.03-17.33c16.37-1.56-6.2,6.52-9.47,12.12-3.28,5.6-6.23,11.11-6.56,5.21Z"/>
      <path class="cls-4" d="M189.9,90.82s.07-4.31,6-3.43c5.93.89,2.01,2.99.57,5.46-1.44,2.47-6.73.96-6.57-2.03Z"/>
    </g>
    <g>
      <path class="cls-5" d="M334.6,198.55c-.92.13-53.33,7.85-76.5,6.62-23.18-1.23-61.86-1.34-63.85,34.59-2,35.93,41.81,48.75,85.04,33.3,43.23-15.45,73.71-43.1,75.67-53.41,1.96-10.32-6.44-23.13-20.35-21.1Z"/>
      <path class="cls-1" d="M371.5,170.9s-8.05,3.07-8.51,1.07c0,0,3.78,14.58.19,19.53-3.59,4.95-14.13,3.83-16.07,3.63-1.94-.2-6.34-1.13-13.28,4.76-6.94,5.89-10.93,5.8-10.93,5.8,0,0,25.46-.38,26.56.66,0,0-27.12.74-37.4,28.88,0,0,35.35-3.54,38.67-5.28,0,0-13.06,11.82-16.02,12.34,0,0,15.69-1.37,27.51-22.55,0,0,1.89-2.6,1.86-12.85-.03-10.25,7.43-35.98,7.43-35.98Z"/>
      <path class="cls-4" d="M206.15,233.41s-.78-15.75,15.54-17.77c16.32-2.02-6.01,6.69-9.13,12.38s-5.91,11.28-6.41,5.39Z"/>
      <path class="cls-4" d="M231.92,215.69s-.05-4.31,5.9-3.6,2.09,2.93.72,5.44c-1.37,2.51-6.7,1.15-6.63-1.85Z"/>
    </g>
    <g>
      <path class="cls-5" d="M72.5,182.33c.87.33,50.33,19.29,73.22,23.14,22.89,3.85,60.66,12.18,54.78,47.68-5.88,35.5-51.44,38.46-90.26,13.96-38.82-24.5-62.54-58.13-62.2-68.63.34-10.49,11.32-21.17,24.46-16.16Z"/>
      <path class="cls-1" d="M42.51,147.3s7.19,4.76,8.08,2.9c0,0-6.87,13.41-4.45,19.02,2.42,5.61,12.95,6.82,14.89,7.05,1.94.23,6.43.28,11.92,7.54,5.49,7.26,9.41,8.04,9.41,8.04,0,0-24.76-5.92-26.07-5.15,0,0,26.31,6.63,30.2,36.34,0,0-33.72-11.16-36.59-13.59,0,0,10.17,14.38,12.94,15.53,0,0-15.02-4.76-21.93-28.01,0,0-1.28-2.95.99-12.95,2.26-10,.6-36.73.6-36.73Z"/>
      <path class="cls-4" d="M190.26,244.36s4.2-15.2-11.29-20.73c-15.49-5.53,4.41,7.84,6.21,14.08,1.8,6.23,3.31,12.3,5.08,6.66Z"/>
      <path class="cls-4" d="M168.97,221.45s.99-4.2-4.98-4.8-2.68,2.4-1.89,5.15c.79,2.75,6.29,2.58,6.87-.36Z"/>
    </g>
    <path class="cls-3" d="M399.9,121.3c0-7.26-5.88-13.14-13.14-13.14h-120.85L221.76,12.31c-1.76-3.83-6.28-5.51-10.11-3.74l-5.24,2.41c-3.83,1.76-5.5,6.29-3.74,10.11l40.08,87.06h-89.73l40.09-87.06c1.76-3.82.09-8.35-3.74-10.11l-5.24-2.41c-3.83-1.77-8.35-.09-10.11,3.74l-44.14,95.84H13.14c-3.63,0-6.91,1.47-9.29,3.85-2.38,2.38-3.85,5.66-3.85,9.29,0,5.67,3.61,10.51,8.66,12.34-.39.73-.61,1.57-.61,2.46v.04c0,2.91,2.37,5.28,5.28,5.28h9.56c-.32,1.21-.47,2.49-.4,3.81l2.77,53.4c.08,1.49.43,2.94,1.03,4.29.6,1.34,1.45,2.57,2.5,3.63,2.07,2.07,3.32,4.82,3.51,7.75l4,61.26c.14,2.22.9,4.36,2.18,6.17l7.99,11.32c2.27,3.21,5.94,5.11,9.87,5.11h287.23c3.86,0,7.49-1.85,9.77-4.97l6.45-8.85c1.35-1.86,2.15-4.07,2.29-6.36l3.79-60.9c.14-2.38,1-4.66,2.43-6.55l1.89-2.5c1.38-1.82,2.21-3.99,2.41-6.27l4.8-56.13c.12-1.46-.02-2.88-.39-4.2h7.44c2.92,0,5.28-2.37,5.28-5.28v-.04c0-.67-.13-1.33-.37-1.92,2.59-.52,4.9-1.8,6.69-3.59,2.38-2.38,3.85-5.66,3.85-9.28ZM58.6,262.28s0,0,0,0v3.25c0,2.65-2.15,4.8-4.8,4.8s-4.8-2.15-4.8-4.8v-48.86h0v-3.25c0-2.65,2.15-4.8,4.8-4.8,1.33,0,2.53.53,3.4,1.4.86.87,1.41,2.07,1.41,3.4v48.86ZM58.6,198.18s0,0,0,0v3.25c0,2.64-2.15,4.8-4.8,4.8s-4.8-2.16-4.8-4.8v-48.87h0v-3.25c0-2.64,2.15-4.8,4.8-4.8,1.33,0,2.53.54,3.4,1.4.86.87,1.41,2.07,1.41,3.4v48.87ZM78.09,262.28h0v3.25c0,2.65-2.15,4.8-4.8,4.8s-4.8-2.15-4.8-4.8v-48.86s0,0,0,0v-3.25c0-2.65,2.15-4.8,4.8-4.8,1.33,0,2.53.53,3.4,1.4.86.87,1.4,2.07,1.4,3.4v48.86ZM78.09,198.18h0v3.25c0,2.64-2.15,4.8-4.8,4.8s-4.8-2.16-4.8-4.8v-48.87s0,0,0,0v-3.25c0-2.64,2.15-4.8,4.8-4.8,1.33,0,2.53.54,3.4,1.4.86.87,1.4,2.07,1.4,3.4v48.87ZM97.58,262.28h0v3.25c0,2.65-2.16,4.8-4.8,4.8s-4.8-2.15-4.8-4.8v-48.86s0,0,0,0v-3.25c0-2.65,2.15-4.8,4.8-4.8,1.32,0,2.52.53,3.4,1.4.86.87,1.4,2.07,1.4,3.4v48.86ZM97.58,198.18h0v3.25c0,2.64-2.16,4.8-4.8,4.8s-4.8-2.16-4.8-4.8v-48.87s0,0,0,0v-3.25c0-2.64,2.15-4.8,4.8-4.8,1.32,0,2.52.54,3.4,1.4.86.87,1.4,2.07,1.4,3.4v48.87ZM117.06,263.13s0,0,0,0v3.25c0,2.65-2.15,4.8-4.8,4.8s-4.8-2.15-4.8-4.8v-48.86s0,0,0,0v-3.25c0-2.65,2.16-4.8,4.8-4.8,1.33,0,2.52.54,3.4,1.4s1.4,2.07,1.4,3.4v48.86ZM117.06,199.02s0,0,0,0v3.25c0,2.65-2.15,4.8-4.8,4.8s-4.8-2.15-4.8-4.8v-48.86s0,0,0,0v-3.25c0-2.65,2.16-4.8,4.8-4.8,1.33,0,2.52.54,3.4,1.4s1.4,2.07,1.4,3.4v48.86ZM136.55,263.13s0,0,0,0v3.25c0,2.65-2.15,4.8-4.8,4.8s-4.8-2.15-4.8-4.8v-48.86h0v-3.25c0-2.65,2.15-4.8,4.8-4.8,1.33,0,2.52.54,3.4,1.4.87.86,1.4,2.07,1.4,3.4v48.86ZM136.55,199.02s0,0,0,0v3.25c0,2.65-2.15,4.8-4.8,4.8s-4.8-2.15-4.8-4.8v-48.86h0v-3.25c0-2.65,2.15-4.8,4.8-4.8,1.33,0,2.52.54,3.4,1.4s1.4,2.07,1.4,3.4v48.86ZM156.04,263.13s0,0,0,0v3.25c0,2.65-2.16,4.8-4.8,4.8s-4.8-2.15-4.8-4.8v-48.86h0v-3.25c0-2.65,2.15-4.8,4.8-4.8,1.33,0,2.52.54,3.4,1.4.86.86,1.4,2.07,1.4,3.4v48.86ZM156.04,199.02s0,0,0,0v3.25c0,2.65-2.16,4.8-4.8,4.8s-4.8-2.15-4.8-4.8v-48.86h0v-3.25c0-2.65,2.15-4.8,4.8-4.8,1.33,0,2.52.54,3.4,1.4.86.86,1.4,2.07,1.4,3.4v48.86ZM175.52,263.13h0v3.25c0,2.65-2.15,4.8-4.8,4.8s-4.8-2.15-4.8-4.8v-48.86s0,0,0,0v-3.25c0-2.65,2.16-4.8,4.8-4.8,1.33,0,2.53.54,3.4,1.4.86.86,1.4,2.07,1.4,3.4v48.86ZM175.52,199.02h0v3.25c0,2.65-2.15,4.8-4.8,4.8s-4.8-2.15-4.8-4.8v-48.86s0,0,0,0v-3.25c0-2.65,2.16-4.8,4.8-4.8,1.33,0,2.53.54,3.4,1.4.86.86,1.4,2.07,1.4,3.4v48.86ZM195.01,263.13h0v3.25c0,2.65-2.15,4.8-4.8,4.8s-4.8-2.15-4.8-4.8v-48.86s0,0,0,0v-3.25c0-2.65,2.15-4.8,4.8-4.8,1.33,0,2.53.54,3.4,1.4.86.86,1.4,2.07,1.4,3.4v48.86ZM195.01,199.02h0v3.25c0,2.65-2.15,4.8-4.8,4.8s-4.8-2.15-4.8-4.8v-48.86s0,0,0,0v-3.25c0-2.65,2.15-4.8,4.8-4.8,1.33,0,2.53.54,3.4,1.4.86.86,1.4,2.07,1.4,3.4v48.86ZM214.49,263.13s0,0,0,0v3.25c0,2.65-2.16,4.8-4.8,4.8s-4.8-2.15-4.8-4.8v-48.86s0,0,0,0v-3.25c0-2.65,2.15-4.8,4.8-4.8,1.32,0,2.52.54,3.4,1.4.86.86,1.4,2.07,1.4,3.4v48.86ZM214.49,199.02s0,0,0,0v3.25c0,2.65-2.16,4.8-4.8,4.8s-4.8-2.15-4.8-4.8v-48.86s0,0,0,0v-3.25c0-2.65,2.15-4.8,4.8-4.8,1.32,0,2.52.54,3.4,1.4.86.86,1.4,2.07,1.4,3.4v48.86ZM233.98,263.13s0,0,0,0v3.25c0,2.65-2.16,4.8-4.81,4.8s-4.8-2.15-4.8-4.8v-48.86h0v-3.25c0-2.65,2.16-4.8,4.8-4.8,1.33,0,2.53.54,3.41,1.4.86.86,1.4,2.07,1.4,3.4v48.86ZM233.98,199.02s0,0,0,0v3.25c0,2.65-2.16,4.8-4.81,4.8s-4.8-2.15-4.8-4.8v-48.86h0v-3.25c0-2.65,2.16-4.8,4.8-4.8,1.33,0,2.53.54,3.41,1.4.86.86,1.4,2.07,1.4,3.4v48.86ZM253.46,263.13s0,0,0,0v3.25c0,2.65-2.15,4.8-4.8,4.8s-4.8-2.15-4.8-4.8v-48.86h0v-3.25c0-2.65,2.15-4.8,4.8-4.8,1.33,0,2.52.54,3.4,1.4.87.86,1.4,2.07,1.4,3.4v48.86ZM253.46,199.02s0,0,0,0v3.25c0,2.65-2.15,4.8-4.8,4.8s-4.8-2.15-4.8-4.8v-48.86h0v-3.25c0-2.65,2.15-4.8,4.8-4.8,1.33,0,2.52.54,3.4,1.4.87.86,1.4,2.07,1.4,3.4v48.86ZM272.95,263.13h0v3.25c0,2.65-2.15,4.8-4.8,4.8s-4.8-2.15-4.8-4.8v-48.86h0v-3.25c0-2.65,2.15-4.8,4.8-4.8,1.33,0,2.52.54,3.4,1.4s1.4,2.07,1.4,3.4v48.86ZM272.95,199.02h0v3.25c0,2.65-2.15,4.8-4.8,4.8s-4.8-2.15-4.8-4.8v-48.86h0v-3.25c0-2.65,2.15-4.8,4.8-4.8,1.33,0,2.52.54,3.4,1.4s1.4,2.07,1.4,3.4v48.86ZM292.44,263.13h0v3.25c0,2.65-2.16,4.8-4.8,4.8s-4.8-2.15-4.8-4.8v-48.86s0,0,0,0v-3.25c0-2.65,2.15-4.8,4.8-4.8,1.33,0,2.52.54,3.4,1.4.86.86,1.4,2.07,1.4,3.4v48.86ZM292.44,199.02h0v3.25c0,2.65-2.16,4.8-4.8,4.8s-4.8-2.15-4.8-4.8v-48.86s0,0,0,0v-3.25c0-2.65,2.15-4.8,4.8-4.8,1.33,0,2.52.54,3.4,1.4.86.86,1.4,2.07,1.4,3.4v48.86ZM311.92,263.13s0,0,0,0v3.25c0,2.65-2.15,4.8-4.8,4.8s-4.8-2.15-4.8-4.8v-48.86s0,0,0,0v-3.25c0-2.65,2.16-4.8,4.8-4.8,1.33,0,2.53.54,3.4,1.4.86.86,1.4,2.07,1.4,3.4v48.86ZM311.92,199.02s0,0,0,0v3.25c0,2.65-2.15,4.8-4.8,4.8s-4.8-2.15-4.8-4.8v-48.86s0,0,0,0v-3.25c0-2.65,2.16-4.8,4.8-4.8,1.33,0,2.53.54,3.4,1.4.86.86,1.4,2.07,1.4,3.4v48.86ZM331.41,263.13s0,0,0,0v3.25c0,2.65-2.15,4.8-4.8,4.8s-4.8-2.15-4.8-4.8v-48.86s0,0,0,0v-3.25c0-2.65,2.15-4.8,4.8-4.8,1.33,0,2.53.54,3.4,1.4.86.86,1.4,2.07,1.4,3.4v48.86ZM331.41,199.02s0,0,0,0v3.25c0,2.65-2.15,4.8-4.8,4.8s-4.8-2.15-4.8-4.8v-48.86s0,0,0,0v-3.25c0-2.65,2.15-4.8,4.8-4.8,1.33,0,2.53.54,3.4,1.4.86.86,1.4,2.07,1.4,3.4v48.86ZM350.9,263.13s0,0,0,0v3.25c0,2.65-2.16,4.8-4.8,4.8s-4.8-2.15-4.8-4.8v-48.86h0v-3.25c0-2.65,2.15-4.8,4.8-4.8,1.32,0,2.52.54,3.4,1.4.86.86,1.4,2.07,1.4,3.4v48.86ZM350.9,199.02s0,0,0,0v3.25c0,2.65-2.16,4.8-4.8,4.8s-4.8-2.15-4.8-4.8v-48.86h0v-3.25c0-2.65,2.15-4.8,4.8-4.8,1.32,0,2.52.54,3.4,1.4.86.86,1.4,2.07,1.4,3.4v48.86Z"/>
    <rect class="cls-2" x="76.08" y="161.59" width="247.75" height="86.17" rx="30.45" ry="30.45"/>
    <g>
      <path class="cls-1" d="M137.84,223.54c-.62.33-2.4.73-3.77.73-.91,0-2.76-.68-2.76-2.03,0-.56-.04-1.14-.04-1.7,0-1.8.08-3.73.08-5.74,0-1.89-.08-3.77-.33-5.76-1.28.83-1.97,2.78-2.9,4.17-.41.64-1.1,1-1.43,1.55-.33.56-.27,1.1-.5,1.49-.23.42-.7.64-1.84.64h-.21c-1.68,0-1.76-1.33-2.8-2.9-.31-.42-.68-.66-.93-1.06-.68-1.08-1.41-2.71-1.97-3.9.06,1.06.08,2.13.08,3.36v2.36c0,1.01,0,2.05.06,3.03.06,1.14.54,2.51.54,3.69,0,1.12-.37.95-1.18,1.82-.83.87-1.33,2.11-2.71,2.11-1.74,0-3.92-1.02-3.92-2.67,0-1.06.39-2.63.39-4.37,0-1.33.42-1.7.58-2.8.27-1.66.29-3.94.39-6.03.06-1,.42-1.84.42-3.09,0-1.16-.46-1.91-.46-3.44,0-1,.66-2.4,1.1-3.81.23-.72.06-1.51.25-1.7.1-.21,1.37-.64,1.58-.68.39,0,.62.33,1.18.44,1.6.33,3.21.08,3.92.89.77.83,1.33,2.71,1.99,3.94.31.56.79.97,1.01,1.45.17.31.12.75.31,1.06.17.37,2.07,3.65,2.32,3.65.66,0,1.1-2.13,1.82-3.4.44-.73,1.06-1.31,1.45-2.11.75-1.58,1.51-6.28,3.73-6.28.71,0,.89.48,1.91.81.93.27,1.99.23,2.51.75.56.62.62,1.91.68,3.19,0,.93-.08,1.82-.08,2.59,0,1.26.5,1.7.5,3.48,0,.85-.08,1.82-.08,2.67,0,2.11.68,2.22,1.08,3.27.17.46.35,1.76.41,2.36,0,3.11-.89,7.21-2.38,7.98Z"/>
      <path class="cls-1" d="M145.45,226.09c-2.2-.23-2.86-1.6-3.03-3.81,0-.56.27-1.1.27-1.78,0-.77-.17-1.57-.17-2.34,0-1.89.39-7.54.97-8.7.48-.97,1.22-1.39,2.07-1.39,2.22,0,2.92,1.84,2.92,4.75,0,.64-.08,1.24-.08,1.82,0,2.32,1.16,4.58,1.16,6.2,0,.25-.04.6-.04.85,0,1.01.29,1.62.29,2.13,0,.25-.06.48-.17.71-.46.68-3.03,1.57-4.21,1.57ZM145.45,204.31c-1.51,0-2.32-.62-2.32-2.67,0-1.64,1.16-2.82,1.16-3.42.71-.54,2.76-.91,3.07-.91,1.49,0,2.55.62,2.55,1.29,0,.33-.08.73-.08,1,.06.75.39,1.74.39,2.51,0,2.03-3.32,2.22-4.77,2.22Z"/>
      <path class="cls-1" d="M168.5,225.15c-.64.39-1.22.56-1.87.56-.7,0-1.35-.23-1.95-.68-.23-.17-.46-.75-.77-1.06-.77-.64-2.13-1.7-2.63-2.59-.56-1-1.29-3.15-1.87-3.15-.23,0-.37.37-.77,1.02-.14.27-.41.29-.52.52-.06.14-.08.27-.08.39v.17c0,.1-.02.19-.04.25-.14.17-.5.15-.66.37-.43.56-1.04,2.22-1.57,2.76-.23.23-.66.35-1.06.68-.48.35-1.06.85-1.78.85-.6,0-1.89-.68-1.89-1.7,0-.31.33-.66.39-1.14.23-1.39.73-2.76,1.99-3.77.29-.29.77-.37,1.02-.68.64-.64.93-1.41,1.45-2.47.04-.06.19-.27.41-.6.15-.23.27-.44.27-.58-.06-.44-.29-.35-.68-.81-.5-.6-.62-1.04-1.18-1.7-.19-.23-.62-.33-.77-.52-.35-.48-.48-1.22-.81-1.82-.77-1.26-1.82-1.58-1.82-2.67,0-.89.72-1.43,1.7-1.43,2.2,0,2.8,2.45,4.19,3.56.35.29.99.73,1.45.93.15.08.27.12.37.12,0-.02.08-.08.25-.21.89-.68,1.99-1.78,1.99-2.98,0-.29,0-.48.14-.77.17-.37,2.38-2.49,3.03-2.76.56-.23,1.2-.14,1.6-.21,1.14,0,1.7.52,1.7,1.7,0,.23-.25,1.8-.81,2.47-.33.37-1.57.48-3.56,3.52-.37.6-.77,1.68-.77,1.87.19.48.97.29,1.33.64.33.31.5,1.08.89,1.55,3.34,4.1,5.04,1.68,5.78,5.78.15.64.37,1.14.37,1.58-.1.89-1.76,2.59-2.47,3Z"/>
      <path class="cls-1" d="M205.58,222.15h-.48c-.08,0-.54.04-.93.04-1.49,0-1.24-1.24-1.58-2.13-.1-.27-.89-1.43-.89-1.91,0-.6.77-1.7.77-2.42,0-.41-.12-1.16-.12-1.55,0-.93.12-1.87.12-2.59,0-.85-.21-1.45-1.14-1.45-2.18,0-2.96,2.63-2.96,2.96,0,1.22.68,2.9.85,4.72.14,1.55.21,3.34.21,4.66,0,.97-.27,1.91-1.16,2.42-.33.23-.89.17-1.31.25-.52.1-2.09.64-3.27.64-1.26,0-1.14-.46-1.7-1.28-.5-.73-1.06-.91-1.06-1.78,0-.64.29-1.18.29-1.87,0-1.26-.29-2.9-.29-4.1,0-.23.04-.64.04-1.16,0-1.16-.08-1.74-.89-1.74-.7,0-1.76.52-2.15.68-.91.39-2.09.77-2.09,2.22,0,.7.56,1.7.56,2.53,0,.19-.04.35-.04.52,0,.93.81,1.74.81,2.3,0,2.92,0,4.62-2.26,4.62-.54,0-2.61-.39-3-.89-.17-.33-.44-1.72-.44-2.8,0-.64.31-.97.31-1.41,0-.66-.17-1.89-.17-2.76,0-.56.54-2.71.54-4.46s-.17-3.27-.17-4.79-.1-3.4,1.74-3.4c1.41,0,2.16.5,2.16,2.96,0,.73-.17,1.33-.17,2.22,2.32-.33,3.73-1.3,5.91-1.97.72-.23,1.39-.5,2.03-.5,1.22,0,1.89.97,2.51.97,1.1,0,1.02-2.76,3.15-2.76.48,0,.99.04,1.47.04,1.53,0,3.96-.68,4.64-.68,1.02,0,3.65,1.45,3.65,10.65,0,.64-.31,1.2-.31,1.6v.1c0,.52.31,1.35.31,1.82v.12c-.33,1.1-1.97,1.33-3.48,1.33Z"/>
      <path class="cls-1" d="M229.83,222.4c0,.89-.21.73-.81,1.49-.66,1.06-1.2,2.45-2.82,2.45-.99,0-2.32-.33-3.21-.33-1.91,0-3.92,0-5.66-.41-1.14-.33-2.67-.48-3.52-1.16-2.36-2.36-2.65-5.55-2.88-10.9-.06-.93-.25-1.87-.25-2.34,0-.23.29-.77.37-1.18.06-.27.1-.56.1-.83,0-.06-.02-.15-.02-.23,0-.21.02-.33.04-.39.17-.37,1.14-1.1,1.57-1.7.58-.83,6.67-3.05,10.49-3.13,1.06,0,2.71.85,3.56,1.7.23.23.39.85.64,1.18.89,1.14.89,1.33.89,1.74v.29c0,.19.02.42.04.68.06.77.08,1.49.08,2.26,0,1.6-1.74,1.84-4.08,2.96-.97.48-2.16.64-3.09.64h-.17s-.1-.02-.17-.04h-.06c-.33,0-1.91.68-3.25.68-.89,0-1.66.58-1.66.89,0,1.08.58,1.99,1.66,2.2.68.31,1.31.37,1.95.37,1.06,0,2.13-.25,3.61-.25.68,0,1.1.25,1.66.25,1.18,0,2.3-.54,3.13-.54,1.08,0,1.47.73,1.7,2.24.06.56.15,1.01.15,1.41ZM221.75,210.98c0-1.66-.66-2.63-1.06-2.63-1.08,0-4.64.93-5.04,1.53-.15.23-.19.66-.19,1.22,0,1.16.12,1.82.52,1.82.5,0,1.28-.37,1.53-.41,1.24-.23,3.81-.12,4.14-1.06.06-.15.08-.31.08-.48Z"/>
      <path class="cls-1" d="M253.54,224.39c0,1.33-.75,2.63-3.29,2.63-3.44,0-3.63-.72-3.63-2.96,0-.48.04-.97.1-1.49-1.08.31-2.13.5-3.71.81-.56.08-1.04.52-1.51.52-.31,0-.66-.12-.97-.12-.73,0-1.53.37-2.09.37-.5,0-1.1-.37-1.95-.37h-.72c-2.2,0-4.54-2.36-4.54-2.63-.1-.17-.25-1.78-.25-1.97-.02-.21-.04-.62-.04-1.22,0-1.64.29-3,.29-4.79,0-.44-.04-.89-.04-1.37,0-.77.31-.97.42-1.53.06-.12.08-.27.08-.43,0-.08-.02-.17-.02-.25,0-.17.04-.33.12-.5.06-.23.12-.31.85-1.14.1-.15.21-.29.29-.44.5-.87.54-1.78,1.06-2.07.33-.23,1.64-.35,2.51-.56,1.24-.31,3.17-.54,4.89-.54,2.45,0,3.58,1.14,5.35,1.47.15-1.06.21-2.63.21-4.21s-.35-3.42-.35-4.46c0-.75.81-2.32,1.97-2.32.89,0,2.11.77,2.11,1.43,0,.35-.17.68-.17,1.16.06.41.42.93.5,1.43.33,1.26-.06,4.64.43,7.36.17,1,.97,1.37.97,2.59,0,.5-.08,1.06-.08,1.74.17,3.19.6,7.38.93,11.02.08,1.1.29,2.03.29,2.84ZM243.95,210.94c-.77-.17-.83-.48-1.51-.48-1.06,0-2.11.08-2.67.48-.56.46-1.06,2.65-1.06,4.5s.35,2.47,1.51,2.47c1.04,0,2.42-.58,3.07-.68.62-.06,3.48-.39,3.69-.68.08-.08.12-.41.12-.81,0-.73-.12-1.78-.12-1.95,0-.06.25-1.1.25-1.82,0-.27-.04-.5-.12-.64-.27-.31-1.82-.1-3.15-.37Z"/>
      <path class="cls-1" d="M258.77,226.09c-2.2-.23-2.86-1.6-3.03-3.81,0-.56.27-1.1.27-1.78,0-.77-.17-1.57-.17-2.34,0-1.89.39-7.54.97-8.7.48-.97,1.22-1.39,2.07-1.39,2.22,0,2.92,1.84,2.92,4.75,0,.64-.08,1.24-.08,1.82,0,2.32,1.16,4.58,1.16,6.2,0,.25-.04.6-.04.85,0,1.01.29,1.62.29,2.13,0,.25-.06.48-.17.71-.46.68-3.03,1.57-4.21,1.57ZM258.77,204.31c-1.51,0-2.32-.62-2.32-2.67,0-1.64,1.16-2.82,1.16-3.42.71-.54,2.76-.91,3.07-.91,1.49,0,2.55.62,2.55,1.29,0,.33-.08.73-.08,1,.06.75.39,1.74.39,2.51,0,2.03-3.32,2.22-4.77,2.22Z"/>
      <path class="cls-1" d="M284.97,214.98c0,1.97-.23,4-.48,5.88-.08.6-.25,1.26-.25,1.74,0,1.01.29,1.99.29,2.8,0,.35-.85,2.63-3,2.63-1.24,0-1.58-.81-1.58-1.91,0-.77.17-1.7.33-2.63-.64.15-1.26.6-1.82.93-2.42,1.43-4.66,3.4-8.95,3.4-.06,0-.37.02-.52.02-.35,0-1.31-.02-1.95-.39-1.2-1.2-2.32-3.92-2.32-4.21-.02-.06-.04-.21-.04-.39,0-1.14.42-2.67.42-2.92,0-.68-.17-1.3-.17-2.07,0-.35.02-.77.17-1.2,0-.04.64-1.55.81-1.68.39-.33,1.41-.39,2.22-.77.64-.31,1.14-.89,1.55-1.06.27-.15.81-.17,1.33-.39.75-.23,2.18-.83,3.27-.93.25,0,.62.12,1.14.12.39,0,.93-.25,1.7-.25s1.55.17,1.95.17c.31,0,.33-.21.33-.46,0-.83-.79-2.4-.93-2.59-.42-.52-.97-.81-1.39-.81-.44,0-.85.17-1.37.17-.39,0-.79-.08-1.18-.08-1.87,0-5.22,2.22-6.53,2.55-.35.08-.77.17-1.12.17-.43,0-1.78-1.02-1.78-1.91,0-1.35,1.62-1.55,2.63-2.18.64-.39,1.62-.95,2.22-1.43.64-.52.79-.97,1.18-1.2.39-.23,1.35-.39,2.07-.62.46-.17,1.72-.68,2.18-.68h.08c1.04.37,2.78.35,4.08.68.23.06.39.29.62.37,2.05.6,2.57.89,3.69,5.22.1.5.5.89.64,1.31.37,1.12.48,3.36.48,4.6ZM280.08,217.26c0-1.43-.1-1.74-.54-1.74-.17,0-.29.04-.39.06-.06.02-.1.04-.17.06-.23-.02-.62-.04-1.18-.04-1.53,0-2.53.41-3.92.68-1.99.5-3.4.06-3.4,2.34,0,1.16.62,1.47,1.78,1.47.71,0,1.93-.54,3.07-.81l.68-.15c.7-.12,1.49-.27,1.95-.35.1-.02.46-.06,1.08-.12.41-.02.83-.08.87-.12.15-.15.17-.68.17-1.29Z"/>
    </g>
  </g>
</svg>