<?xml version="1.0" encoding="UTF-8"?>
<svg id="Layer_2" data-name="Layer 2" xmlns="http://www.w3.org/2000/svg" viewBox="0 0 399.9 298.15">
  <defs>
    <style>
      .cls-1 {
        font-family: DFVN-FreckleFace-Regular, 'DFVN Freckle Face';
        font-size: 42.45px;
      }

      .cls-1, .cls-2 {
        fill: #74a535;
      }

      .cls-3 {
        letter-spacing: 0em;
      }

      .cls-4 {
        fill: #fff099;
      }

      .cls-5 {
        fill: #d12026;
      }

      .cls-6 {
        fill: #efd7bc;
      }

      .cls-7 {
        fill: #461e52;
      }
    </style>
  </defs>
  <g id="Layer_1-2" data-name="Layer 1">
    <g>
      <path class="cls-7" d="M350.05,46.11c-.43.82-25.02,47.74-39.65,65.76s-37.47,49.23-9.6,71.98,64.02-5.13,76.96-49.17,8.52-84.96,1.33-92.61-22.49-8.4-29.04,4.04Z"/>
      <path class="cls-2" d="M349.41,0s-2.25,8.32-4.15,7.51c0,0,14.01,5.52,15.91,11.33,1.89,5.81-5.21,13.68-6.52,15.14s-4.64,4.46-3.96,13.54-1.75,12.25-1.75,12.25c0,0,14.67-20.81,16.16-21.09,0,0-15.36,22.37,1.35,47.24,0,0,17.93-30.66,18.48-34.38,0,0,1.87,17.51.55,20.21,0,0,8.12-13.5-2.06-35.51,0,0-.99-3.06-9.3-9.06-8.31-6.01-24.72-27.17-24.72-27.17Z"/>
      <path class="cls-6" d="M302.67,170.49s-13.2-8.63-5.23-23.02c7.97-14.39,1.88,8.8,4.64,14.67,2.77,5.87,5.64,11.42.59,8.35Z"/>
      <path class="cls-6" d="M303.51,139.22s-3.52-2.5.56-6.89c4.08-4.39,3.6.03,4.83,2.62s-3.01,6.1-5.39,4.27Z"/>
    </g>
    <g>
      <path class="cls-7" d="M131.67,170.85c-.47-.8-27.69-46.25-35.43-68.13-7.74-21.88-22.46-57.65-56.41-45.73-33.95,11.92-29.01,57.3,1.82,91.31,30.83,34.01,68.05,51.57,78.33,49.43,10.28-2.15,18.9-14.8,11.69-26.88Z"/>
      <path class="cls-2" d="M171.34,194.35s-5.92-6.26-4.25-7.45c0,0-12.02,9.08-17.97,7.66-5.95-1.42-8.96-11.58-9.52-13.46s-1.39-6.29-9.48-10.44c-8.09-4.15-9.54-7.88-9.54-7.88,0,0,10.11,23.37,9.57,24.79,0,0-11.07-24.77-41.01-23.48,0,0,16.81,31.29,19.69,33.7,0,0-15.92-7.53-17.53-10.07,0,0,7.28,13.97,31.37,16.77,0,0,3.12.75,12.58-3.21,9.46-3.95,36.08-6.92,36.08-6.92Z"/>
      <path class="cls-6" d="M50.25,65.55s14.25-6.76,22.37,7.54c8.12,14.3-8.48-2.99-14.94-3.69-6.45-.7-12.69-1.14-7.44-3.85Z"/>
      <path class="cls-6" d="M76.49,82.58s3.97-1.7,5.58,4.07c1.62,5.77-1.9,3.05-4.75,2.75-2.84-.3-3.63-5.75-.83-6.83Z"/>
    </g>
    <g>
      <path class="cls-7" d="M97.67,96.36c.56.74,32.83,42.75,43.04,63.6,10.21,20.84,28.95,54.68,61.31,38.93,32.35-15.75,22.21-60.26-12.33-90.49-34.54-30.23-73.54-43.39-83.5-40.08-9.96,3.32-17.06,16.88-8.52,28.05Z"/>
      <path class="cls-2" d="M55.56,77.59s6.61,5.54,5.08,6.92c0,0,10.89-10.4,16.96-9.68,6.07.72,10.23,10.47,11,12.27.77,1.79,2.1,6.08,10.62,9.28,8.52,3.19,10.39,6.73,10.39,6.73,0,0-12.73-22.05-12.36-23.52,0,0,13.85,23.33,43.44,18.6,0,0-20.3-29.15-23.44-31.2,0,0,16.68,5.65,18.57,7.98,0,0-8.84-13.04-33.09-13.04,0,0-3.19-.38-12.13,4.63-8.94,5.02-35.04,11.03-35.04,11.03Z"/>
      <path class="cls-6" d="M190.68,191.57s-13.38,8.35-23.09-4.92c-9.71-13.27,8.77,1.99,15.26,1.94,6.49-.05,12.73-.33,7.83,2.97Z"/>
      <path class="cls-6" d="M162.65,177.69s-3.74,2.15-6.01-3.4c-2.27-5.55,1.54-3.25,4.4-3.28s4.27,5.29,1.61,6.69Z"/>
    </g>
    <g>
      <path class="cls-7" d="M293.02,76.58c-.92.11-53.53,6.35-76.66,4.46-23.13-1.88-61.79-3.08-64.8,32.78-3.01,35.86,40.42,49.91,84.07,35.68,43.64-14.22,74.89-41,77.14-51.26,2.25-10.26-5.78-23.3-19.75-21.67Z"/>
      <path class="cls-2" d="M330.69,49.98s-8.14,2.85-8.54.83c0,0,3.37,14.68-.36,19.53-3.72,4.85-14.23,3.43-16.17,3.18-1.94-.25-6.3-1.3-13.41,4.38s-11.09,5.49-11.09,5.49c0,0,25.46.34,26.53,1.41,0,0-27.13-.03-38.2,27.82,0,0,35.43-2.54,38.8-4.19,0,0-13.39,11.44-16.36,11.88,0,0,15.73-.93,28.13-21.77,0,0,1.96-2.54,2.22-12.79.26-10.25,8.44-35.76,8.44-35.76Z"/>
      <path class="cls-6" d="M163.63,107.81s-.34-15.77,16.03-17.33c16.37-1.56-6.2,6.52-9.47,12.12-3.28,5.6-6.23,11.11-6.56,5.21Z"/>
      <path class="cls-6" d="M189.9,90.82s.07-4.31,6-3.43c5.93.89,2.01,2.99.57,5.46-1.44,2.47-6.73.96-6.57-2.03Z"/>
    </g>
    <g>
      <path class="cls-7" d="M334.6,198.55c-.92.13-53.33,7.85-76.5,6.62-23.18-1.23-61.86-1.34-63.85,34.59-2,35.93,41.81,48.75,85.04,33.3,43.23-15.45,73.71-43.1,75.67-53.41,1.96-10.32-6.44-23.13-20.35-21.1Z"/>
      <path class="cls-2" d="M371.5,170.9s-8.05,3.07-8.51,1.07c0,0,3.78,14.58.19,19.53-3.59,4.95-14.13,3.83-16.07,3.63-1.94-.2-6.34-1.13-13.28,4.76-6.94,5.89-10.93,5.8-10.93,5.8,0,0,25.46-.38,26.56.66,0,0-27.12.74-37.4,28.88,0,0,35.35-3.54,38.67-5.28,0,0-13.06,11.82-16.02,12.34,0,0,15.69-1.37,27.51-22.55,0,0,1.89-2.6,1.86-12.85-.03-10.25,7.43-35.98,7.43-35.98Z"/>
      <path class="cls-6" d="M206.15,233.41s-.78-15.75,15.54-17.77c16.32-2.02-6.01,6.69-9.13,12.38s-5.91,11.28-6.41,5.39Z"/>
      <path class="cls-6" d="M231.92,215.69s-.05-4.31,5.9-3.6,2.09,2.93.72,5.44c-1.37,2.51-6.7,1.15-6.63-1.85Z"/>
    </g>
    <g>
      <path class="cls-7" d="M72.5,182.33c.87.33,50.33,19.29,73.22,23.14,22.89,3.85,60.66,12.18,54.78,47.68-5.88,35.5-51.44,38.46-90.26,13.96-38.82-24.5-62.54-58.13-62.2-68.63.34-10.49,11.32-21.17,24.46-16.16Z"/>
      <path class="cls-2" d="M42.51,147.3s7.19,4.76,8.08,2.9c0,0-6.87,13.41-4.45,19.02,2.42,5.61,12.95,6.82,14.89,7.05,1.94.23,6.43.28,11.92,7.54,5.49,7.26,9.41,8.04,9.41,8.04,0,0-24.76-5.92-26.07-5.15,0,0,26.31,6.63,30.2,36.34,0,0-33.72-11.16-36.59-13.59,0,0,10.17,14.38,12.94,15.53,0,0-15.02-4.76-21.93-28.01,0,0-1.28-2.95.99-12.95,2.26-10,.6-36.73.6-36.73Z"/>
      <path class="cls-6" d="M190.26,244.36s4.2-15.2-11.29-20.73c-15.49-5.53,4.41,7.84,6.21,14.08,1.8,6.23,3.31,12.3,5.08,6.66Z"/>
      <path class="cls-6" d="M168.97,221.45s.99-4.2-4.98-4.8-2.68,2.4-1.89,5.15c.79,2.75,6.29,2.58,6.87-.36Z"/>
    </g>
    <path class="cls-5" d="M399.9,121.3c0-7.26-5.88-13.14-13.14-13.14h-120.85L221.76,12.31c-1.76-3.83-6.28-5.51-10.11-3.74l-5.24,2.41c-3.83,1.76-5.5,6.29-3.74,10.11l40.08,87.06h-89.73l40.09-87.06c1.76-3.82.09-8.35-3.74-10.11l-5.24-2.41c-3.83-1.77-8.35-.09-10.11,3.74l-44.14,95.84H13.14c-3.63,0-6.91,1.47-9.29,3.85-2.38,2.38-3.85,5.66-3.85,9.29,0,5.67,3.61,10.51,8.66,12.34-.39.73-.61,1.57-.61,2.46v.04c0,2.91,2.37,5.28,5.28,5.28h9.56c-.32,1.21-.47,2.49-.4,3.81l2.77,53.4c.08,1.49.43,2.94,1.03,4.29.6,1.34,1.45,2.57,2.5,3.63,2.07,2.07,3.32,4.82,3.51,7.75l4,61.26c.14,2.22.9,4.36,2.18,6.17l7.99,11.32c2.27,3.21,5.94,5.11,9.87,5.11h287.23c3.86,0,7.49-1.85,9.77-4.97l6.45-8.85c1.35-1.86,2.15-4.07,2.29-6.36l3.79-60.9c.14-2.38,1-4.66,2.43-6.55l1.89-2.5c1.38-1.82,2.21-3.99,2.41-6.27l4.8-56.13c.12-1.46-.02-2.88-.39-4.2h7.44c2.92,0,5.28-2.37,5.28-5.28v-.04c0-.67-.13-1.33-.37-1.92,2.59-.52,4.9-1.8,6.69-3.59,2.38-2.38,3.85-5.66,3.85-9.28ZM58.6,262.28s0,0,0,0v3.25c0,2.65-2.15,4.8-4.8,4.8s-4.8-2.15-4.8-4.8v-48.86h0v-3.25c0-2.65,2.15-4.8,4.8-4.8,1.33,0,2.53.53,3.4,1.4.86.87,1.41,2.07,1.41,3.4v48.86ZM58.6,198.18s0,0,0,0v3.25c0,2.64-2.15,4.8-4.8,4.8s-4.8-2.16-4.8-4.8v-48.87h0v-3.25c0-2.64,2.15-4.8,4.8-4.8,1.33,0,2.53.54,3.4,1.4.86.87,1.41,2.07,1.41,3.4v48.87ZM78.09,262.28h0v3.25c0,2.65-2.15,4.8-4.8,4.8s-4.8-2.15-4.8-4.8v-48.86s0,0,0,0v-3.25c0-2.65,2.15-4.8,4.8-4.8,1.33,0,2.53.53,3.4,1.4.86.87,1.4,2.07,1.4,3.4v48.86ZM78.09,198.18h0v3.25c0,2.64-2.15,4.8-4.8,4.8s-4.8-2.16-4.8-4.8v-48.87s0,0,0,0v-3.25c0-2.64,2.15-4.8,4.8-4.8,1.33,0,2.53.54,3.4,1.4.86.87,1.4,2.07,1.4,3.4v48.87ZM97.58,262.28h0v3.25c0,2.65-2.16,4.8-4.8,4.8s-4.8-2.15-4.8-4.8v-48.86s0,0,0,0v-3.25c0-2.65,2.15-4.8,4.8-4.8,1.32,0,2.52.53,3.4,1.4.86.87,1.4,2.07,1.4,3.4v48.86ZM97.58,198.18h0v3.25c0,2.64-2.16,4.8-4.8,4.8s-4.8-2.16-4.8-4.8v-48.87s0,0,0,0v-3.25c0-2.64,2.15-4.8,4.8-4.8,1.32,0,2.52.54,3.4,1.4.86.87,1.4,2.07,1.4,3.4v48.87ZM117.06,263.13s0,0,0,0v3.25c0,2.65-2.15,4.8-4.8,4.8s-4.8-2.15-4.8-4.8v-48.86s0,0,0,0v-3.25c0-2.65,2.16-4.8,4.8-4.8,1.33,0,2.52.54,3.4,1.4s1.4,2.07,1.4,3.4v48.86ZM117.06,199.02s0,0,0,0v3.25c0,2.65-2.15,4.8-4.8,4.8s-4.8-2.15-4.8-4.8v-48.86s0,0,0,0v-3.25c0-2.65,2.16-4.8,4.8-4.8,1.33,0,2.52.54,3.4,1.4s1.4,2.07,1.4,3.4v48.86ZM136.55,263.13s0,0,0,0v3.25c0,2.65-2.15,4.8-4.8,4.8s-4.8-2.15-4.8-4.8v-48.86h0v-3.25c0-2.65,2.15-4.8,4.8-4.8,1.33,0,2.52.54,3.4,1.4.87.86,1.4,2.07,1.4,3.4v48.86ZM136.55,199.02s0,0,0,0v3.25c0,2.65-2.15,4.8-4.8,4.8s-4.8-2.15-4.8-4.8v-48.86h0v-3.25c0-2.65,2.15-4.8,4.8-4.8,1.33,0,2.52.54,3.4,1.4s1.4,2.07,1.4,3.4v48.86ZM156.04,263.13s0,0,0,0v3.25c0,2.65-2.16,4.8-4.8,4.8s-4.8-2.15-4.8-4.8v-48.86h0v-3.25c0-2.65,2.15-4.8,4.8-4.8,1.33,0,2.52.54,3.4,1.4.86.86,1.4,2.07,1.4,3.4v48.86ZM156.04,199.02s0,0,0,0v3.25c0,2.65-2.16,4.8-4.8,4.8s-4.8-2.15-4.8-4.8v-48.86h0v-3.25c0-2.65,2.15-4.8,4.8-4.8,1.33,0,2.52.54,3.4,1.4.86.86,1.4,2.07,1.4,3.4v48.86ZM175.52,263.13h0v3.25c0,2.65-2.15,4.8-4.8,4.8s-4.8-2.15-4.8-4.8v-48.86s0,0,0,0v-3.25c0-2.65,2.16-4.8,4.8-4.8,1.33,0,2.53.54,3.4,1.4.86.86,1.4,2.07,1.4,3.4v48.86ZM175.52,199.02h0v3.25c0,2.65-2.15,4.8-4.8,4.8s-4.8-2.15-4.8-4.8v-48.86s0,0,0,0v-3.25c0-2.65,2.16-4.8,4.8-4.8,1.33,0,2.53.54,3.4,1.4.86.86,1.4,2.07,1.4,3.4v48.86ZM195.01,263.13h0v3.25c0,2.65-2.15,4.8-4.8,4.8s-4.8-2.15-4.8-4.8v-48.86s0,0,0,0v-3.25c0-2.65,2.15-4.8,4.8-4.8,1.33,0,2.53.54,3.4,1.4.86.86,1.4,2.07,1.4,3.4v48.86ZM195.01,199.02h0v3.25c0,2.65-2.15,4.8-4.8,4.8s-4.8-2.15-4.8-4.8v-48.86s0,0,0,0v-3.25c0-2.65,2.15-4.8,4.8-4.8,1.33,0,2.53.54,3.4,1.4.86.86,1.4,2.07,1.4,3.4v48.86ZM214.49,263.13s0,0,0,0v3.25c0,2.65-2.16,4.8-4.8,4.8s-4.8-2.15-4.8-4.8v-48.86s0,0,0,0v-3.25c0-2.65,2.15-4.8,4.8-4.8,1.32,0,2.52.54,3.4,1.4.86.86,1.4,2.07,1.4,3.4v48.86ZM214.49,199.02s0,0,0,0v3.25c0,2.65-2.16,4.8-4.8,4.8s-4.8-2.15-4.8-4.8v-48.86s0,0,0,0v-3.25c0-2.65,2.15-4.8,4.8-4.8,1.32,0,2.52.54,3.4,1.4.86.86,1.4,2.07,1.4,3.4v48.86ZM233.98,263.13s0,0,0,0v3.25c0,2.65-2.16,4.8-4.81,4.8s-4.8-2.15-4.8-4.8v-48.86h0v-3.25c0-2.65,2.16-4.8,4.8-4.8,1.33,0,2.53.54,3.41,1.4.86.86,1.4,2.07,1.4,3.4v48.86ZM233.98,199.02s0,0,0,0v3.25c0,2.65-2.16,4.8-4.81,4.8s-4.8-2.15-4.8-4.8v-48.86h0v-3.25c0-2.65,2.16-4.8,4.8-4.8,1.33,0,2.53.54,3.41,1.4.86.86,1.4,2.07,1.4,3.4v48.86ZM253.46,263.13s0,0,0,0v3.25c0,2.65-2.15,4.8-4.8,4.8s-4.8-2.15-4.8-4.8v-48.86h0v-3.25c0-2.65,2.15-4.8,4.8-4.8,1.33,0,2.52.54,3.4,1.4.87.86,1.4,2.07,1.4,3.4v48.86ZM253.46,199.02s0,0,0,0v3.25c0,2.65-2.15,4.8-4.8,4.8s-4.8-2.15-4.8-4.8v-48.86h0v-3.25c0-2.65,2.15-4.8,4.8-4.8,1.33,0,2.52.54,3.4,1.4.87.86,1.4,2.07,1.4,3.4v48.86ZM272.95,263.13h0v3.25c0,2.65-2.15,4.8-4.8,4.8s-4.8-2.15-4.8-4.8v-48.86h0v-3.25c0-2.65,2.15-4.8,4.8-4.8,1.33,0,2.52.54,3.4,1.4s1.4,2.07,1.4,3.4v48.86ZM272.95,199.02h0v3.25c0,2.65-2.15,4.8-4.8,4.8s-4.8-2.15-4.8-4.8v-48.86h0v-3.25c0-2.65,2.15-4.8,4.8-4.8,1.33,0,2.52.54,3.4,1.4s1.4,2.07,1.4,3.4v48.86ZM292.44,263.13h0v3.25c0,2.65-2.16,4.8-4.8,4.8s-4.8-2.15-4.8-4.8v-48.86s0,0,0,0v-3.25c0-2.65,2.15-4.8,4.8-4.8,1.33,0,2.52.54,3.4,1.4.86.86,1.4,2.07,1.4,3.4v48.86ZM292.44,199.02h0v3.25c0,2.65-2.16,4.8-4.8,4.8s-4.8-2.15-4.8-4.8v-48.86s0,0,0,0v-3.25c0-2.65,2.15-4.8,4.8-4.8,1.33,0,2.52.54,3.4,1.4.86.86,1.4,2.07,1.4,3.4v48.86ZM311.92,263.13s0,0,0,0v3.25c0,2.65-2.15,4.8-4.8,4.8s-4.8-2.15-4.8-4.8v-48.86s0,0,0,0v-3.25c0-2.65,2.16-4.8,4.8-4.8,1.33,0,2.53.54,3.4,1.4.86.86,1.4,2.07,1.4,3.4v48.86ZM311.92,199.02s0,0,0,0v3.25c0,2.65-2.15,4.8-4.8,4.8s-4.8-2.15-4.8-4.8v-48.86s0,0,0,0v-3.25c0-2.65,2.16-4.8,4.8-4.8,1.33,0,2.53.54,3.4,1.4.86.86,1.4,2.07,1.4,3.4v48.86ZM331.41,263.13s0,0,0,0v3.25c0,2.65-2.15,4.8-4.8,4.8s-4.8-2.15-4.8-4.8v-48.86s0,0,0,0v-3.25c0-2.65,2.15-4.8,4.8-4.8,1.33,0,2.53.54,3.4,1.4.86.86,1.4,2.07,1.4,3.4v48.86ZM331.41,199.02s0,0,0,0v3.25c0,2.65-2.15,4.8-4.8,4.8s-4.8-2.15-4.8-4.8v-48.86s0,0,0,0v-3.25c0-2.65,2.15-4.8,4.8-4.8,1.33,0,2.53.54,3.4,1.4.86.86,1.4,2.07,1.4,3.4v48.86ZM350.9,263.13s0,0,0,0v3.25c0,2.65-2.16,4.8-4.8,4.8s-4.8-2.15-4.8-4.8v-48.86h0v-3.25c0-2.65,2.15-4.8,4.8-4.8,1.32,0,2.52.54,3.4,1.4.86.86,1.4,2.07,1.4,3.4v48.86ZM350.9,199.02s0,0,0,0v3.25c0,2.65-2.16,4.8-4.8,4.8s-4.8-2.15-4.8-4.8v-48.86h0v-3.25c0-2.65,2.15-4.8,4.8-4.8,1.32,0,2.52.54,3.4,1.4.86.86,1.4,2.07,1.4,3.4v48.86Z"/>
    <rect class="cls-4" x="76.08" y="161.59" width="247.75" height="86.17" rx="30.45" ry="30.45"/>
    <text class="cls-1" transform="translate(110.18 225.96)"><tspan x="0" y="0">Mi</tspan><tspan class="cls-3" x="40.5" y="0">x</tspan><tspan x="60.26" y="0" xml:space="preserve"> media</tspan></text>
  </g>
</svg>