<?xml version="1.0" encoding="UTF-8"?>
<svg id="Layer_2" data-name="Layer 2" xmlns="http://www.w3.org/2000/svg" viewBox="0 0 399.9 290.28">
  <defs>
    <style>
      .cls-1 {
        fill: #74a535;
        font-family: DFVN-FreckleFace-Regular, 'DFVN Freckle Face';
        font-size: 42.45px;
      }

      .cls-2 {
        letter-spacing: 0em;
      }

      .cls-3 {
        letter-spacing: 0em;
      }

      .cls-4 {
        fill: #fff099;
      }

      .cls-5 {
        fill: #d12026;
      }

      .cls-6 {
        fill: #efd7bc;
      }

      .cls-7 {
        fill: #ed2a25;
      }

      .cls-8 {
        fill: #770707;
      }

      .cls-9 {
        letter-spacing: 0em;
      }
    </style>
  </defs>
  <g id="Layer_1-2" data-name="Layer 1">
    <g>
      <g>
        <g>
          <path class="cls-7" d="M95.05,32.33s25.14-25.14,53.49-12.84c27.97,12.14,38.51,33.65,30.49,60.15-8.02,26.5-57.77,42.02-83.98,23.83-26.21-18.19-18.33-55.31,0-71.14Z"/>
          <polygon class="cls-8" points="123.4 39.8 108.96 3.45 116.18 3.45 123.4 39.8"/>
        </g>
        <path class="cls-6" d="M121.64,103.22s-19.73,5.07-26.62-15.16c-6.89-20.24,10.07,5.91,18.1,8.41,8.03,2.49,15.85,4.6,8.53,6.76Z"/>
        <path class="cls-6" d="M135.57,98.23s-3.72-.84-5.68,1.81c-1.95,2.65,3.33,5.97,6.24,3.3,2.91-2.67,1-4.99-.56-5.11Z"/>
      </g>
      <g>
        <g>
          <path class="cls-7" d="M69.97,82.24s34.69-7.78,52.06,17.78c17.13,25.23,14.52,49.04-6.44,67.13-20.96,18.09-71.29,4.57-83.7-24.82-12.41-29.39,14.12-56.53,38.08-60.1Z"/>
          <polygon class="cls-8" points="89.92 103.72 97.17 65.28 103.27 69.15 89.92 103.72"/>
        </g>
        <path class="cls-6" d="M54.49,156.35s-19.38-6.27-14.37-27.06,5.34,10.38,10.79,16.79c5.45,6.4,10.93,12.37,3.59,10.27Z"/>
        <path class="cls-6" d="M68.92,159.59s-2.69-2.71-5.77-1.51-.38,6.83,3.51,6.13,3.51-3.68,2.26-4.62Z"/>
      </g>
      <g>
        <g>
          <path class="cls-7" d="M194.09,61.15s33.6-11.62,53.72,11.85c19.85,23.15,19.92,47.1,1.11,67.43-18.81,20.33-70.33,12.52-85.95-15.3-15.62-27.82,7.7-57.76,31.11-63.98Z"/>
          <polygon class="cls-8" points="216.32 80.27 219.23 41.25 225.72 44.41 216.32 80.27"/>
        </g>
        <path class="cls-6" d="M187,136.53s-19.96-4.07-17.31-25.28c2.65-21.21,6.47,9.72,12.6,15.48,6.13,5.75,12.24,11.07,4.71,9.8Z"/>
        <path class="cls-6" d="M201.71,138.13s-2.98-2.39-5.9-.86c-2.92,1.53.38,6.83,4.17,5.7s3.08-4.05,1.73-4.85Z"/>
      </g>
      <g>
        <g>
          <path class="cls-7" d="M321.52,49.09s33.43,12.11,34.31,43c.87,30.48-14.14,49.15-41.55,53.12-27.4,3.97-62.55-34.5-57.19-65.95s42.32-40.06,64.43-30.17Z"/>
          <polygon class="cls-8" points="326.78 77.93 353.58 49.43 356.64 55.97 326.78 77.93"/>
        </g>
        <path class="cls-6" d="M268.6,103.23s-12.96-15.72,2.44-30.54c15.41-14.82-1.09,11.62.06,19.95s2.55,16.3-2.5,10.59Z"/>
        <path class="cls-6" d="M279.02,113.72s-.82-3.73-4.05-4.38c-3.23-.65-4,5.55-.34,7.05,3.65,1.51,4.94-1.21,4.39-2.68Z"/>
      </g>
      <g>
        <g>
          <path class="cls-7" d="M333.13,130.83s33.43,12.11,34.31,43c.87,30.48-14.14,49.15-41.55,53.12-27.4,3.97-62.55-34.5-57.19-65.95s42.32-40.06,64.43-30.17Z"/>
          <polygon class="cls-8" points="338.38 159.67 365.19 131.18 368.25 137.72 338.38 159.67"/>
        </g>
        <path class="cls-6" d="M280.21,184.97s-12.96-15.72,2.44-30.54c15.41-14.82-1.09,11.62.06,19.95s2.55,16.3-2.5,10.59Z"/>
        <path class="cls-6" d="M290.63,195.46s-.82-3.73-4.05-4.38c-3.23-.65-4,5.55-.34,7.05s4.94-1.21,4.39-2.68Z"/>
      </g>
      <g>
        <g>
          <path class="cls-7" d="M111.82,180.98s33.43,12.11,34.31,43c.87,30.48-14.14,49.15-41.55,53.12-27.4,3.97-62.55-34.5-57.19-65.95,5.36-31.45,42.32-40.06,64.43-30.17Z"/>
          <polygon class="cls-8" points="117.07 209.82 143.87 181.32 146.94 187.86 117.07 209.82"/>
        </g>
        <path class="cls-6" d="M58.89,235.12s-12.96-15.72,2.44-30.54c15.41-14.82-1.09,11.62.06,19.95s2.55,16.3-2.5,10.59Z"/>
        <path class="cls-6" d="M69.32,245.61s-.82-3.73-4.05-4.38c-3.23-.65-4,5.55-.34,7.05,3.65,1.51,4.94-1.21,4.39-2.68Z"/>
      </g>
      <g>
        <g>
          <path class="cls-7" d="M258.79,167.8s33.43,12.11,34.31,43c.87,30.48-14.14,49.15-41.55,53.12s-62.55-34.5-57.19-65.95c5.36-31.45,42.32-40.06,64.43-30.17Z"/>
          <polygon class="cls-8" points="264.05 196.64 290.85 168.15 293.91 174.69 264.05 196.64"/>
        </g>
        <path class="cls-6" d="M205.87,221.94s-12.96-15.72,2.44-30.54c15.41-14.82-1.09,11.62.06,19.95,1.15,8.33,2.55,16.3-2.5,10.59Z"/>
        <path class="cls-6" d="M216.29,232.43s-.82-3.73-4.05-4.38c-3.23-.65-4,5.55-.34,7.05s4.94-1.21,4.39-2.68Z"/>
      </g>
      <path class="cls-5" d="M399.9,113.43c0-7.26-5.88-13.14-13.14-13.14h-120.85L221.76,4.44c-1.76-3.83-6.28-5.51-10.11-3.74l-5.24,2.41c-3.83,1.76-5.5,6.29-3.74,10.11l40.08,87.06h-89.73L193.11,13.23c1.76-3.82.09-8.35-3.74-10.11l-5.24-2.41c-3.83-1.77-8.35-.09-10.11,3.74l-44.14,95.84H13.14c-3.63,0-6.91,1.47-9.29,3.85-2.38,2.38-3.85,5.66-3.85,9.29,0,5.67,3.61,10.51,8.66,12.34-.39.73-.61,1.57-.61,2.46v.04c0,2.91,2.37,5.28,5.28,5.28h9.56c-.32,1.21-.47,2.49-.4,3.81l2.77,53.4c.08,1.49.43,2.94,1.03,4.29.6,1.34,1.45,2.57,2.5,3.63,2.07,2.07,3.32,4.82,3.51,7.75l4,61.26c.14,2.22.9,4.36,2.18,6.17l7.99,11.32c2.27,3.21,5.94,5.11,9.87,5.11h287.23c3.86,0,7.49-1.85,9.77-4.97l6.45-8.85c1.35-1.86,2.15-4.07,2.29-6.36l3.79-60.9c.14-2.38,1-4.66,2.43-6.55l1.89-2.5c1.38-1.82,2.21-3.99,2.41-6.27l4.8-56.13c.12-1.46-.02-2.88-.39-4.2h7.44c2.92,0,5.28-2.37,5.28-5.28v-.04c0-.67-.13-1.33-.37-1.92,2.59-.52,4.9-1.8,6.69-3.59,2.38-2.38,3.85-5.66,3.85-9.28ZM58.6,254.41s0,0,0,0v3.25c0,2.65-2.15,4.8-4.8,4.8s-4.8-2.15-4.8-4.8v-48.86h0v-3.25c0-2.65,2.15-4.8,4.8-4.8,1.33,0,2.53.53,3.4,1.4.86.87,1.41,2.07,1.41,3.4v48.86ZM58.6,190.31s0,0,0,0v3.25c0,2.64-2.15,4.8-4.8,4.8s-4.8-2.16-4.8-4.8v-48.87h0v-3.25c0-2.64,2.15-4.8,4.8-4.8,1.33,0,2.53.54,3.4,1.4.86.87,1.41,2.07,1.41,3.4v48.87ZM78.09,254.41h0v3.25c0,2.65-2.15,4.8-4.8,4.8s-4.8-2.15-4.8-4.8v-48.86s0,0,0,0v-3.25c0-2.65,2.15-4.8,4.8-4.8,1.33,0,2.53.53,3.4,1.4.86.87,1.4,2.07,1.4,3.4v48.86ZM78.09,190.31h0v3.25c0,2.64-2.15,4.8-4.8,4.8s-4.8-2.16-4.8-4.8v-48.87s0,0,0,0v-3.25c0-2.64,2.15-4.8,4.8-4.8,1.33,0,2.53.54,3.4,1.4.86.87,1.4,2.07,1.4,3.4v48.87ZM97.58,254.41h0v3.25c0,2.65-2.16,4.8-4.8,4.8s-4.8-2.15-4.8-4.8v-48.86s0,0,0,0v-3.25c0-2.65,2.15-4.8,4.8-4.8,1.32,0,2.52.53,3.4,1.4.86.87,1.4,2.07,1.4,3.4v48.86ZM97.58,190.31h0v3.25c0,2.64-2.16,4.8-4.8,4.8s-4.8-2.16-4.8-4.8v-48.87s0,0,0,0v-3.25c0-2.64,2.15-4.8,4.8-4.8,1.32,0,2.52.54,3.4,1.4.86.87,1.4,2.07,1.4,3.4v48.87ZM117.06,255.26s0,0,0,0v3.25c0,2.65-2.15,4.8-4.8,4.8s-4.8-2.15-4.8-4.8v-48.86s0,0,0,0v-3.25c0-2.65,2.16-4.8,4.8-4.8,1.33,0,2.52.54,3.4,1.4s1.4,2.07,1.4,3.4v48.86ZM117.06,191.15s0,0,0,0v3.25c0,2.65-2.15,4.8-4.8,4.8s-4.8-2.15-4.8-4.8v-48.86s0,0,0,0v-3.25c0-2.65,2.16-4.8,4.8-4.8,1.33,0,2.52.54,3.4,1.4s1.4,2.07,1.4,3.4v48.86ZM136.55,255.26s0,0,0,0v3.25c0,2.65-2.15,4.8-4.8,4.8s-4.8-2.15-4.8-4.8v-48.86h0v-3.25c0-2.65,2.15-4.8,4.8-4.8,1.33,0,2.52.54,3.4,1.4s1.4,2.07,1.4,3.4v48.86ZM136.55,191.15s0,0,0,0v3.25c0,2.65-2.15,4.8-4.8,4.8s-4.8-2.15-4.8-4.8v-48.86h0v-3.25c0-2.65,2.15-4.8,4.8-4.8,1.33,0,2.52.54,3.4,1.4.87.86,1.4,2.07,1.4,3.4v48.86ZM156.04,255.26s0,0,0,0v3.25c0,2.65-2.16,4.8-4.8,4.8s-4.8-2.15-4.8-4.8v-48.86h0v-3.25c0-2.65,2.15-4.8,4.8-4.8,1.33,0,2.52.54,3.4,1.4.86.86,1.4,2.07,1.4,3.4v48.86ZM156.04,191.15s0,0,0,0v3.25c0,2.65-2.16,4.8-4.8,4.8s-4.8-2.15-4.8-4.8v-48.86h0v-3.25c0-2.65,2.15-4.8,4.8-4.8,1.33,0,2.52.54,3.4,1.4.86.86,1.4,2.07,1.4,3.4v48.86ZM175.52,255.26h0v3.25c0,2.65-2.15,4.8-4.8,4.8s-4.8-2.15-4.8-4.8v-48.86s0,0,0,0v-3.25c0-2.65,2.16-4.8,4.8-4.8,1.33,0,2.53.54,3.4,1.4.86.86,1.4,2.07,1.4,3.4v48.86ZM175.52,191.15h0v3.25c0,2.65-2.15,4.8-4.8,4.8s-4.8-2.15-4.8-4.8v-48.86s0,0,0,0v-3.25c0-2.65,2.16-4.8,4.8-4.8,1.33,0,2.53.54,3.4,1.4.86.86,1.4,2.07,1.4,3.4v48.86ZM195.01,255.26h0v3.25c0,2.65-2.15,4.8-4.8,4.8s-4.8-2.15-4.8-4.8v-48.86s0,0,0,0v-3.25c0-2.65,2.15-4.8,4.8-4.8,1.33,0,2.53.54,3.4,1.4.86.86,1.4,2.07,1.4,3.4v48.86ZM195.01,191.15h0v3.25c0,2.65-2.15,4.8-4.8,4.8s-4.8-2.15-4.8-4.8v-48.86s0,0,0,0v-3.25c0-2.65,2.15-4.8,4.8-4.8,1.33,0,2.53.54,3.4,1.4.86.86,1.4,2.07,1.4,3.4v48.86ZM214.49,255.26s0,0,0,0v3.25c0,2.65-2.16,4.8-4.8,4.8s-4.8-2.15-4.8-4.8v-48.86s0,0,0,0v-3.25c0-2.65,2.15-4.8,4.8-4.8,1.32,0,2.52.54,3.4,1.4.86.86,1.4,2.07,1.4,3.4v48.86ZM214.49,191.15s0,0,0,0v3.25c0,2.65-2.16,4.8-4.8,4.8s-4.8-2.15-4.8-4.8v-48.86s0,0,0,0v-3.25c0-2.65,2.15-4.8,4.8-4.8,1.32,0,2.52.54,3.4,1.4.86.86,1.4,2.07,1.4,3.4v48.86ZM233.98,255.26s0,0,0,0v3.25c0,2.65-2.16,4.8-4.81,4.8s-4.8-2.15-4.8-4.8v-48.86h0v-3.25c0-2.65,2.16-4.8,4.8-4.8,1.33,0,2.53.54,3.41,1.4.86.86,1.4,2.07,1.4,3.4v48.86ZM233.98,191.15s0,0,0,0v3.25c0,2.65-2.16,4.8-4.81,4.8s-4.8-2.15-4.8-4.8v-48.86h0v-3.25c0-2.65,2.16-4.8,4.8-4.8,1.33,0,2.53.54,3.41,1.4.86.86,1.4,2.07,1.4,3.4v48.86ZM253.46,255.26s0,0,0,0v3.25c0,2.65-2.15,4.8-4.8,4.8s-4.8-2.15-4.8-4.8v-48.86h0v-3.25c0-2.65,2.15-4.8,4.8-4.8,1.33,0,2.52.54,3.4,1.4.87.86,1.4,2.07,1.4,3.4v48.86ZM253.46,191.15s0,0,0,0v3.25c0,2.65-2.15,4.8-4.8,4.8s-4.8-2.15-4.8-4.8v-48.86h0v-3.25c0-2.65,2.15-4.8,4.8-4.8,1.33,0,2.52.54,3.4,1.4.87.86,1.4,2.07,1.4,3.4v48.86ZM272.95,255.26h0v3.25c0,2.65-2.15,4.8-4.8,4.8s-4.8-2.15-4.8-4.8v-48.86h0v-3.25c0-2.65,2.15-4.8,4.8-4.8,1.33,0,2.52.54,3.4,1.4s1.4,2.07,1.4,3.4v48.86ZM272.95,191.15h0v3.25c0,2.65-2.15,4.8-4.8,4.8s-4.8-2.15-4.8-4.8v-48.86h0v-3.25c0-2.65,2.15-4.8,4.8-4.8,1.33,0,2.52.54,3.4,1.4s1.4,2.07,1.4,3.4v48.86ZM292.44,255.26h0v3.25c0,2.65-2.16,4.8-4.8,4.8s-4.8-2.15-4.8-4.8v-48.86s0,0,0,0v-3.25c0-2.65,2.15-4.8,4.8-4.8,1.33,0,2.52.54,3.4,1.4.86.86,1.4,2.07,1.4,3.4v48.86ZM292.44,191.15h0v3.25c0,2.65-2.16,4.8-4.8,4.8s-4.8-2.15-4.8-4.8v-48.86s0,0,0,0v-3.25c0-2.65,2.15-4.8,4.8-4.8,1.33,0,2.52.54,3.4,1.4.86.86,1.4,2.07,1.4,3.4v48.86ZM311.92,255.26s0,0,0,0v3.25c0,2.65-2.15,4.8-4.8,4.8s-4.8-2.15-4.8-4.8v-48.86s0,0,0,0v-3.25c0-2.65,2.16-4.8,4.8-4.8,1.33,0,2.53.54,3.4,1.4.86.86,1.4,2.07,1.4,3.4v48.86ZM311.92,191.15s0,0,0,0v3.25c0,2.65-2.15,4.8-4.8,4.8s-4.8-2.15-4.8-4.8v-48.86s0,0,0,0v-3.25c0-2.65,2.16-4.8,4.8-4.8,1.33,0,2.53.54,3.4,1.4.86.86,1.4,2.07,1.4,3.4v48.86ZM331.41,255.26s0,0,0,0v3.25c0,2.65-2.15,4.8-4.8,4.8s-4.8-2.15-4.8-4.8v-48.86s0,0,0,0v-3.25c0-2.65,2.15-4.8,4.8-4.8,1.33,0,2.53.54,3.4,1.4.86.86,1.4,2.07,1.4,3.4v48.86ZM331.41,191.15s0,0,0,0v3.25c0,2.65-2.15,4.8-4.8,4.8s-4.8-2.15-4.8-4.8v-48.86s0,0,0,0v-3.25c0-2.65,2.15-4.8,4.8-4.8,1.33,0,2.53.54,3.4,1.4.86.86,1.4,2.07,1.4,3.4v48.86ZM350.9,255.26s0,0,0,0v3.25c0,2.65-2.16,4.8-4.8,4.8s-4.8-2.15-4.8-4.8v-48.86h0v-3.25c0-2.65,2.15-4.8,4.8-4.8,1.32,0,2.52.54,3.4,1.4.86.86,1.4,2.07,1.4,3.4v48.86ZM350.9,191.15s0,0,0,0v3.25c0,2.65-2.16,4.8-4.8,4.8s-4.8-2.15-4.8-4.8v-48.86h0v-3.25c0-2.65,2.15-4.8,4.8-4.8,1.32,0,2.52.54,3.4,1.4.86.86,1.4,2.07,1.4,3.4v48.86Z"/>
      <rect class="cls-4" x="81.01" y="158.52" width="247.75" height="86.17" rx="30.45" ry="30.45"/>
      <text class="cls-1" transform="translate(107.72 218.09)"><tspan class="cls-3" x="0" y="0">I</tspan><tspan class="cls-2" x="11.46" y="0">n</tspan><tspan x="32.54" y="0">terac</tspan><tspan class="cls-9" x="133.41" y="0">t</tspan><tspan x="150.13" y="0">ion</tspan></text>
    </g>
  </g>
</svg>