<?xml version="1.0" encoding="UTF-8"?>
<svg id="Layer_2" data-name="Layer 2" xmlns="http://www.w3.org/2000/svg" viewBox="0 0 399.9 290.28">
  <defs>
    <style>
      .cls-1 {
        fill: #74a535;
      }

      .cls-2 {
        fill: #fff099;
      }

      .cls-3 {
        fill: #d12026;
      }

      .cls-4 {
        fill: #efd7bc;
      }

      .cls-5 {
        fill: #ed2a25;
      }

      .cls-6 {
        fill: #770707;
      }
    </style>
  </defs>
  <g id="Layer_1-2" data-name="Layer 1">
    <g>
      <g>
        <g>
          <path class="cls-5" d="M95.05,32.33s25.14-25.14,53.49-12.84c27.97,12.14,38.51,33.65,30.49,60.15-8.02,26.5-57.77,42.02-83.98,23.83-26.21-18.19-18.33-55.31,0-71.14Z"/>
          <polygon class="cls-6" points="123.4 39.8 108.96 3.45 116.18 3.45 123.4 39.8"/>
        </g>
        <path class="cls-4" d="M121.64,103.22s-19.73,5.07-26.62-15.16c-6.89-20.24,10.07,5.91,18.1,8.41,8.03,2.49,15.85,4.6,8.53,6.76Z"/>
        <path class="cls-4" d="M135.57,98.23s-3.72-.84-5.68,1.81c-1.95,2.65,3.33,5.97,6.24,3.3,2.91-2.67,1-4.99-.56-5.11Z"/>
      </g>
      <g>
        <g>
          <path class="cls-5" d="M69.97,82.24s34.69-7.78,52.06,17.78c17.13,25.23,14.52,49.04-6.44,67.13-20.96,18.09-71.29,4.57-83.7-24.82-12.41-29.39,14.12-56.53,38.08-60.1Z"/>
          <polygon class="cls-6" points="89.92 103.72 97.17 65.28 103.27 69.15 89.92 103.72"/>
        </g>
        <path class="cls-4" d="M54.49,156.35s-19.38-6.27-14.37-27.06,5.34,10.38,10.79,16.79c5.45,6.4,10.93,12.37,3.59,10.27Z"/>
        <path class="cls-4" d="M68.92,159.59s-2.69-2.71-5.77-1.51-.38,6.83,3.51,6.13,3.51-3.68,2.26-4.62Z"/>
      </g>
      <g>
        <g>
          <path class="cls-5" d="M194.09,61.15s33.6-11.62,53.72,11.85c19.85,23.15,19.92,47.1,1.11,67.43-18.81,20.33-70.33,12.52-85.95-15.3-15.62-27.82,7.7-57.76,31.11-63.98Z"/>
          <polygon class="cls-6" points="216.32 80.27 219.23 41.25 225.72 44.41 216.32 80.27"/>
        </g>
        <path class="cls-4" d="M187,136.53s-19.96-4.07-17.31-25.28c2.65-21.21,6.47,9.72,12.6,15.48,6.13,5.75,12.24,11.07,4.71,9.8Z"/>
        <path class="cls-4" d="M201.71,138.13s-2.98-2.39-5.9-.86c-2.92,1.53.38,6.83,4.17,5.7s3.08-4.05,1.73-4.85Z"/>
      </g>
      <g>
        <g>
          <path class="cls-5" d="M321.52,49.09s33.43,12.11,34.31,43c.87,30.48-14.14,49.15-41.55,53.12-27.4,3.97-62.55-34.5-57.19-65.95s42.32-40.06,64.43-30.17Z"/>
          <polygon class="cls-6" points="326.78 77.93 353.58 49.43 356.64 55.97 326.78 77.93"/>
        </g>
        <path class="cls-4" d="M268.6,103.23s-12.96-15.72,2.44-30.54c15.41-14.82-1.09,11.62.06,19.95,1.15,8.33,2.55,16.3-2.5,10.59Z"/>
        <path class="cls-4" d="M279.02,113.72s-.82-3.73-4.05-4.38c-3.23-.65-4,5.55-.34,7.05,3.65,1.51,4.94-1.21,4.39-2.68Z"/>
      </g>
      <g>
        <g>
          <path class="cls-5" d="M333.13,130.83s33.43,12.11,34.31,43c.87,30.48-14.14,49.15-41.55,53.12-27.4,3.97-62.55-34.5-57.19-65.95s42.32-40.06,64.43-30.17Z"/>
          <polygon class="cls-6" points="338.38 159.67 365.19 131.18 368.25 137.72 338.38 159.67"/>
        </g>
        <path class="cls-4" d="M280.21,184.97s-12.96-15.72,2.44-30.54c15.41-14.82-1.09,11.62.06,19.95s2.55,16.3-2.5,10.59Z"/>
        <path class="cls-4" d="M290.63,195.46s-.82-3.73-4.05-4.38c-3.23-.65-4,5.55-.34,7.05s4.94-1.21,4.39-2.68Z"/>
      </g>
      <g>
        <g>
          <path class="cls-5" d="M111.82,180.98s33.43,12.11,34.31,43c.87,30.48-14.14,49.15-41.55,53.12-27.4,3.97-62.55-34.5-57.19-65.95,5.36-31.45,42.32-40.06,64.43-30.17Z"/>
          <polygon class="cls-6" points="117.07 209.82 143.87 181.32 146.94 187.86 117.07 209.82"/>
        </g>
        <path class="cls-4" d="M58.89,235.12s-12.96-15.72,2.44-30.54c15.41-14.82-1.09,11.62.06,19.95s2.55,16.3-2.5,10.59Z"/>
        <path class="cls-4" d="M69.32,245.61s-.82-3.73-4.05-4.38c-3.23-.65-4,5.55-.34,7.05,3.65,1.51,4.94-1.21,4.39-2.68Z"/>
      </g>
      <g>
        <g>
          <path class="cls-5" d="M258.79,167.8s33.43,12.11,34.31,43c.87,30.48-14.14,49.15-41.55,53.12s-62.55-34.5-57.19-65.95c5.36-31.45,42.32-40.06,64.43-30.17Z"/>
          <polygon class="cls-6" points="264.05 196.64 290.85 168.15 293.91 174.69 264.05 196.64"/>
        </g>
        <path class="cls-4" d="M205.87,221.94s-12.96-15.72,2.44-30.54c15.41-14.82-1.09,11.62.06,19.95,1.15,8.33,2.55,16.3-2.5,10.59Z"/>
        <path class="cls-4" d="M216.29,232.43s-.82-3.73-4.05-4.38c-3.23-.65-4,5.55-.34,7.05s4.94-1.21,4.39-2.68Z"/>
      </g>
      <path class="cls-3" d="M399.9,113.43c0-7.26-5.88-13.14-13.14-13.14h-120.85L221.76,4.44c-1.76-3.83-6.28-5.51-10.11-3.74l-5.24,2.41c-3.83,1.76-5.5,6.29-3.74,10.11l40.08,87.06h-89.73L193.11,13.23c1.76-3.82.09-8.35-3.74-10.11l-5.24-2.41c-3.83-1.77-8.35-.09-10.11,3.74l-44.14,95.84H13.14c-3.63,0-6.91,1.47-9.29,3.85-2.38,2.38-3.85,5.66-3.85,9.29,0,5.67,3.61,10.51,8.66,12.34-.39.73-.61,1.57-.61,2.46v.04c0,2.91,2.37,5.28,5.28,5.28h9.56c-.32,1.21-.47,2.49-.4,3.81l2.77,53.4c.08,1.49.43,2.94,1.03,4.29.6,1.34,1.45,2.57,2.5,3.63,2.07,2.07,3.32,4.82,3.51,7.75l4,61.26c.14,2.22.9,4.36,2.18,6.17l7.99,11.32c2.27,3.21,5.94,5.11,9.87,5.11h287.23c3.86,0,7.49-1.85,9.77-4.97l6.45-8.85c1.35-1.86,2.15-4.07,2.29-6.36l3.79-60.9c.14-2.38,1-4.66,2.43-6.55l1.89-2.5c1.38-1.82,2.21-3.99,2.41-6.27l4.8-56.13c.12-1.46-.02-2.88-.39-4.2h7.44c2.92,0,5.28-2.37,5.28-5.28v-.04c0-.67-.13-1.33-.37-1.92,2.59-.52,4.9-1.8,6.69-3.59,2.38-2.38,3.85-5.66,3.85-9.28ZM58.6,254.41s0,0,0,0v3.25c0,2.65-2.15,4.8-4.8,4.8s-4.8-2.15-4.8-4.8v-48.86h0v-3.25c0-2.65,2.15-4.8,4.8-4.8,1.33,0,2.53.53,3.4,1.4.86.87,1.41,2.07,1.41,3.4v48.86ZM58.6,190.31s0,0,0,0v3.25c0,2.64-2.15,4.8-4.8,4.8s-4.8-2.16-4.8-4.8v-48.87h0v-3.25c0-2.64,2.15-4.8,4.8-4.8,1.33,0,2.53.54,3.4,1.4.86.87,1.41,2.07,1.41,3.4v48.87ZM78.09,254.41h0v3.25c0,2.65-2.15,4.8-4.8,4.8s-4.8-2.15-4.8-4.8v-48.86s0,0,0,0v-3.25c0-2.65,2.15-4.8,4.8-4.8,1.33,0,2.53.53,3.4,1.4.86.87,1.4,2.07,1.4,3.4v48.86ZM78.09,190.31h0v3.25c0,2.64-2.15,4.8-4.8,4.8s-4.8-2.16-4.8-4.8v-48.87s0,0,0,0v-3.25c0-2.64,2.15-4.8,4.8-4.8,1.33,0,2.53.54,3.4,1.4.86.87,1.4,2.07,1.4,3.4v48.87ZM97.58,254.41h0v3.25c0,2.65-2.16,4.8-4.8,4.8s-4.8-2.15-4.8-4.8v-48.86s0,0,0,0v-3.25c0-2.65,2.15-4.8,4.8-4.8,1.32,0,2.52.53,3.4,1.4.86.87,1.4,2.07,1.4,3.4v48.86ZM97.58,190.31h0v3.25c0,2.64-2.16,4.8-4.8,4.8s-4.8-2.16-4.8-4.8v-48.87s0,0,0,0v-3.25c0-2.64,2.15-4.8,4.8-4.8,1.32,0,2.52.54,3.4,1.4.86.87,1.4,2.07,1.4,3.4v48.87ZM117.06,255.26s0,0,0,0v3.25c0,2.65-2.15,4.8-4.8,4.8s-4.8-2.15-4.8-4.8v-48.86s0,0,0,0v-3.25c0-2.65,2.16-4.8,4.8-4.8,1.33,0,2.52.54,3.4,1.4s1.4,2.07,1.4,3.4v48.86ZM117.06,191.15s0,0,0,0v3.25c0,2.65-2.15,4.8-4.8,4.8s-4.8-2.15-4.8-4.8v-48.86s0,0,0,0v-3.25c0-2.65,2.16-4.8,4.8-4.8,1.33,0,2.52.54,3.4,1.4s1.4,2.07,1.4,3.4v48.86ZM136.55,255.26s0,0,0,0v3.25c0,2.65-2.15,4.8-4.8,4.8s-4.8-2.15-4.8-4.8v-48.86h0v-3.25c0-2.65,2.15-4.8,4.8-4.8,1.33,0,2.52.54,3.4,1.4s1.4,2.07,1.4,3.4v48.86ZM136.55,191.15s0,0,0,0v3.25c0,2.65-2.15,4.8-4.8,4.8s-4.8-2.15-4.8-4.8v-48.86h0v-3.25c0-2.65,2.15-4.8,4.8-4.8,1.33,0,2.52.54,3.4,1.4.87.86,1.4,2.07,1.4,3.4v48.86ZM156.04,255.26s0,0,0,0v3.25c0,2.65-2.16,4.8-4.8,4.8s-4.8-2.15-4.8-4.8v-48.86h0v-3.25c0-2.65,2.15-4.8,4.8-4.8,1.33,0,2.52.54,3.4,1.4.86.86,1.4,2.07,1.4,3.4v48.86ZM156.04,191.15s0,0,0,0v3.25c0,2.65-2.16,4.8-4.8,4.8s-4.8-2.15-4.8-4.8v-48.86h0v-3.25c0-2.65,2.15-4.8,4.8-4.8,1.33,0,2.52.54,3.4,1.4.86.86,1.4,2.07,1.4,3.4v48.86ZM175.52,255.26h0v3.25c0,2.65-2.15,4.8-4.8,4.8s-4.8-2.15-4.8-4.8v-48.86s0,0,0,0v-3.25c0-2.65,2.16-4.8,4.8-4.8,1.33,0,2.53.54,3.4,1.4.86.86,1.4,2.07,1.4,3.4v48.86ZM175.52,191.15h0v3.25c0,2.65-2.15,4.8-4.8,4.8s-4.8-2.15-4.8-4.8v-48.86s0,0,0,0v-3.25c0-2.65,2.16-4.8,4.8-4.8,1.33,0,2.53.54,3.4,1.4.86.86,1.4,2.07,1.4,3.4v48.86ZM195.01,255.26h0v3.25c0,2.65-2.15,4.8-4.8,4.8s-4.8-2.15-4.8-4.8v-48.86s0,0,0,0v-3.25c0-2.65,2.15-4.8,4.8-4.8,1.33,0,2.53.54,3.4,1.4.86.86,1.4,2.07,1.4,3.4v48.86ZM195.01,191.15h0v3.25c0,2.65-2.15,4.8-4.8,4.8s-4.8-2.15-4.8-4.8v-48.86s0,0,0,0v-3.25c0-2.65,2.15-4.8,4.8-4.8,1.33,0,2.53.54,3.4,1.4.86.86,1.4,2.07,1.4,3.4v48.86ZM214.49,255.26s0,0,0,0v3.25c0,2.65-2.16,4.8-4.8,4.8s-4.8-2.15-4.8-4.8v-48.86s0,0,0,0v-3.25c0-2.65,2.15-4.8,4.8-4.8,1.32,0,2.52.54,3.4,1.4.86.86,1.4,2.07,1.4,3.4v48.86ZM214.49,191.15s0,0,0,0v3.25c0,2.65-2.16,4.8-4.8,4.8s-4.8-2.15-4.8-4.8v-48.86s0,0,0,0v-3.25c0-2.65,2.15-4.8,4.8-4.8,1.32,0,2.52.54,3.4,1.4.86.86,1.4,2.07,1.4,3.4v48.86ZM233.98,255.26s0,0,0,0v3.25c0,2.65-2.16,4.8-4.81,4.8s-4.8-2.15-4.8-4.8v-48.86h0v-3.25c0-2.65,2.16-4.8,4.8-4.8,1.33,0,2.53.54,3.41,1.4.86.86,1.4,2.07,1.4,3.4v48.86ZM233.98,191.15s0,0,0,0v3.25c0,2.65-2.16,4.8-4.81,4.8s-4.8-2.15-4.8-4.8v-48.86h0v-3.25c0-2.65,2.16-4.8,4.8-4.8,1.33,0,2.53.54,3.41,1.4.86.86,1.4,2.07,1.4,3.4v48.86ZM253.46,255.26s0,0,0,0v3.25c0,2.65-2.15,4.8-4.8,4.8s-4.8-2.15-4.8-4.8v-48.86h0v-3.25c0-2.65,2.15-4.8,4.8-4.8,1.33,0,2.52.54,3.4,1.4.87.86,1.4,2.07,1.4,3.4v48.86ZM253.46,191.15s0,0,0,0v3.25c0,2.65-2.15,4.8-4.8,4.8s-4.8-2.15-4.8-4.8v-48.86h0v-3.25c0-2.65,2.15-4.8,4.8-4.8,1.33,0,2.52.54,3.4,1.4.87.86,1.4,2.07,1.4,3.4v48.86ZM272.95,255.26h0v3.25c0,2.65-2.15,4.8-4.8,4.8s-4.8-2.15-4.8-4.8v-48.86h0v-3.25c0-2.65,2.15-4.8,4.8-4.8,1.33,0,2.52.54,3.4,1.4s1.4,2.07,1.4,3.4v48.86ZM272.95,191.15h0v3.25c0,2.65-2.15,4.8-4.8,4.8s-4.8-2.15-4.8-4.8v-48.86h0v-3.25c0-2.65,2.15-4.8,4.8-4.8,1.33,0,2.52.54,3.4,1.4s1.4,2.07,1.4,3.4v48.86ZM292.44,255.26h0v3.25c0,2.65-2.16,4.8-4.8,4.8s-4.8-2.15-4.8-4.8v-48.86s0,0,0,0v-3.25c0-2.65,2.15-4.8,4.8-4.8,1.33,0,2.52.54,3.4,1.4.86.86,1.4,2.07,1.4,3.4v48.86ZM292.44,191.15h0v3.25c0,2.65-2.16,4.8-4.8,4.8s-4.8-2.15-4.8-4.8v-48.86s0,0,0,0v-3.25c0-2.65,2.15-4.8,4.8-4.8,1.33,0,2.52.54,3.4,1.4.86.86,1.4,2.07,1.4,3.4v48.86ZM311.92,255.26s0,0,0,0v3.25c0,2.65-2.15,4.8-4.8,4.8s-4.8-2.15-4.8-4.8v-48.86s0,0,0,0v-3.25c0-2.65,2.16-4.8,4.8-4.8,1.33,0,2.53.54,3.4,1.4.86.86,1.4,2.07,1.4,3.4v48.86ZM311.92,191.15s0,0,0,0v3.25c0,2.65-2.15,4.8-4.8,4.8s-4.8-2.15-4.8-4.8v-48.86s0,0,0,0v-3.25c0-2.65,2.16-4.8,4.8-4.8,1.33,0,2.53.54,3.4,1.4.86.86,1.4,2.07,1.4,3.4v48.86ZM331.41,255.26s0,0,0,0v3.25c0,2.65-2.15,4.8-4.8,4.8s-4.8-2.15-4.8-4.8v-48.86s0,0,0,0v-3.25c0-2.65,2.15-4.8,4.8-4.8,1.33,0,2.53.54,3.4,1.4.86.86,1.4,2.07,1.4,3.4v48.86ZM331.41,191.15s0,0,0,0v3.25c0,2.65-2.15,4.8-4.8,4.8s-4.8-2.15-4.8-4.8v-48.86s0,0,0,0v-3.25c0-2.65,2.15-4.8,4.8-4.8,1.33,0,2.53.54,3.4,1.4.86.86,1.4,2.07,1.4,3.4v48.86ZM350.9,255.26s0,0,0,0v3.25c0,2.65-2.16,4.8-4.8,4.8s-4.8-2.15-4.8-4.8v-48.86h0v-3.25c0-2.65,2.15-4.8,4.8-4.8,1.32,0,2.52.54,3.4,1.4.86.86,1.4,2.07,1.4,3.4v48.86ZM350.9,191.15s0,0,0,0v3.25c0,2.65-2.16,4.8-4.8,4.8s-4.8-2.15-4.8-4.8v-48.86h0v-3.25c0-2.65,2.15-4.8,4.8-4.8,1.32,0,2.52.54,3.4,1.4.86.86,1.4,2.07,1.4,3.4v48.86Z"/>
      <rect class="cls-2" x="81.01" y="158.52" width="247.75" height="86.17" rx="30.45" ry="30.45"/>
      <g>
        <path class="cls-1" d="M118.08,198.61c0,.81.08,1.66.08,2.38,0,2.26-1.57,1.59-1.57,4.54,0,1.97.17,4.02.17,6.36,0,1.53-.29,2.71-.62,4.21-.37,1.7-.44,2.63-2.94,2.63-1.8,0-1.41-1.74-2.07-3.44-.44-.99-1.06-.89-1.06-2.67,0-1.45.33-3.34.33-5.1,0-1.57-.52-2.11-.52-3.69s.48-1.72.48-2.67c0-.5-.35-.95-.68-1.37-.35-.42-.64-.79-.64-1.1v-.08c0-.43.39-1.26.39-1.91,0-1.14-.44-2.18-.44-3.15v-.21c0-.06.02-.15.04-.21.1-.66,1.39-2.38,1.8-2.38.17,0,.31.04.46.04.56,0,1.49-.17,2.42-.17,1.39,0,2.84.12,3.32.56.17.12,1.08,2.18,1.18,2.49.08.48.17,1.41.17,2.34,0,.33-.04.73-.04,1.06-.06.52-.25.89-.25,1.53Z"/>
        <path class="cls-1" d="M139.18,211.89c0,.56.12,1.1.12,1.62,0,.19-.43,1.68-1.45,2.07-.64.27-1.76.08-2.76.25-.68.15-1.14.35-1.7.35-1.97,0-1.89-2.47-1.99-3.88-.08-.93-.25-1.6-.31-2.24,0-.39.06-.7.06-1.01,0-1.45-.19-2.51-2.09-2.51-1.33,0-3.32.73-3.32,2.3,0,.31.19.66.19,1.1,0,.77-.27,1.62-.27,2.36,0,1.16.27,2.18.27,2.9,0,1.91-.31,2.88-1.93,2.88-1.26,0-1.99-.6-1.99-1.87,0-.48.04-.97.04-1.53,0-1.49-.75-1.78-1.14-3.44-.02-.04-.04-.15-.04-.33,0-.31.04-.72.04-1.14,0-2.2-.68-5.22-.68-7.52,0-2.07,1.97-2.55,3.52-2.55s2.47.89,2.47,2.05c0,.39-.08.83-.08,1.26,0,.31.06.81.37.81.58,0,3.34-1,3.75-1.1.46-.08.87-.12,1.22-.12h.27c.35,0,.66-.04.95-.15,1.26-.33,1.43-.7,2.59-.7,1.87,0,1.47.91,2.13,1.64.85.95,1.91,1.06,1.91,2.09,0,.39-.17.77-.17,1.35,0,.73.25,1.53.25,2.34,0,.93-.25,1.87-.25,2.71Z"/>
        <path class="cls-1" d="M157.96,199.67c0,.97-.81,2.34-1.99,2.34-.27,0-.56-.04-.81-.04-.83,0-1.7.37-2.09.37-.41,0-.91-.12-1.39-.12-1.55,0-1.45.64-1.45,2.22,0,2.57-.54,5.93-.54,8.27,0,.73.08,1.35.08,1.95,0,.17-.04.39-.04.56-.1.39-1.12,3.05-1.58,3.4-.23.15-.54.17-.93.17-1.89,0-2.71-.58-2.71-1.82,0-.52.08-1.1.08-1.58,0-3.11-.89-7.73-.89-12.52-.39.08-.77.12-1.1.12-1.58,0-2.86-.85-2.86-2.34,0-1.91,1.78-1.93,3.67-2.36v-.77c0-2.49-.81-4.27-.81-6.03s.43-2.2,1.99-2.76c.66-.27,2.18-.6,3.48-.6,1.55,0,3.13.25,3.13,3.44,0,.85-.02,1.82-.17,2.38-.17.75-.81,1.31-.81,1.8v.06c0,.31.12.83.12,1.14,0,.43-.25.75-.25,1.06,0,.39.43.44,1.24.44,2.26,0,3.29-.48,4.79-.48.33,0,.68.02.93.17.6.35.89.85.89,1.53Z"/>
        <path class="cls-1" d="M177.2,214.53c0,.89-.21.73-.81,1.49-.66,1.06-1.2,2.45-2.82,2.45-.99,0-2.32-.33-3.21-.33-1.91,0-3.92,0-5.66-.41-1.14-.33-2.67-.48-3.52-1.16-2.36-2.36-2.65-5.55-2.88-10.9-.06-.93-.25-1.87-.25-2.34,0-.23.29-.77.37-1.18.06-.27.1-.56.1-.83,0-.06-.02-.15-.02-.23,0-.21.02-.33.04-.39.17-.37,1.14-1.1,1.57-1.7.58-.83,6.67-3.05,10.49-3.13,1.06,0,2.71.85,3.56,1.7.23.23.39.85.64,1.18.89,1.14.89,1.33.89,1.74v.29c0,.19.02.42.04.68.06.77.08,1.49.08,2.26,0,1.6-1.74,1.84-4.08,2.96-.97.48-2.16.64-3.09.64h-.17s-.1-.02-.17-.04h-.06c-.33,0-1.91.68-3.25.68-.89,0-1.66.58-1.66.89,0,1.08.58,1.99,1.66,2.2.68.31,1.31.37,1.95.37,1.06,0,2.13-.25,3.61-.25.68,0,1.1.25,1.66.25,1.18,0,2.3-.54,3.13-.54,1.08,0,1.47.73,1.7,2.24.06.56.15,1.01.15,1.41ZM169.11,203.11c0-1.66-.66-2.63-1.06-2.63-1.08,0-4.64.93-5.04,1.53-.14.23-.19.66-.19,1.22,0,1.16.12,1.82.52,1.82.5,0,1.28-.37,1.53-.41,1.24-.23,3.81-.12,4.14-1.06.06-.15.08-.31.08-.48Z"/>
        <path class="cls-1" d="M197.22,206.18c0,.23.04.35.04.58,0,1.68-1.62,1.64-3.4,2.13-.64.17-1.39.46-2.07.46-1.72,0-1.78-1.78-1.78-2.88,0-.33.04-.77.04-1.24,0-.83.08-2.63-1.31-2.63-.79,0-1.7.64-2.09.81-.81.37-2.38.79-2.38,1.53,0,1.26,1.37,4.33,1.37,4.7,0,.19-.12.35-.12.6,0,.77.5,1.78.5,2.84,0,.35-.1,2.4-.37,2.9-.29.46-.77.33-1.31.66-1.2.77-.81,1.33-2.51,1.33-2.38,0-3.15-1.14-3.15-3.81,0-1.82.7-3.56.93-5.53.14-1.33.25-2.96.25-4.29,0-.56-.04-1.18-.12-1.87-.06-.33-.25-.66-.25-.97,0-.85.46-1.87.52-2.8,0-.48-.19-.7-.19-1.01,0-1.16.83-1.47,1.14-1.51.06-.02.1-.02.12-.02.5,0,.91.1,1.22.31.89.68.95,1.86,1.04,2.86.06.64.1,1.12.44,1.12.5,0,1.43-.89,1.35-.81l.54-.41c.31-.23.68-.52,1-.68.48-.31,1.1-.33,1.58-.64.41-.31.85-.71,1.18-.93.64-.27,2.09-.56,2.9-.56s.97.62,1.82.85c1.08.35,2.92.04,2.92,2.24v.1c0,1.08.52,1.55.52,2.22,0,.31-.06.66-.06,1.02,0,.56.31,1.26.31,1.62-.06.54-.6.64-.6,1.74ZM185.03,199.71s.02,0,.04-.02c.02-.02.04-.04.08-.06h-.04l-.08.08Z"/>
        <path class="cls-1" d="M218.84,207.11c0,1.97-.23,4-.48,5.88-.08.6-.25,1.26-.25,1.74,0,1.01.29,1.99.29,2.8,0,.35-.85,2.63-3,2.63-1.24,0-1.58-.81-1.58-1.91,0-.77.17-1.7.33-2.63-.64.15-1.26.6-1.82.93-2.42,1.43-4.66,3.4-8.95,3.4-.06,0-.37.02-.52.02-.35,0-1.31-.02-1.95-.39-1.2-1.2-2.32-3.92-2.32-4.21-.02-.06-.04-.21-.04-.39,0-1.14.42-2.67.42-2.92,0-.68-.17-1.3-.17-2.07,0-.35.02-.77.17-1.2,0-.04.64-1.55.81-1.68.39-.33,1.41-.39,2.22-.77.64-.31,1.14-.89,1.55-1.06.27-.15.81-.17,1.33-.39.75-.23,2.18-.83,3.27-.93.25,0,.62.12,1.14.12.39,0,.93-.25,1.7-.25s1.55.17,1.95.17c.31,0,.33-.21.33-.46,0-.83-.79-2.4-.93-2.59-.42-.52-.97-.81-1.39-.81-.44,0-.85.17-1.37.17-.39,0-.79-.08-1.18-.08-1.87,0-5.22,2.22-6.53,2.55-.35.08-.77.17-1.12.17-.43,0-1.78-1.02-1.78-1.91,0-1.35,1.62-1.55,2.63-2.18.64-.39,1.62-.95,2.22-1.43.64-.52.79-.97,1.18-1.2.39-.23,1.35-.39,2.07-.62.46-.17,1.72-.68,2.18-.68h.08c1.04.37,2.78.35,4.08.68.23.06.39.29.62.37,2.05.6,2.57.89,3.69,5.22.1.5.5.89.64,1.31.37,1.12.48,3.36.48,4.6ZM213.95,209.39c0-1.43-.1-1.74-.54-1.74-.17,0-.29.04-.39.06-.06.02-.1.04-.17.06-.23-.02-.62-.04-1.18-.04-1.53,0-2.53.41-3.92.68-1.99.5-3.4.06-3.4,2.34,0,1.16.62,1.47,1.78,1.47.71,0,1.93-.54,3.07-.81l.68-.15c.7-.12,1.49-.27,1.95-.35.1-.02.46-.06,1.08-.12.41-.02.83-.08.87-.12.15-.15.17-.68.17-1.29Z"/>
        <path class="cls-1" d="M238.49,205.78c-.99.6-2.49,1.37-3.81,1.37-3.61,0-2.18-4.33-3.65-5.39-.31-.23-1.01-.31-1.74-.31-.97,0-1.93.12-1.97.17-.72.39-.72,2.57-.89,3.4-.17,1.16-.58,2.34-.58,3.4,0,.6.81,2.76,1.47,3.15.5.29,1.87.08,2.63.25,1.49.33,2.98,1.18,4.37,1.18,1.31,0,2.05-.46,2.98-1.31.48-.48.79-1.16,1.62-1.16.72,0,.93.73.93,1.66,0,2.09-.6,3.85-2.67,5.01-.17.1-.33.14-.52.14h-.17c-.19,0-.35.04-.52.1-.97.5-1.31,1.58-2.88,1.58-.72,0-1.53-.37-2.47-.64-.83-.23-1.68-.02-2.24-.25-1.12-.39-3.11-2.03-4.72-3.15l-.81-.54c-.64-.44-.85-.75-1.43-1.95-.39-.81-.68-1.41-.68-1.91,0-.81.17-1.89.17-2.94,0-.85-.12-1.7-.12-2.55,0-.77.08-1.51.25-2.2.08-.25.39-.46.56-.77.39-.85.64-1.97,1.14-2.63.6-.75,2.34-2.71,3.27-2.71.85,0,1.95.29,2.8.29,1.74,0,.52-1.1,2.76-1.1.44,0,.97.02,1.53.08,3.77.33,4.29-.7,6.96,4.62.33.73.77,2.09.77,2.63-.1,1.41-2.07,2.34-2.34,2.47Z"/>
        <path class="cls-1" d="M258.82,199.67c0,.97-.81,2.34-1.99,2.34-.27,0-.56-.04-.81-.04-.83,0-1.7.37-2.09.37-.41,0-.91-.12-1.39-.12-1.55,0-1.45.64-1.45,2.22,0,2.57-.54,5.93-.54,8.27,0,.73.08,1.35.08,1.95,0,.17-.04.39-.04.56-.1.39-1.12,3.05-1.58,3.4-.23.15-.54.17-.93.17-1.88,0-2.71-.58-2.71-1.82,0-.52.08-1.1.08-1.58,0-3.11-.89-7.73-.89-12.52-.39.08-.77.12-1.1.12-1.58,0-2.86-.85-2.86-2.34,0-1.91,1.78-1.93,3.67-2.36v-.77c0-2.49-.81-4.27-.81-6.03s.43-2.2,1.99-2.76c.66-.27,2.18-.6,3.48-.6,1.55,0,3.13.25,3.13,3.44,0,.85-.02,1.82-.17,2.38-.17.75-.81,1.31-.81,1.8v.06c0,.31.12.83.12,1.14,0,.43-.25.75-.25,1.06,0,.39.44.44,1.24.44,2.26,0,3.29-.48,4.79-.48.33,0,.68.02.93.17.6.35.89.85.89,1.53Z"/>
        <path class="cls-1" d="M262.19,218.21c-2.2-.23-2.86-1.6-3.03-3.81,0-.56.27-1.1.27-1.78,0-.77-.17-1.57-.17-2.34,0-1.89.39-7.54.97-8.7.48-.97,1.22-1.39,2.07-1.39,2.22,0,2.92,1.84,2.92,4.75,0,.64-.08,1.24-.08,1.82,0,2.32,1.16,4.58,1.16,6.2,0,.25-.04.6-.04.85,0,1.01.29,1.62.29,2.13,0,.25-.06.48-.17.71-.46.68-3.03,1.57-4.21,1.57ZM262.19,196.44c-1.51,0-2.32-.62-2.32-2.67,0-1.64,1.16-2.82,1.16-3.42.71-.54,2.76-.91,3.07-.91,1.49,0,2.55.62,2.55,1.29,0,.33-.08.73-.08,1,.06.75.39,1.74.39,2.51,0,2.03-3.32,2.22-4.77,2.22Z"/>
        <path class="cls-1" d="M286.16,205.95c0,1.28-.75,2.61-.97,4-.02.15-.04.48-.04,1,0,.35-.02.7-.08.95-.14.68-.62,1.53-1.01,2.26-1.16,2.16-1.53,2.88-4.62,2.88-2.63,0-5.59-.6-7.19-1.33-1.89-.83-2.01-1.66-3-4.58-.5-1.49-1.01-2.96-1.01-4.19v-.23c0-.87.27-2.53.6-3.17.27-.64.79-.85.79-1.49,0-.37-.17-.54-.25-.85-.02-.08-.04-.19-.04-.29,0,0,.04-.08.1-.23.25-.77,1.31-3.05,2.49-3.05h.64c.77,0,2.28.37,3.73.37,1.26,0,2.61-.12,3.77-.12,3.34,0,3.09,1.84,3.69,3.15.23.5.89,1.02,1.33,1.82.23.39.19,1.02.42,1.43.23.6.58.85.64,1.2,0,.17.04.29.04.46ZM281.29,204.08c0-.89-.31-2.71-2.55-2.71-.68,0-1.45.21-2.13.21-.33,0-.7-.04-1.06-.04-1.93,0-2.32,1.7-2.32,3.75,0,2.65.37,3.4,1.35,3.9.43.17.64.08,1.06.25.48.17.5.68.97.68.19,0,.44-.04.68-.04.68,0,.91.56,1.24.56.17-.06,2.26-1.2,2.32-1.33.27-.43.25-2.11.31-2.76.06-.56.12-1.57.12-2.47Z"/>
        <path class="cls-1" d="M306.81,211.89c0,.56.12,1.1.12,1.62,0,.19-.43,1.68-1.45,2.07-.64.27-1.76.08-2.76.25-.68.15-1.14.35-1.7.35-1.97,0-1.89-2.47-1.99-3.88-.08-.93-.25-1.6-.31-2.24,0-.39.06-.7.06-1.01,0-1.45-.19-2.51-2.09-2.51-1.33,0-3.32.73-3.32,2.3,0,.31.19.66.19,1.1,0,.77-.27,1.62-.27,2.36,0,1.16.27,2.18.27,2.9,0,1.91-.31,2.88-1.93,2.88-1.26,0-1.99-.6-1.99-1.87,0-.48.04-.97.04-1.53,0-1.49-.75-1.78-1.14-3.44-.02-.04-.04-.15-.04-.33,0-.31.04-.72.04-1.14,0-2.2-.68-5.22-.68-7.52,0-2.07,1.97-2.55,3.52-2.55s2.47.89,2.47,2.05c0,.39-.08.83-.08,1.26,0,.31.06.81.37.81.58,0,3.34-1,3.75-1.1.46-.08.87-.12,1.22-.12h.27c.35,0,.66-.04.95-.15,1.26-.33,1.43-.7,2.59-.7,1.87,0,1.47.91,2.13,1.64.85.95,1.91,1.06,1.91,2.09,0,.39-.17.77-.17,1.35,0,.73.25,1.53.25,2.34,0,.93-.25,1.87-.25,2.71Z"/>
      </g>
    </g>
  </g>
</svg>