<?xml version="1.0" encoding="UTF-8"?>
<svg id="Layer_2" data-name="Layer 2" xmlns="http://www.w3.org/2000/svg" viewBox="0 0 225.82 209.85">
  <defs>
    <style>
      .cls-1 {
        fill: #37489e;
      }

      .cls-2 {
        fill: #fff;
      }

      .cls-3 {
        fill: #f9e7d7;
      }

      .cls-4 {
        fill: #f5bc18;
      }

      .cls-5 {
        fill: #f6d74b;
      }

      .cls-6 {
        fill: #f36c32;
        stroke: #fff;
        stroke-miterlimit: 10;
        stroke-width: 5px;
      }
    </style>
  </defs>
  <g id="Layer_1-2" data-name="Layer 1">
    <g>
      <g>
        <g>
          <path class="cls-5" d="M1.6,89.1s-.69,29.8,2.72,41.37c3.41,11.57-1.01,25.66-2.73,31.25s-5.77,18.97,12.9,31.08c18.67,12.11,16.87-3.24,34.5,8.29,17.63,11.53,76.19,17.59,123.83-20.63,47.64-38.23,46.88-65.76,45.04-84.97-1.84-19.21,2.42-32.3,6.96-42.53,4.54-10.23-6.72-32.85-25.92-29.7-19.2,3.15-32.63-12.68-45.06-17.85C141.42.23,99.94-7.04,64.99,15.18,30.04,37.4,4.91,74.06,1.6,89.1Z"/>
          <ellipse class="cls-4" cx="16.36" cy="179.57" rx="4.75" ry="13.07" transform="translate(-101 42.68) rotate(-35.4)"/>
        </g>
        <path class="cls-3" d="M200.28,84.29s17.42,37.38-20.12,58.37c-37.54,20.99,7.96-22.14,9.91-39,1.95-16.86,3.2-33.16,10.21-19.38Z"/>
        <path class="cls-3" d="M161.66,164.11s-3.9,22.78-21.73,18.83c-17.84-3.95,1.35-12.16,6.35-18.97,5-6.81,16.63-8.47,15.39.13Z"/>
      </g>
      <g>
        <path class="cls-6" d="M149.43,59.66c18.12,17.63,16.91,48.27-2.71,68.44-19.4,19.95-49.55,22.18-67.74,5.16l-4.46,36.69c-.58,4.79-4.98,8.24-9.77,7.65-1.97-.24-3.71-1.12-5.04-2.42-1.9-1.85-2.95-4.53-2.61-7.35l7.51-61.74c.05-.39.12-.78.22-1.15l-19.37,21.01c-3.27,3.55-8.85,3.77-12.4.5-.06-.05-.12-.11-.17-.16-3.39-3.29-3.55-8.75-.33-12.24l40.34-43.75-15.3,1.78c-4.8.56-9.17-2.9-9.73-7.69-.32-2.72.66-5.3,2.44-7.13,1.36-1.4,3.18-2.36,5.26-2.6l57.22-6.67c.41-.05.82-.07,1.22-.05,12.98-1.36,25.92,2.47,35.42,11.72Z"/>
        <ellipse class="cls-2" cx="113.91" cy="96.17" rx="30.54" ry="27.65" transform="translate(-34.45 110.76) rotate(-45.79)"/>
        <ellipse class="cls-1" cx="113.91" cy="96.17" rx="19.1" ry="17.6" transform="translate(-34.45 110.76) rotate(-45.79)"/>
      </g>
    </g>
  </g>
</svg>