<?xml version="1.0" encoding="UTF-8"?>
<svg id="Layer_2" data-name="Layer 2" xmlns="http://www.w3.org/2000/svg" viewBox="0 0 763.84 592.85">
  <defs>
    <style>
      .cls-1 {
        opacity: .2;
      }

      .cls-1, .cls-2 {
        fill: #fff;
      }

      .cls-3 {
        fill: #37489e;
      }

      .cls-4, .cls-2 {
        stroke: #e5a900;
        stroke-miterlimit: 10;
        stroke-width: 4px;
      }

      .cls-4, .cls-5 {
        fill: #fff8e6;
      }

      .cls-6 {
        letter-spacing: 0em;
      }

      .cls-7 {
        fill: #fff099;
      }

      .cls-8 {
        fill: #d3d3d3;
      }

      .cls-9 {
        fill: #017348;
      }

      .cls-10 {
        fill: #b6b6b7;
        font-family: ArchivoBlack-Regular, 'Archivo Black';
        font-size: 21px;
      }

      .cls-11 {
        fill: #efd7bc;
      }

      .cls-12 {
        fill: #ed2a25;
      }

      .cls-13 {
        fill: #a3a3a3;
      }

      .cls-14 {
        fill: #027248;
      }

      .cls-15 {
        fill: #f26c32;
      }

      .cls-16 {
        fill: #f4bc17;
      }

      .cls-17 {
        fill: #d1d1d1;
      }

      .cls-18 {
        fill: #e5a900;
      }
    </style>
  </defs>
  <g id="Layer_1-2" data-name="Layer 1">
    <rect class="cls-16" x="95.11" y="146.03" width="668.66" height="446.71" rx="37.15" ry="37.15"/>
    <rect class="cls-16" x="330.27" y="91.15" width="198.76" height="132.78" rx="25.89" ry="25.89"/>
    <rect class="cls-2" x="121.82" y="169.36" width="615.74" height="396.84" rx="37.15" ry="37.15"/>
    <rect class="cls-4" x="362.64" y="112.01" width="125.33" height="25.52" rx="10.44" ry="10.44"/>
    <path class="cls-18" d="M368.96,153.17c0,2.34,0,4.69,0,7.03,0,.34,0,.68,0,1.01,0,1.31,1.15,2.56,2.5,2.5s2.5-1.1,2.5-2.5c0-2.34,0-4.69,0-7.03,0-.34,0-.68,0-1.01,0-1.31-1.15-2.56-2.5-2.5s-2.5,1.1-2.5,2.5h0Z"/>
    <path class="cls-18" d="M390.5,153.16c0,2.34,0,4.69,0,7.03,0,.34,0,.68,0,1.01,0,1.31,1.15,2.56,2.5,2.5s2.5-1.1,2.5-2.5c0-2.34,0-4.69,0-7.03,0-.34,0-.68,0-1.01,0-1.31-1.15-2.56-2.5-2.5s-2.5,1.1-2.5,2.5h0Z"/>
    <path class="cls-18" d="M412.04,153.15c0,2.34,0,4.69,0,7.03,0,.34,0,.68,0,1.01,0,1.31,1.15,2.56,2.5,2.5s2.5-1.1,2.5-2.5c0-2.34,0-4.69,0-7.03,0-.34,0-.68,0-1.01,0-1.31-1.15-2.56-2.5-2.5s-2.5,1.1-2.5,2.5h0Z"/>
    <path class="cls-18" d="M433.58,152.82c0,2.34,0,4.69,0,7.03,0,.34,0,.68,0,1.01,0,1.31,1.15,2.56,2.5,2.5s2.5-1.1,2.5-2.5c0-2.34,0-4.69,0-7.03,0-.34,0-.68,0-1.01,0-1.31-1.15-2.56-2.5-2.5s-2.5,1.1-2.5,2.5h0Z"/>
    <path class="cls-18" d="M455.12,152.81c0,2.34,0,4.69,0,7.03,0,.34,0,.68,0,1.01,0,1.31,1.15,2.56,2.5,2.5s2.5-1.1,2.5-2.5c0-2.34,0-4.69,0-7.03,0-.34,0-.68,0-1.01,0-1.31-1.15-2.56-2.5-2.5s-2.5,1.1-2.5,2.5h0Z"/>
    <path class="cls-18" d="M476.66,152.8c0,2.34,0,4.69,0,7.03,0,.34,0,.68,0,1.01,0,1.31,1.15,2.56,2.5,2.5s2.5-1.1,2.5-2.5c0-2.34,0-4.69,0-7.03,0-.34,0-.68,0-1.01,0-1.31-1.15-2.56-2.5-2.5s-2.5,1.1-2.5,2.5h0Z"/>
    <g>
      <path class="cls-5" d="M355.23,232.08c-.78,9.9.12,306.77.12,306.77"/>
      <path class="cls-15" d="M352.73,232.08c-.27,3.5-.15,7.06-.18,10.56-.06,7.91-.08,15.81-.1,23.72-.02,11.2-.03,22.41-.03,33.61,0,13.42,0,26.83.02,40.25.01,14.54.03,29.08.06,43.62s.05,29.15.08,43.73c.03,13.53.06,27.05.09,40.58.03,11.39.06,22.78.09,34.17.02,8.16.04,16.33.07,24.49.01,3.85-.02,7.71.03,11.56,0,.16,0,.32,0,.49,0,3.22,5.01,3.22,5,0,0-2.65-.02-5.3-.02-7.95-.02-7.22-.04-14.45-.06-21.67-.03-10.71-.06-21.42-.08-32.13-.03-13.11-.06-26.22-.09-39.33-.03-14.42-.06-28.84-.08-43.27s-.05-29.29-.06-43.94c-.02-13.79-.03-27.57-.03-41.36,0-11.84,0-23.67.02-35.51.01-8.8.03-17.6.08-26.41.03-4.68.02-9.36.16-14.04.01-.39.02-.78.05-1.17.1-1.35-1.22-2.5-2.5-2.5-1.44,0-2.4,1.15-2.5,2.5h0Z"/>
    </g>
    <path class="cls-8" d="M378.29,326.26c3.5.27,7.06.15,10.56.18,7.91.06,15.81.08,23.72.1,11.2.02,22.41.03,33.61.03,13.42,0,26.83,0,40.25-.02,14.54-.01,29.08-.03,43.62-.06s29.15-.05,43.73-.08c13.53-.03,27.05-.06,40.58-.09,11.39-.03,22.78-.06,34.17-.09,8.16-.02,16.33-.04,24.49-.07,3.85-.01,7.71.02,11.56-.03.16,0,.32,0,.49,0,3.22,0,3.22-5.01,0-5-2.65,0-5.3.02-7.95.02-7.22.02-14.45.04-21.67.06-10.71.03-21.42.06-32.13.08-13.11.03-26.22.06-39.33.09-14.42.03-28.84.06-43.27.08-14.65.03-29.29.05-43.94.06-13.79.02-27.57.03-41.36.03-11.84,0-23.67,0-35.51-.02-8.8-.01-17.6-.03-26.41-.08-4.68-.03-9.36-.02-14.04-.16-.39-.01-.78-.02-1.17-.05-1.35-.1-2.5,1.22-2.5,2.5,0,1.44,1.15,2.4,2.5,2.5h0Z"/>
    <path class="cls-8" d="M383.02,397.37c3.5.27,7.06.15,10.56.18,7.91.06,15.81.08,23.72.1,11.2.02,22.41.03,33.61.03,13.42,0,26.83,0,40.25-.02,14.54-.01,29.08-.03,43.62-.06,14.58-.02,29.15-.05,43.73-.08,13.53-.03,27.05-.06,40.58-.09,11.39-.03,22.78-.06,34.17-.09,8.16-.02,16.33-.04,24.49-.07,3.85-.01,7.71.02,11.56-.03.16,0,.32,0,.49,0,3.22,0,3.22-5.01,0-5-2.65,0-5.3.02-7.95.02-7.22.02-14.45.04-21.67.06-10.71.03-21.42.06-32.13.08-13.11.03-26.22.06-39.33.09-14.42.03-28.84.06-43.27.08-14.65.03-29.29.05-43.94.06-13.79.02-27.57.03-41.36.03-11.84,0-23.67,0-35.51-.02-8.8-.01-17.6-.03-26.41-.08-4.68-.03-9.36-.02-14.04-.16-.39-.01-.78-.02-1.17-.05-1.35-.1-2.5,1.22-2.5,2.5,0,1.44,1.15,2.4,2.5,2.5h0Z"/>
    <path class="cls-8" d="M380.48,468.8c2.11.26,4.31.16,6.43.18,4.84.06,9.67.09,14.51.1,6.82.03,13.65.04,20.47.04,8.21,0,16.42,0,24.63-.01,8.86-.01,17.71-.03,26.57-.05s17.76-.05,26.64-.07c8.28-.03,16.56-.05,24.84-.08,6.94-.03,13.88-.05,20.83-.08,5-.02,10-.04,15.01-.06,2.35-.01,4.71.04,7.06-.03.1,0,.2,0,.31,0,3.22-.02,3.22-5.02,0-5-1.61,0-3.22.01-4.83.02-4.42.02-8.84.04-13.25.06-6.52.03-13.05.05-19.57.08-8.02.03-16.05.06-24.07.08-8.79.03-17.57.05-26.36.08-8.92.02-17.85.04-26.77.06-8.44.01-16.88.02-25.32.02-7.22,0-14.43,0-21.65-.03-5.39-.02-10.78-.04-16.18-.09-2.85-.03-5.72-.01-8.57-.16-.24-.01-.49-.02-.73-.05-1.34-.17-2.5,1.27-2.5,2.5,0,1.49,1.15,2.33,2.5,2.5h0Z"/>
    <text class="cls-10" transform="translate(381.45 308.4) rotate(-.02)"><tspan class="cls-6" x="0" y="0">N</tspan><tspan x="17.28" y="0">AME:</tspan></text>
    <g>
      <path class="cls-3" d="M501.38,293.38c-.4.4-1.14.46-1.76.67-1,.39-2.21,1.34-3.23,1.34-.72,0-1.85-.65-1.85-2.51,0-.58.07-1.23.07-1.85,0-1.32-.46-3.59-1-3.59-.21,0-.47.14-.83.14-.84,0-.77-.44-1.2-.44-1.14,0-.98,1.09-1.32,2.23-.12.4-.51.9-.65,1.44-.19.54-.26,1.2-.47,1.88-.37,1.16-1.11,3.78-1.1,5.29,0,1.07.77,2.16,1.9,2.85.33.19,1,.26,1.55.53,1.02.51,1.3,1.05,3.13,1.05,1.69,0,3.64-.77,4.43-1.48.28-.23,1.28-1.81,2.42-1.81.23,0,1.11.18,1.11,1.23,0,.69-.28,1.44-.28,2.09,0,.28.04.74.04,1.14,0,.83-.44,1.65-1.7,2.57-.4.28-1.04.46-1.58.79-.56.35-1.28.79-1.65.79s-.7-.14-1.18-.14c-.76,0-1.44.07-2.2.07s-1.88-.05-2.64-.19c-.54-.05-1.58-.12-1.76-.21-.33-.14-.53-.83-1.02-1.23-.28-.21-.69-.23-.9-.42-.28-.37-.67-.86-1-1.23-.37-.58-.51-1.28-.86-1.69-.28-.28-1.07-.51-1.44-.97-.14-.11-.53-.86-.69-1.2-.05-.09-.09-.14-.11-.14,0-.07.04-.16.09-.28.14-.32.44-.74.44-.98,0-.4-.16-.67-.21-1.07,0-1.6.3-5.41.89-7.79.26-.93.68-1.97.68-2.83,0-.3-.07-.62-.07-.91,0-1.28,1.72-1.23,2.64-2.15.25-.3.21-1.12.42-1.34.14-.18.54-.05,1.02-.33s.46-.6.9-.6h.11c.26,0,.54.04.76.04.35,0,.74-.04,1.14-.04,1.34,0,1.51.65,2.43.82,1.3.25,2.53-.05,3.67.42.33.14.69.56,1.11.9.41.3.93.49,1.13.76.14.26.21.88.42,1.23.44.77,1.35,1.6,1.44,2.81v.11c0,.72-.39,3.34-1.23,4.22Z"/>
      <path class="cls-3" d="M515.98,305.33c-1.6,0-1.72-1.35-1.72-3.46,0-1.12.07-2.3.07-3.23,0-.65-.33-1.74-.33-2.23,0-.33.11-.79.11-1.2,0-.58-.25-.93-.93-.93-.4,0-.81.12-1.2.26-.19.09-.49.23-.9.42-.98.42-1.9.91-1.9,1.69,0,.47.18,1.18.25,1.86.02.28.04.56.04.83v.46c0,.3.02.56.07.81.19,1.04.4,1.41.4,2.34,0,.83.42,1.48.42,2.5,0,1.97-2.2,2.01-4.46,2.01-1.11,0-1.11-.4-1.11-1.86,0-1.09.16-2.37.21-2.85.05-1.02.21-3.11.21-3.99,0-.62-1.46-.65-1.46-1.92,0-1.72,1.65-.86,1.65-2.27,0-.79-.33-1.74-.33-2.92,0-1.12.14-2.32.14-3.45,0-.83-.25-1.74-.25-2.46s.65-1.97,1.81-1.97c1.67,0,1.55,3.06,1.76,4.54.19,1.47.28,4.46.79,4.46.12,0,.28-.05.47-.18.19-.11.6-.37,1.23-.79.21-.14.39-.25.53-.3.76-.33,1.79-.62,3.34-.62,2.71,0,2.69,1.27,4.33,2.41.4.26.93.37.93.95,0,.28-.07.63-.07.97,0,.98.79,2.27.79,3.64,0,.47-.42,1.42-.42,1.48,0,.35.35.63.35,1.04,0,.23-.04.42-.04.62,0,.4.26.69.26,1.12v.16c0,.05-.02.11-.04.16-.28,1.27-2.9,1.92-5.01,1.92Z"/>
      <path class="cls-3" d="M539.16,297.87c0,1.67-.19,3.39-.4,4.99-.07.51-.21,1.07-.21,1.48,0,.86.25,1.69.25,2.37,0,.3-.72,2.23-2.55,2.23-1.05,0-1.34-.69-1.34-1.62,0-.65.14-1.44.28-2.23-.54.12-1.07.51-1.55.79-2.06,1.21-3.95,2.88-7.59,2.88-.05,0-.32.02-.44.02-.3,0-1.11-.02-1.65-.33-1.02-1.02-1.97-3.32-1.97-3.57-.02-.05-.04-.18-.04-.33,0-.97.35-2.27.35-2.48,0-.58-.14-1.11-.14-1.76,0-.3.02-.65.14-1.02,0-.04.54-1.32.69-1.42.33-.28,1.19-.34,1.88-.65.54-.26.97-.76,1.32-.9.23-.12.69-.14,1.12-.33.63-.19,1.85-.71,2.78-.79.21,0,.53.11.97.11.33,0,.79-.21,1.44-.21s1.32.14,1.65.14c.26,0,.28-.18.28-.39,0-.7-.67-2.04-.79-2.2-.35-.44-.83-.69-1.18-.69-.37,0-.72.14-1.16.14-.33,0-.67-.07-1-.07-1.58,0-4.43,1.88-5.54,2.16-.3.07-.65.14-.95.14-.37,0-1.51-.86-1.51-1.62,0-1.14,1.37-1.32,2.23-1.85.54-.33,1.37-.81,1.88-1.21.54-.44.67-.83,1-1.02s1.14-.33,1.76-.53c.39-.14,1.46-.58,1.84-.58h.07c.88.32,2.36.3,3.46.58.19.05.33.25.53.32,1.74.51,2.18.76,3.13,4.43.09.42.42.76.54,1.11.32.95.41,2.85.41,3.9ZM535.01,299.8c0-1.21-.09-1.48-.46-1.48-.14,0-.25.04-.33.05-.05.02-.09.04-.14.05-.19-.02-.53-.04-1-.04-1.3,0-2.14.35-3.32.58-1.69.42-2.88.05-2.88,1.99,0,.98.53,1.25,1.51,1.25.6,0,1.63-.46,2.6-.69l.58-.12c.6-.11,1.27-.23,1.65-.3.09-.02.39-.05.91-.11.35-.02.7-.07.74-.11.12-.12.14-.58.14-1.09Z"/>
      <path class="cls-3" d="M558.99,302.64c0,.63-.3.9-1.28,1.51-.98.6-1.16,1-2.06,1-.93,0-1.65-.6-1.65-1.72,0-.33.03-.79.03-1.27,0-.62-.04-1.21-.3-1.21-.49,0-3.69,1.58-3.92,1.65-.19.05-.35.07-.62.07-.33,0-.7-.04-1.11-.04-1.63,0-3.02.83-4.36.83-2.69,0-2.85-4.97-2.85-6.98,0-.86.51-1.78.51-2.46,0-.54-.07-1.11-.07-1.69,0-.86.39-1.92.72-2.95.46-1.44.4-2.23,2-2.23.56,0,3.75.65,4.11,1.23.14.26.18.56.18.9,0,.98-.39,2.11-.39,2.64,0,.26.11.56.11.9-.05.35-.21.72-.26,1,0,.51.16,1.23.16,1.92s-.26,1.23-.26,1.48v.07c.05,1,.12,1.14.69,1.14,1.95,0,4.06-.18,5.11-.72.21-.21.28-.84.3-1.21v-.37c0-.4-.05-.91-.05-1.11,0-2.39-.25-4.04-.25-4.87,0-.42.44-1.55,1.41-1.55.97,0,1.86.65,1.86,1.34,0,.28-.07.69-.07,1.04,0,1.28.58,3.15.58,4.18,0,.54-.14,1-.14,1.48,0,1.12.86,1.76,1.14,2.41.19.47.25,1.3.44,2.02.19.76.28,1.21.28,1.58Z"/>
      <path class="cls-3" d="M585.23,293.77c-.46,2.04-.49,5.61-2.55,6.12-.51.14-1.62.09-2.55.23-.69.12-1.23.39-1.67.46-.76.09-2.23-.02-2.23.26,0,2.13.88,4.73.88,6.68,0,.51-.09,1.39-.75,1.95-.3.21-.9.14-1.44.44-.47.23-.4.72-1.23.72-.7,0-.98-.42-1.55-.62-1.2-.42-2.27-.31-2.27-1.91,0-.42.14-.93.14-1.41,0-1.12-.21-2.18-.21-2.79,0-.56.7-1.64.75-2.09.05-.3.07-.54.07-.83,0-1.28-.41-2.51-.41-3.64,0-3.22.37-6.91.37-10.51,0-.4-.02-.65-.28-.65-.4,0-1.16.32-1.71.32-.12,0-.19-.02-.25-.04-.19-.05-.9-.49-.9-.9,0-.28.25-.65.32-1,.07-.28.07-.46.07-.72,0-.14.05-.28.14-.4.6-.6,3.39-.63,4.25-.63,2.27,0,4.82.24,6.56.63,1.83.44,3.08,1.91,4.33,3.25.62.7,1.18,1.14,1.18,1.79v.4c0,.74.39.84.62,1.35.02.09.04.19.04.32v.23c0,.16.02.3.07.44.19.65.54,1,.54,1.44,0,.49-.21.67-.33,1.11ZM579.22,290.85v-.72c0-2.3-1.41-3.81-2.62-3.81-.37,0-.69.07-1.12.07-.28,0-.63-.03-1-.17.09,1,.46,9.69.72,9.69.56,0,.93-.37,1.48-.55.58-.19,1.44-.16,1.92-.58.28-.28.21-.86.42-1.65.12-.4.42-.74.47-1,0-.21-.26-.65-.26-1.27Z"/>
      <path class="cls-3" d="M598.17,305.3c-1.6,0-1.72-1.35-1.72-3.46,0-1.12.07-2.3.07-3.23,0-.65-.33-1.74-.33-2.23,0-.33.11-.79.11-1.2,0-.58-.25-.93-.93-.93-.4,0-.81.12-1.2.26-.19.09-.49.23-.9.42-.98.42-1.9.91-1.9,1.69,0,.47.18,1.18.25,1.86.02.28.04.56.04.83v.46c0,.3.02.56.07.81.19,1.04.4,1.41.4,2.34,0,.83.42,1.48.42,2.5,0,1.97-2.2,2.01-4.46,2.01-1.11,0-1.11-.4-1.11-1.86,0-1.09.16-2.37.21-2.85.05-1.02.21-3.11.21-3.99,0-.62-1.46-.65-1.46-1.92,0-1.72,1.65-.86,1.65-2.27,0-.79-.33-1.74-.33-2.92,0-1.12.14-2.32.14-3.45,0-.83-.25-1.74-.25-2.46s.65-1.97,1.81-1.97c1.67,0,1.55,3.06,1.76,4.54.19,1.47.28,4.46.79,4.46.12,0,.28-.05.47-.18.19-.11.6-.37,1.23-.79.21-.14.39-.25.53-.3.76-.33,1.79-.62,3.34-.62,2.71,0,2.69,1.27,4.33,2.41.4.26.93.37.93.95,0,.28-.07.63-.07.97,0,.98.79,2.27.79,3.64,0,.47-.42,1.42-.42,1.48,0,.35.35.63.35,1.04,0,.23-.04.42-.04.62,0,.4.26.69.26,1.12v.16c0,.05-.02.11-.04.16-.28,1.27-2.9,1.92-5.01,1.92Z"/>
      <path class="cls-3" d="M621.35,297.83c0,1.67-.19,3.39-.4,4.99-.07.51-.21,1.07-.21,1.48,0,.86.25,1.69.25,2.37,0,.3-.72,2.23-2.55,2.23-1.05,0-1.34-.69-1.34-1.62,0-.65.14-1.44.28-2.23-.54.12-1.07.51-1.55.79-2.06,1.21-3.95,2.88-7.59,2.88-.05,0-.32.02-.44.02-.3,0-1.11-.02-1.65-.33-1.02-1.02-1.97-3.32-1.97-3.57-.02-.05-.04-.18-.04-.33,0-.97.35-2.27.35-2.48,0-.58-.14-1.11-.14-1.76,0-.3.02-.65.14-1.02,0-.04.54-1.32.69-1.42.33-.28,1.19-.34,1.88-.65.54-.26.97-.76,1.32-.9.23-.12.69-.14,1.12-.33.63-.19,1.85-.7,2.78-.79.21,0,.53.11.97.11.33,0,.79-.21,1.44-.21s1.32.14,1.65.14c.26,0,.28-.18.28-.39,0-.7-.67-2.04-.79-2.2-.35-.44-.83-.69-1.18-.69-.37,0-.72.14-1.16.14-.33,0-.67-.07-1-.07-1.58,0-4.43,1.88-5.54,2.16-.3.07-.65.14-.95.14-.37,0-1.51-.86-1.51-1.62,0-1.14,1.37-1.32,2.23-1.85.54-.33,1.37-.81,1.88-1.21.54-.44.67-.83,1-1.02s1.14-.33,1.76-.53c.39-.14,1.46-.58,1.84-.58h.07c.88.32,2.36.3,3.46.58.19.05.33.25.53.32,1.74.51,2.18.76,3.13,4.43.09.42.42.76.54,1.11.32.95.41,2.85.41,3.9ZM617.21,299.77c0-1.21-.09-1.48-.46-1.48-.14,0-.25.04-.33.05-.05.02-.09.04-.14.05-.19-.02-.53-.04-1-.04-1.3,0-2.14.35-3.32.58-1.69.42-2.88.05-2.88,1.99,0,.98.53,1.25,1.51,1.25.6,0,1.63-.46,2.6-.69l.58-.12c.6-.11,1.27-.23,1.65-.3.09-.02.39-.05.91-.11.35-.02.7-.07.74-.11.12-.12.14-.58.14-1.09Z"/>
      <path class="cls-3" d="M643.71,303.91h-.4c-.07,0-.46.04-.79.04-1.27,0-1.06-1.05-1.34-1.81-.09-.23-.76-1.21-.76-1.62,0-.51.65-1.44.65-2.06,0-.35-.11-.98-.11-1.32,0-.79.11-1.58.11-2.2,0-.72-.18-1.23-.97-1.23-1.85,0-2.51,2.23-2.51,2.51,0,1.04.58,2.46.72,4.01.12,1.32.18,2.83.18,3.96,0,.83-.23,1.62-.98,2.06-.28.19-.76.14-1.11.21-.44.09-1.78.54-2.78.54-1.07,0-.97-.39-1.44-1.09-.42-.61-.9-.77-.9-1.51,0-.54.25-1,.25-1.58,0-1.07-.25-2.46-.25-3.48,0-.19.04-.54.04-.98,0-.98-.07-1.48-.76-1.48-.6,0-1.49.44-1.83.58-.77.33-1.77.65-1.77,1.88,0,.6.48,1.44.48,2.14,0,.16-.04.3-.04.44,0,.79.69,1.48.69,1.95,0,2.48,0,3.92-1.92,3.92-.46,0-2.21-.33-2.55-.76-.14-.28-.37-1.46-.37-2.37,0-.54.26-.83.26-1.2,0-.56-.14-1.6-.14-2.34,0-.47.46-2.3.46-3.78,0-1.46-.14-2.78-.14-4.06,0-1.32-.09-2.88,1.48-2.88,1.2,0,1.83.42,1.83,2.51,0,.62-.14,1.12-.14,1.88,1.97-.28,3.16-1.11,5.01-1.67.62-.2,1.18-.42,1.72-.42,1.04,0,1.6.83,2.13.83.93,0,.86-2.34,2.67-2.34.4,0,.84.04,1.25.04,1.3,0,3.36-.58,3.94-.58.86,0,3.09,1.23,3.1,9.04,0,.54-.26,1.02-.26,1.35v.09c0,.44.26,1.14.26,1.55v.11c-.28.93-1.67,1.12-2.95,1.12Z"/>
    </g>
    <g>
      <path class="cls-14" d="M414.2,242.59c0,.47.12,1.26.12,2.11,0,2.93-3.07,4.57-5.71,6.59-1.88,1.5-1.99,3.11-6.42,3.11-2.4,0-5.21-.88-7.15-.88-.82,0-1.55.23-2.29.23-.64,0-3.4-1.02-4.54-2.63-.56-.73-.53-1.61-.91-2.4-.56-.96-1.55-1.76-2.23-3.02-.59-1.14-.94-2.87-1.5-4.42-.7-2.08-1.55-3.72-1.55-4.86,0-2.58,1.52-6.3,3.16-6.3.44,0,.91.23,1.41.23.67-.09,1.05-.53,1.55-.53,1.03,0,4.1.82,4.92,1.26,1.26.62,2.99,3.34,2.99,4.92,0,.44-.06.88-.06,1.32,0,.79.35,1.55.56,2.52.32,2.2.06,3.87,1.12,5.15.79,1.03,2.34,1.67,3.72,1.67,1.7,0,1.96-1.23,2.96-1.85,1.55-.94,2.93-.7,2.93-3.43,0-1.08-.59-2.34-.7-3.6-.24-2.14.06-2.93-1.09-4.69-.32-.32-2.38-2.99-3.78-2.99-.32,0-.59.06-.91.06-2.49,0-5.3-2.49-8.12-3.89-2.37-1.17-6.3-1.81-6.3-4.33,0-.76.85-5.92,1.99-7.3,1.08-1.32,3.66-2.61,4.01-2.61.35,0,.67.09,1.03.09,1.49,0,1.93-.82,2.93-1.2.67-.26,1.7-.18,2.64-.38,2.23-.47,7.15-1.38,8.44-1.38h.21c.38,0,.91.12,1.14.79.5.35,1.26.41,1.7.76.59.5,1.26,1.46,1.85,2.05l.79.76c.67.73.97,1.17.97,2.11,0,2.46-.96,4.92-4.22,4.92-.97,0-2.2-.23-3.11-.58-.97-.32-1.79-1.49-2.96-1.88-1.2-.41-3.98-.7-5.21-.7-1.61,0-3.28.32-3.28,1.96,0,.97.7,1.26,2.02,2.11,1.17.79,2.23,1.93,3.49,2.4.73.23,1.61.23,2.23.35,4.6,1.08,8.09,4.33,10.2,7.61,1.03,1.67,1.14,2.34,1.14,4.45,0,1.2.35,2.37.35,3.28-.09,1.08-.53,2.05-.53,3.02Z"/>
      <path class="cls-14" d="M449.03,221.22c0,4.22-1.52,5.22-4.95,5.22-1.55,0-2.31-.61-4.75-.61-1.26,0-2.64.09-3.6.09-1.61,0-3.31,0-3.31,1.2,0,2.26.44,4.22.44,5.86,0,1.88-.15,3.6-.14,5.6,0,1.99.44,4.22.44,5.86,0,1.58-.38,2.26-.38,2.78,0,.59.38,1.44.38,1.67-.15,3.43-.99,4.86-5.33,4.87-1.14,0-3.25-.47-3.72-1.32-.47-.76-.09-2.64-.56-4.1-.62-1.84-2.34-2.05-2.35-3.63,0-2.78,1.75-8.35,1.75-11.04v-1.44c0-1.49.58-3.25.58-4.51,0-1.38-.85-1.67-2.17-1.67h-1.26c-.79,0-1.55-.06-2.14-.5-.29-.29-1.88-3.69-1.88-4.01,0-.67.5-1.11.73-1.9.82-3.02,0-4.45,4.66-4.46.97,0,1.73.73,2.67.73,2.58,0,.23-3.54,5.27-3.55,2.43.23,1.52,2.55,3.17,3.34.21.15,2.96.38,3.54.38.79,0,1.55-.18,2.34-.18,1.49,0,2.37,1.05,4.63,1.05,1.26,0,2.31-.18,3.22-.18,1.41,0,2.26.44,2.58,2.46.09.62.12,1.32.12,1.99Z"/>
      <path class="cls-14" d="M476.05,238.67c0,.67.06,1.35.06,2.02,0,1.67-.91,2.55-1.38,4.28-.38,1.38-.44,3.05-.91,3.9-1.26,2.49-5.39,4.31-5.92,4.31-.85,0-1.67-.23-2.58-.23-1.64,0-3.37.44-5.04.44-2.08,0-2.87-.53-6.68-3.25-1.88-1.32-2.64-1.55-3.34-5.71,0-.21-.06-.32-.06-.53,0-.62.12-1.2.12-1.88,0-1.32-.88-2.26-.97-3.34,0-.32.35-1.03.35-1.64v-1c0-1.03.79-1.61.79-2.72,0-1.26-.44-2.52-.44-3.78,0-1.05.7-2.23,1.14-3.84.32-1.14.41-2.52.73-3.72.44-1.67.94-3.16,1.49-5.16.21-.79.56-1.47.56-2.02,0-.44-.12-.85-.12-1.2,0-.62.64-1.32,1.79-1.32,2.2,0,4.13,1.81,4.13,3.22,0,1.29-.61,3.31-.76,4.28-.85,4.48-1.7,9.81-1.69,13.97v.64c0,1.29.06,2.58.18,3.9.15,1.23-.09,3.34.38,4.1.29.53,2.87,1.55,4.81,1.55,2.08,0,2.34-1.41,2.34-2.84v-.85c0-.41,0-.82.03-1.23.09-1.49.44-2.75.44-3.69v-.38c-.09-1.44-.67-3.28-.79-5.16,0-.67.18-1.38.18-1.99,0-1.03-.29-3.05-.29-4.98,0-2.46.41-4.13,2.17-4.13.29,0,.97.06,2.02.18.67,0,1.58-.18,2.4-.18,1.08,0,2.9,1.03,3.55,3.48.23,1.05.18,2.37.38,3.52.23,1.32.59,2.7.59,3.84,0,.73-.06,1.46-.06,2.17,0,1.26.5,1.99.59,3.08v.35c0,1.08-.17,2.46-.17,3.54Z"/>
      <path class="cls-14" d="M515.33,237.98c0,.85.06,1.49.06,2.11,0,1.41-.64,4.98-1.73,6.24-.38.56-2.81,1.35-3.66,2.05-.94.7-2.46,2.58-3.54,3.28-.44.35-1.17.53-1.85.97-.94.64-1.05,1.38-1.99,1.38-1.49,0-4.01-.47-6.18-.47-1.73,0-3.22.94-4.25.94-1.2,0-2.78-.61-4.28-.94-1.26-.23-3.25-.35-4.42-.73-.67-.23-1.05-1.03-2.23-1.49-2.58-.94-3.66-.32-3.66-4.01,0-1.88.35-3.13,1.08-3.13s1.64.67,2.11.67c1.29,0,1.55-2.75,1.55-5.21,0-2.31-.18-4.69-.18-5.89,0-.97.41-1.49.41-2.7,0-1.64-.24-3.78-.24-5.65,0-.97.29-3.13.29-4.07,0-1.29-4.19.15-4.19-3.02,0-2.72,6.85-4.49,8.76-5.34,1.32-.56,2.55-1.32,3.22-1.32.67,0,1.14.44,1.76.44.94-.09,1.84-.97,3.1-.97,1.85,0,2.32,1.11,3.72,1.67.73.35,1.55.29,2.23.55,3.31,1.35,5.07,2.81,7.09,5.39.7.91,1.85,1.61,2.4,2.4.79,1.2,1.88,3.9,2.58,5.74.79,2.2,2.05,5.71,2.2,8.88v.26c0,.59-.18,1.29-.17,1.96ZM503.17,234.26c0-.53-.03-1.03-.12-1.52-.09-.5-.32-1.44-.71-2.81-.15-.44-.23-.91-.32-1.41-.41-2.08-.35-3.84-1.14-5.36-.23-.44-.73-.82-1.08-1.32-.44-.47-.62-1.11-.97-1.44-.32-.32-1.26-.53-2.05-1.14-1.38-1.08-1.55-2.4-3.22-2.4-1.2,0-2.52.5-2.52.79,0,.64.23,2.34.24,2.75-.12,2.23-.35,5.01-.35,7.44,0,2.96.85,4.78,1.09,7.56.21,2.11.71,4.07.71,5.48,0,1.05-.17,2.31-.17,3.57,0,.59.06,1.14.18,1.7.32-.03,1.2-.06,2.7-.06,1.99,0,3.6-.12,5.1-2.96.32-.56.67-2.05,1.14-3.46.38-1.14,1.02-2.34,1.26-3.37.17-.73.26-1.41.26-2.05Z"/>
      <path class="cls-14" d="M549.47,245.96c-.32,1.03-.06,2.14-.94,2.93-.23.21-.56.38-1,.53s-1.38.38-2.87.73c-.5.12-.94.26-1.32.41-1.17.53-2.11,2.2-3.72,2.58-.59.21-1.58.26-2.37.38-1.52.29-4.48.82-6.91.82-2.49,0-2.58-.82-4.01-1.38-2.2-.7-4.54-.14-6.74-2.4-.23-.23-.5-1.32-.7-1.67-.79-1.11-2.05-1.29-2.05-2.75,0-1.03,1.58-2.4,2.52-2.4h.44c1,0,1.32-1.2,1.32-1.99s-.21-1.85-.21-3.22c0-.67.09-1.38.09-1.99,0-.97-.35-1.55-.44-2.28-.21-1.79-.29-3.98-.29-6.3,0-2.11.35-4.69.35-6.18,0-.94-2.87-.7-2.87-3.66,0-3.11,5.07-5.51,7.79-5.51,2.34,0,4.92.58,7.5.58,1.03,0,2.61-.64,5.1-.65,1.55,0,1.7.85,3.02,1.55.44.23,1.14.29,1.61.55.56.23.97.59,1.32.7,2.67.94,4.31.2,4.31,3.31,0,4.31-1.96,4.1-5.8,4.48-1.73.21-3.31.32-5.21.32-2.31,0-5.24-.44-8.06-.44-1.49,0-1.79,0-1.79,1.88,0,1.32.27,2.99.41,3.22.7.79,4.48.79,5.95.79,1.79,0,2.87-.97,4.01-.97,1.26,0,1.17.56,1.55.79.91.62,1.08.79,1.08,2.11,0,4.39-.94,4.57-6.65,4.72-2.11.09-2.52.18-2.52,1.26,0,1.85-.03,2.31-.03,2.4,0,1.73.5,2.46,2.96,2.46,2.58,0,5.57-.5,7.91-.97,1.96-.38,3.16-1.38,4.92-1.38,2.11,0,3.25,1.23,3.25,3.54,0,.67-.12,1.44-.35,2.11-.12.35-.47.59-.56.97Z"/>
      <path class="cls-14" d="M582.95,238.51c0,1.67-.41,3.52-.41,5.39,0,.67.06,1.44.06,2.23,0,1.96-.38,4.13-2.84,4.13-1.41,0-2.14-1.03-3.78-1.02-.67,0-1.67.12-2.64.12-2.67,0-1.93-.79-2.64-2.34-.21-.32-.64-.59-.97-1.05-.65-1.05-.56-1.61-1.5-2.4-.91-.7-1.11-.73-1.79-1.87-.62-.82-1.08-1.85-1.7-2.81-.67-.97-1.73-1.61-2.2-2.4-.79-1.17-1.26-3.04-1.88-4.45.03,1.14.06,2.31.06,3.49v1.96c0,1.29.03,2.58.12,3.87.09,1.32.38,2.34.38,3.66,0,1.14-.53,2.67-.73,4.42-.32,2.67.09,3.72-2.81,3.72-.85,0-2.34-.29-2.75-.53-.21-.12-.41-.88-.73-1.32-.67-.76-1.14-1.08-1.14-2.87,0-1.96.35-4.13.35-6.01,0-.79-.41-2.05-.41-3.25,0-1.55.06-3.05.06-4.54,0-2.7-.41-5.27-.41-7.82,0-1.96,1.02-3.05,1.02-5.68,0-.5-.09-1.03-.09-1.49,0-2.55,1.58-3.78,4.04-3.78,2.17,0,5.86.99,6.53,1.9.35.44.35,1.38.79,2.05.47.79,1.35,1.38,1.67,1.85.21.32.18.97.53,1.7.26.56.97,1.17,1.52,1.85.47.59.82,1.38,1.26,1.88,1.06,1.17,2.32,2.02,3.17,3.1,1.32,1.79,1.99,4.19,2.58,4.19.32,0,.35-.76.35-1.79,0-1.49-.18-3.63-.18-4.25s.38-1.26.38-2.29c0-1.61-.26-3.34-.27-5.1,0-2.43,1.02-4.28,1.02-6.18,0-1.93-.65-3.11-.65-4.28,0-1.26.94-2.46,2.46-2.46.35,0,3.34.12,3.34,3.78,0,.79-.17,1.55-.17,2.58,0,3.75.68,7.32.68,10.08,0,2.34-.38,4.69-.38,6.24,0,2.31.41,4.83.62,6.91,0,.32.06.59.06.91Z"/>
      <path class="cls-14" d="M618.45,221.15c0,4.22-1.52,5.22-4.95,5.22-1.55,0-2.31-.61-4.75-.61-1.26,0-2.64.09-3.6.09-1.61,0-3.31,0-3.31,1.2,0,2.26.44,4.22.44,5.86,0,1.88-.15,3.6-.14,5.6,0,1.99.44,4.22.44,5.86,0,1.58-.38,2.26-.38,2.78,0,.59.38,1.44.38,1.67-.15,3.43-.99,4.86-5.33,4.87-1.14,0-3.25-.47-3.72-1.32-.47-.76-.09-2.64-.56-4.1-.62-1.84-2.34-2.05-2.35-3.63,0-2.78,1.75-8.35,1.75-11.04v-1.44c0-1.49.58-3.25.58-4.51,0-1.38-.85-1.67-2.17-1.67h-1.26c-.79,0-1.55-.06-2.14-.5-.29-.29-1.88-3.69-1.88-4.01,0-.67.5-1.11.73-1.9.82-3.02,0-4.45,4.66-4.46.97,0,1.73.73,2.67.73,2.58,0,.23-3.54,5.27-3.55,2.43.23,1.52,2.55,3.17,3.34.21.15,2.96.38,3.54.38.79,0,1.55-.18,2.34-.18,1.49,0,2.37,1.05,4.63,1.05,1.26,0,2.31-.18,3.22-.18,1.41,0,2.26.44,2.58,2.46.09.61.12,1.32.12,1.99Z"/>
      <path class="cls-14" d="M645.64,225.1c0,1.14.12,2.34.12,3.37,0,3.19-2.23,2.26-2.22,6.42,0,2.78.24,5.68.24,8.99,0,2.17-.41,3.84-.88,5.95-.53,2.4-.61,3.72-4.16,3.72-2.55,0-1.99-2.46-2.93-4.86-.62-1.41-1.5-1.26-1.5-3.78,0-2.05.47-4.72.47-7.21,0-2.23-.73-2.99-.73-5.21,0-2.17.67-2.43.67-3.78,0-.7-.5-1.35-.97-1.93-.5-.59-.91-1.11-.91-1.55v-.12c0-.62.56-1.79.56-2.7,0-1.61-.62-3.08-.62-4.45v-.29c0-.09.03-.21.06-.29.15-.94,1.96-3.37,2.55-3.37.23,0,.44.06.64.06.79,0,2.11-.23,3.43-.24,1.96,0,4.01.18,4.69.79.23.18,1.53,3.08,1.67,3.52.12.67.23,1.99.24,3.31,0,.47-.06,1.03-.06,1.49-.09.73-.35,1.26-.35,2.17Z"/>
      <path class="cls-14" d="M685.28,237.91c0,.85.06,1.49.06,2.11,0,1.41-.64,4.98-1.73,6.24-.38.56-2.81,1.35-3.66,2.05-.94.7-2.46,2.58-3.54,3.28-.44.35-1.17.53-1.85.97-.94.64-1.05,1.38-1.99,1.38-1.49,0-4.01-.47-6.18-.47-1.73,0-3.22.94-4.25.94-1.2,0-2.78-.61-4.28-.94-1.26-.23-3.25-.35-4.42-.73-.67-.23-1.05-1.03-2.23-1.49-2.58-.94-3.66-.32-3.66-4.01,0-1.88.35-3.13,1.08-3.13.7,0,1.64.67,2.11.67,1.29,0,1.55-2.75,1.55-5.21,0-2.31-.18-4.69-.18-5.89,0-.97.41-1.49.41-2.7,0-1.64-.24-3.78-.24-5.65,0-.97.29-3.13.29-4.07,0-1.29-4.19.15-4.19-3.02,0-2.72,6.85-4.49,8.76-5.34,1.32-.56,2.55-1.32,3.22-1.32s1.14.44,1.76.44c.94-.09,1.84-.97,3.1-.97,1.85,0,2.32,1.11,3.72,1.67.73.35,1.55.29,2.23.55,3.31,1.35,5.07,2.81,7.09,5.39.7.91,1.85,1.61,2.4,2.4.79,1.2,1.88,3.9,2.58,5.74.79,2.2,2.05,5.71,2.2,8.88v.26c0,.59-.18,1.29-.17,1.96ZM673.12,234.2c0-.53-.03-1.03-.12-1.52-.09-.5-.32-1.44-.71-2.81-.15-.44-.23-.91-.32-1.41-.41-2.08-.35-3.84-1.14-5.36-.23-.44-.73-.82-1.08-1.32-.44-.47-.62-1.11-.97-1.44-.32-.32-1.26-.53-2.05-1.14-1.38-1.08-1.55-2.4-3.22-2.4-1.2,0-2.52.5-2.52.79,0,.64.23,2.34.24,2.75-.12,2.23-.35,5.01-.35,7.44,0,2.96.85,4.78,1.09,7.56.21,2.11.71,4.07.71,5.48,0,1.05-.17,2.31-.17,3.57,0,.59.06,1.14.18,1.7.32-.03,1.2-.06,2.7-.06,1.99,0,3.6-.12,5.1-2.96.32-.56.67-2.05,1.14-3.46.38-1.14,1.02-2.34,1.26-3.37.17-.73.26-1.41.26-2.05Z"/>
    </g>
    <g>
      <path class="cls-3" d="M503.55,370.1c0,.51.04.9.04,1.27,0,.84-.38,2.99-1.04,3.74-.23.33-1.69.81-2.2,1.23-.56.42-1.48,1.55-2.13,1.97-.26.21-.7.32-1.11.58-.56.39-.63.83-1.19.83-.9,0-2.41-.28-3.71-.28-1.04,0-1.93.56-2.55.56-.72,0-1.67-.37-2.57-.56-.76-.14-1.95-.21-2.66-.44-.4-.14-.63-.62-1.34-.9-1.55-.56-2.2-.19-2.2-2.41,0-1.12.21-1.88.65-1.88s.99.4,1.27.4c.77,0,.93-1.65.93-3.13,0-1.39-.11-2.81-.11-3.53,0-.58.25-.9.25-1.62,0-.98-.14-2.27-.14-3.39,0-.58.17-1.88.17-2.44,0-.77-2.51.09-2.51-1.81,0-1.63,4.11-2.69,5.25-3.2.79-.33,1.53-.79,1.93-.79.4,0,.69.26,1.05.26.56-.05,1.11-.58,1.86-.58,1.11,0,1.39.67,2.23,1,.44.21.93.18,1.34.33,1.99.81,3.04,1.69,4.25,3.23.42.54,1.11.97,1.44,1.44.47.72,1.13,2.34,1.55,3.44.48,1.32,1.23,3.43,1.32,5.33v.16c0,.35-.1.77-.1,1.18ZM496.26,367.87c0-.32-.02-.62-.07-.91-.05-.3-.19-.86-.42-1.69-.09-.26-.14-.54-.19-.84-.25-1.25-.21-2.3-.69-3.22-.14-.26-.44-.49-.65-.79-.26-.28-.37-.67-.58-.86-.19-.19-.76-.32-1.23-.68-.83-.65-.93-1.44-1.93-1.44-.72,0-1.51.3-1.51.47,0,.39.14,1.41.14,1.65-.07,1.34-.21,3.01-.21,4.46,0,1.78.51,2.87.65,4.54.12,1.27.42,2.44.42,3.29,0,.63-.1,1.39-.1,2.14,0,.35.04.69.11,1.02.19-.02.72-.04,1.62-.04,1.2,0,2.16-.07,3.06-1.78.19-.33.4-1.23.68-2.07.23-.69.62-1.41.76-2.02.1-.44.16-.84.16-1.23Z"/>
      <path class="cls-3" d="M507.99,379.03c-1.86-.19-2.43-1.35-2.57-3.23,0-.47.23-.93.23-1.51,0-.65-.14-1.34-.14-1.99,0-1.6.33-6.4.82-7.38.4-.83,1.04-1.18,1.76-1.18,1.88,0,2.48,1.56,2.48,4.02,0,.54-.07,1.05-.07,1.55,0,1.97.99,3.88.99,5.26,0,.21-.04.51-.04.72,0,.86.25,1.37.25,1.81,0,.21-.05.4-.14.6-.39.58-2.57,1.34-3.57,1.34ZM507.98,360.55c-1.28,0-1.97-.53-1.97-2.27,0-1.39.98-2.39.98-2.9.6-.46,2.34-.77,2.6-.77,1.27,0,2.16.53,2.16,1.09,0,.28-.07.62-.07.84.05.63.33,1.48.34,2.13,0,1.72-2.81,1.88-4.04,1.88Z"/>
      <path class="cls-3" d="M529.26,377.72c-.09,2.29.28,4.38-3.78,6.24-1.21.48-3.48,1.11-4.89,1.11-.47,0-.97-.25-1.76-.25-.91,0-1.92.14-2.81.14-2.13,0-2.67-1.11-2.67-2.85,0-2.25-.04-4.78,2.06-4.78,1.56,0,3.57,1.3,4.64,1.3.3,0,.58-.16.86-.16,1.18.14,2.02.91,3.57.91.98,0,1.37-.54,1.37-1.44,0-.54-.11-1.16-.11-1.88,0-.26.02-.49.07-.79-1.62.23-3.96.48-6.22.48-4.59,0-6.66-.93-6.66-5.36,0-1.81.37-4.76,1.21-5.91.95-1.2,3.72-2.88,6.2-2.88.63,0,1.28.11,2.15.32,1.21.33,2.36.35,3.43.79,0-.19.04-.35.04-.56,0-.3-.04-.58-.04-.88,0-.93.14-1.58,1.23-1.58.56,0,1.97.65,2.11.79.16.19.19.58.19,1.05,0,1.67-.1,3.15-.1,4.68,0,1.39.04,2.69.04,3.96,0,.69.21,1.33.21,1.99,0,.69-.21,1.37-.21,1.92,0,.69.21,1.21.21,1.72v.49c-.05.47-.28.95-.33,1.44ZM524.05,365.92c-1.05-.23-2.48-.58-3.46-.58-1.99,0-3.09.92-3.09,2.58,0,.72.37,1.88,1.86,1.88.88,0,1.95-.33,2.46-.33.79,0,1.83.26,2.72.26.72,0,1.05-.02,1.2-.23.07-.11.11-.53.1-1.28,0-.54-.04-1.05-.04-1.2-.09-1.12-.65-.88-1.76-1.11Z"/>
      <path class="cls-3" d="M534.53,379.02c-1.86-.19-2.43-1.35-2.57-3.23,0-.47.23-.93.23-1.51,0-.65-.14-1.33-.14-1.99,0-1.6.33-6.4.82-7.38.4-.83,1.04-1.18,1.76-1.18,1.88,0,2.48,1.56,2.48,4.03,0,.54-.07,1.05-.07,1.55,0,1.97.99,3.88.99,5.25,0,.21-.04.51-.04.72,0,.86.25,1.37.25,1.81,0,.21-.05.4-.14.6-.39.58-2.57,1.34-3.57,1.34ZM534.52,360.54c-1.28,0-1.97-.53-1.97-2.27,0-1.39.98-2.39.98-2.9.6-.46,2.34-.77,2.6-.77,1.27,0,2.16.53,2.16,1.09,0,.28-.07.62-.07.84.05.63.33,1.48.34,2.13,0,1.72-2.81,1.88-4.04,1.88Z"/>
      <path class="cls-3" d="M553.89,363.28c0,.83-.68,1.99-1.69,1.99-.23,0-.47-.04-.69-.04-.7,0-1.44.32-1.78.32-.35,0-.77-.11-1.18-.11-1.32,0-1.23.55-1.23,1.88,0,2.18-.46,5.03-.45,7.01,0,.62.07,1.14.07,1.65,0,.14-.04.33-.04.47-.09.33-.95,2.58-1.33,2.88-.19.12-.46.14-.79.14-1.6,0-2.3-.49-2.3-1.55,0-.44.07-.93.07-1.34,0-2.64-.76-6.56-.76-10.62-.33.07-.65.11-.93.11-1.34,0-2.43-.72-2.43-1.99,0-1.62,1.51-1.64,3.11-2v-.65c0-2.11-.69-3.62-.69-5.12,0-1.46.37-1.86,1.69-2.34.56-.23,1.84-.51,2.95-.51,1.32,0,2.66.21,2.66,2.92,0,.72-.02,1.55-.14,2.02-.14.63-.68,1.11-.68,1.53v.05c0,.26.11.7.11.97,0,.37-.21.63-.21.9,0,.33.37.37,1.05.37,1.92,0,2.79-.41,4.06-.41.28,0,.58.02.79.14.51.3.76.72.76,1.3Z"/>
      <path class="cls-3" d="M571.07,369.58c0,1.67-.19,3.39-.4,4.99-.07.51-.21,1.07-.21,1.48,0,.86.25,1.69.25,2.37,0,.3-.72,2.23-2.55,2.23-1.05,0-1.34-.68-1.34-1.62,0-.65.14-1.44.28-2.23-.54.12-1.07.51-1.55.79-2.06,1.21-3.95,2.88-7.59,2.89-.05,0-.32.02-.44.02-.3,0-1.11-.02-1.65-.33-1.02-1.02-1.97-3.32-1.97-3.57-.02-.05-.04-.18-.04-.33,0-.97.35-2.27.35-2.48,0-.58-.14-1.11-.14-1.76,0-.3.02-.65.14-1.02,0-.04.54-1.32.69-1.42.33-.28,1.2-.33,1.88-.65.54-.26.97-.76,1.32-.9.23-.12.69-.14,1.12-.33.63-.19,1.85-.7,2.78-.79.21,0,.53.11.97.1.33,0,.79-.21,1.44-.21s1.32.14,1.65.14c.26,0,.28-.18.28-.39,0-.7-.67-2.04-.79-2.2-.35-.44-.83-.68-1.18-.68-.37,0-.72.14-1.16.14-.33,0-.67-.07-1-.07-1.58,0-4.43,1.88-5.54,2.16-.3.07-.65.14-.95.14-.37,0-1.51-.86-1.51-1.62,0-1.14,1.37-1.32,2.23-1.85.54-.33,1.37-.81,1.88-1.21.54-.44.67-.83,1-1.02s1.14-.33,1.76-.53c.39-.14,1.46-.58,1.85-.58h.07c.88.32,2.36.3,3.46.58.19.05.33.25.53.32,1.74.51,2.18.75,3.13,4.43.09.42.42.76.54,1.11.32.95.41,2.85.41,3.9ZM566.92,371.52c0-1.21-.09-1.48-.46-1.48-.14,0-.25.04-.33.05-.05.02-.09.04-.14.05-.19-.02-.53-.04-1-.03-1.3,0-2.14.35-3.32.58-1.69.42-2.88.05-2.88,1.99,0,.98.53,1.25,1.51,1.25.6,0,1.63-.46,2.6-.69l.58-.12c.6-.11,1.27-.23,1.65-.3.09-.02.39-.05.91-.11.35-.02.7-.07.74-.11.12-.12.14-.58.14-1.09Z"/>
      <path class="cls-3" d="M582.13,375.55c0,.54-.26.9-.47,1.32-.25.44-.44,1.51-1.23,1.51-.42,0-1.04-.07-1.51-.07-.56,0-1.41.11-2.27.11h-.35c-.9,0-1.81.23-2.44.23s-1.55-.65-1.55-1.77c0-.97,1.83-.83,1.83-1.83,0-.93-.44-2.43-.44-3.5,0-.86.04-1.72.04-2.62,0-4.85-.6-7.84-.6-11.78,0-1.58.42-2.58,2.72-2.59,2.32,0,3.09.91,3.09,2.93,0,.91-.17,1.69-.17,2.67v.97c0,1.16-.35,2.36-.35,3.74,0,1.9.21,3.88.21,5.98,0,2.06-.07,3.13.41,3.13.35,0,.86-.21,1.28-.21,1.09.07,1.81.67,1.81,1.77Z"/>
      <path class="cls-3" d="M613.23,376.82c-.53.28-2.04.62-3.2.62-.77,0-2.34-.58-2.34-1.72,0-.47-.04-.97-.04-1.44,0-1.53.07-3.16.07-4.87,0-1.6-.07-3.2-.28-4.89-1.09.7-1.67,2.36-2.46,3.53-.35.54-.93.84-1.21,1.32-.28.47-.23.93-.42,1.27-.19.35-.6.54-1.56.54h-.18c-1.42,0-1.49-1.12-2.37-2.46-.26-.35-.58-.56-.79-.9-.58-.91-1.2-2.3-1.67-3.3.05.9.07,1.81.07,2.85v2c0,.86,0,1.74.05,2.57.05.97.46,2.13.46,3.13,0,.95-.32.81-1,1.55-.7.74-1.12,1.79-2.3,1.79-1.48,0-3.32-.86-3.32-2.27,0-.9.33-2.23.33-3.71,0-1.12.35-1.44.49-2.37.23-1.41.24-3.34.33-5.12.05-.84.35-1.56.35-2.62,0-.98-.39-1.62-.39-2.92,0-.84.56-2.04.93-3.23.19-.62.05-1.28.21-1.44.09-.18,1.16-.55,1.34-.58.33,0,.53.28,1,.37,1.35.28,2.72.07,3.32.75.65.7,1.13,2.3,1.69,3.34.26.47.67.83.86,1.23.14.26.11.63.26.9.14.32,1.76,3.09,1.97,3.09.56,0,.93-1.81,1.54-2.88.37-.62.9-1.11,1.23-1.79.63-1.34,1.28-5.33,3.16-5.33.6,0,.76.4,1.62.69.79.23,1.69.19,2.13.63.47.53.53,1.62.58,2.71,0,.79-.07,1.55-.07,2.2,0,1.07.42,1.44.42,2.95,0,.72-.07,1.55-.07,2.27,0,1.79.58,1.88.92,2.78.14.39.3,1.49.35,2,0,2.64-.75,6.12-2.02,6.77Z"/>
      <path class="cls-3" d="M632.93,375.85c0,.76-.18.62-.69,1.27-.56.9-1.02,2.07-2.39,2.07-.84,0-1.97-.28-2.73-.28-1.62,0-3.32,0-4.8-.35-.97-.28-2.27-.4-2.99-.98-2-2-2.25-4.71-2.45-9.25-.05-.79-.21-1.58-.21-1.99,0-.19.25-.65.32-1,.05-.23.09-.47.09-.7,0-.05-.02-.12-.02-.19,0-.18.02-.28.04-.33.14-.32.97-.93,1.33-1.44.49-.7,5.66-2.59,8.89-2.66.9,0,2.3.72,3.02,1.44.19.19.33.72.55,1,.76.97.76,1.12.76,1.48v.25c0,.16.02.35.04.58.05.65.07,1.27.07,1.92,0,1.35-1.48,1.56-3.46,2.51-.83.4-1.83.55-2.62.55h-.14s-.09-.02-.14-.04h-.05c-.28,0-1.62.58-2.76.58-.76,0-1.41.49-1.41.76,0,.91.49,1.69,1.41,1.86.58.26,1.11.32,1.65.32.9,0,1.81-.21,3.06-.21.58,0,.93.21,1.41.21,1,0,1.95-.46,2.65-.46.91,0,1.25.61,1.44,1.9.05.47.12.86.12,1.2ZM626.07,366.17c0-1.41-.56-2.23-.9-2.23-.91,0-3.94.79-4.27,1.3-.12.19-.16.56-.16,1.04,0,.98.11,1.55.44,1.55.42,0,1.09-.32,1.3-.35,1.05-.19,3.23-.11,3.51-.9.05-.12.07-.26.07-.4Z"/>
      <path class="cls-3" d="M653.04,377.53c0,1.12-.63,2.23-2.79,2.23-2.92,0-3.08-.61-3.08-2.51,0-.4.03-.83.09-1.27-.91.26-1.81.42-3.15.69-.47.07-.88.44-1.28.44-.26,0-.56-.1-.83-.1-.62,0-1.3.32-1.77.32-.42,0-.93-.32-1.65-.32h-.62c-1.86,0-3.85-2-3.85-2.23-.09-.14-.21-1.51-.21-1.67-.02-.18-.04-.53-.04-1.04,0-1.39.25-2.55.25-4.06,0-.37-.04-.76-.04-1.16,0-.65.26-.83.35-1.3.05-.11.07-.23.07-.37,0-.07-.02-.14-.02-.21,0-.14.04-.28.11-.42.05-.19.11-.26.72-.97.09-.12.18-.25.25-.37.42-.74.46-1.51.9-1.76.28-.19,1.39-.3,2.13-.48,1.05-.26,2.69-.46,4.15-.46,2.07,0,3.04.97,4.54,1.25.12-.9.18-2.23.17-3.57,0-1.39-.3-2.9-.3-3.78,0-.63.68-1.97,1.67-1.97.76,0,1.79.65,1.79,1.21,0,.3-.14.58-.14.98.05.35.35.79.42,1.21.28,1.07-.05,3.94.37,6.24.14.84.83,1.16.83,2.2,0,.42-.07.9-.07,1.48.14,2.71.51,6.26.79,9.35.07.93.25,1.72.25,2.41ZM644.9,366.12c-.65-.14-.7-.4-1.28-.4-.9,0-1.79.07-2.27.41-.47.39-.9,2.25-.89,3.81,0,1.53.3,2.09,1.28,2.09.88,0,2.06-.49,2.6-.58.53-.05,2.95-.33,3.13-.58.07-.07.11-.35.11-.69,0-.62-.11-1.51-.11-1.65,0-.05.21-.93.21-1.55,0-.23-.04-.42-.11-.54-.23-.26-1.55-.09-2.67-.32Z"/>
      <path class="cls-3" d="M657.47,378.97c-1.86-.19-2.43-1.35-2.57-3.23,0-.47.23-.93.23-1.51,0-.65-.14-1.34-.14-1.99,0-1.6.33-6.4.82-7.38.4-.83,1.04-1.18,1.76-1.18,1.88,0,2.48,1.56,2.48,4.02,0,.54-.07,1.05-.07,1.55,0,1.97.99,3.88.99,5.25,0,.21-.04.51-.04.72,0,.86.25,1.37.25,1.81,0,.21-.05.4-.14.6-.39.58-2.57,1.34-3.57,1.34ZM657.46,360.49c-1.28,0-1.97-.53-1.97-2.27,0-1.39.98-2.39.98-2.9.6-.46,2.34-.77,2.6-.77,1.27,0,2.16.53,2.16,1.09,0,.28-.07.62-.07.84.05.63.33,1.48.34,2.13,0,1.72-2.81,1.88-4.04,1.88Z"/>
      <path class="cls-3" d="M679.69,369.54c0,1.67-.19,3.39-.4,4.99-.07.51-.21,1.07-.21,1.48,0,.86.25,1.69.25,2.37,0,.3-.72,2.23-2.55,2.23-1.05,0-1.34-.68-1.34-1.62,0-.65.14-1.44.28-2.23-.54.12-1.07.51-1.55.79-2.06,1.21-3.95,2.88-7.59,2.89-.05,0-.32.02-.44.02-.3,0-1.11-.02-1.65-.33-1.02-1.02-1.97-3.32-1.97-3.57-.02-.05-.04-.18-.04-.33,0-.97.35-2.27.35-2.48,0-.58-.14-1.11-.14-1.76,0-.3.02-.65.14-1.02,0-.04.54-1.32.69-1.42.33-.28,1.2-.33,1.88-.65.54-.26.97-.76,1.32-.9.23-.12.69-.14,1.12-.33.63-.19,1.85-.7,2.78-.79.21,0,.53.1.97.1.33,0,.79-.21,1.44-.21.65,0,1.32.14,1.65.14.26,0,.28-.18.28-.39,0-.7-.67-2.04-.79-2.2-.35-.44-.83-.68-1.18-.68-.37,0-.72.14-1.16.14-.33,0-.67-.07-1-.07-1.58,0-4.43,1.88-5.54,2.16-.3.07-.65.14-.95.14-.37,0-1.51-.86-1.51-1.62,0-1.14,1.37-1.32,2.23-1.85.54-.33,1.37-.81,1.88-1.21.54-.44.67-.83,1-1.02.33-.19,1.14-.33,1.76-.53.39-.14,1.46-.58,1.85-.58h.07c.88.32,2.36.3,3.46.58.19.05.33.25.53.32,1.74.51,2.18.75,3.13,4.43.09.42.42.76.54,1.11.32.95.41,2.85.41,3.9ZM675.54,371.47c0-1.21-.09-1.48-.46-1.48-.14,0-.25.04-.33.05-.05.02-.09.04-.14.05-.19-.02-.53-.04-1-.04-1.3,0-2.14.35-3.32.58-1.69.42-2.88.05-2.88,1.99,0,.98.53,1.25,1.51,1.25.6,0,1.63-.46,2.6-.69l.58-.12c.6-.11,1.27-.23,1.65-.3.09-.02.39-.05.91-.11.35-.02.7-.07.74-.11.12-.12.14-.58.14-1.09Z"/>
    </g>
    <g>
      <path class="cls-3" d="M452.54,449.2c-.4.47-.6,1.11-.9,1.44-.02.07-1.07.79-1.02.79-.21.12-.46.11-.76.11-.56,0-1.25-.11-1.9-.11s-1.3.32-1.99.32c-.58,0-1.14.04-1.72.04-2.69,0-4.69-.54-5.73-3.23-.23-.54-.12-1.42-.21-2.13-.19-.93-.41-1.58-.41-2.16,0-1.27,1.41-2.09,3.15-2.09.93,0,1.14,0,2.27.9.21.23.63.44.76.58.32.42.26,1.21.79,1.55.46.51,1.21.33,1.21,1.19,0,.21-.04.39-.04.58,0,.76.86,1.14,1.51,1.14.83,0,1.88-.58,1.88-1.72,0-.44-.26-1-.26-1.69,0-.33.03-.72.03-1.02,0-1.63-4.54-1.74-6.58-2.79-.37-.19-.72-.62-1.12-.91-1-.76-1.83-1.11-1.83-3.13,0-3.66,2.04-3.99,5.29-4.33.72-.07,1.58-.18,2.41-.18,1.16,0,3.52.91,4.36,2.85.25.58.46.72.46,1.23-.19,1.14-.79,1.25-2,1.25h-.33c-.11,0-.18-.02-.21-.04-.97-.18-2.48-1.72-3.34-1.86-.33-.07-.65-.11-.91-.11-1.07,0-1.76.49-1.76,1.11,0,.76,1.83,1.88,2.13,1.98.07.02.16.04.28.04h.19c.14,0,.26.02.39.07.21.07.35.26.58.32.58.19,1.28.18,1.86.37,3.57,1.07,4.06,2.2,4.57,6.43.07.62.26.97.26,1.37,0,.19-.05.39-.14.62-.19.44-.77.69-1.23,1.23Z"/>
      <path class="cls-3" d="M470.06,445.26c0,.51.23.95.23,1.3,0,2-1.48,2.72-3.43,2.95-1.49.23-3.88.83-5.43.83-1.48,0-4.46-.54-5.26-1.93-.14-.28-.3-1.12-.3-1.6,0-1.11.72-2.18,1.99-2.18.33,0,1.65.77,2.2,1,.28.12.6.09.79.21.63.3.92.9,1.99.9.42,0,.79-.14,1.21-.14.51,0,.93.11,1.34.11,1.05,0,1.41-.79,1.41-1.41,0-4.34-6.59-.79-6.59-4.64,0-2.83,5.22-.27,5.22-3.41,0-.54-.51-1.49-.51-2.57v-.58c0-.44-.37-3.55-1.58-3.55-1.11,0-1.11.47-1.11,1.21,0,.21.02.42.02.65,0,.32-.02.69-.05,1.09-.07.79-.19,1.21-.25,1.83,0,.3.04.53.04.79,0,1.12-.19,1.58-1.92,1.58-.47,0-1-.21-1.55-.21-.7,0-1.39.32-1.74.32h-.09c-.37,0-.62-.11-.84-.53-.23-.51-1.21-1.05-1.21-2.09,0-.47.21-1,.21-1.48.05-1.65-.14-3.43.68-4.57.14-.21.54-.37.75-.65.56-.7.12-1.11,3.02-1.44,1.49-.2,3.29-.79,4.22-.79.49,0,2.34.24,2.99.58.35.19.7.6,1.11.86.47.33,1.04.49,1.23.69.92.91,1.21,4.43,1.22,7.24,0,1.95-.32,3.41-1.32,4.2-.35.25-1.67.65-1.67.9,0,.12,1.55.76,1.55.76,1.23.67,1.78.65,1.92,2.13,0,.56-.47.95-.47,1.65Z"/>
      <path class="cls-3" d="M489.98,443.32c0,2.3-.65,4.85-1.51,5.61-.37.33-1.09.4-1.81.69-.42.2-.88.53-1.21.65-.9.28-2.53.47-3.71.47-2.18,0-4.11-.3-6.31-.91-1.35-.33-.79-.25-1.34-.9-.04-.04-.14-.11-.3-.14-.12-.02-.19-.09-.19-.35,0-.54-.32-.58-.37-.72-.14-.37-.12-.76-.25-1.12-.23-.76-.55-1.48-.55-2.78,0-2.58.09-4.43,1.02-5.22.81-.65,2.04-.51,3.09-1.11-.37-.83-1.2-.81-1.2-2.88,0-2.04.75-4.8,1.4-5.57.77-.77,2.55-1.12,3.06-1.12,1.07,0,2.55.26,3.96.26.44,0,.83-.04,1.23-.04,1.49,0,4.18.74,4.57,1.79.07.19.07.46.07.79,0,1.95-.28,2.92-.28,4.25,0,2.6-1.12,2.23-2.13,3.09,1.04,1.18,2.37,1.79,2.66,3.88.09.44.09.9.09,1.37ZM483.88,440.26c-.23-.19-1.46-.26-2.44-.26-3.36,0-5.26.65-5.25,2.27,0,1.56.51,2.88,1.72,2.88.23,0,.79-.16,1.2-.21.26-.02.53-.02.79-.02h1c2.07,0,3.36-.34,3.36-2.69,0-.11,0-.21-.02-.32s-.02-.21-.02-.33c0,0-.02-.05-.04-.16-.05-.3-.21-1.11-.3-1.16ZM483.08,430.96c-.81,0-3.22.3-3.62.76-.21.21-.51,1.95-.51,2.95,0,1.21.6,1.44,1.37,1.44,1.2,0,3.96-.05,4.46-.76.21-.33.28-1.04.28-1.72,0-1.53-.02-2.67-1.99-2.67Z"/>
      <path class="cls-3" d="M508.82,445.77c-.09.11-.14.16-.14.16-.16.12-.33.21-.51.23-.19.04-.35.11-.49.21-1.42,1.18-1.39,2.32-2.09,3.03-.47.47-1.79.97-2.13.97-.56,0-1.48-.4-2.44-.54-1.74-.14-7.17-1.09-7.88-2-.14-.09-.58-1.2-.58-1.58,0-.23.03-.49.03-.76,0-.58-.4-.81-.41-1.37,0-.19.04-.39.04-.58,0-.65-.35-1.11-.35-1.69,0-1.67,1.3-2,3.22-2,.07,0,.72.02,2.43.02.65,0,1.27.07,1.48.3.28.28.37,1.86.37,2.11-.09.72-.65,1.85-.65,2.78,0,.54.32,1.23.97,1.23.53,0,2.14-.51,2.23-.55.51-.42.37-1.25.65-2.23.12-.35.4-.56.47-.9.32-1.58.21-3.29.75-4.11-1.12,0-2.09-.14-2.99-.14-1.09,0-1.37.58-2.13.58-.86,0-1.58-.93-2.51-.93-1.95,0-3.32-2.02-3.32-4.11,0-.63.14-1.32.4-2.06.19-.56.7-1.04.9-1.58.33-.98.25-1.74.97-2.3.54-.46.98-.28,2.23-.46.37-.05.65-.23,1.02-.23,1.28,0,3.23.65,5.03.65.65,0,1.27-.04,1.85-.04,1,0,1.86.07,2.55.4,1.27.62,1.95,3.15,1.95,3.48,0,.98.62,2.02.86,3.5.12.76.3,1.65.35,2.37,0,.37-.04.76-.04,1.12,0,1.09.27,2.34.27,3.16v.25c0,.95-1.67,2.94-2.35,3.62ZM503.89,433.04c-.42-1.86-1.21-2.23-3.78-2.23-.28,0-.62.04-.97.04-.58,0-1.37-.18-1.81-.18-.49,0-.79,1.79-.79,2.44,0,1.99,1.23,2.41,2.78,2.41s3.53-.51,4.92-.6c-.21-.58-.21-1.23-.35-1.88Z"/>
      <path class="cls-3" d="M528.12,447.54c0,.44-.49.09-.49.95,0,.26.11.46.11.65,0,.62-.9.83-1.55.83-1.09,0-2.43-.37-2.99-.37-.3,0-.69.26-1.09.34-1.58.28-3.08-.02-4.78.32-.51.12-1.34.32-2.09.32-1.41,0-1.93-.77-1.93-2.3,0-.54.09-1.05.35-1.32.33-.42,1.92-.83,2.02-.83.69,0,1.76.1,2.65.1.98,0,1.58-.11,1.58-.47,0-.37-.44-.98-.49-1.27-.12-.62-.11-1.28-.11-1.97,0-1.55.14-3.27.14-4.73,0-.86-.09-3.18-.37-3.41-.21-.21-.65-.3-1.14-.3-.84,0-1.95.2-2.41.2-.26-.05-.54-.33-.99-.47-.86-.25-1.69.09-1.69-.69,0-.4.21-.83.21-1.41,0-.77-.42-.7-.42-1.21,0-.19.18-.65.32-.91.12-.19.49-.28.69-.56.23-.42.14-.97.32-1.23.65-.97,1.51-1.07,2.36-1.07,1.56,0,1.51.6,2.87.6.37,0,.72-.04,1.05-.04.23,0,.49.04.76.09.16.05,2.04.74,2.2,1,.12.21.18.46.18.83,0,.76-.28,1.79-.28,2.48,0,.33.04.56.04.83,0,.58-.32.65-.37,1.09-.14.65-.21,1.51-.21,2.41,0,3.52.23,5.12.65,7.7.19,1.48.02,2.64.9,2.64.58,0,1.48-.11,2.13-.11.49,0,1.78.24,1.86,1.04.02.07.04.16.04.28Z"/>
      <path class="cls-3" d="M545.61,445.75c-.09.11-.14.16-.14.16-.16.12-.33.21-.51.23-.19.04-.35.11-.49.21-1.42,1.18-1.39,2.32-2.09,3.03-.47.47-1.79.97-2.13.97-.56,0-1.48-.4-2.44-.54-1.74-.14-7.17-1.09-7.88-2-.14-.09-.58-1.2-.58-1.58,0-.23.03-.49.03-.76,0-.58-.4-.81-.41-1.37,0-.19.04-.39.04-.58,0-.65-.35-1.11-.35-1.69,0-1.67,1.3-2,3.22-2,.07,0,.72.02,2.43.02.65,0,1.27.07,1.48.3.28.28.37,1.86.37,2.11-.09.72-.65,1.85-.65,2.78,0,.54.32,1.23.97,1.23.53,0,2.14-.51,2.23-.55.51-.42.37-1.25.65-2.23.12-.35.4-.56.47-.9.32-1.58.21-3.29.75-4.11-1.12,0-2.09-.14-2.99-.14-1.09,0-1.37.58-2.13.58-.86,0-1.58-.93-2.51-.93-1.95,0-3.32-2.02-3.32-4.11,0-.63.14-1.32.4-2.06.19-.56.7-1.04.9-1.58.33-.98.25-1.74.97-2.3.54-.46.98-.28,2.23-.46.37-.05.65-.23,1.02-.23,1.28,0,3.23.65,5.03.65.65,0,1.27-.04,1.85-.04,1,0,1.86.07,2.55.4,1.27.62,1.95,3.15,1.95,3.48,0,.98.62,2.02.86,3.5.12.76.3,1.65.35,2.37,0,.37-.04.76-.04,1.12,0,1.09.27,2.34.27,3.16v.25c0,.95-1.67,2.94-2.35,3.62ZM540.69,433.03c-.42-1.86-1.21-2.23-3.78-2.23-.28,0-.62.04-.97.04-.58,0-1.37-.18-1.81-.18-.49,0-.79,1.79-.79,2.44,0,1.99,1.23,2.41,2.78,2.41,1.58,0,3.53-.51,4.92-.6-.21-.58-.21-1.23-.35-1.88Z"/>
      <path class="cls-3" d="M564.05,433.46c-.14.26-.09.63-.21.9-.28.42-.54.42-.54.97,0,.95-.97,2.37-1.47,3.78-.37,1.16-1.02,2.13-1.21,3.46-.14.69-.04,1.51-.23,2.13-.28.98-1.72,2.87-1.72,3.74v.28c0,.54-1.09,1.99-1.51,1.99-.79,0-2.3-.93-2.3-1.27,0-1.28.42-2.27.86-3.53.19-.62.25-1.21.47-1.79.14-.44.56-.86.76-1.34.19-.4.25-.93.46-1.44.23-.58.58-1,.58-1.65v-.32c0-.81.63-1,.97-1.71.51-1.12.23-2.65,1.02-3.55-.62.21-1.3.28-2.06.28-.76,0-1.62-.07-2.48-.07-1.71,0-2.95.46-4.11.46-.84,0-2.16-.67-2.16-1.83,0-.44.23-1.16.23-1.72,0-.86-.23-1.46-.23-1.93v-.19c.02-.33.03-.39.25-.65.02-.02.07-.11.09-.21.05-.16.09-.32.09-.46,0-.07-.02-.14-.02-.19,0-.14.05-.26.14-.37.51-.47,2.36-.53,3.78-.53h7.66c2.13,0,2.04.02,3.02,1.96.18.54.16,1.44.34,2.13.19.62.46,1.16.46,1.44-.09.4-.6.63-.9,1.23Z"/>
      <path class="cls-3" d="M582.81,448.68c-.21.35-2.46.91-3.2,1.11-1.51.42-2.29.92-3.6.92-.37,0-.69-.11-1.2-.11s-1.11.21-1.65.21c-.28,0-.62-.21-.9-.21-.97-.09-2.44-.09-3.13-.58-.63-.44-1.14-2.41-1.78-3.09-.7-.7-1.32-2.46-1.32-3.87,0-1.2.32-2.36.32-3.62,0-.91-.14-1.71-.14-2.64,0-1,.16-2.37.35-3.57.12-.98.18-2,.37-2.44.33-.86,1.11-1.02,2.2-1.55.49-.26,1-.7,1.48-.9,1.39-.51,2.64-.65,4.03-.65.98,0,1.9.53,3.16.76,1.02.23,2.14.26,2.46.54.47.39.58,1.71,1,2.69.47,1.21.74,1.58,1.11,2.99.12.37.37,1.05.37,1.71,0,.42-.14,1.69-2.99,1.69-.79,0-4.32-.03-4.32-1.81,0-.47.1-.97.1-1.51,0-.84-.6-1.39-.93-2.41-.28-.77.11-1.65-1.2-1.65-1.04,0-1.28,1.86-1.28,4.18,0,.26.04.49.04.72.05.72.07,2.95.21,3.2.28.4,2.64.4,3.34.46l1.37.11c1.37.11,2.69.23,3.74.65.56.23,1.86,1.23,2.2,2.13.18.46.3,2,.3,2.81,0,.51-.04,1.04-.16,1.72-.09.42-.19,1.81-.35,2.02ZM580.21,445.28c0-.79-.19-1.79-.39-1.93-.4-.4-2.9-.49-3.67-.58-.4,0-1.07-.04-1.69-.04-1.21,0-1.55.18-1.55.32,0,.53.74,4.29.79,4.29.07.07.23.07.49.07.93,0,5.41-.46,5.84-1.18.12-.21.17-.53.17-.95Z"/>
    </g>
    <text class="cls-10" transform="translate(380.43 380.45) rotate(-.02)"><tspan x="0" y="0">MAJOR:</tspan></text>
    <text class="cls-10" transform="translate(381.5 452.6) rotate(-.02)"><tspan x="0" y="0">SID:</tspan></text>
    <g>
      <path class="cls-12" d="M679.95,420.48s-71.11-20.08-98.04,46.24c-16.16,39.8,59.98,126.58,117.34,63.3,57.36-63.28,9.63-97.45-19.29-109.55Z"/>
      <path class="cls-11" d="M600.71,496.66s-17.32-22.2,4.44-41.91c21.76-19.71-1.91,15.95-.62,27.46,1.29,11.51,2.95,22.55-3.82,14.45Z"/>
      <path class="cls-9" d="M683.98,436.52s31.33-31.13,31.21-45.24c0,0,6.93-1.44,8.11,4.95,1.18,6.39-35.73,42.58-35.73,42.58l34.86-11.82s-28.2,11.2-29.98,14.59,33.63,17.16,33.63,17.16l-42.2-9.66-28.72,19.33s23.65-20.72,24.11-23.95c.46-3.23-38.76-20.78-38.76-20.78l37.27,8.21s10.11-23.96,6.56-32.35c0,0,9.24,15.89-.34,36.97Z"/>
      <path class="cls-11" d="M620.09,510.68s-4.26-5.39-9.38-4.14-1.04,11.68,5.39,11.51c6.43-.16,5.99-5.41,3.99-7.37Z"/>
    </g>
    <rect class="cls-12" x="155.33" y="255.82" width="172.1" height="237.94"/>
    <ellipse class="cls-3" cx="121.62" cy="157.66" rx="121.72" ry="73.23" transform="translate(-7.73 6.28) rotate(-2.87)"/>
    <circle class="cls-15" cx="392.53" cy="523.76" r="7.44"/>
    <circle class="cls-15" cx="421.45" cy="523.6" r="7.44"/>
    <circle class="cls-15" cx="450.41" cy="523.33" r="7.44"/>
    <circle class="cls-15" cx="477.92" cy="523.49" r="7.44"/>
    <polygon class="cls-1" points="301.86 172.24 421.01 163.09 270.35 558.78 168.09 566.63 301.86 172.24"/>
    <g>
      <path class="cls-7" d="M63.62,169.4c0,2.26-1.01,4.91-1.6,6.71-1.11,3.3-.95,3.4-2.39,3.4-2.32,0-5.14-1.7-5.73-4.02,0-.26.26-.92.26-1.67-.13-1.41-.89-7.49-1.8-7.49-2.26,0-1.6,1.54-3.43,1.54-1.73,0-4.16-.95-7.82-.95-.95,0-1.83.03-2.09.26-.98.79-.69,5.07-1.21,6.64-.16.23-1.21,1.6-1.67,2.68-1.05,2.36-1.24,6.51-3.76,6.51-1.64,0-3.01-1.83-3.08-2.16-1.05-1.8-2.19-2.09-2.19-3.73,0-.65.16-2.22.33-2.91.16-.42,1.08-.98,1.08-1.47,0-.36-.29-.62-.29-.98,0-.1.07-.1.07-.2.88-2.62,2.75-4.78,2.91-8.05,0-1.54-.03-3.86.59-5.23.1-.26,1.73-1.21,1.73-3.08,0-.49-.13-1.01-.13-1.54,0-1.21.92-1.57,1.28-2.62.72-1.83,0-4.12.68-5.95.16-.79,1.41-1.05,1.41-2.03,0-.36-.1-.72-.1-1.14,0-2,2.22-4.29,2.22-5.96v-.65c0-1.67,2.94-3.7,6.38-3.7,1.9,0,2.88,1.18,5.33,1.27,1.41,0,3.11-.75,4.58-.75.82,0,2.65,1.01,3.53,2.16,1.54,1.96.82,6.51,2.03,9.32.43,1.14,1.34,1.67,1.34,3.66,0,1.21-.2,2.49-.2,3.63,0,1.87,1.11,2.19,1.11,3.4,0,.82-.39,1.93-.39,2.95,0,.95.39,1.6.39,2.22v.26c-.1,1.67-1.27,3.27-1.27,4.78,0,1.21,1.41,2.22,1.77,3.53.1.39.13.85.13,1.34ZM51.02,158.8c0-1.24-1.02-3.3-1.02-3.73s.2-.85.2-1.34c0-2.29-2.23-4.87-2.49-5.36-.62-1.41-.26-2.98-1.47-3.5-1.73,5.23-4.09,10.01-5.13,15.97,1.54-.23,3.11-.2,4.94-.46.56-.1,4.58-.62,4.78-.82.13-.2.2-.46.2-.75Z"/>
      <path class="cls-7" d="M105.83,168.79c0,1.05.16,2.19.16,3.08,0,2.62-2.49,1.93-2.48,4.22,0,.52.26,1.05.26,1.54,0,1.83-2.22,2.45-3.89,3.4-1.57.98-2.55,2.62-5.36,2.62-1.28,0-2.75-.2-4.09-.2-2.26,0-2.68,1.21-4.61,1.21-1.93,0-3.76-1.01-6.22-1.01-2.22,0-2.78-.92-4.29-.92-.69,0-1.41.2-2.16.2-1.67,0-5.69-2.03-5.69-2.29,0-.13.2-.23.2-.59,0-.62-1.21-2.29-1.21-3.56,0-1.96.82-3.83,1.73-4.75,1.57-1.57,3.37-.3,3.37-5.69,0-1.31-.95-3.86-.95-6.64,0-1.93,1.21-3.14,1.21-5.43,0-2.91-.72-7.26-.72-11.19,0-2.09.46-3.89.46-5.37-.13-1.08-.88-2.06-.88-2.94,0-3.47,2.91-3.47,8.31-3.9,1.77-.1,3.5-1.15,5.33-1.15h.29c1.93,0,4.22.29,6.18.29,1.73,0,3.6-.3,4.81-.3,1.77,0,2.19,1.05,4.09,2.35,1.57,1.05,2.03.88,3.08,2.29.95,1.31,2.88,4.51,2.88,5.69,0,.92-.36,1.47-.59,2.62-.26,1.54-.13,3.66-.82,4.94-.95,1.7-4.51,3.5-7.49,3.5.26,1.14,1.73,1.27,2.49,1.86.62.49,1.21,1.41,1.87,2.09.66.65,1.7,1.11,2.06,1.67.29.39.36,1.28.62,1.8,1.15,2.39,2.32,2.98,2.49,6.44v.26c0,1.01-.42,2.42-.42,3.83ZM88.21,136.9c-2.85,0-9.58.2-9.58,3.8,0,1.57.43,3.7.53,4.78,0,.75-.2,1.86-.2,2.68,0,.62.07.92.56.92,1.11,0,5.95-1.18,7.43-1.18.2,0,.39,0,.56.03.16.03.29.03.39.03l.29-.1c.98-.29,4.32-1.38,4.84-2,.33-.33,1.21-3.7,1.21-4.16,0-3.66-2.62-4.81-6.02-4.81ZM89.89,156.66c-1.01-1.28-.79-1.28-3.27-1.27h-1.93c-2.22,0-5,.13-5.33.4,0,2,.23,2.55.23,3.5,0,1.87-.13,2.78-.13,3.53s.2,1.57.2,3.37c0,1.15-.13,2.26-.13,3.08,0,1.77,2.49,1.83,3.5,1.83.42,0,1.44-.1,2.19-.1,1.01,0,4.51-.75,5.56-1.74,1.01-.88,1.41-3.08,1.4-5.43,0-2.58-.59-5.23-1.21-6.38-.13-.23-.72-.42-1.08-.78Z"/>
      <path class="cls-7" d="M139.75,175.26c-1.14,2.26-1.34,3.21-2.88,4.58-1.47,1.41-1.9.79-4.78,1.41-1.15.26-2.06.75-2.75.85-1.01,0-2.13-.52-3.6-.52-.88,0-1.8.06-2.75.07-1.41,0-2.75-.03-4.16-.39-1.6-.36-2.55-1.01-3.76-1.63-.88-.33-2.55-.62-2.88-1.05-.65-.75-.69-4.32-1.47-6.64-.52-1.54-1.21-1.96-1.21-4.09,0-2.22.49-4.58.49-6.38,0-1.01-.17-2.06-.17-3.01,0-1.73.82-3.73,1.34-5.96.62-2.71.91-4.88,1.4-7.23.62-2.75,3.17-4.61,6.64-4.98.1,0,.1-.2.33-.2,5.95,0,11.38-.33,14.17,4.74.36.56.29,1.28.65,1.9.52,1.08,1.51,1.8,2,2.68.49,1.01.66,2.19,1.28,3.27,1.41,2.52,3.37,4.71,3.37,6.71,0,.62-.07,1.21-.06,1.87,0,.82.36,1.6.46,2.42,0,1.28-.33,2.62-.33,4.02,0,1.05.72,2.81.72,3.96v.26c-.16.69-1.37,1.77-2.06,3.34ZM129.57,163.09c-.16-.82-.16-1.67-.43-2.55s-.75-1.8-.85-2.68c0-.43.06-.79.06-1.28,0-3.53-2.39-7.98-4.65-7.98-.85,0-2.13.16-2.09.16-.07,0-.1,0-.1-.03-.36.26-.39.72-.39,1.34,0,.49.07,1.08.07,1.73,0,1.01-.42,2.88-.69,4.84-.26,1.54-.29,3.4-.46,4.35-.07.39-1.11,1.57-1.21,2.09-.13.52-.2,1.05-.2,1.6,0,4.94,1.8,5.89,6.91,5.89.88,0,1.6-.03,2-.26.79-.43,2.58-3.86,2.68-4.78,0-1.01-.39-1.44-.66-2.45Z"/>
      <path class="cls-7" d="M174.17,164.81c0,.75.07,1.5.07,2.26,0,1.86-1.01,2.85-1.54,4.78-.42,1.54-.49,3.4-1.01,4.35-1.41,2.78-6.02,4.81-6.61,4.81-.95,0-1.87-.26-2.88-.26-1.83,0-3.76.49-5.63.49-2.32,0-3.21-.59-7.46-3.63-2.09-1.47-2.95-1.73-3.73-6.38,0-.23-.07-.36-.07-.59,0-.69.13-1.34.13-2.09,0-1.47-.98-2.52-1.08-3.73,0-.36.39-1.15.39-1.83v-1.11c0-1.14.88-1.8.88-3.04,0-1.41-.49-2.81-.49-4.22,0-1.18.78-2.49,1.27-4.29.36-1.28.46-2.81.82-4.16.49-1.86,1.04-3.53,1.67-5.76.23-.88.62-1.64.62-2.26,0-.49-.13-.95-.13-1.34,0-.69.72-1.47,2-1.47,2.45,0,4.61,2.03,4.61,3.6,0,1.44-.69,3.7-.85,4.78-.95,5.01-1.89,10.96-1.89,15.61v.72c0,1.44.07,2.88.2,4.35.16,1.37-.1,3.73.43,4.58.33.59,3.21,1.73,5.37,1.73,2.32,0,2.62-1.57,2.62-3.17v-.95c0-.46,0-.92.03-1.37.1-1.67.49-3.08.49-4.12v-.42c-.1-1.6-.75-3.66-.89-5.76,0-.75.2-1.54.2-2.22,0-1.15-.33-3.4-.33-5.56,0-2.75.46-4.61,2.42-4.61.33,0,1.08.07,2.26.2.75,0,1.77-.2,2.68-.2,1.21,0,3.24,1.14,3.96,3.89.26,1.18.2,2.65.43,3.93.26,1.47.66,3.01.66,4.29,0,.82-.07,1.63-.06,2.42,0,1.41.56,2.22.66,3.44v.39c0,1.21-.2,2.75-.19,3.96Z"/>
      <path class="cls-7" d="M212.73,145.3c0,4.71-1.7,5.82-5.53,5.82-1.73,0-2.58-.69-5.3-.68-1.41,0-2.94.1-4.02.1-1.8,0-3.7,0-3.7,1.34,0,2.52.49,4.71.49,6.54,0,2.09-.16,4.02-.16,6.25,0,2.22.49,4.71.49,6.54,0,1.77-.42,2.52-.42,3.11,0,.65.43,1.6.43,1.87-.16,3.83-1.11,5.43-5.95,5.43-1.28,0-3.63-.52-4.15-1.47-.52-.85-.1-2.94-.62-4.58-.69-2.06-2.62-2.29-2.62-4.06,0-3.11,1.96-9.32,1.96-12.33v-1.6c0-1.67.65-3.63.65-5.04,0-1.54-.95-1.86-2.42-1.86h-1.41c-.88,0-1.73-.07-2.39-.56-.33-.33-2.09-4.12-2.1-4.48,0-.75.56-1.24.82-2.13.92-3.37,0-4.97,5.2-4.97,1.08,0,1.93.82,2.98.82,2.88,0,.26-3.96,5.89-3.96,2.72.26,1.7,2.85,3.53,3.73.23.16,3.3.42,3.96.42.88,0,1.73-.2,2.62-.2,1.67,0,2.65,1.18,5.17,1.18,1.41,0,2.58-.2,3.6-.2,1.57,0,2.52.49,2.88,2.75.1.69.13,1.47.13,2.22Z"/>
    </g>
    <rect class="cls-17" x="374.68" y=".02" width="101.2" height="124.04" rx="5.18" ry="5.18"/>
    <path class="cls-13" d="M385.39,85.69c8.67.07,17.35.13,26.02.2,13.8.11,27.6.21,41.41.32,3.14.02,6.27.05,9.41.07s3.22-4.98,0-5c-8.67-.07-17.35-.13-26.02-.2-13.8-.11-27.6-.21-41.41-.32-3.14-.02-6.27-.05-9.41-.07s-3.22,4.98,0,5h0Z"/>
  </g>
</svg>