<?xml version="1.0" encoding="UTF-8"?>
<svg id="Layer_2" data-name="Layer 2" xmlns="http://www.w3.org/2000/svg" viewBox="0 0 763.84 592.85">
  <defs>
    <style>
      .cls-1 {
        opacity: .2;
      }

      .cls-1, .cls-2 {
        fill: #fff;
      }

      .cls-3 {
        font-size: 36px;
      }

      .cls-3, .cls-4 {
        fill: #37489e;
      }

      .cls-3, .cls-5, .cls-6 {
        font-family: DFVN-FreckleFace-Regular, 'DFVN Freckle Face';
      }

      .cls-7 {
        letter-spacing: 0em;
      }

      .cls-8, .cls-2 {
        stroke: #e5a900;
        stroke-miterlimit: 10;
        stroke-width: 4px;
      }

      .cls-8, .cls-9 {
        fill: #fff8e6;
      }

      .cls-10 {
        letter-spacing: 0em;
      }

      .cls-5 {
        fill: #fff099;
        font-size: 67px;
      }

      .cls-11 {
        fill: #d3d3d3;
      }

      .cls-12 {
        fill: #017348;
      }

      .cls-13 {
        fill: #b6b6b7;
        font-family: ArchivoBlack-Regular, 'Archivo Black';
        font-size: 21px;
      }

      .cls-14 {
        fill: #efd7bc;
      }

      .cls-15 {
        letter-spacing: 0em;
      }

      .cls-6 {
        fill: #027248;
        font-size: 60px;
      }

      .cls-16 {
        fill: #ed2a25;
      }

      .cls-17 {
        fill: #a3a3a3;
      }

      .cls-18 {
        fill: #f26c32;
      }

      .cls-19 {
        fill: #f4bc17;
      }

      .cls-20 {
        fill: #d1d1d1;
      }

      .cls-21 {
        letter-spacing: -.01em;
      }

      .cls-22 {
        fill: #e5a900;
      }

      .cls-23 {
        letter-spacing: 0em;
      }
    </style>
  </defs>
  <g id="Layer_1-2" data-name="Layer 1">
    <rect class="cls-19" x="95.11" y="146.03" width="668.66" height="446.71" rx="37.15" ry="37.15"/>
    <rect class="cls-19" x="330.27" y="91.15" width="198.76" height="132.78" rx="25.89" ry="25.89"/>
    <rect class="cls-2" x="121.82" y="169.36" width="615.74" height="396.84" rx="37.15" ry="37.15"/>
    <rect class="cls-8" x="362.64" y="112.01" width="125.33" height="25.52" rx="10.44" ry="10.44"/>
    <path class="cls-22" d="M368.96,153.17c0,2.34,0,4.69,0,7.03,0,.34,0,.68,0,1.01,0,1.31,1.15,2.56,2.5,2.5s2.5-1.1,2.5-2.5c0-2.34,0-4.69,0-7.03,0-.34,0-.68,0-1.01,0-1.31-1.15-2.56-2.5-2.5s-2.5,1.1-2.5,2.5h0Z"/>
    <path class="cls-22" d="M390.5,153.16c0,2.34,0,4.69,0,7.03,0,.34,0,.68,0,1.01,0,1.31,1.15,2.56,2.5,2.5s2.5-1.1,2.5-2.5c0-2.34,0-4.69,0-7.03,0-.34,0-.68,0-1.01,0-1.31-1.15-2.56-2.5-2.5s-2.5,1.1-2.5,2.5h0Z"/>
    <path class="cls-22" d="M412.04,153.15c0,2.34,0,4.69,0,7.03,0,.34,0,.68,0,1.01,0,1.31,1.15,2.56,2.5,2.5s2.5-1.1,2.5-2.5c0-2.34,0-4.69,0-7.03,0-.34,0-.68,0-1.01,0-1.31-1.15-2.56-2.5-2.5s-2.5,1.1-2.5,2.5h0Z"/>
    <path class="cls-22" d="M433.58,152.82c0,2.34,0,4.69,0,7.03,0,.34,0,.68,0,1.01,0,1.31,1.15,2.56,2.5,2.5s2.5-1.1,2.5-2.5c0-2.34,0-4.69,0-7.03,0-.34,0-.68,0-1.01,0-1.31-1.15-2.56-2.5-2.5s-2.5,1.1-2.5,2.5h0Z"/>
    <path class="cls-22" d="M455.12,152.81c0,2.34,0,4.69,0,7.03,0,.34,0,.68,0,1.01,0,1.31,1.15,2.56,2.5,2.5s2.5-1.1,2.5-2.5c0-2.34,0-4.69,0-7.03,0-.34,0-.68,0-1.01,0-1.31-1.15-2.56-2.5-2.5s-2.5,1.1-2.5,2.5h0Z"/>
    <path class="cls-22" d="M476.66,152.8c0,2.34,0,4.69,0,7.03,0,.34,0,.68,0,1.01,0,1.31,1.15,2.56,2.5,2.5s2.5-1.1,2.5-2.5c0-2.34,0-4.69,0-7.03,0-.34,0-.68,0-1.01,0-1.31-1.15-2.56-2.5-2.5s-2.5,1.1-2.5,2.5h0Z"/>
    <g>
      <path class="cls-9" d="M355.23,232.08c-.78,9.9.12,306.77.12,306.77"/>
      <path class="cls-18" d="M352.73,232.08c-.27,3.5-.15,7.06-.18,10.56-.06,7.91-.08,15.81-.1,23.72-.02,11.2-.03,22.41-.03,33.61,0,13.42,0,26.83.02,40.25.01,14.54.03,29.08.06,43.62s.05,29.15.08,43.73c.03,13.53.06,27.05.09,40.58.03,11.39.06,22.78.09,34.17.02,8.16.04,16.33.07,24.49.01,3.85-.02,7.71.03,11.56,0,.16,0,.32,0,.49,0,3.22,5.01,3.22,5,0,0-2.65-.02-5.3-.02-7.95-.02-7.22-.04-14.45-.06-21.67-.03-10.71-.06-21.42-.08-32.13-.03-13.11-.06-26.22-.09-39.33-.03-14.42-.06-28.84-.08-43.27s-.05-29.29-.06-43.94c-.02-13.79-.03-27.57-.03-41.36,0-11.84,0-23.67.02-35.51.01-8.8.03-17.6.08-26.41.03-4.68.02-9.36.16-14.04.01-.39.02-.78.05-1.17.1-1.35-1.22-2.5-2.5-2.5-1.44,0-2.4,1.15-2.5,2.5h0Z"/>
    </g>
    <path class="cls-11" d="M378.29,326.26c3.5.27,7.06.15,10.56.18,7.91.06,15.81.08,23.72.1,11.2.02,22.41.03,33.61.03,13.42,0,26.83,0,40.25-.02,14.54-.01,29.08-.03,43.62-.06s29.15-.05,43.73-.08c13.53-.03,27.05-.06,40.58-.09,11.39-.03,22.78-.06,34.17-.09,8.16-.02,16.33-.04,24.49-.07,3.85-.01,7.71.02,11.56-.03.16,0,.32,0,.49,0,3.22,0,3.22-5.01,0-5-2.65,0-5.3.02-7.95.02-7.22.02-14.45.04-21.67.06-10.71.03-21.42.06-32.13.08-13.11.03-26.22.06-39.33.09-14.42.03-28.84.06-43.27.08-14.65.03-29.29.05-43.94.06-13.79.02-27.57.03-41.36.03-11.84,0-23.67,0-35.51-.02-8.8-.01-17.6-.03-26.41-.08-4.68-.03-9.36-.02-14.04-.16-.39-.01-.78-.02-1.17-.05-1.35-.1-2.5,1.22-2.5,2.5,0,1.44,1.15,2.4,2.5,2.5h0Z"/>
    <path class="cls-11" d="M383.02,397.37c3.5.27,7.06.15,10.56.18,7.91.06,15.81.08,23.72.1,11.2.02,22.41.03,33.61.03,13.42,0,26.83,0,40.25-.02,14.54-.01,29.08-.03,43.62-.06,14.58-.02,29.15-.05,43.73-.08,13.53-.03,27.05-.06,40.58-.09,11.39-.03,22.78-.06,34.17-.09,8.16-.02,16.33-.04,24.49-.07,3.85-.01,7.71.02,11.56-.03.16,0,.32,0,.49,0,3.22,0,3.22-5.01,0-5-2.65,0-5.3.02-7.95.02-7.22.02-14.45.04-21.67.06-10.71.03-21.42.06-32.13.08-13.11.03-26.22.06-39.33.09-14.42.03-28.84.06-43.27.08-14.65.03-29.29.05-43.94.06-13.79.02-27.57.03-41.36.03-11.84,0-23.67,0-35.51-.02-8.8-.01-17.6-.03-26.41-.08-4.68-.03-9.36-.02-14.04-.16-.39-.01-.78-.02-1.17-.05-1.35-.1-2.5,1.22-2.5,2.5,0,1.44,1.15,2.4,2.5,2.5h0Z"/>
    <path class="cls-11" d="M380.48,468.8c2.11.26,4.31.16,6.43.18,4.84.06,9.67.09,14.51.1,6.82.03,13.65.04,20.47.04,8.21,0,16.42,0,24.63-.01,8.86-.01,17.71-.03,26.57-.05s17.76-.05,26.64-.07c8.28-.03,16.56-.05,24.84-.08,6.94-.03,13.88-.05,20.83-.08,5-.02,10-.04,15.01-.06,2.35-.01,4.71.04,7.06-.03.1,0,.2,0,.31,0,3.22-.02,3.22-5.02,0-5-1.61,0-3.22.01-4.83.02-4.42.02-8.84.04-13.25.06-6.52.03-13.05.05-19.57.08-8.02.03-16.05.06-24.07.08-8.79.03-17.57.05-26.36.08-8.92.02-17.85.04-26.77.06-8.44.01-16.88.02-25.32.02-7.22,0-14.43,0-21.65-.03-5.39-.02-10.78-.04-16.18-.09-2.85-.03-5.72-.01-8.57-.16-.24-.01-.49-.02-.73-.05-1.34-.17-2.5,1.27-2.5,2.5,0,1.49,1.15,2.33,2.5,2.5h0Z"/>
    <text class="cls-13" transform="translate(381.45 308.4) rotate(-.02)"><tspan class="cls-10" x="0" y="0">N</tspan><tspan x="17.28" y="0">AME:</tspan></text>
    <text class="cls-3" transform="translate(483.07 307.2) rotate(-.02)"><tspan x="0" y="0">Chau Pham</tspan></text>
    <text class="cls-6" transform="translate(382.15 252.74) rotate(-.02)"><tspan x="0" y="0">S</tspan><tspan class="cls-15" x="33.78" y="0">T</tspan><tspan x="66.06" y="0">UDEN</tspan><tspan class="cls-21" x="203.2" y="0">T</tspan><tspan x="235.05" y="0" xml:space="preserve"> ID</tspan></text>
    <text class="cls-3" transform="translate(480.85 378.93) rotate(-.02)"><tspan x="0" y="0">Dig</tspan><tspan class="cls-23" x="50.01" y="0">i</tspan><tspan x="58.04" y="0">ta</tspan><tspan class="cls-7" x="91.05" y="0">l</tspan><tspan x="100.63" y="0" xml:space="preserve"> Media</tspan></text>
    <text class="cls-3" transform="translate(437.63 451) rotate(-.02)"><tspan x="0" y="0">s3891976</tspan></text>
    <text class="cls-13" transform="translate(380.43 380.45) rotate(-.02)"><tspan x="0" y="0">MAJOR:</tspan></text>
    <text class="cls-13" transform="translate(381.5 452.6) rotate(-.02)"><tspan x="0" y="0">SID:</tspan></text>
    <g>
      <path class="cls-16" d="M679.95,420.48s-71.11-20.08-98.04,46.24c-16.16,39.8,59.98,126.58,117.34,63.3,57.36-63.28,9.63-97.45-19.29-109.55Z"/>
      <path class="cls-14" d="M600.71,496.66s-17.32-22.2,4.44-41.91c21.76-19.71-1.91,15.95-.62,27.46,1.29,11.51,2.95,22.55-3.82,14.45Z"/>
      <path class="cls-12" d="M683.98,436.52s31.33-31.13,31.21-45.24c0,0,6.93-1.44,8.11,4.95,1.18,6.39-35.73,42.58-35.73,42.58l34.86-11.82s-28.2,11.2-29.98,14.59,33.63,17.16,33.63,17.16l-42.2-9.66-28.72,19.33s23.65-20.72,24.11-23.95c.46-3.23-38.76-20.78-38.76-20.78l37.27,8.21s10.11-23.96,6.56-32.35c0,0,9.24,15.89-.34,36.97Z"/>
      <path class="cls-14" d="M620.09,510.68s-4.26-5.39-9.38-4.14-1.04,11.68,5.39,11.51c6.43-.16,5.99-5.41,3.99-7.37Z"/>
    </g>
    <rect class="cls-16" x="155.33" y="255.82" width="172.1" height="237.94"/>
    <ellipse class="cls-4" cx="121.62" cy="157.66" rx="121.72" ry="73.23" transform="translate(-7.73 6.28) rotate(-2.87)"/>
    <circle class="cls-18" cx="392.53" cy="523.76" r="7.44"/>
    <circle class="cls-18" cx="421.45" cy="523.6" r="7.44"/>
    <circle class="cls-18" cx="450.41" cy="523.33" r="7.44"/>
    <circle class="cls-18" cx="477.92" cy="523.49" r="7.44"/>
    <polygon class="cls-1" points="301.86 172.24 421.01 163.09 270.35 558.78 168.09 566.63 301.86 172.24"/>
    <text class="cls-5" transform="translate(27.64 180.53) rotate(-.02)"><tspan x="0" y="0">ABOU</tspan><tspan class="cls-21" x="148.13" y="0">T</tspan></text>
    <rect class="cls-20" x="374.68" y=".02" width="101.2" height="124.04" rx="5.18" ry="5.18"/>
    <path class="cls-17" d="M385.39,85.69c8.67.07,17.35.13,26.02.2,13.8.11,27.6.21,41.41.32,3.14.02,6.27.05,9.41.07s3.22-4.98,0-5c-8.67-.07-17.35-.13-26.02-.2-13.8-.11-27.6-.21-41.41-.32-3.14-.02-6.27-.05-9.41-.07s-3.22,4.98,0,5h0Z"/>
  </g>
</svg>