<?xml version="1.0" encoding="UTF-8"?>
<svg id="Layer_2" data-name="Layer 2" xmlns="http://www.w3.org/2000/svg" viewBox="0 0 785.48 592.85">
  <defs>
    <style>
      .cls-1, .cls-2 {
        fill: #37489e;
      }

      .cls-3 {
        fill: #fff8e6;
        stroke: #e5a900;
        stroke-miterlimit: 10;
        stroke-width: 4px;
      }

      .cls-2 {
        font-family: DFVN-FreckleFace-Regular, 'DFVN Freckle Face';
        font-size: 47px;
      }

      .cls-4 {
        fill: #a3a3a3;
      }

      .cls-5 {
        fill: #f4bc17;
      }

      .cls-6 {
        fill: #d1d1d1;
      }

      .cls-7 {
        fill: #e5a900;
      }
    </style>
  </defs>
  <g id="Layer_1-2" data-name="Layer 1">
    <rect class="cls-5" x=".07" y="146.03" width="668.66" height="446.71" rx="37.15" ry="37.15"/>
    <rect class="cls-5" x="235.22" y="91.15" width="198.76" height="132.78" rx="25.89" ry="25.89"/>
    <rect class="cls-3" x="267.59" y="112.01" width="125.33" height="25.52" rx="10.44" ry="10.44"/>
    <path class="cls-7" d="M273.92,153.17c0,2.34,0,4.69,0,7.03,0,.34,0,.68,0,1.01,0,1.31,1.15,2.56,2.5,2.5s2.5-1.1,2.5-2.5c0-2.34,0-4.69,0-7.03,0-.34,0-.68,0-1.01,0-1.31-1.15-2.56-2.5-2.5s-2.5,1.1-2.5,2.5h0Z"/>
    <path class="cls-7" d="M295.46,153.16c0,2.34,0,4.69,0,7.03,0,.34,0,.68,0,1.01,0,1.31,1.15,2.56,2.5,2.5s2.5-1.1,2.5-2.5c0-2.34,0-4.69,0-7.03,0-.34,0-.68,0-1.01,0-1.31-1.15-2.56-2.5-2.5s-2.5,1.1-2.5,2.5h0Z"/>
    <path class="cls-7" d="M317,153.15c0,2.34,0,4.69,0,7.03,0,.34,0,.68,0,1.01,0,1.31,1.15,2.56,2.5,2.5s2.5-1.1,2.5-2.5c0-2.34,0-4.69,0-7.03,0-.34,0-.68,0-1.01,0-1.31-1.15-2.56-2.5-2.5s-2.5,1.1-2.5,2.5h0Z"/>
    <path class="cls-7" d="M338.54,152.82c0,2.34,0,4.69,0,7.03,0,.34,0,.68,0,1.01,0,1.31,1.15,2.56,2.5,2.5s2.5-1.1,2.5-2.5c0-2.34,0-4.69,0-7.03,0-.34,0-.68,0-1.01,0-1.31-1.15-2.56-2.5-2.5s-2.5,1.1-2.5,2.5h0Z"/>
    <path class="cls-7" d="M360.08,152.81c0,2.34,0,4.69,0,7.03,0,.34,0,.68,0,1.01,0,1.31,1.15,2.56,2.5,2.5s2.5-1.1,2.5-2.5c0-2.34,0-4.69,0-7.03,0-.34,0-.68,0-1.01,0-1.31-1.15-2.56-2.5-2.5s-2.5,1.1-2.5,2.5h0Z"/>
    <path class="cls-7" d="M381.62,152.8c0,2.34,0,4.69,0,7.03,0,.34,0,.68,0,1.01,0,1.31,1.15,2.56,2.5,2.5s2.5-1.1,2.5-2.5c0-2.34,0-4.69,0-7.03,0-.34,0-.68,0-1.01,0-1.31-1.15-2.56-2.5-2.5s-2.5,1.1-2.5,2.5h0Z"/>
    <ellipse class="cls-1" cx="663.86" cy="157.66" rx="121.72" ry="73.23" transform="translate(-7.05 33.4) rotate(-2.87)"/>
    <rect class="cls-6" x="279.63" y=".02" width="101.2" height="124.04" rx="5.18" ry="5.18"/>
    <path class="cls-4" d="M290.35,85.69c8.67.07,17.35.13,26.02.2,13.8.11,27.6.21,41.41.32,3.14.02,6.27.05,9.41.07s3.22-4.98,0-5c-8.67-.07-17.35-.13-26.02-.2-13.8-.11-27.6-.21-41.41-.32-3.14-.02-6.27-.05-9.41-.07s-3.22,4.98,0,5h0Z"/>
    <text class="cls-2" transform="translate(216.42 400.18)"><tspan x="0" y="0">read more</tspan></text>
  </g>
</svg>