<?xml version="1.0" encoding="UTF-8"?>
<svg id="Layer_2" data-name="Layer 2" xmlns="http://www.w3.org/2000/svg" viewBox="0 0 220.62 228.59">
  <defs>
    <style>
      .cls-1 {
        fill: #8bd4e0;
      }

      .cls-2 {
        stroke: #fff;
        stroke-miterlimit: 10;
        stroke-width: 5px;
      }

      .cls-3 {
        fill: #ee2c25;
      }

      .cls-4 {
        fill: #74a535;
      }

      .cls-5 {
        fill: #fff099;
      }

      .cls-6 {
        fill: #efd7bc;
      }

      .cls-7 {
        fill: #027248;
      }
    </style>
  </defs>
  <g id="Layer_1-2" data-name="Layer 1">
    <g>
      <g>
        <path class="cls-7" d="M30.05,37.64S58.5-8.34,97.76,10.11c0,0,29.99-19.56,63.96,11.79,0,0,40.47-6.42,40.94,42.04,0,0,22.77,14.7,12.29,46.61,0,0-4.53,40.4-39.6,78.74-35.07,38.34-47.79,33.28-57.21,30.5,0,0-34.48,22.5-57.47-4.43,0,0-23.16-5.63-31.8-29.79,0,0-65.71-15.86,1.2-147.93Z"/>
        <path class="cls-4" d="M87.77,49s4.1,2.83,3.71,9.2c0,0,20.89-7.82,38.33,31.7,0,0,21.07-7.36,31.04-.5l9.41-10.93-16.21-18.55s30.6-46.92,51.6-28.31l13.8-30.31s-45.62-12.3-80.16,38.61l-38.81-6.12-12.7,15.21Z"/>
        <path class="cls-6" d="M215.25,22.45s7.21-14.66,4.92-20.31c-2.28-5.65-16.67,16.56-15.78,25.82.89,9.26,8.29.48,10.86-5.51Z"/>
        <g>
          <path class="cls-5" d="M158.63,98.24s-5.69-4.61-10.26-2.49c-4.57,2.12,2.43,11.78,8.58,10.5,6.15-1.27,4.18-6.41,1.68-8.01Z"/>
          <path class="cls-5" d="M88.91,13.29s-3.92.79-4.69,4.64c-.78,3.85,5.66,5.08,7.34.77,1.69-4.31-1.11-6-2.65-5.41Z"/>
          <path class="cls-5" d="M139.2,13.68s-4.88-3.62-8.51-1.77c-3.63,1.85,2.57,9.55,7.53,8.35,4.96-1.2,3.1-5.35.98-6.58Z"/>
          <path class="cls-5" d="M203.07,89.66s-2.57-1.78-5.21-.1c-2.64,1.69.12,6.01,3.52,4.59,3.4-1.42,2.87-3.94,1.69-4.49Z"/>
          <path class="cls-5" d="M191.06,50.68s-2.83-6.76-7.86-7.05c-5.02-.29-3.43,11.53,2.59,13.31,6.02,1.79,6.72-3.67,5.27-6.26Z"/>
          <path class="cls-5" d="M104.08,78.75s-8.19-9.71-15.01-8.52c-6.82,1.2,7.37,9.46,12.19,20.13,3.77,8.34,6.45-8.01,2.82-11.61Z"/>
          <path class="cls-5" d="M79.99,48.76s-3.13-9.54-8.17-10.73c-5.05-1.19,2.62,9.11,3.16,18.31.42,7.2,6.58-3.88,5.01-7.59Z"/>
        </g>
      </g>
      <g>
        <rect class="cls-2" x="48.81" y="64.65" width="121.57" height="121.57" rx="23.94" ry="23.94"/>
        <g>
          <path class="cls-1" d="M108.7,83.6h2.44c9.18,0,16.63,7.45,16.63,16.63v13.58c0,3.53-2.87,6.39-6.39,6.39h-13.58c-9.18,0-16.63-7.45-16.63-16.63v-2.44c0-9.68,7.86-17.53,17.53-17.53Z" transform="translate(104.12 -47.56) rotate(45)"/>
          <path class="cls-3" d="M131.37,129.44h1.75c9.37,0,16.98,7.61,16.98,16.98v12.89c0,3.72-3.02,6.74-6.74,6.74h-12.89c-9.37,0-16.98-7.61-16.98-16.98v-1.75c0-9.87,8.01-17.88,17.88-17.88Z" transform="translate(280.12 278.88) rotate(173.22)"/>
          <path class="cls-5" d="M87.2,130.35h1.99c9.3,0,16.85,7.55,16.85,16.85v13.13c0,3.65-2.97,6.62-6.62,6.62h-13.13c-9.3,0-16.85-7.55-16.85-16.85v-1.99c0-9.8,7.96-17.76,17.76-17.76Z" transform="translate(-67.93 223.22) rotate(-85.04)"/>
        </g>
      </g>
    </g>
  </g>
</svg>