<?xml version="1.0" encoding="UTF-8"?>
<svg id="Layer_2" data-name="Layer 2" xmlns="http://www.w3.org/2000/svg" viewBox="0 0 244.63 246.99">
  <defs>
    <style>
      .cls-1 {
        fill: #8bd4e0;
      }

      .cls-2 {
        fill: #a826ed;
      }

      .cls-3 {
        fill: #36a36f;
      }

      .cls-4 {
        fill: #ee2c25;
      }

      .cls-5 {
        fill: #74a535;
      }

      .cls-6 {
        fill: #f36c32;
      }

      .cls-7 {
        fill: #027248;
      }

      .cls-8 {
        stroke: #fff;
        stroke-miterlimit: 10;
        stroke-width: 7px;
      }
    </style>
  </defs>
  <g id="Layer_1-2" data-name="Layer 1">
    <g>
      <g>
        <path class="cls-7" d="M95.84,215.73s-5.48,36.18-37.44,30.69c-31.97-5.49-27.77-33.9-27.77-33.9,0,0-23.89-15.18-7.1-42.3,0,0-26.48-27.45-23.25-47.79s23.25-31.97,23.25-31.97c0,0-26.8-47.79,10.66-74.27,37.46-26.48,68.45,7.75,68.45,7.75,0,0,7.53-28.74,39.61-23.25,32.08,5.49,35.31,23.25,35.31,23.25,0,0,38.1-31.32,60.06,10.33,21.96,41.65-12.59,80.72-34.23,86.21,0,0-.32,44.56-19.37,59.09-19.05,14.53-34.32,14.86-55.1,13.24,0,0-8.22,20.96-33.06,22.91Z"/>
        <path class="cls-5" d="M183.6,105.39l13.56,50.8,8.72,6.86,1.94-17.31,10.01,2.7,4.73,28.74,22.07,24.54-22.07,21.96-14.74-7.11-58.77-1.29v-6.78l36.49-7.43-13.56-20.02-78.46,6.16v-10.68l66.19-10.66-2.91-9.36,12.27-20.99s8.07,19.7,9.04,19.7-2.01-39.07-2.01-39.07l7.5-10.77Z"/>
      </g>
      <g>
        <rect class="cls-8" x="57.13" y="45.39" width="119.14" height="119.14" rx="28.96" ry="28.96"/>
        <g>
          <path class="cls-6" d="M135.72,91.21c7.59,0,13.75-6.16,13.75-13.75h0c0-7.59-6.16-13.75-13.75-13.75h-19.34v27.5h19.34Z"/>
          <path class="cls-4" d="M97.67,63.71c-7.59,0-13.75,6.16-13.75,13.75h0c0,7.59,6.16,13.75,13.75,13.75h19.34v-27.5h-19.34Z"/>
          <path class="cls-2" d="M97.67,91.21c-7.59,0-13.75,6.16-13.75,13.75h0c0,7.59,6.16,13.75,13.75,13.75h19.34v-27.5h-19.34Z"/>
          <path class="cls-3" d="M97.67,118.71c-7.59,0-13.75,6.16-13.75,13.75h0c0,7.59,6.16,13.75,13.75,13.75h0c10.68,0,19.34-8.66,19.34-19.34v-8.16h-19.34Z"/>
          <circle class="cls-1" cx="131.52" cy="105.72" r="14.51"/>
        </g>
      </g>
    </g>
  </g>
</svg>