<svg width="1440" height="1024" viewBox="0 0 1440 1024" fill="none" xmlns="http://www.w3.org/2000/svg">
<g clip-path="url(#clip0_271_1662)">
<rect width="1440" height="1024" fill="#A1D0C2"/>
<g clip-path="url(#clip1_271_1662)">
<path d="M1439.51 1015.26L1299.39 950.08L103.5 965.22L-0.48999 1015.26V-15H1439.51V1015.26Z" fill="#FFE98A"/>
<path d="M1435.41 1039.13H-0.51001L-0.49001 958.052L109.43 948.544L1296.75 945.941L1441.93 958.052L1435.41 1039.13Z" fill="#FFFAD7"/>
<path d="M110.38 948.648H313.07L264.23 968.136L5.53003 959.524L110.38 948.648Z" fill="#FFCC4D"/>
<path d="M-1 1002.5L133.46 1016.66L98.27 1032.83H0.03L-1 1002.5Z" fill="#FFCC4D"/>
<path d="M264.23 968.137L648.39 977.756L672.98 1032.83H270.77L133.46 1016.66L264.23 968.137Z" fill="#FFCC4D"/>
<path d="M641.09 977.574L632.45 948.031L1114.81 947.469L1093.96 990.54" fill="#FFCC4D"/>
<path d="M1065.3 1032.83L1089.12 991.102L1430.55 1000.48L1440.03 1008.34V1032.83" fill="#FFCC4D"/>
<path d="M1440.03 958.794L1351.09 951.129L1430.55 1000.48L1440.03 1000.31V958.794Z" fill="#FFCC4D"/>
<path d="M1439.62 961.347C1441.69 961.61 1441.04 961.311 1441.37 961.311C1437.87 960.952 1439.68 961.408 1439.62 961.347Z" fill="#FFD264"/>
<path d="M1405.05 957.806L1405.7 957.791L1400.54 957.406L1405.05 957.806Z" fill="#FFD264"/>
<path d="M1372.92 954.055C1375.8 954.764 1384.59 955.356 1390.26 956.151L1391.17 956.343L1393.88 956.358C1386.9 955.589 1377.78 954.723 1372.92 954.055Z" fill="#FFD264"/>
<path d="M1356.13 951.289C1357.13 951.547 1352.37 950.975 1360.11 951.8C1359.73 951.735 1359.62 951.719 1359.4 951.679C1358.71 951.598 1357.75 951.481 1356.13 951.289Z" fill="#FFD264"/>
<path d="M1359.4 951.681C1357.24 951.307 1362.79 952.066 1359.4 951.681V951.681Z" fill="#FFD264"/>
<path d="M1343.74 949.94L1348.25 950.34C1347.36 950.152 1343.4 949.671 1344.9 949.783C1340.3 949.317 1341.2 949.504 1343.74 949.945V949.94Z" fill="#FFD264"/>
<path d="M1339.4 949.703L1341.73 949.921C1341.34 949.84 1340.74 949.754 1339.4 949.703Z" fill="#FFD264"/>
<path d="M1346.68 950.379L1341.73 949.918C1342.35 950.05 1342.37 950.171 1344 950.141C1343.55 950.196 1344.57 950.212 1346.68 950.379Z" fill="#FFD264"/>
<path d="M1349.43 950.762C1351.9 951.131 1355.1 951.557 1350.57 951.157C1359.12 952.103 1357.98 951.709 1349.43 950.762Z" fill="#FFD264"/>
<path d="M1371.11 954.228L1374.41 954.719L1377.36 954.937C1375.89 954.825 1370.96 954.091 1371.12 954.223L1371.11 954.228Z" fill="#FFD264"/>
<path d="M1316.06 946.512C1315.75 946.552 1317.47 946.886 1317.76 947.023L1321.09 947.322C1319.42 947.074 1316.24 946.653 1316.06 946.512Z" fill="#FFD264"/>
<path d="M1317.75 947.024L1312.77 946.578C1317.16 947.105 1318 947.14 1317.75 947.024Z" fill="#FFD264"/>
<path d="M1338.42 950.001L1346.64 950.675L1336.86 949.824L1338.42 950.001Z" fill="#FFD264"/>
<path d="M1296.68 944.294L1297.11 944.279C1298.07 944.36 1298.32 944.365 1298.8 944.391L1300.12 944.462L1298.81 944.38C1298.34 944.35 1298.09 944.34 1297.12 944.254L1296.54 944.269L1296.27 944.279L1296.12 944.289L1295.5 944.325L1294.26 944.391L1295.38 944.345L1295.94 944.32C1296.13 944.315 1296.27 944.305 1296.68 944.294Z" fill="#FFD264"/>
<path d="M1283.7 944.339C1285.82 944.187 1280.79 944.091 1283.03 944C1279.55 944.03 1276.58 944.162 1273.91 944.278C1276.75 944.213 1279.78 944.223 1283.7 944.339Z" fill="#FFD264"/>
<path d="M1269.42 944.45C1270.84 944.414 1272.31 944.348 1273.91 944.277C1272.4 944.313 1270.92 944.363 1269.42 944.45Z" fill="#FFD264"/>
<path d="M1304.39 945.559C1304.03 945.468 1303.35 945.265 1300.61 944.891L1302.45 945.326C1303.04 945.397 1303.71 945.473 1304.39 945.554V945.559Z" fill="#FFD264"/>
<path d="M1302.52 945.348L1302.46 945.333C1300.36 945.08 1298.9 944.908 1298.28 944.832C1298.82 944.898 1300.09 945.05 1302.53 945.348H1302.52Z" fill="#FFD264"/>
<path d="M1304.88 945.618C1304.7 945.598 1304.57 945.583 1304.39 945.562C1304.57 945.603 1304.68 945.623 1304.88 945.618Z" fill="#FFD264"/>
<path d="M1325.6 948.296C1322.65 948.079 1316.56 947.496 1322.32 948.362C1324.46 948.458 1321.17 947.967 1325.6 948.296Z" fill="#FFD264"/>
<path d="M1307.17 946.16L1312.38 946.818C1312.3 946.753 1311.4 946.56 1312.86 946.666L1307.17 946.16Z" fill="#FFD264"/>
<path d="M1304.58 945.928L1307.17 946.161L1305.24 945.918L1304.58 945.928Z" fill="#FFD264"/>
<path d="M1278.62 944.642C1276.3 944.739 1273.76 944.749 1270.9 944.769C1273.97 944.809 1277.15 944.825 1280.16 944.82C1280.59 944.749 1281.91 944.627 1278.62 944.637V944.642Z" fill="#FFD264"/>
<path d="M1290.03 944.688C1289.87 944.688 1289.66 944.698 1289.51 944.703C1289.83 944.723 1290.08 944.728 1290.03 944.688Z" fill="#FFD264"/>
<path d="M1242.68 944.805C1242.84 944.82 1242.97 944.83 1243.13 944.845C1243.17 944.835 1243.19 944.82 1243.24 944.81H1242.68V944.805Z" fill="#FFD264"/>
<path d="M1280.67 944.86C1282.98 944.9 1284.36 944.844 1285.67 944.773C1283.94 944.799 1282.11 944.814 1280.15 944.819C1279.96 944.849 1279.92 944.87 1280.67 944.86Z" fill="#FFD264"/>
<path d="M1261.55 944.561C1262.75 944.607 1264.12 944.642 1265.55 944.672C1264.37 944.607 1261.98 944.5 1261.55 944.561Z" fill="#FFD264"/>
<path d="M1288.74 944.64C1288.86 944.64 1288.96 944.635 1289.09 944.63C1288.33 944.585 1288.43 944.61 1288.74 944.64Z" fill="#FFD264"/>
<path d="M1288.74 944.645C1287.55 944.68 1286.62 944.731 1285.68 944.781C1287.09 944.761 1288.39 944.736 1289.52 944.705C1289.23 944.69 1288.95 944.665 1288.74 944.645Z" fill="#FFD264"/>
<path d="M1234.14 946.21C1234.55 946.007 1240.62 945.815 1245.86 946.022C1251.02 945.865 1247.64 945.212 1243.14 944.848C1242.98 944.934 1242.98 945.015 1237.68 945.141C1239.54 945.248 1249.45 945.384 1244.98 945.572C1237.95 945.683 1239.22 945.506 1235.8 945.405C1238.71 945.653 1226.86 945.779 1228.39 946.144L1234.55 946.007C1234.67 946.063 1232.43 946.159 1234.14 946.21Z" fill="#FFD264"/>
<path d="M1253.24 944.851L1255.42 944.826C1252.93 944.795 1251.15 944.714 1247.87 944.562C1244.24 944.664 1243.48 944.74 1243.23 944.806L1253.98 944.821L1253.23 944.851H1253.24Z" fill="#FFD264"/>
<path d="M1265.23 944.811C1263.53 945.034 1258.28 945.13 1261.5 945.363C1267.91 945.338 1265.99 945.176 1269.82 945.075C1259.48 945.14 1272.79 944.948 1265.32 944.837C1267.35 944.796 1269.18 944.781 1270.9 944.771C1269.04 944.746 1267.24 944.715 1265.55 944.68C1265.64 944.685 1265.71 944.69 1265.79 944.695H1265.84H1265.83C1266.28 944.72 1266.42 944.74 1265.92 944.725C1265.89 944.725 1265.76 944.725 1265.7 944.725C1265.63 944.756 1265.44 944.781 1265.23 944.806C1262.24 944.766 1264.76 944.751 1265.7 944.725C1265.73 944.715 1265.82 944.705 1265.83 944.69C1265.83 944.69 1265.81 944.69 1265.79 944.69L1255.43 944.821C1257.62 944.847 1260.37 944.842 1265.23 944.806V944.811Z" fill="#FFD264"/>
<path d="M1316.72 948.19C1316.42 948.135 1316.44 948.119 1316.42 948.104C1315.76 948.054 1315.5 948.043 1316.72 948.19Z" fill="#FFD264"/>
<path d="M1312.63 947.581C1313.38 947.636 1314.03 947.621 1316.4 947.925C1318.44 948.229 1316.34 948.026 1316.42 948.107C1317.88 948.218 1321.52 948.542 1317.06 947.91L1316.33 947.854C1312.3 947.307 1307.2 946.431 1307.92 946.487C1309.02 946.816 1310 947.074 1312.62 947.581H1312.63Z" fill="#FFD264"/>
<path d="M1288.79 945.316L1280.17 945.433L1284.56 945.615L1284.34 945.504C1289.25 945.544 1288.18 945.402 1288.79 945.316Z" fill="#FFD264"/>
<path d="M1241.69 944.698L1242.84 944.465L1237.86 944.799L1241.69 944.698Z" fill="#FFD264"/>
<path d="M1230.49 944.74L1230.9 944.543L1227.94 944.664L1230.49 944.74Z" fill="#FFD264"/>
<path d="M597.99 948.043L595.46 948.104C596.66 948.083 597.43 948.063 597.99 948.043Z" fill="#FFD264"/>
<path d="M616.34 948.035L616.79 947.934C615.94 947.989 615.59 948.03 616.34 948.035Z" fill="#FFD264"/>
<path d="M955.21 945.122C951.52 944.939 947.39 944.656 947.84 944.879L948.98 945.096C951.56 945.056 953.54 945.076 955.22 945.122H955.21Z" fill="#FFD264"/>
<path d="M766.69 946.674C767.04 946.694 767.41 946.72 767.77 946.74C768.67 946.664 769.51 946.593 770.26 946.527C769.19 946.573 767.97 946.624 766.69 946.674Z" fill="#FFD264"/>
<path d="M764.09 947.59L759.22 947.453C760.31 947.499 761.88 947.544 764.09 947.59Z" fill="#FFD264"/>
<path d="M497.78 948.41L494.82 948.638C499.45 948.633 497.41 948.522 497.78 948.41Z" fill="#FFD264"/>
<path d="M1115.69 944.973C1112.5 944.892 1109.97 944.857 1107.74 944.852C1111.58 944.973 1114.68 945.16 1115.69 944.973Z" fill="#FFD264"/>
<path d="M605.2 945.707C603.65 945.748 602.99 945.793 603.03 945.844C604.63 945.803 605.53 945.763 605.2 945.707Z" fill="#FFD264"/>
<path d="M1098.54 944.862C1099.1 944.877 1099.65 944.892 1100.22 944.912C1102.55 944.872 1104.89 944.841 1107.74 944.852C1104.91 944.76 1101.66 944.71 1098.54 944.867V944.862Z" fill="#FFD264"/>
<path d="M134.35 948.697C134.09 948.687 133.77 948.677 133.53 948.672C133.45 948.702 133.82 948.702 134.35 948.697Z" fill="#FFD264"/>
<path d="M29.5 954.388C30.52 954.282 32.2 954.135 33.77 953.988C33 954.044 31.71 954.16 29.5 954.388Z" fill="#FFD264"/>
<path d="M1185.39 944.704C1185.77 944.677 1187.77 944.688 1185.39 944.704V944.704Z" fill="#FFD264"/>
<path d="M1196.95 945.555C1196.44 945.58 1196.06 945.61 1196 945.661C1196.2 945.61 1196.53 945.575 1196.95 945.555Z" fill="#FFD264"/>
<path d="M1074.87 946.258C1074.8 946.258 1074.74 946.258 1074.66 946.258C1075.37 946.298 1075.25 946.293 1074.87 946.258Z" fill="#FFD264"/>
<path d="M1188.96 944.799C1188.07 944.774 1187.04 944.753 1185.92 944.738C1186.41 944.753 1187.34 944.774 1188.96 944.799Z" fill="#FFD264"/>
<path d="M1188.48 944.693C1189.3 944.698 1189.94 944.708 1190.56 944.713C1190.86 944.677 1190.59 944.652 1188.48 944.693Z" fill="#FFD264"/>
<path d="M1182.07 944.718C1183.43 944.713 1184.7 944.718 1185.92 944.739C1185.45 944.723 1185.26 944.713 1185.38 944.703C1184.68 944.703 1183.7 944.713 1182.07 944.718Z" fill="#FFD264"/>
<path d="M329.08 947.856C328.92 947.851 328.74 947.841 328.57 947.836C326.17 947.932 327.23 947.912 329.08 947.856Z" fill="#FFD264"/>
<path d="M893.35 947.478C893.46 947.478 893.52 947.473 893.62 947.467C893.51 947.467 893.37 947.462 893.27 947.457L893.35 947.478Z" fill="#FFD264"/>
<path d="M884.81 947.656C888.44 947.378 890.51 947.408 893.27 947.464L890.44 946.836L884.81 947.656Z" fill="#FFD264"/>
<path d="M554.06 948.167L560.06 948.359C552.82 948.694 547.59 948.587 553.22 948.861C554.06 948.172 576.53 948.759 577.36 948.071L581.31 948.213C580.18 948.208 580 948.248 578.88 948.243C586.57 948.562 584.59 947.737 594.49 947.823C597.94 947.873 600.35 947.97 598 948.051L605.69 947.868C607.93 947.878 607.38 948 605.15 947.99L616.88 947.919L616.79 947.939C618.46 947.828 622.25 947.656 624.11 947.585C627.09 947.681 622.62 947.661 623.38 947.742L629.88 947.565C632.53 947.742 627.14 947.919 622.66 947.899C628.73 948.577 628.05 947.722 641.14 948.101L635.01 948.197C638.97 948.582 643.75 948.435 650.69 948.668C649.04 948.542 636.8 948.076 643.85 947.894C645.84 947.944 648.46 947.965 652.26 947.823C652.3 948.066 656.01 948 660.66 947.985L660.34 948.309C665.36 948.208 664.97 948.046 667.92 947.894C673.52 947.919 674.68 948.167 676 948.38C684.97 948.42 669.81 947.985 680.42 947.909C687.88 948.025 693.11 947.884 702.03 947.681C707.25 947.787 701.12 947.878 702.99 947.97L707.62 947.706C708.75 947.706 708.39 947.792 708.2 947.833C712.1 947.727 708.52 947.509 714.65 947.413C716.3 947.053 727.23 947.919 734.82 947.504C736.69 947.595 733.92 947.701 734.49 947.828C744.9 947.549 743.41 947.625 751.95 947.256L759.23 947.458C753.88 947.22 760.71 946.927 766.7 946.684C764.8 946.567 763.18 946.466 762.09 946.42L771.64 946.233C772.79 946.284 771.83 946.395 770.27 946.537C770.92 946.506 771.54 946.481 772.02 946.456C775.44 946.572 773.67 946.76 771.22 946.947C770.06 946.881 768.9 946.815 767.78 946.749C765.42 946.947 763.22 947.17 763.71 947.357C764.33 947.316 765.53 947.286 766.84 947.266C766.22 947.322 765.83 947.367 766.11 947.403C766.43 947.438 767.43 947.362 768.99 947.281L771.16 947.64L771.69 947.499L784.19 947.706C793.13 947.332 800.91 946.785 815.1 946.618C811.58 946.886 814.35 947.053 814.16 947.367C810.29 947.038 803.17 947.524 795.81 947.463C799.65 947.494 798.81 947.646 797.83 947.696L810.95 947.377C810.66 947.635 813.74 947.565 817.16 947.666C814.57 947.159 826.94 947.316 832.27 947.154C832.6 947.327 831.32 947.499 824.81 947.468C832 947.843 834.09 946.861 841.15 947.175C839.56 947.18 838.7 947.154 838.07 947.246C841.78 947.089 850.86 947.2 848.73 947.347H847.14C857.7 947.397 879.28 947.316 880.85 946.881C880.96 946.937 879.47 947.403 878.83 947.489L897.66 946.015C896 946.385 902.38 947.261 893.62 947.478C896.13 947.529 899.24 947.585 904.54 947.448C902.82 947.397 900.26 946.916 902.61 946.881C909.04 947.286 907.08 947.094 915.01 947.438C912.44 947.362 915.29 946.78 919.35 946.79C918.72 946.876 919.69 947.362 918.21 947.423L928.32 946.841C925.8 946.947 927.88 947.322 930.14 947.484C929.09 947.372 938.88 947.484 941.58 947.423L937.29 947.296C948.71 947.367 948.56 946.481 959.89 946.496C958.52 946.618 956.51 947.225 962.27 947.286C964.91 946.992 973.95 945.868 983.97 945.63L985.89 945.792L993.58 945.595C988.8 946.041 975.37 946.982 968.03 947.352C972.3 947.478 969.22 947.549 975.62 947.524C977.88 947.676 972.13 947.767 970.25 947.777L985.14 947.858C984.48 947.519 996.53 947.504 995.96 947.22L979.79 947.595C979.13 947.256 989.14 946.618 999.69 946.663C1002.38 946.795 997.69 947.271 997.91 947.387C999.28 947.271 1007.92 947.149 1008.89 947.23L1004.41 947.418C1010.29 947.539 1014 946.952 1021.06 947.271C1023.5 947.291 1028.34 947.701 1028.76 947.499C1024.78 947.114 1024 945.914 1026.65 945.62C1027.5 945.646 1039.45 945.975 1042.23 946.162C1046.24 946.461 1036.21 946.896 1039.63 947.154C1039.78 947.063 1041.99 946.942 1042.92 946.906C1045.48 946.982 1041.86 947.195 1047.42 947.144C1048.35 946.8 1058.73 947.159 1050.05 946.851C1055.49 946.744 1055.83 946.916 1062.22 946.891C1060.19 946.673 1067.95 946.127 1073.4 946.02C1073.08 946.106 1074.3 946.223 1074.9 946.273C1086.05 946.289 1092.04 946.441 1102.43 946.43C1103.39 946.511 1108.41 946.608 1106.27 946.76C1107.76 946.699 1109.14 946.577 1112.35 946.567C1118.56 946.856 1105.2 946.623 1109.93 946.977C1110.33 946.775 1118.22 946.689 1122.79 946.557C1121.38 946.248 1112.24 946.511 1107.66 946.643C1107.64 946.218 1115.6 945.757 1126.46 945.544C1135.1 945.428 1130.21 945.818 1131.7 945.752C1147.92 945.808 1145.52 944.987 1158.99 945.281C1164.34 945.544 1159.23 945.823 1160.42 946.015C1153.38 946.127 1149.62 945.858 1144.85 945.873L1150.72 945.995C1148.48 946.086 1143.79 946.162 1141.23 946.086C1145.71 946.324 1168.64 946.096 1181.15 946.309C1183.37 946.213 1187.21 946.117 1185.39 946.01L1181.43 946.056C1177.79 945.843 1188.88 945.742 1183.87 945.646C1189.18 945.484 1195.13 945.236 1202.61 945.347L1204.02 945.656C1203.86 945.565 1199.13 945.479 1197.03 945.575C1200.15 945.433 1208.5 945.98 1211.91 945.57L1206.67 945.362C1212 945.2 1218.59 944.861 1225.22 944.952C1222.2 944.648 1223.69 944.987 1218.98 944.638C1223.06 945.079 1202.03 944.638 1208.59 945.104C1203.76 944.694 1200.23 944.937 1193.91 944.593C1194.11 944.694 1196.15 944.785 1190.59 944.744C1190.34 944.775 1189.75 944.815 1189.37 944.836C1189.2 944.836 1189.14 944.836 1188.99 944.831C1189.1 944.831 1189.18 944.836 1189.3 944.841C1189.06 944.856 1189.04 944.861 1189.41 944.841C1190.74 944.886 1191.81 944.937 1192.25 944.993C1189.49 945.23 1180.64 945.236 1177.65 945.362C1174.35 945.317 1179.03 945.241 1177.23 945.134L1172.76 945.322C1172.32 945.094 1163.99 944.957 1171.76 944.81H1164.76C1160.64 944.689 1154.97 944.643 1151.47 944.744C1148.17 944.699 1143.13 945.008 1146.01 944.825L1135.03 944.982L1134.93 944.927C1124.1 944.912 1112.63 945.332 1100.25 944.937C1096.6 944.998 1092.84 945.074 1086.73 945.018L1085.54 944.82C1080.86 944.896 1071.48 944.643 1069.47 944.851C1064.42 944.329 1046.75 944.765 1038.51 944.684L1038.2 944.942C1032.53 944.937 1027.1 945.013 1020.06 945.129L1020.49 945.357C1014.42 945.549 1004.89 945.215 995.3 945.251C995.95 945.165 998.39 945.185 1000.11 945.236C988.64 944.739 975.93 945.641 965.53 945.281C962.94 945.367 961.06 945.342 959.25 945.286C959.49 945.286 959.71 945.281 959.89 945.271C959.62 945.271 959.23 945.271 958.83 945.271C957.69 945.236 956.51 945.195 955.23 945.155C956.32 945.21 957.35 945.251 958.26 945.271C956.26 945.276 953.23 945.311 950.26 945.372L948.99 945.129C948.75 945.129 948.55 945.129 948.3 945.139C945.38 945.053 945.96 945.256 947.51 945.438C946.01 945.479 944.64 945.529 943.58 945.59C941.21 945.2 935.79 945.732 932.55 945.317C930.55 945.524 917.62 945.489 916.04 945.924C915.94 945.868 915.06 945.843 916.67 945.838C913.36 945.792 910.05 945.747 907.08 945.873L905.67 945.565L898.44 945.99C894.05 945.808 892.23 945.701 896.59 945.453C886.06 945.833 888.05 945.6 879.09 945.98L879.53 945.777C876.33 945.787 871.21 946.066 869.28 945.899C862.12 945.529 833.84 945.894 815.46 945.56C819.03 946.147 806.91 945.306 806.19 945.767C805.12 945.63 802.56 945.555 805.53 945.428C796.15 945.575 791.43 945.225 784.96 945.62C783.89 945.484 786.97 945.413 786.01 945.332C785.26 945.362 783.03 945.458 782.05 945.377C781.09 945.296 783.42 945.261 784.91 945.195C775.33 945.23 774.36 945.661 773.66 946.066C768.8 945.884 766.38 945.909 762.87 946.182C761.18 946.051 758.36 945.919 764.31 945.863C760.96 945.848 743.84 945.696 743.5 946.02C742.45 945.939 738.82 946 737.94 946.041C730.42 946.03 729.76 946 722.38 946.041L724.43 946.091C721.52 946.486 718.29 946.187 712.34 946.243L712.51 946.203C698.86 945.939 706.62 946.344 693.16 946.041L693.89 946.284C692.64 946.805 681.96 945.99 674.15 946.203L676.97 946.339C672.7 946.522 665.04 945.646 660.75 945.585C659.82 945.539 662.23 945.509 663.53 945.474C652.31 945.18 662.08 945.792 653.72 945.879C652.18 945.706 655.7 945.438 650.08 945.413C647.28 945.276 633.76 945.99 626.08 945.671C627.77 945.803 629.45 945.929 625.57 946.036C619.62 946.091 609.48 945.555 604.1 945.98C603.34 945.944 603.06 945.909 603.03 945.879C598.48 945.99 588.25 946.076 585.51 946.304C581.3 945.468 557.23 946.749 557.33 945.975L543.34 946.036L543.71 945.954C534.76 945.914 531.6 946.106 528.46 946.294C526.39 946.243 527.9 946.167 528.07 946.127C515 945.99 513.7 946.02 502.74 946.42L501.6 946.172C498.63 946.324 482.7 945.803 469.88 946.111C470.01 946.081 470.27 946.035 471.29 945.995C456.87 946.309 436.76 945.342 431.48 946.263L421.96 946.501C434.27 946.557 420.13 946.901 425.19 947.043C420.35 947.104 412.67 946.785 418.62 946.729L419.55 946.775C421.73 946.294 404.25 946.628 404.58 946.299C380.35 946.354 356.73 946.122 334.04 946.132L336.66 946.496L328.74 946.486C326.66 946.405 325.95 946.198 331.6 946.208C328.63 946 322.13 946.395 321.97 946.476C310.91 946.339 326.29 946.041 322.9 946.036L318.29 946.071L319.33 946.111C315.6 946.268 315.27 946.43 308.48 946.42C304.18 946.349 306.28 946.192 304.58 946.182C304.58 946.157 304.02 946.142 301.99 946.172L292.02 946.152L296.01 946.441C291.59 946.592 286.63 946.441 291.24 946.765C284.48 946.263 254.03 946.628 249.88 946.476C243.69 946.699 237.58 946.699 230.01 946.684C231.89 946.744 233.02 947.068 226.49 947.038C228.87 946.354 214.53 946.76 209.25 946.279C213.97 946.597 190.69 946.385 198.09 946.83C192.64 946.785 197.76 946.577 193.62 946.42C180.65 946.699 165.04 946.289 149.01 946.395C148.76 946.486 151.45 946.618 148.01 946.754L139.54 946.319C136.37 946.365 136.63 946.835 130.84 946.537C131.66 946.613 132.88 946.724 130.75 946.754C128.61 946.734 126.47 946.714 124.32 946.689C122.12 946.678 119.92 946.663 117.71 946.653C114.29 946.952 110.85 947.251 107.4 947.549C104.01 947.858 100.6 948.167 97.1899 948.476C90.3699 949.104 83.5299 949.732 76.6799 950.364C62.9799 951.61 49.2299 952.785 35.5399 953.65C39.8499 953.438 37.0199 953.711 33.7799 954.005C35.9099 953.858 33.8099 954.227 34.2599 954.308L20.9999 955.154C18.7199 955.696 6.9099 956.435 5.6499 956.875L9.7899 956.445C4.3799 957.311 17.8299 956.582 17.1799 957.129C23.2299 956.151 33.7499 956.293 43.7099 954.779C45.9899 954.678 41.8499 955.103 43.0899 955.108C45.5999 954.673 48.6999 954.354 54.4999 953.929L53.8699 954.04C70.0699 952.541 77.0899 952.121 95.3499 950.628L93.9199 950.511C97.8399 950.192 98.6899 950.192 100.55 950.091C104.92 949.332 89.5499 951.053 93.4999 950.293C95.4399 950.299 99.5799 949.98 104.25 949.58C106.58 949.377 109.05 949.159 111.44 948.952C112.64 948.851 113.81 948.749 114.94 948.648C116.02 948.562 117.05 948.476 118.02 948.4C118.76 948.41 119.46 948.42 120.11 948.43C120.8 948.445 121.44 948.461 122.01 948.481C123.15 948.521 124.01 948.577 124.51 948.653C130.62 948.653 122.72 948.38 128.83 948.375L130.45 948.521L131.99 948.324C136 948.349 138.02 948.537 138.17 948.663C137.2 948.648 135.41 948.704 134.36 948.714C139.56 948.886 149.02 948.633 150.8 948.689L144.92 948.602C161.61 948.44 181.98 948.613 198.1 948.283L196.88 948.172C209.19 947.944 206.74 948.283 220.26 948.172L219.77 948.197C222.47 948.081 226.09 948.02 229.79 948.025C226.38 948.162 236.21 948.273 231.74 948.425C245.09 948.182 238.34 948.238 247.16 947.808L249.19 947.995C252.19 947.823 252.44 947.732 259.19 947.676C253.65 947.843 263.5 947.954 257.3 948.177C271.47 948.572 278.33 947.737 284.83 948.329C291.33 947.802 272.57 948.056 276.21 947.939C273.16 947.772 281.58 947.544 286.02 947.59C290.55 947.595 293.72 948.243 305.1 948.223C303.97 948.223 303.89 948.263 302.76 948.258C307.02 948.385 311.11 948.066 316.33 948.278C319.26 947.959 323.11 948.289 323.96 947.883L313.52 947.99C319.44 947.878 324.99 947.403 334.74 947.615C333.98 947.696 331.08 947.808 329.09 947.868C331.94 947.985 334.58 947.782 337.54 947.899C336.7 948.299 324.85 948 318.51 948.314C321.57 948.481 330.51 948.01 327.32 948.446C331.9 947.889 338.54 948.501 346.24 948.071L345.73 948.314C346.95 948.273 349.48 948.157 351.72 948.162L347.66 948.481C353.9 948.208 359.69 948.699 365.68 948.547C353.15 948.572 362.87 948.263 357.57 948.091C373.03 947.752 366.46 948.709 383.77 948.572C381.43 948.608 374.97 948.44 378.64 948.324C381.93 948.37 386.29 948.456 388.31 948.582C399.78 948.516 386.55 948.339 391.43 948.182C395.34 948.471 397.06 948.056 402.09 947.954L402.13 948.197C415.2 948.339 405.59 947.686 417.36 947.858L412.39 948.202L418.52 948.106L417.26 948.385C423.93 948.172 426.01 948.223 432.55 948.289C431.03 948.116 433.4 947.843 439.19 947.828C443.14 947.97 436.98 948.061 445.18 948.015C443.33 948.172 441.3 948.364 437.73 948.147C437.36 948.228 435.9 948.304 435.53 948.38C439.78 948.542 446.21 948.405 449.18 948.395C448.04 948.39 446.67 948.375 445.97 948.344L457.86 947.99C459.73 948.081 458.25 948.157 456.78 948.228C459.19 948.197 460.85 948.081 464.4 948.056C463.48 948.253 463.71 948.461 458.69 948.562L470.02 948.329C470.78 948.415 475.84 948.557 474.37 948.633C480.65 948.739 489.78 948.228 498.11 948.37C498.54 948.329 499.41 948.294 501.18 948.263C509.01 948.299 515.94 948.532 525.22 948.248L530.49 948.597C537.76 948.506 523.36 948.157 535.46 948.01C544.02 947.883 538.66 948.309 541.66 948.405C545.92 948.223 553.32 947.843 561.19 948.127C558.59 948.197 556.54 948.147 554.11 948.177L554.06 948.167ZM643.66 947.894C641.92 947.949 638.46 948.111 637.19 947.97C639.17 947.686 640.7 947.818 643.66 947.894ZM779.88 947.129C778.59 947.21 776.59 947.175 774.34 947.084C775.97 947.063 777.83 947.068 779.88 947.129ZM1159.33 944.937C1159.26 944.937 1159.21 944.947 1159.14 944.947C1155.27 944.856 1156.64 944.891 1159.33 944.937ZM1167.37 945.033C1168.18 944.998 1168.12 944.962 1167.78 944.932C1167.22 944.993 1165.41 945.003 1163.36 944.987C1163.93 945.048 1164.97 945.094 1167.37 945.038V945.033ZM303.68 946.248L305.25 946.309C301.72 946.385 302.71 946.319 303.68 946.248Z" fill="#FFD264"/>
<path d="M764.44 947.483C763.95 947.443 763.81 947.397 763.7 947.352C763.02 947.392 763 947.443 764.44 947.483Z" fill="#FFD264"/>
<path d="M498.33 948.367H498.06C497.91 948.377 497.83 948.393 497.79 948.408L498.34 948.367H498.33Z" fill="#FFD264"/>
<path d="M1042.8 947.266C1041.14 947.231 1040.22 947.19 1039.61 947.145C1039.52 947.205 1040.27 947.256 1042.8 947.266Z" fill="#FFD264"/>
<path d="M1209.99 944.562L1204.84 944.633C1207.33 944.618 1208.22 944.669 1209.48 944.709C1209.37 944.654 1208.38 944.573 1209.99 944.562Z" fill="#FFD264"/>
<path d="M1254.71 946.014C1255.46 945.984 1256.31 946.009 1257.05 945.979L1256.84 945.867C1253.63 945.877 1251.39 945.974 1254.71 946.019V946.014Z" fill="#FFD264"/>
<path d="M1214.76 945.369C1215.17 945.577 1218.4 945.501 1222.01 945.456C1221.79 945.456 1221.59 945.456 1221.37 945.456C1222.43 945.167 1218.59 945.268 1214.76 945.364V945.369Z" fill="#FFD264"/>
<path d="M1222.85 945.449C1223.96 945.439 1225.1 945.434 1226.19 945.439C1226.61 945.322 1224.84 945.419 1222.85 945.449Z" fill="#FFD264"/>
<path d="M1177.57 944.883C1179.28 944.934 1178.64 944.62 1179.61 944.701C1181.52 944.438 1168.2 945.03 1177.57 944.883Z" fill="#FFD264"/>
<path d="M1217.69 946.042L1216.39 945.789L1214.37 945.997L1217.69 946.042Z" fill="#FFD264"/>
<path d="M1189.19 945.89L1194.96 945.95C1194.87 945.91 1195.61 945.884 1196.5 945.864C1192.95 945.864 1189.05 945.814 1189.19 945.89Z" fill="#FFD264"/>
<path d="M1196.51 945.863C1198.36 945.863 1200.12 945.858 1201.15 945.812C1200.15 945.812 1197.99 945.828 1196.51 945.863Z" fill="#FFD264"/>
<path d="M1209.81 946.128L1208.1 946.078L1204.03 946.062L1209.81 946.128Z" fill="#FFD264"/>
<path d="M1127.21 945.918L1120.92 945.999C1120.28 946.085 1121.99 946.136 1124.34 946.1C1125.85 946.039 1128.18 945.999 1127.22 945.918H1127.21Z" fill="#FFD264"/>
<path d="M1146.24 946.594C1144.54 946.543 1144.42 946.487 1143.46 946.406L1143.27 946.72L1146.24 946.594Z" fill="#FFD264"/>
<path d="M1127.89 946.688C1127.26 946.774 1118.76 946.951 1126.73 946.92C1127.37 946.834 1133.67 946.753 1127.89 946.688Z" fill="#FFD264"/>
<path d="M1033.07 946.416L1034.67 946.406L1034.43 945.895L1033.07 946.416Z" fill="#FFD264"/>
<path d="M949.5 947.757C956.96 947.868 951.27 947.438 958.01 947.579C959.76 947.453 952.5 947.463 954.3 947.352C949.8 947.488 947.44 947.417 949.51 947.752L949.5 947.757Z" fill="#FFD264"/>
<path d="M954.29 947.351C955.01 947.325 955.77 947.3 956.59 947.27C955.29 947.305 954.67 947.33 954.29 947.351Z" fill="#FFD264"/>
<path d="M12.0998 955.664L7.33984 955.978L10.4498 955.877L12.0998 955.664Z" fill="#FFD264"/>
<path d="M3.16996 956.852L1.93996 956.629L-0.790039 957.176C0.269961 957.064 2.32996 956.852 3.16996 956.852Z" fill="#FFD264"/>
<path d="M656.99 948.538L657.36 948.457C656.62 948.371 655.49 948.366 653.25 948.355L657 948.533L656.99 948.538Z" fill="#FFD264"/>
<path d="M591.95 948.375L593.07 948.38L590.98 948.086L591.95 948.375Z" fill="#FFD264"/>
<path d="M537.37 948.824C539.6 948.834 542.22 948.763 544.45 948.773C539.59 948.834 536.76 948.454 537.37 948.824Z" fill="#FFD264"/>
</g>
<g clip-path="url(#clip2_271_1662)">
<path d="M396.31 600.04C326.82 524.2 230.36 528.25 157.22 596.68C91.34 657.68 61.68 759.52 98.57 843.51C127.16 911.02 189.12 957.65 253.94 987.98C286.37 1004.57 320.86 1017.64 355.58 1028.73C301.99 1016.54 248.44 998.81 201.84 968.73C154.84 939.25 113.05 898.41 91.2 846.63C52.98 759.61 83.46 654.01 151.74 590.83C192.14 552.55 249.58 527.61 305.68 538.82C342.28 547.06 373.8 570.57 396.3 600.02L396.31 600.04Z" fill="black"/>
<path d="M348.8 1028.36C331.89 1023.27 316.42 1018.83 298.52 1011.89C-130.82 845.591 183.18 428.771 367.52 568.531C388.44 584.401 417.75 581.071 434.51 560.991L450.07 542.351C452.99 538.861 456.36 535.781 460.1 533.241C510.01 499.341 558.77 470.231 604.9 452.051C606.44 451.441 608.3 451.241 609.41 450.001C681.17 369.671 811.12 348.471 940.26 345.701C967.28 345.121 993.04 356.131 999.62 382.901L1066.44 654.691C1068.67 663.761 1068.38 673.251 1065.61 682.121L977.38 964.591C971.62 983.031 956.05 996.121 954.3 1022.67" fill="white"/>
<path d="M296.41 488.281L206.31 502.471L144.93 590.901L186.28 608.421L246.72 537.211H308.93L226.93 615.511L263.41 635.931L353.15 566.711L296.41 488.281Z" fill="white"/>
<path d="M311.63 533.76C301.65 543.79 281.56 563.89 271.52 573.84C261.48 583.77 241.23 603.77 231.16 613.66L230.71 610.14L267.46 630.07L264.43 630.29C286.58 612.77 331.35 577.71 353.61 560.34L352.88 565.4C345.7 555.68 331.46 536.07 324.35 526.3L295.91 487.14L299.74 488.73C274.6 492.68 235.06 498.89 209.62 502.81L212.19 501.2C192.87 528.84 169.75 561.73 150.29 589.27L148.9 584.48L190.08 602.41L186.88 603.17C205.23 582.15 230.61 552.95 248.81 532.35C264.62 532.65 295.82 533.33 311.63 533.75C296.11 534.17 264.93 534.85 249.42 535.14L250.48 534.65C233.35 555.6 208.61 585.62 191.1 606.76L189.82 608.31L187.9 607.52L146.38 590.4L142.75 588.9C151.36 576.22 166.68 553.83 175.37 541.17C183.45 529.43 198.66 507.17 206.77 495.45L208.41 495.19L253.45 488.01C265.86 486.06 288.49 482.42 300.91 480.52C317.44 503.67 342.55 538.09 358.82 561.09L360.9 564C336.29 582.78 291.04 617.14 266.31 635.77C263.95 634.41 227.91 613.59 225.94 612.46C252.78 587.55 284.47 558.32 311.63 533.74V533.76Z" fill="black"/>
<path d="M1441.46 676.412V1026.17H950.96C967.02 975.322 1039.52 722.402 997.25 420.602C993.59 394.492 989.08 368.012 983.59 341.262L1047.78 388.242L1076.99 409.622L1441.46 676.412Z" fill="white"/>
<path d="M1441.81 676.231C1440.94 677.651 1443.55 1026.33 1442.92 1027.63C1442.79 1028.96 951.54 1027.94 950.95 1028.89H947.25C956.25 1000.28 963.75 971.161 970.36 941.901C1007.91 773.471 1016.95 598.251 993.9 427.131C989.75 395.171 984.08 363.331 977.53 331.781L985.98 337.991C1130.8 444.241 1297.79 568.311 1441.81 676.231ZM1441.1 676.591C1294.65 571.971 1126.3 450.371 981.19 344.531L987.55 340.451C999.28 397.141 1006.93 454.651 1010.85 512.381C1020.5 656.631 1008.09 802.301 976.05 943.211C969.55 971.401 962.24 999.391 953.55 1026.99L950.96 1023.45L1441.46 1024.7L1439.99 1026.17L1441.1 676.591Z" fill="black"/>
<path d="M1441.46 3V284.34L1180.3 395.4L1076.99 409.62L1065.29 411.23L997.25 420.6L971.61 424.13L859.92 341.09L838.31 325.02C873.77 242.92 778.62 217.82 778.62 217.82L803.22 3H1441.46Z" fill="#286FFF" stroke="black" stroke-width="8" stroke-miterlimit="10"/>
<path d="M1441.46 119.258V905.168L1065.29 411.228L1047.78 388.238L969.49 285.448L964.7 279.158C964.7 279.158 1003.32 229.818 1093.06 185.898C1169.51 148.468 1283.07 114.968 1441.46 119.258Z" fill="white"/>
<path d="M1441.43 104.541C1431.43 104.301 1417.76 103.721 1407.99 103.901C1391.74 103.911 1373.98 104.401 1357.9 105.661C1342.4 106.761 1323.38 108.721 1308.12 111.121C1303.19 111.871 1296.42 112.771 1291.64 113.691C1288.21 114.371 1274.14 116.821 1271.15 117.541C1250.83 121.781 1230.46 127.031 1210.64 133.151C1156.98 149.791 1106.05 174.641 1058.49 204.371C1033.38 220.221 1008.93 237.871 986.23 257.021C980.28 262.161 973.26 268.241 967.54 273.671C963.48 277.471 959.45 281.341 955.63 285.371L955.01 284.861C956.72 282.631 958.5 280.481 960.3 278.321C985.96 248.631 1016.54 223.251 1048.97 201.261C1088.37 174.271 1132.04 153.891 1176.95 137.951C1205.83 127.791 1236.08 119.561 1266.13 113.791C1268.24 113.391 1272.21 112.521 1274.38 112.201C1283.73 110.601 1298.21 108.221 1307.59 107.161C1326.03 104.691 1347.51 103.211 1366.11 102.391C1385.1 101.891 1405.78 101.711 1424.76 102.841L1441.49 103.741L1441.44 104.541H1441.43Z" fill="black"/>
<path d="M616.57 693.031C616.57 693.031 616.5 693.061 616.47 693.081C616.5 693.061 616.54 693.051 616.57 693.031Z" fill="white"/>
<path d="M1007.05 313.551C979.04 321.781 950.63 328.731 922.06 334.961C864.72 345.181 806.77 351.571 750.33 366.071C654.95 390.041 570.01 442.891 490.77 499.601C480.56 507.071 465.69 517.801 455.67 525.531C431.47 543.401 400.21 564.941 375.73 582.891C394.23 566.301 414.54 548.711 433.66 532.701C441.82 525.691 451.05 518.911 459.58 512.521C544.55 449.821 634.83 389.521 737.69 361.161C755.23 356.361 773.38 352.111 791.22 348.711C862.98 335.321 935.11 325.831 1007.05 313.561V313.551Z" fill="black"/>
<path d="M74.4101 917.828C93.5801 925.068 114.17 928.788 134.65 928.378C142.24 928.278 149.87 927.208 157.39 926.238C170.17 924.888 182.86 922.888 195.7 921.668L195.94 922.428C191.32 925.038 186.48 927.158 181.5 928.968C171.53 932.478 161.05 934.848 150.44 935.078C145.14 935.248 139.83 935.038 134.54 934.778C125.33 934.308 116.09 933.068 107.14 930.868C95.6701 928.118 84.4601 923.958 74.0901 918.558L74.4201 917.828H74.4101Z" fill="black"/>
<path d="M102.53 944.039C121.7 951.279 142.29 954.999 162.77 954.589C170.36 954.489 177.99 953.419 185.51 952.449C198.29 951.099 210.98 949.099 223.82 947.879L224.06 948.639C219.44 951.249 214.6 953.369 209.62 955.179C199.65 958.689 189.17 961.059 178.56 961.289C173.26 961.459 167.95 961.249 162.66 960.989C153.45 960.519 144.21 959.279 135.26 957.079C123.79 954.329 112.58 950.169 102.21 944.769L102.54 944.039H102.53Z" fill="black"/>
<path d="M135.2 970.238C154.37 977.478 174.96 981.198 195.44 980.788C203.03 980.688 210.66 979.618 218.18 978.648C230.96 977.298 243.65 975.298 256.49 974.078L256.73 974.838C252.11 977.448 247.27 979.568 242.29 981.378C232.32 984.888 221.84 987.258 211.23 987.488C205.93 987.658 200.62 987.448 195.33 987.188C186.12 986.718 176.88 985.478 167.93 983.278C156.46 980.528 145.25 976.368 134.88 970.968L135.21 970.238H135.2Z" fill="black"/>
<path d="M806.4 515.761C782.76 508.831 754.48 458.731 794.07 426.201C830.84 395.991 877.31 426.991 895.95 461.071" fill="white"/>
<path d="M806.4 515.761C796.6 513.711 788.68 506.571 782.67 498.841C766.33 477.401 766.03 447.801 785.54 428.021C814.38 397.851 854.49 408.091 880.01 436.541C886.58 443.901 892.17 452.121 895.95 461.081C890.44 453.101 884.08 445.891 876.92 439.671C856.99 421.801 826.6 409.681 802.32 425.771C794.86 430.561 788.25 437.061 783.84 444.751C774.56 460.721 777.1 480.761 786.33 496.381C791.07 504.401 797.65 512.001 806.38 515.771L806.4 515.761Z" fill="black"/>
<path d="M652.43 1028.74C655.9 1016.22 651.92 1004.48 637.51 995.098C582.97 963.018 513.76 1000.27 505.87 1026.16" fill="white"/>
<path d="M652.43 1028.74C651.5 1016.56 647.65 1008.66 638.98 1000.34C638 999.38 637.01 998.4 636 997.45C633.98 996.27 631.9 995.08 629.79 994.05C601.89 980.05 568.11 982.91 540.29 995.91C527.31 1002.15 511.25 1012.21 505.87 1026.17C510.52 1011.65 526.35 1000.78 539.27 993.85C569.22 978.19 607.39 975.06 637.58 991.95C639.35 992.98 641.46 993.81 643.18 994.93C654.73 1001.72 660.96 1017.15 652.43 1028.73V1028.74Z" fill="black"/>
<path d="M943.69 1052.35L1012.21 439.551L1149.77 518.391L943.69 1052.35Z" fill="black"/>
<path d="M651.91 675.45C650.03 675.99 648.63 675.22 647.14 674.15C610.89 646.6 557.73 594.48 558.65 540.59C559.01 512.63 574.44 483.9 603.46 479.01C617.25 476.41 632.64 478.99 642.71 489.19C656.19 502.46 660.72 529.28 668.46 549.52C673.31 562.56 679.79 575.21 686.95 587.22C694.3 599.44 703.21 612.21 713.81 620.27C717.94 623.43 722.07 625.59 724.31 627.36C727.45 629.58 725.93 631.81 722.95 633.88C705.83 644.86 677.15 661.03 661.86 670.33C658.6 672.2 655.2 674.42 651.98 675.44L651.92 675.46L651.91 675.45Z" fill="#00A399"/>
<path d="M652.03 675.881C648.89 676.821 646.42 674.051 644.12 672.421C637.25 667.211 630.55 661.821 623.88 656.341C588.68 627.591 553.25 587.841 556.21 539.341C557.82 516.241 569.03 491.871 590.65 481.381C606.76 473.951 627.59 473.371 642.16 484.551C651.8 492.001 657.14 503.751 661.28 514.801C665.28 525.561 668.29 536.651 672.42 547.231C676.42 557.741 681.45 567.761 686.95 577.561C695.07 591.721 704.15 606.831 716.68 616.971C718.75 618.621 720.98 620.131 723.4 621.751C725.76 623.591 728.6 624.751 729.71 628.391C730.97 634.291 724.63 637.151 720.53 639.451C708.03 646.401 694.99 652.921 682.42 659.601C677.34 662.261 672.31 665.011 667.32 667.821C662.83 670.211 656.9 674.301 652.03 675.891V675.881ZM651.79 675.011C657.06 673.101 661.81 669.551 666.64 666.671C671.5 663.621 676.36 660.591 681.17 657.461C690.53 651.421 700.69 644.741 709.84 638.471L716.9 633.631C719.07 632.071 722.11 630.171 722.35 629.381C722.35 629.351 722.32 629.371 722.24 629.581C722.19 629.761 722.15 630.121 722.22 630.381C722.35 630.921 722.47 630.891 722.18 630.711C718.82 628.441 714.91 626.511 711.42 623.931C690.79 608.861 672.57 574.261 663.97 550.371C658.18 534.331 655.09 517.301 647.58 502.061C643.93 494.831 638.97 488.501 631.77 484.791C619.65 478.461 604.41 478.831 591.93 484.151C571.01 493.351 560.66 517.561 561.17 539.481C562.15 573.571 582.26 603.111 602.56 629.221C613.23 642.581 625.04 655.111 638.07 666.211C640.24 668.071 642.47 669.871 644.7 671.661C646.81 673.151 648.99 675.811 651.79 675.011Z" fill="black"/>
<path d="M1044.39 308.809L1052.36 334.609C1008.22 337.369 990.86 342.559 988.97 337.609L1044.4 308.809H1044.39Z" fill="#F2E03D"/>
<path d="M1248.14 297.458C1256.85 297.458 1263.92 290.393 1263.92 281.678C1263.92 272.963 1256.85 265.898 1248.14 265.898C1239.42 265.898 1232.36 272.963 1232.36 281.678C1232.36 290.393 1239.42 297.458 1248.14 297.458Z" fill="black"/>
<path d="M1346.05 266.06C1354.77 266.06 1361.83 258.995 1361.83 250.28C1361.83 241.565 1354.77 234.5 1346.05 234.5C1337.33 234.5 1330.27 241.565 1330.27 250.28C1330.27 258.995 1337.33 266.06 1346.05 266.06Z" fill="black"/>
<path d="M1148.99 336.208C1157.71 336.208 1164.77 329.143 1164.77 320.428C1164.77 311.713 1157.71 304.648 1148.99 304.648C1140.27 304.648 1133.21 311.713 1133.21 320.428C1133.21 329.143 1140.27 336.208 1148.99 336.208Z" fill="black"/>
<path d="M713.04 518.578C713.04 518.578 781.72 490.838 785.11 529.008C785.11 529.008 788.62 569.288 722.89 545.128C722.89 545.128 716.17 596.868 671.7 564.478C671.7 564.478 675.43 589.338 660.03 583.508C660.03 583.508 697.67 620.158 683.71 654.728C680.87 661.758 672.44 664.638 665.89 660.838C653.62 653.718 633.52 635.888 615.01 591.538C615.01 591.538 577.06 587.698 584.52 622.028C584.52 622.028 603.92 645.978 577.8 632.308C577.8 632.308 512.56 621.348 525.6 561.508C525.6 561.508 558.41 456.248 607.48 470.598C607.48 470.598 694.23 433.078 690.55 498.608C690.55 498.608 712.35 497.668 713.04 518.578Z" fill="#286FFF"/>
<path d="M582.02 246.451L447.64 154.301L288.61 159.121L140.28 400.861L207.18 430.171C207.18 430.171 342.86 685.101 462.84 658.651C462.84 658.651 529.98 647.731 547.31 535.611C575.57 586.721 642.34 542.421 649.22 480.571C652.06 404.701 834.03 326.641 834.03 326.641C863.82 260.391 808.04 226.771 773.98 220.981L582.01 246.451H582.02Z" fill="white"/>
<path d="M203.96 429.091C224.6 458.981 246.9 487.621 270.23 515.341C313.01 568.881 415.84 686.601 488.98 627.471C519.58 602.881 535.13 564.581 545.46 527.641L550.27 532.911C560.29 544.301 576.3 549.871 590.79 544.571C613.28 536.351 625.71 512.721 633.22 491.171C635.16 485.521 636.81 479.611 638.21 473.781C644.93 437.741 670.34 408.961 698.68 387.451C712.04 377.461 725.96 368.121 740.92 360.731C770.59 346.031 801.91 334.511 834.03 326.621C803 337.231 772.8 350.861 744.5 367.341C738.02 371.311 729.79 375.991 723.54 379.911C688.68 402.141 653.98 433.191 646.02 475.511C644.55 481.631 642.84 487.791 640.79 493.751C632.51 517.601 618.6 543.031 593.38 552.131C575.87 558.481 556.44 552.001 544.36 538.291L551.16 536.701C547.65 548.791 543.48 560.721 538.4 572.311C528.08 595.501 514.14 617.761 493.92 633.741C414.57 696.521 311.59 578.991 263.81 520.451C241.95 491.361 221.85 460.741 203.95 429.071L203.96 429.091Z" fill="black"/>
<path d="M306.06 158.542C306.06 158.542 371.13 197.772 447.65 160.822C447.65 160.822 331.36 -55.3185 228.74 70.8916L-45 407.002L71.6 366.512L49.45 429.462L107.85 401.092L107.13 461.582C167.57 418.352 280.2 234.792 306.07 158.542H306.06Z" fill="#282827"/>
<path d="M107.12 461.569C124.18 445.079 140.24 427.739 155.15 409.349C160.07 403.219 164.87 397.019 170.02 391.079C230.31 317.689 266.61 228.699 295.42 139.029L297.56 132.709C303.08 138.849 309.37 144.829 315.93 149.859C350.89 177.389 395.61 188.559 436.84 168.139L435.04 173.599C432.4 168.669 429.49 163.679 426.54 158.799C414.71 139.229 401.41 120.539 386.53 103.189C358.84 70.2786 318.63 32.6786 272.07 44.0786C255.32 48.3686 240.84 58.6586 228.75 70.8886C240.28 58.0186 254.58 46.7686 271.39 41.6686C319.25 27.7686 362.71 64.6986 392.69 97.8886C412.49 121.179 429.66 146.589 444.09 173.539C405.49 193.779 363.73 189.619 327.13 167.279C315.91 160.439 305.44 152.479 296.27 143.029L303 141.609C272.79 236.049 233.86 329.319 168.67 405.359C149.85 425.839 129.26 444.729 107.14 461.579L107.12 461.569Z" fill="black"/>
<path d="M413.28 190.551C401.29 4.79091 684.28 223.391 589.07 256.291C502.28 282.031 421.98 142.781 559.12 209.871" fill="white"/>
<path d="M413.28 190.551C407.46 142.301 425.34 104.741 479.85 115.281C518.36 123.601 555.63 148.871 582.64 177.051C600.08 195.271 629.18 235.271 599.07 254.791C593.92 258.001 587.93 259.731 582.08 260.781C553.08 266.101 522.93 254.561 501.92 234.641C493.81 226.621 485.5 216.801 484.06 205.051C483.28 198.271 487.3 192.661 494.01 191.151C513.01 187.021 542.07 201.411 559.12 209.861C548.81 205.081 538.32 200.661 527.51 197.261C519.46 194.751 511.18 192.621 502.74 192.451C488.79 192.141 483.08 199.461 489.16 212.461C499.89 233.781 525.45 249.791 548.28 254.931C563.13 258.191 582.8 258.051 595.89 249.821C616.18 236.131 599.18 209.351 587.92 195.001C561.41 160.631 491.38 109.651 446.22 121.441C417.05 129.481 412.77 164.741 413.29 190.551H413.28Z" fill="black"/>
<path d="M70.6599 367.431C111.69 330.861 142.2 285.241 171.67 239.281C150.04 288.631 116.52 337.881 70.6599 367.431Z" fill="black"/>
<path d="M106.74 402.179C135.72 374.329 159.97 342.659 186.27 312.379C167.79 346.299 139.95 381.829 106.74 402.179Z" fill="black"/>
<path d="M428.84 316.859C444.74 326.859 467.04 345.329 485.33 346.949C493.49 347.719 500.59 341.379 501.83 333.469C502.71 328.189 501.07 322.399 497.97 317.419C491.33 306.899 480.34 300.229 468.79 295.879C478.27 297.289 487.76 301.069 495.27 307.289C506.21 315.909 513.09 332.039 504.24 344.579C484.41 371.639 443.84 333.249 428.83 316.859H428.84Z" fill="black"/>
<path d="M856.66 328.84C869.46 298.73 874.06 261.71 854.33 233.72C841.06 214.77 820.8 203.02 799.86 193.57C818.9 198.4 837.95 207.53 851.88 221.91C880.87 251.03 877.6 296.1 856.65 328.84H856.66Z" fill="black"/>
<path d="M939.33 155.08L891.96 71.6099C941.64 49.5199 1011.33 17.5699 1031.28 62.3299C1041.42 85.0799 1019.67 120.88 939.34 155.08H939.33Z" fill="#FF7211"/>
<path d="M939.32 155.131C939.43 154.781 890.99 71.4606 891.86 71.3906C922.82 57.9706 963.18 37.9406 997.21 39.5306C1013.81 40.4206 1027.31 48.9906 1032.81 65.0506C1036.7 77.3006 1031.04 90.1506 1023.6 99.8306C1003.84 125.101 968.49 142.781 939.32 155.121V155.131ZM939.35 155.031C969.82 141.381 1010.58 121.211 1027.83 91.5806C1034.15 80.4906 1035.34 68.0506 1027.91 57.1806C1021.42 46.3706 1009.43 41.0606 997.15 40.3706C963.37 38.6506 922.9 58.5806 892.06 71.8306C891.8 70.1506 939.4 155.401 939.35 155.031Z" fill="#FF7211"/>
<path d="M873.43 56.9998L941.33 164.53L960.77 161.77L900.66 52.3398L873.43 56.9998Z" fill="#FF7211"/>
<path d="M268.26 306.391C279.2 330.471 287.83 355.341 295.89 380.461C303.76 405.641 311.01 430.951 315.9 456.941C304.94 432.871 296.31 407.991 288.27 382.871C280.41 357.691 273.16 332.371 268.26 306.391Z" fill="black"/>
<path d="M348.66 324.488C350.8 333.778 350.66 343.558 350.31 353.038C349.35 372.018 346.12 390.758 341.36 409.128C338.91 418.308 336.12 427.398 332.5 436.198C332.56 433.798 332.72 431.428 332.9 429.058C335.79 393.878 343.51 359.368 348.66 324.498V324.488Z" fill="black"/>
<path d="M828.98 562.548C816.37 572.338 799.23 575.788 783.07 576.368C759.86 577.208 750.03 562.218 729.31 547.358C643.91 486.098 593.66 564.048 568.65 611.798C554.07 639.648 544.95 656.188 524.5 663.328C493.94 673.978 466.47 659.038 466.47 659.038" fill="white"/>
<path d="M828.98 562.548C818.18 571.728 803.99 575.868 790.12 577.558C785.37 578.098 780.62 578.608 775.83 578.178C761.06 577.208 749.29 567.058 738.31 558.278C693.8 522.438 649.25 515.008 607.91 560.018C592.43 576.878 580.51 596.728 569.79 616.928C558.14 637.948 546.76 660.558 521.28 666.488C502.89 671.148 482.92 668.068 466.47 659.048C470.72 660.938 475.15 662.338 479.63 663.408C484.11 664.498 488.67 665.218 493.24 665.538C506.74 666.508 520.75 664.088 532.32 657.118C543.9 649.848 550.89 637.978 557.4 626.058C574.37 592.888 592.15 557.618 623.65 535.708C659.65 510.838 698.07 520.028 731.22 544.608C738.86 550.258 745.73 556.718 752.78 562.458C759.71 568.138 767.31 572.898 776.29 574.048C780.74 574.698 785.32 574.558 789.81 574.308C803.52 573.488 817.49 570.478 828.96 562.548H828.98Z" fill="black"/>
<path d="M780.27 637.661C772.29 650.351 760.26 653.301 748.6 652.221C731.86 650.671 751.73 638.401 734.39 616.371C657.47 518.641 576.79 621.371 554.29 648.631C518 692.601 585.35 739.561 571.36 747.461C550.46 759.261 528.74 734.311 528.74 734.311L780.27 637.661Z" fill="white"/>
<path d="M1441.46 87.77L1071.2 326.64L1074.65 385.01C1060.7 450.39 1024.6 527.65 991.99 588.58C959.39 649.5 930.27 694.08 930.27 694.08L888.15 669.99C888.15 669.99 941.84 582.89 960.12 515L837.06 637.6L782.04 603.33C833.53 537.74 868.17 459.89 885.83 369.67L814.08 448.22L782.04 381.14L916.26 298L1000.17 266.06L1269.64 3H1441.46V87.77Z" fill="white"/>
<path d="M919.47 686.418L852.12 650.958L955.91 408.338L884.16 486.888L891.96 423.688L986.34 336.668L1070.25 304.738L919.47 686.418Z" fill="white"/>
<path d="M897.65 670.88C900.34 667.57 902.77 663.24 905.01 659.55C908.74 653.05 912.25 646.29 915.48 639.54C926.09 618 933.77 594.94 940.77 572.05C944.62 560.62 947.86 548.99 951.78 537.57L952.27 537.67C950.4 555.8 946.31 573.73 940.02 590.84C935.81 601.99 930.95 613.6 925.9 624.43C920.09 636.63 913.49 648.93 906.12 660.24C903.65 663.88 901.01 667.99 898.01 671.24L897.66 670.89L897.65 670.88Z" fill="black"/>
<path d="M1280.68 3.28875C1248.12 38.4587 1214.02 72.6188 1179.82 106.189C1145.51 139.789 1109.14 171.249 1075.11 205.139C1051.8 227.609 1029.79 251.699 1006.64 274.199C982.12 284.479 946.69 298.499 921.71 308.609C914.53 313.289 899.9 321.869 890.29 327.769C858.11 347.039 825.73 365.989 793.14 384.569L794.33 381.319L799.49 397.969C803.19 409.909 808.48 427.759 812.04 439.709L814.45 448.089L813.69 448.349C807.88 433.519 800.68 414.449 795.11 399.459C794.63 398.259 788.68 381.889 788.35 381.089C799.51 373.909 810.78 366.899 821.99 359.809C853.92 339.879 885.97 320.129 918.38 300.979C943.85 291.269 979.2 277.749 1004.4 268.479C1034.33 239.809 1075.47 202.739 1107.47 169.549C1135.36 140.849 1163.02 111.899 1192.07 84.3688C1212.07 65.0688 1232.82 45.5788 1253.29 26.7888C1261.64 19.1788 1271.58 10.1687 1280.12 2.71875L1280.68 3.28875Z" fill="black"/>
<path d="M789.28 601.199C807.09 577.979 825.16 554.889 839.08 529.159C841.38 525.019 844.31 519.269 846.22 515.029C847.18 512.969 848.7 509.929 849.51 507.839C850.52 505.379 853.05 499.229 854.02 496.869C854.87 494.509 857.1 488.119 857.95 485.669C860.44 478.199 862.69 470.529 864.55 462.869C866.84 454.129 869.89 440.939 871.97 432.049C876.69 411.609 880.68 390.019 885.42 369.629L886.21 369.719C886.12 375.079 885.83 380.419 885.55 385.779C884.93 396.389 883.77 407.269 882.34 417.759C880.71 428.889 878.23 442.589 875.5 453.359C873.07 462.259 870.21 471.709 867.06 480.349C865.68 484.739 863 491.119 861.29 495.449C860.53 497.479 859.05 500.929 858.12 502.879C857.53 504.169 854.46 510.919 853.93 512.069C851.8 516.139 849.55 520.569 847.39 524.609C844.97 528.609 841.7 534.619 839.12 538.459C838.53 539.339 834.2 546.059 833.64 546.909C826.49 557.259 818.54 567.559 810.56 577.269C804.63 584.629 796.07 594.469 789.87 601.709L789.25 601.199H789.28Z" fill="black"/>
<path d="M897.82 671.061L930.7 693.471L929.66 693.631C963.43 647.411 993.17 598.291 1018.02 546.741C1042.45 497.221 1064.24 436.321 1078.77 387.921L1076.25 308.941L1076.18 306.731C1107.09 286.701 1138.14 266.891 1169.16 247.031C1259.18 189.621 1353.3 130.141 1444.48 74.6914C1356.18 134.571 1262.95 195.521 1173.34 253.541C1143.02 273.111 1112.72 292.711 1082.29 312.121L1084.09 308.701L1086.44 387.691L1086.46 388.321C1069.9 443.611 1049.15 497.731 1023.15 549.281C997.33 600.631 966.29 649.331 930.87 694.551L930.41 695.141L929.83 694.711L897.82 671.071V671.061Z" fill="black"/>
<path d="M839.99 634.521C822.46 624.661 805.6 613.621 789.59 601.461C807.12 611.311 823.97 622.371 839.99 634.521Z" fill="black"/>
<path d="M903.45 500.801C903.45 500.801 895.96 576.841 837.06 637.601L898.25 666.861" fill="white"/>
<path d="M903.74 500.83C897.68 551.93 874.49 602.18 839.29 639.77L838.4 634.79C848.27 639.53 858.95 644.99 868.67 650.1C878.68 655.4 888.64 660.78 898.37 666.6L898.11 667.14C884.92 662.27 871.74 656.62 858.84 650.99C849.98 647.02 840.52 642.8 831.82 638.56C841.62 628.38 851.2 617.9 859.42 606.32C877.97 580.27 891.32 550.6 899.28 519.63C900.82 513.4 902.24 507.12 903.13 500.77L903.73 500.83H903.74Z" fill="black"/>
<path d="M551.26 457.451C554.28 471.461 555.15 485.931 554.95 500.231C554.46 510.411 554.83 520.981 552.39 530.941C550.53 538.971 547.83 546.831 543.74 554.171L542.97 553.971C542.78 549.741 543.11 545.681 543.39 541.621C544.05 532.581 545.05 523.621 546.95 514.771L547.46 511.801C549.13 501.981 550.01 491.751 550.53 481.811C550.98 473.761 551.02 465.651 550.48 457.581L551.27 457.441L551.26 457.451Z" fill="black"/>
<path d="M488.9 408.132C511.49 424.392 541.31 434.872 568.67 426.242C570.04 425.902 571.97 425.222 573.3 424.682C578.72 422.792 583.85 420.072 588.8 417.182C590.8 415.852 593.07 414.442 595.05 413.072C596.31 412.122 599.84 409.482 601.07 408.562C605.63 404.792 610.03 400.852 614.29 396.712C618.54 392.472 624.34 386.062 628.38 381.672C621.77 393.932 613.44 405.462 603.11 414.882C594.6 422.782 584.53 429.132 573.58 433.062C571.59 433.712 569.09 434.412 567.07 435.012C564.86 435.452 562.61 435.972 560.39 436.312L554.98 436.932C530.01 438.552 505.13 426.802 488.91 408.142L488.9 408.132Z" fill="black"/>
<path d="M336.88 432.34C346.08 426.11 353.48 418.49 360.42 410.07C367.42 401.71 372.24 391.79 375.58 381.38C377.87 374.42 379.36 367.17 380.38 359.84L380.88 359.88C380.66 367.31 379.67 374.74 377.99 382.05C376.29 389.39 373.67 396.52 370.21 403.24C368.46 406.61 366.53 409.89 364.38 413.06C360.06 419.38 354.22 424.65 347.62 428.5C344.32 430.41 340.82 432.02 337.07 432.81L336.89 432.34H336.88Z" fill="black"/>
<path d="M353.02 433.448C360.09 428.388 367.51 422.908 374.72 418.098C381.81 412.798 388.12 406.388 393.61 399.448C395.05 397.698 396.78 395.068 398.16 393.238L398.59 393.488C393.96 402.838 387.91 411.468 380.38 418.748C374.91 424.458 368.51 429.458 360.94 432.068C358.44 432.958 355.88 433.698 353.18 433.928L353.02 433.458V433.448Z" fill="black"/>
</g>
<path d="M435.973 801.148C429.18 843.944 373.664 859.113 338.059 842.274C298.894 824.942 283.885 774.562 310.15 740.008C334.937 706.33 389.412 703.017 415.842 736.476C430.741 756.299 427.811 784.939 413.542 804.215C386.317 842.219 312.259 811.088 337.018 763.993C347.481 741.486 390.179 745.675 395.301 769.962C396.78 776.67 394.863 783.926 390.508 788.991L390.07 788.663C398.259 778.039 393.904 761.83 381.771 756.518C370.953 751.288 355.697 750.878 346.276 758.818C341.948 762.843 338.99 768.949 337.73 774.808C333.239 794.906 349.014 810.239 367.611 814.127C379.525 816.783 393.055 815.277 402.696 807.501C421.347 791.291 426.852 759.749 412.172 739.214C387.44 706.768 335.485 708.411 311.52 741.021C286.542 774.425 303.358 821.574 340.141 837.783C368.816 850.789 408.091 844.957 427.482 818.727C431.289 813.497 433.918 807.419 435.452 801.039L436 801.148H435.973Z" fill="#231F20"/>
<path d="M99.0708 53C99.3509 65.7511 99.2741 78.5097 98.8327 91.2565C98.5496 78.5054 98.632 65.7468 99.0708 53Z" fill="#286FFF"/>
<path d="M101 64.5352L97.2921 64.1691L97 61.5352L101 60.5352V64.5352Z" fill="#FFFAD8"/>
<path d="M99.9195 64.5352C99.0328 64.467 98.1165 64.3893 97.2328 64.2556L97.1775 64.2468L97.1729 64.1829C97.1305 63.5491 97.1091 62.9049 97.0576 62.2722C97.0416 62.057 97.0204 61.8247 97 61.6105C97.2472 61.5248 97.4928 61.4322 97.7386 61.3403C98.4601 61.0668 99.2712 60.7816 99.9993 60.5352C100.006 61.8478 99.9647 63.2235 99.9195 64.5352ZM99.9089 64.521C99.8688 63.2573 99.8246 61.9296 99.8292 60.6695L99.9371 60.7679C99.5284 60.9006 98.9057 61.0992 98.4898 61.2293C98.0064 61.378 97.5194 61.5119 97.0368 61.6657L97.0564 61.6311C97.0703 61.8363 97.0889 62.0611 97.1069 62.2667C97.1599 62.8991 97.245 63.5356 97.3076 64.1671L97.2476 64.0944C98.1369 64.1942 99.024 64.3598 99.9089 64.5212V64.521Z" fill="#286FFF"/>
<path d="M97 68.5352L99.7809 68.2606L100 66.2852L97 65.5352V68.5352Z" fill="#FFFAD8"/>
<path d="M97.1214 68.5208C98.301 68.3593 99.4841 68.1937 100.67 68.0939L100.59 68.1666C100.673 67.5352 100.787 66.8986 100.857 66.2662C100.881 66.0608 100.906 65.836 100.925 65.6309L100.951 65.6654C100.308 65.5116 99.6584 65.3778 99.0135 65.229C98.4569 65.0997 97.632 64.9013 97.0838 64.7676L97.2277 64.6693C97.2339 65.9286 97.1744 67.258 97.1214 68.5208ZM97.1073 68.5352C97.0473 67.2228 96.9919 65.8483 97.001 64.5352C97.9717 64.7816 99.0532 65.0668 100.015 65.3403C100.343 65.4322 100.67 65.5248 101 65.6105C100.973 65.8243 100.945 66.057 100.923 66.2722C100.855 66.9046 100.826 67.5491 100.77 68.1829L100.763 68.2468L100.69 68.2556C99.5113 68.3893 98.2896 68.467 97.1073 68.5352Z" fill="#286FFF"/>
<path d="M98.9615 67.3958L98.9724 67.5296L98 67.5352V67.4042C98 67.2 98.1639 67.1197 98.3552 67.0478C98.6722 66.9282 98.7047 66.8873 98.7047 66.807C98.7047 66.7084 98.6557 66.6662 98.5109 66.6662C98.3825 66.6662 98.2979 66.714 98.2979 66.8915L98 66.8971C98 66.6718 98.183 66.5352 98.5109 66.5352C98.8387 66.5352 99 66.6534 99 66.8309C99 66.9971 98.7077 67.0816 98.5138 67.169C98.3799 67.2282 98.3226 67.2732 98.3226 67.4013L98.9618 67.3957L98.9615 67.3958Z" fill="#286FFF"/>
<path d="M97 77.5352L99.7809 77.2606L100 75.2854L97 74.5352V77.5352Z" fill="#FFFAD8"/>
<path d="M97.0913 77.5244C97.976 77.4033 98.8633 77.2791 99.7526 77.2042L99.6926 77.2588C99.755 76.7852 99.8401 76.3078 99.8933 75.8334C99.9111 75.6792 99.9299 75.5108 99.9438 75.3568L99.9634 75.3827C99.481 75.2673 98.994 75.1669 98.5104 75.0554C98.0929 74.9584 97.4742 74.8096 97.0631 74.7093L97.171 74.6356C97.1756 75.5801 97.131 76.5771 97.0913 77.5242V77.5244ZM97.0805 77.5352C97.0355 76.5509 96.9939 75.52 97.0007 74.5352C97.7288 74.72 98.5399 74.9339 99.2614 75.139C99.5072 75.208 99.7528 75.2774 100 75.3417C99.9796 75.502 99.9588 75.6765 99.9424 75.8379C99.8909 76.3123 99.8695 76.7956 99.8271 77.271L99.8225 77.3189L99.7672 77.3255C98.8835 77.4258 97.9672 77.4841 97.0805 77.5352Z" fill="#286FFF"/>
<path d="M98.8534 76.3195V76.5352L98.5738 76.5323V76.3209L98.0049 76.3238L98 76.1919L98.5735 75.5352H98.8577L98.8554 76.1889H98.9951L99 76.3193H98.8531L98.8534 76.3195ZM98.5738 76.1905V75.8586L98.2799 76.1905H98.5738Z" fill="#286FFF"/>
<path d="M97 86.5352L99.7809 86.2606L100 84.2852L97 83.5352V86.5352Z" fill="#286FFF"/>
<path d="M97.1214 86.5208C98.301 86.3593 99.4841 86.1937 100.67 86.0939L100.59 86.1666C100.673 85.5352 100.787 84.8986 100.857 84.2662C100.881 84.0606 100.906 83.836 100.925 83.6306L100.951 83.6652C100.308 83.5114 99.6584 83.3775 99.0135 83.2288C98.4569 83.0995 97.632 82.901 97.0838 82.7674L97.2277 82.669C97.2339 83.9284 97.1744 85.2578 97.1214 86.5205V86.5208ZM97.1073 86.5352C97.0473 85.2228 96.9919 83.8483 97.001 82.5352C97.9717 82.7816 99.0532 83.0668 100.015 83.3403C100.343 83.4322 100.67 83.5248 101 83.6105C100.973 83.8243 100.945 84.057 100.923 84.2722C100.855 84.9046 100.826 85.5491 100.77 86.1829L100.763 86.2468L100.69 86.2556C99.5113 86.3893 98.2896 86.467 97.1073 86.5352Z" fill="#FFFAD8"/>
<path d="M99 85.1773C99 85.3845 98.8745 85.5352 98.5074 85.5352C98.1602 85.5352 98 85.3431 98 85.0352C98 84.7272 98.1599 84.5352 98.5074 84.5352C98.7685 84.5352 98.9163 84.6428 98.9605 84.8266L98.6872 84.8211C98.6602 84.7244 98.611 84.6637 98.5074 84.6637C98.3769 84.6637 98.3228 84.781 98.308 84.9345C98.3745 84.9068 98.4632 84.8902 98.5813 84.8902C98.857 84.8902 99 85.009 99 85.1775V85.1773ZM98.6997 85.1773C98.6997 85.0902 98.6727 85.0267 98.5323 85.0267C98.4315 85.0267 98.3451 85.0433 98.3033 85.0986C98.3107 85.3113 98.3623 85.4067 98.5077 85.4067C98.6531 85.4067 98.6997 85.3542 98.6997 85.1773Z" fill="#FFFAD8"/>
<path d="M101 73.5352L97.2921 73.1691L97 70.5352L101 69.5352V73.5352Z" fill="#FFFAD8"/>
<path d="M99.9195 73.5352C99.0328 73.467 98.1165 73.3893 97.2328 73.2556L97.1775 73.2468L97.1729 73.1829C97.1305 72.5491 97.1091 71.9049 97.0576 71.2722C97.0416 71.057 97.0204 70.8247 97 70.6105C97.2472 70.5248 97.4928 70.4322 97.7386 70.3403C98.4601 70.0668 99.2712 69.7816 99.9993 69.5352C100.006 70.8478 99.9647 72.2235 99.9195 73.5352ZM99.9089 73.521C99.8688 72.2573 99.8246 70.9296 99.8292 69.6695L99.9371 69.7679C99.5284 69.9006 98.9057 70.0992 98.4898 70.2293C98.0064 70.378 97.5194 70.5119 97.0368 70.6657L97.0564 70.6311C97.0703 70.8363 97.0889 71.0611 97.1069 71.2667C97.1599 71.8991 97.245 72.5356 97.3076 73.1671L97.2476 73.0944C98.1369 73.1942 99.024 73.3598 99.9089 73.5212V73.521Z" fill="#286FFF"/>
<path d="M99 71.9943C99 72.2885 98.8437 72.4853 98.5965 72.5268C98.5679 72.5325 98.5391 72.5352 98.5105 72.5352H98.4898C98.4769 72.5352 98.4638 72.5352 98.4481 72.5325C98.1748 72.5074 98 72.3048 98 71.9943L98.3072 72.0026C98.3072 72.1858 98.375 72.2801 98.4998 72.2774C98.6144 72.2717 98.6925 72.1775 98.6925 71.9946C98.6925 71.7282 98.6247 71.5895 98.315 71.5895V71.3314C98.6222 71.3314 98.6589 71.1706 98.6589 71.0042C98.6589 70.8932 98.62 70.7962 98.5002 70.7932C98.3803 70.7959 98.3414 70.8848 98.3414 70.9958L98.0342 71.0042C98.0342 70.71 98.2112 70.5352 98.4898 70.5352H98.5105C98.7891 70.5352 98.9661 70.71 98.9661 71.0042C98.9661 71.2041 98.8905 71.315 98.7239 71.4591C98.9219 71.5674 99 71.7947 99 71.9946V71.9943Z" fill="#286FFF"/>
<path d="M101 82.5352L97.2921 82.1691L97 79.5354L101 78.5352V82.5352Z" fill="#FFFAD8"/>
<path d="M99.9195 82.5352C99.0328 82.467 98.1165 82.3893 97.2328 82.2556L97.1775 82.2468L97.1729 82.1829C97.1305 81.5491 97.1091 80.9049 97.0576 80.2722C97.0416 80.057 97.0204 79.8247 97 79.6105C97.2472 79.5248 97.4928 79.4322 97.7386 79.3403C98.4601 79.0668 99.2712 78.7816 99.9993 78.5352C100.006 79.8478 99.9647 81.2235 99.9195 82.5352ZM99.9089 82.521C99.8688 81.2573 99.8246 79.9296 99.8292 78.6695L99.9371 78.7679C99.5284 78.9006 98.9057 79.0992 98.4898 79.2293C98.0064 79.378 97.5194 79.5119 97.0368 79.6657L97.0564 79.6311C97.0703 79.8363 97.0889 80.0611 97.1069 80.2664C97.1599 80.8989 97.245 81.5356 97.3076 82.1669L97.2476 82.0942C98.1369 82.194 99.024 82.3595 99.9089 82.521Z" fill="#286FFF"/>
<path d="M99 80.8116C99 81.2306 98.87 81.5352 98.4897 81.5352C98.2115 81.5352 98.0381 81.3258 98 80.9681L98.2985 80.9765C98.3215 81.1858 98.3852 81.2754 98.4897 81.2754C98.6351 81.2754 98.6886 81.1693 98.6886 80.8116C98.6886 80.6356 98.6606 80.5071 98.5152 80.5071C98.3901 80.5071 98.3366 80.5602 98.3111 80.7332H98.0151L98.0098 79.5463L98.9511 79.5352L98.9487 79.795L98.3059 79.8034L98.3083 80.3088C98.3695 80.2614 98.4513 80.2308 98.5659 80.2308C98.8515 80.2308 98.9997 80.471 98.9997 80.8116H99Z" fill="#286FFF"/>
<path d="M101 91.5352L97.2921 91.1691L97 88.5354L101 87.5352V91.5352Z" fill="#FFFAD8"/>
<path d="M99.9195 91.5352C99.0328 91.467 98.1165 91.3893 97.2328 91.2556L97.1775 91.2468L97.1729 91.1829C97.1305 90.5491 97.1091 89.9049 97.0576 89.2722C97.0416 89.057 97.0204 88.8247 97 88.6105C97.2472 88.5248 97.4928 88.4322 97.7386 88.3403C98.4601 88.0668 99.2712 87.7816 99.9993 87.5352C100.006 88.8478 99.9647 90.2235 99.9195 91.5352ZM99.9089 91.521C99.8688 90.2573 99.8246 88.9296 99.8292 87.6695L99.9371 87.7679C99.5284 87.9006 98.9057 88.0992 98.4898 88.2293C98.0064 88.378 97.5194 88.5119 97.0368 88.6657L97.0564 88.6311C97.0703 88.8363 97.0889 89.0611 97.1069 89.2664C97.1599 89.8989 97.245 90.5356 97.3076 91.1669L97.2476 91.0942C98.1369 91.194 99.024 91.3595 99.9089 91.521Z" fill="#286FFF"/>
<path d="M99 89.5352V89.6673L98.4971 90.5352L98.1574 90.5295L98.6572 89.6688L98.0085 89.6717L98 89.5396L98.9997 89.5353L99 89.5352Z" fill="#286FFF"/>
<path d="M97 60.5352L100.708 60.1691L101 57.5352L97 56.5352V60.5352Z" fill="#FFFAD8"/>
<path d="M97.1217 59.5244C98.3013 59.4033 99.4844 59.2791 100.67 59.2042L100.59 59.2588C100.673 58.7852 100.787 58.3078 100.858 57.8334C100.881 57.6794 100.906 57.5108 100.925 57.3568L100.951 57.3827C100.308 57.2673 99.6586 57.1669 99.0138 57.0554C98.4572 56.9584 97.6322 56.8096 97.0841 56.7093L97.228 56.6356C97.2341 57.5801 97.1747 58.5771 97.1217 59.5242V59.5244ZM97.1073 59.5352C97.0473 58.5509 96.9919 57.52 97.001 56.5352C97.9717 56.72 99.0532 56.9339 100.015 57.139C100.343 57.208 100.67 57.2774 101 57.3417C100.973 57.502 100.945 57.6765 100.923 57.8379C100.855 58.3123 100.826 58.7956 100.77 59.271L100.763 59.3189L100.69 59.3255C99.5113 59.4258 98.2896 59.4841 97.1073 59.5352Z" fill="#286FFF"/>
<path d="M99.8015 59.3833L98.2158 59.3522L98.4353 58.1995L99.6501 58.1523L99.8015 59.3833Z" fill="#FFFAD8"/>
<path d="M99.8075 59.3899C99.2503 59.3976 98.684 59.4233 98.1182 59.4351L98.1379 59.3386L98.3731 58.1889L98.3835 58.1382L98.4332 58.1373L99.6491 58.114L99.6868 58.1133C99.7215 58.4898 99.7714 59.0204 99.808 59.3899H99.8075ZM99.7957 59.3794C99.7453 59.0202 99.665 58.5204 99.611 58.1587L99.6518 58.1936L98.438 58.2644L98.4979 58.2129L98.2941 59.3688L98.2176 59.2746C98.6906 59.3061 99.3243 59.3572 99.7957 59.3797V59.3794Z" fill="#286FFF"/>
<path d="M98.1667 58.4148L98.9843 57.2383L99.8016 58.2641L98.1667 58.4148Z" fill="#FFFAD8"/>
<path d="M98.1604 58.4102C98.3858 57.9878 98.6427 57.5834 98.9169 57.1914L98.9814 57.1016C99.0706 57.2146 99.1607 57.3335 99.2458 57.4493C99.401 57.6565 99.7336 58.0961 99.8927 58.3053C99.6478 58.3237 99.2326 58.353 98.987 58.3691C98.783 58.3829 98.3717 58.4104 98.1677 58.4229L98.1663 58.407C98.6772 58.3453 99.286 58.2731 99.7973 58.2166L99.7644 58.2937L99.3434 57.7908C99.2188 57.6433 99.0413 57.4363 98.9203 57.2895L99.0517 57.2852C98.8497 57.5813 98.6327 57.8671 98.4069 58.1455C98.3313 58.2384 98.2541 58.3301 98.1733 58.4195L98.1604 58.4104V58.4102Z" fill="#286FFF"/>
<path d="M99.2382 59.3859L98.8013 59.368L98.804 58.7305L99.2756 58.7441L99.2382 59.3859Z" fill="#FFFAD8"/>
<path d="M99.2434 59.39C99.0967 59.3938 98.9126 59.4018 98.766 59.4038C98.7558 59.1789 98.747 58.9535 98.7404 58.7286L98.739 58.6746L98.8057 58.6655C98.9907 58.6431 99.1791 58.6533 99.3646 58.6669C99.345 58.9118 99.3051 59.1571 99.2434 59.3902V59.39ZM99.2327 59.3782C99.2148 59.17 99.1896 58.9415 99.1941 58.7375L99.2733 58.8237C99.1158 58.8251 98.9576 58.8199 98.8021 58.7922L98.8675 58.7288C98.8595 58.9413 98.8489 59.1539 98.8382 59.3661L98.8028 59.3291C98.9328 59.3432 99.1019 59.365 99.2327 59.3779V59.3782Z" fill="#286FFF"/>
<path d="M144 133.431L66.9842 124.962L60.9177 64.0148L144 40.8672V133.431Z" fill="#FFFAD8"/>
<path d="M140.743 130.811C120.201 129.209 98.6797 127.323 78.1189 125.178C73.3545 124.65 67.1893 123.982 62.4401 123.379C61.9466 118.581 61.5366 111.964 61.1228 107.09C60.2648 95.0838 59.0918 80.8149 57.8504 68.945C57.5732 66.265 57.3037 63.5851 57 60.909L57.4214 60.7875C85.6166 52.4288 113.945 43.9145 142.257 36C142.379 67.0166 141.57 99.7794 140.743 130.811ZM140.542 130.583C139.98 110.29 139.471 86.8011 139.171 66.675C139.099 58.4682 138.977 46.3667 139.027 38.1295L141.077 39.6859C113.432 47.3423 85.4609 54.5242 57.6985 61.7706L58.0706 61.224C58.3705 64.8833 58.8146 68.9753 59.1525 72.6574C60.4243 85.8255 62.4363 101.302 64.027 114.489C64.3307 117.024 64.6344 119.556 64.9077 122.096L63.7688 120.946C68.0093 121.337 73.7835 121.986 78.0164 122.449C98.7442 124.844 119.848 127.687 140.542 130.583Z" fill="#286FFF"/>
<path d="M72.2688 77.4622L124.479 58.957L125.413 61.8457L72.2688 77.4622Z" fill="#286FFF"/>
<path d="M72.2688 91.9288L127.182 84.6406L127.497 87.6584L72.2688 91.9288Z" fill="#286FFF"/>
<path d="M73.009 107.441L128.393 108.444L128.257 111.476L73.009 107.441Z" fill="#286FFF"/>
</g>
<defs>
<clipPath id="clip0_271_1662">
<rect width="1440" height="1024" fill="white"/>
</clipPath>
<clipPath id="clip1_271_1662">
<rect width="1442.93" height="1054.13" fill="white" transform="translate(-1 -15)"/>
</clipPath>
<clipPath id="clip2_271_1662">
<rect width="1490.46" height="1053.35" fill="white" transform="translate(-45 -1)"/>
</clipPath>
</defs>
</svg>
