<?xml version="1.0" encoding="UTF-8"?>
<svg id="Layer_2" data-name="Layer 2" xmlns="http://www.w3.org/2000/svg" viewBox="0 0 743.23 719.82">
  <defs>
    <style>
      .cls-1, .cls-2 {
        letter-spacing: 0em;
      }

      .cls-1, .cls-3, .cls-4 {
        fill: #37489e;
      }

      .cls-5 {
        fill: #80c7ce;
      }

      .cls-2, .cls-6, .cls-7 {
        fill: #fff099;
      }

      .cls-8 {
        fill: #8bd4e0;
      }

      .cls-9 {
        fill: #f48ca4;
      }

      .cls-10 {
        stroke: #37489e;
        stroke-width: 6px;
      }

      .cls-10, .cls-11, .cls-12, .cls-13, .cls-14 {
        fill: none;
      }

      .cls-10, .cls-11, .cls-12, .cls-13, .cls-14, .cls-15 {
        stroke-miterlimit: 10;
      }

      .cls-16 {
        font-size: 47.03px;
      }

      .cls-11 {
        stroke: #aaa;
      }

      .cls-11, .cls-12 {
        stroke-width: 32px;
      }

      .cls-17 {
        letter-spacing: 0em;
      }

      .cls-18 {
        fill: #f5bc18;
      }

      .cls-19 {
        fill: #74a535;
        font-size: 47px;
      }

      .cls-19, .cls-7, .cls-20 {
        font-family: DFVN-FreckleFace-Regular, 'DFVN Freckle Face';
      }

      .cls-4 {
        letter-spacing: 0em;
      }

      .cls-21, .cls-22 {
        fill: #ee2c25;
      }

      .cls-23 {
        letter-spacing: 0em;
      }

      .cls-12 {
        stroke: #d1d1d1;
      }

      .cls-24 {
        fill: #017348;
      }

      .cls-13, .cls-14 {
        stroke: #fff099;
      }

      .cls-25 {
        fill: #b2f2f9;
      }

      .cls-26 {
        fill: #ffa4bc;
      }

      .cls-7 {
        font-size: 60.2px;
      }

      .cls-27 {
        fill: #efd7bc;
      }

      .cls-28 {
        fill: #f36c32;
      }

      .cls-29 {
        fill: #ed2a25;
      }

      .cls-30 {
        fill: #a5a5a5;
      }

      .cls-14 {
        stroke-width: 4px;
      }

      .cls-31 {
        fill: #027248;
      }

      .cls-15 {
        fill: #fff8ee;
        stroke: #ee2c25;
        stroke-width: 15px;
      }

      .cls-32 {
        fill: #72311a;
      }

      .cls-33 {
        font-size: 34px;
      }

      .cls-34 {
        fill: #d1d1d1;
      }

      .cls-22 {
        letter-spacing: -.01em;
      }
    </style>
  </defs>
  <g id="Layer_1-2" data-name="Layer 1">
    <circle class="cls-15" cx="344.93" cy="310.42" r="78.11"/>
    <path class="cls-11" d="M391.08,201.61l-10.64-7.76c-12.64-9.22-29.44-10.37-43.22-2.97l-11.6,6.23c-18.88,10.15-40.48-7.93-33.82-28.3l4.09-12.51c4.86-14.87.77-31.2-10.53-42.02l-9.51-9.1c-15.49-14.82-4.97-40.95,16.47-40.91l13.17.03c15.64.03,29.91-8.91,36.71-23l5.72-11.86c9.31-19.31,37.41-17.38,43.99,3.02l4.04,12.53c4.8,14.89,17.72,25.7,33.22,27.8l13.05,1.77c21.24,2.89,28.09,30.21,10.72,42.77l-10.67,7.72c-12.67,9.17-18.96,24.79-16.18,40.18l2.35,12.96c3.82,21.09-20.05,36.05-37.37,23.41Z"/>
    <path class="cls-12" d="M384.07,207.38l-10.64-7.76c-12.64-9.22-29.44-10.37-43.22-2.97l-11.6,6.23c-18.88,10.15-40.48-7.93-33.82-28.3l4.09-12.51c4.86-14.87.77-31.2-10.53-42.02l-9.51-9.1c-15.49-14.82-4.97-40.95,16.47-40.91l13.17.03c15.64.03,29.91-8.91,36.71-23l5.72-11.86c9.31-19.31,37.41-17.38,43.99,3.02l4.04,12.53c4.8,14.89,17.72,25.7,33.22,27.8l13.05,1.77c21.24,2.89,28.09,30.21,10.72,42.77l-10.67,7.72c-12.67,9.17-18.96,24.79-16.18,40.18l2.35,12.96c3.82,21.09-20.05,36.05-37.37,23.41Z"/>
    <g>
      <path class="cls-18" d="M337.99,421.32h0c-2.08-4.67,2.15-9.69,7.11-8.41l162.88,41.76c4.37,1.12,6.06,6.42,3.16,9.87l-2.27,2.7c-.77.91-1.25,2.02-1.39,3.21-1.27,10.72-8.41,67.62-23.12,126.2-14.49,57.73-31.67,101.64-35.35,110.79-.47,1.16-.56,2.42-.28,3.64l.29,1.26c1.02,4.46-3.03,8.43-7.47,7.3l-163.04-41.44c-4.37-1.11-6.08-6.4-3.19-9.86l1.63-1.94c.7-.84,1.16-1.84,1.34-2.92,1.95-11.74,14.07-83.64,23.77-120.43,10.13-38.4,28.95-98.15,36.08-117.09.57-1.5.51-3.16-.14-4.63Z"/>
      <g>
        <path class="cls-6" d="M345.95,427.49c-.48,2.3-.96,4.59-1.44,6.89-.07.33-.14.65-.2.98-.14.66-.1,1.33.25,1.93.3.52.9,1.01,1.49,1.15,1.25.29,2.79-.38,3.08-1.75.48-2.3.96-4.59,1.44-6.89.07-.33.14-.65.2-.98.14-.66.1-1.33-.25-1.93-.3-.52-.9-1.01-1.49-1.15-1.25-.29-2.79.38-3.08,1.75h0Z"/>
        <path class="cls-6" d="M358.74,431.03c-.48,2.3-.96,4.59-1.44,6.89-.07.33-.14.65-.2.98-.14.66-.1,1.33.25,1.93.3.52.9,1.01,1.49,1.15,1.25.29,2.79-.38,3.08-1.75.48-2.3.96-4.59,1.44-6.89.07-.33.14-.65.2-.98.14-.66.1-1.33-.25-1.93-.3-.52-.9-1.01-1.49-1.15-1.25-.29-2.79.38-3.08,1.75h0Z"/>
        <path class="cls-6" d="M372.42,434.66c-.48,2.3-.96,4.59-1.44,6.89-.07.33-.14.65-.2.98-.14.66-.1,1.33.25,1.93.3.52.9,1.01,1.49,1.15,1.25.29,2.79-.38,3.08-1.75.48-2.3.96-4.59,1.44-6.89.07-.33.14-.65.2-.98.14-.66.1-1.33-.25-1.93-.3-.52-.9-1.01-1.49-1.15-1.25-.29-2.79.38-3.08,1.75h0Z"/>
        <path class="cls-6" d="M386.23,437.94c-.48,2.3-.96,4.59-1.44,6.89-.07.33-.14.65-.2.98-.14.66-.1,1.33.25,1.93.3.52.9,1.01,1.49,1.15,1.25.29,2.79-.38,3.08-1.75.48-2.3.96-4.59,1.44-6.89.07-.33.14-.65.2-.98.14-.66.1-1.33-.25-1.93-.3-.52-.9-1.01-1.49-1.15-1.25-.29-2.79.38-3.08,1.75h0Z"/>
        <path class="cls-6" d="M399.02,441.48c-.48,2.3-.96,4.59-1.44,6.89-.07.33-.14.65-.2.98-.14.66-.1,1.33.25,1.93.3.52.9,1.01,1.49,1.15,1.25.29,2.79-.38,3.08-1.75.48-2.3.96-4.59,1.44-6.89.07-.33.14-.65.2-.98.14-.66.1-1.33-.25-1.93-.3-.52-.9-1.01-1.49-1.15-1.25-.29-2.79.38-3.08,1.75h0Z"/>
        <path class="cls-6" d="M412.69,445.11c-.48,2.3-.96,4.59-1.44,6.89-.07.33-.14.65-.2.98-.14.66-.1,1.33.25,1.93.3.52.9,1.01,1.49,1.15,1.25.29,2.79-.38,3.08-1.75.48-2.3.96-4.59,1.44-6.89.07-.33.14-.65.2-.98.14-.66.1-1.33-.25-1.93-.3-.52-.9-1.01-1.49-1.15-1.25-.29-2.79.38-3.08,1.75h0Z"/>
        <path class="cls-6" d="M426.26,449.01c-.48,2.3-.96,4.59-1.44,6.89-.07.33-.14.65-.2.98-.14.66-.1,1.33.25,1.93.3.52.9,1.01,1.49,1.15,1.25.29,2.79-.38,3.08-1.75.48-2.3.96-4.59,1.44-6.89.07-.33.14-.65.2-.98.14-.66.1-1.33-.25-1.93-.3-.52-.9-1.01-1.49-1.15-1.25-.29-2.79.38-3.08,1.75h0Z"/>
        <path class="cls-6" d="M439.05,452.55c-.48,2.3-.96,4.59-1.44,6.89-.07.33-.14.65-.2.98-.14.66-.1,1.33.25,1.93.3.52.9,1.01,1.49,1.15,1.25.29,2.79-.38,3.08-1.75.48-2.3.96-4.59,1.44-6.89.07-.33.14-.65.2-.98.14-.66.1-1.33-.25-1.93-.3-.52-.9-1.01-1.49-1.15-1.25-.29-2.79.38-3.08,1.75h0Z"/>
        <path class="cls-6" d="M452.72,456.18c-.48,2.3-.96,4.59-1.44,6.89-.07.33-.14.65-.2.98-.14.66-.1,1.33.25,1.93.3.52.9,1.01,1.49,1.15,1.25.29,2.79-.38,3.08-1.75.48-2.3.96-4.59,1.44-6.89.07-.33.14-.65.2-.98.14-.66.1-1.33-.25-1.93-.3-.52-.9-1.01-1.49-1.15-1.25-.29-2.79.38-3.08,1.75h0Z"/>
        <path class="cls-6" d="M466.53,459.46c-.48,2.3-.96,4.59-1.44,6.89-.07.33-.14.65-.2.98-.14.66-.1,1.33.25,1.93.3.52.9,1.01,1.49,1.15,1.25.29,2.79-.38,3.08-1.75.48-2.3.96-4.59,1.44-6.89.07-.33.14-.65.2-.98.14-.66.1-1.33-.25-1.93-.3-.52-.9-1.01-1.49-1.15-1.25-.29-2.79.38-3.08,1.75h0Z"/>
        <path class="cls-6" d="M479.32,463c-.48,2.3-.96,4.59-1.44,6.89-.07.33-.14.65-.2.98-.14.66-.1,1.33.25,1.93.3.52.9,1.01,1.49,1.15,1.25.29,2.79-.38,3.08-1.75.48-2.3.96-4.59,1.44-6.89.07-.33.14-.65.2-.98.14-.66.1-1.33-.25-1.93-.3-.52-.9-1.01-1.49-1.15-1.25-.29-2.79.38-3.08,1.75h0Z"/>
        <path class="cls-6" d="M493,466.63c-.48,2.3-.96,4.59-1.44,6.89-.07.33-.14.65-.2.98-.14.66-.1,1.33.25,1.93.3.52.9,1.01,1.49,1.15,1.25.29,2.79-.38,3.08-1.75.48-2.3.96-4.59,1.44-6.89.07-.33.14-.65.2-.98.14-.66.1-1.33-.25-1.93-.3-.52-.9-1.01-1.49-1.15-1.25-.29-2.79.38-3.08,1.75h0Z"/>
      </g>
      <g>
        <path class="cls-6" d="M288.06,659.45c-.48,2.3-.96,4.59-1.44,6.89-.07.33-.14.65-.2.98-.14.66-.1,1.33.25,1.93.3.52.9,1.01,1.49,1.15,1.25.29,2.79-.38,3.08-1.75.48-2.3.96-4.59,1.44-6.89.07-.33.14-.65.2-.98.14-.66.1-1.33-.25-1.93-.3-.52-.9-1.01-1.49-1.15-1.25-.29-2.79.38-3.08,1.75h0Z"/>
        <path class="cls-6" d="M300.85,662.99c-.48,2.3-.96,4.59-1.44,6.89-.07.33-.14.65-.2.98-.14.66-.1,1.33.25,1.93.3.52.9,1.01,1.49,1.15,1.25.29,2.79-.38,3.08-1.75.48-2.3.96-4.59,1.44-6.89.07-.33.14-.65.2-.98.14-.66.1-1.33-.25-1.93-.3-.52-.9-1.01-1.49-1.15-1.25-.29-2.79.38-3.08,1.75h0Z"/>
        <path class="cls-6" d="M314.53,666.62c-.48,2.3-.96,4.59-1.44,6.89-.07.33-.14.65-.2.98-.14.66-.1,1.33.25,1.93.3.52.9,1.01,1.49,1.15,1.25.29,2.79-.38,3.08-1.75.48-2.3.96-4.59,1.44-6.89.07-.33.14-.65.2-.98.14-.66.1-1.33-.25-1.93-.3-.52-.9-1.01-1.49-1.15-1.25-.29-2.79.38-3.08,1.75h0Z"/>
        <path class="cls-6" d="M328.34,669.9c-.48,2.3-.96,4.59-1.44,6.89-.07.33-.14.65-.2.98-.14.66-.1,1.33.25,1.93.3.52.9,1.01,1.49,1.15,1.25.29,2.79-.38,3.08-1.75.48-2.3.96-4.59,1.44-6.89.07-.33.14-.65.2-.98.14-.66.1-1.33-.25-1.93-.3-.52-.9-1.01-1.49-1.15-1.25-.29-2.79.38-3.08,1.75h0Z"/>
        <path class="cls-6" d="M341.13,673.44c-.48,2.3-.96,4.59-1.44,6.89-.07.33-.14.65-.2.98-.14.66-.1,1.33.25,1.93.3.52.9,1.01,1.49,1.15,1.25.29,2.79-.38,3.08-1.75.48-2.3.96-4.59,1.44-6.89.07-.33.14-.65.2-.98.14-.66.1-1.33-.25-1.93-.3-.52-.9-1.01-1.49-1.15-1.25-.29-2.79.38-3.08,1.75h0Z"/>
        <path class="cls-6" d="M354.8,677.07c-.48,2.3-.96,4.59-1.44,6.89-.07.33-.14.65-.2.98-.14.66-.1,1.33.25,1.93.3.52.9,1.01,1.49,1.15,1.25.29,2.79-.38,3.08-1.75.48-2.3.96-4.59,1.44-6.89.07-.33.14-.65.2-.98.14-.66.1-1.33-.25-1.93-.3-.52-.9-1.01-1.49-1.15-1.25-.29-2.79.38-3.08,1.75h0Z"/>
        <path class="cls-6" d="M368.37,680.97c-.48,2.3-.96,4.59-1.44,6.89-.07.33-.14.65-.2.98-.14.66-.1,1.33.25,1.93.3.52.9,1.01,1.49,1.15,1.25.29,2.79-.38,3.08-1.75.48-2.3.96-4.59,1.44-6.89.07-.33.14-.65.2-.98.14-.66.1-1.33-.25-1.93-.3-.52-.9-1.01-1.49-1.15-1.25-.29-2.79.38-3.08,1.75h0Z"/>
        <path class="cls-6" d="M381.16,684.51c-.48,2.3-.96,4.59-1.44,6.89-.07.33-.14.65-.2.98-.14.66-.1,1.33.25,1.93.3.52.9,1.01,1.49,1.15,1.25.29,2.79-.38,3.08-1.75.48-2.3.96-4.59,1.44-6.89.07-.33.14-.65.2-.98.14-.66.1-1.33-.25-1.93-.3-.52-.9-1.01-1.49-1.15-1.25-.29-2.79.38-3.08,1.75h0Z"/>
        <path class="cls-6" d="M394.83,688.14c-.48,2.3-.96,4.59-1.44,6.89-.07.33-.14.65-.2.98-.14.66-.1,1.33.25,1.93.3.52.9,1.01,1.49,1.15,1.25.29,2.79-.38,3.08-1.75.48-2.3.96-4.59,1.44-6.89.07-.33.14-.65.2-.98.14-.66.1-1.33-.25-1.93-.3-.52-.9-1.01-1.49-1.15-1.25-.29-2.79.38-3.08,1.75h0Z"/>
        <path class="cls-6" d="M408.64,691.42c-.48,2.3-.96,4.59-1.44,6.89-.07.33-.14.65-.2.98-.14.66-.1,1.33.25,1.93.3.52.9,1.01,1.49,1.15,1.25.29,2.79-.38,3.08-1.75.48-2.3.96-4.59,1.44-6.89.07-.33.14-.65.2-.98.14-.66.1-1.33-.25-1.93-.3-.52-.9-1.01-1.49-1.15-1.25-.29-2.79.38-3.08,1.75h0Z"/>
        <path class="cls-6" d="M421.43,694.96c-.48,2.3-.96,4.59-1.44,6.89-.07.33-.14.65-.2.98-.14.66-.1,1.33.25,1.93.3.52.9,1.01,1.49,1.15,1.25.29,2.79-.38,3.08-1.75.48-2.3.96-4.59,1.44-6.89.07-.33.14-.65.2-.98.14-.66.1-1.33-.25-1.93-.3-.52-.9-1.01-1.49-1.15-1.25-.29-2.79.38-3.08,1.75h0Z"/>
        <path class="cls-6" d="M435.11,698.59c-.48,2.3-.96,4.59-1.44,6.89-.07.33-.14.65-.2.98-.14.66-.1,1.33.25,1.93.3.52.9,1.01,1.49,1.15,1.25.29,2.79-.38,3.08-1.75.48-2.3.96-4.59,1.44-6.89.07-.33.14-.65.2-.98.14-.66.1-1.33-.25-1.93-.3-.52-.9-1.01-1.49-1.15-1.25-.29-2.79.38-3.08,1.75h0Z"/>
      </g>
    </g>
    <circle class="cls-32" cx="355.39" cy="434.1" r="13.27"/>
    <path class="cls-30" d="M362.82,430.56c-1.28-16.34-2.57-32.68-3.85-49.03-.75-9.56-15.76-9.64-15,0,1.28,16.34,2.57,32.68,3.85,49.03.75,9.56,15.76,9.64,15,0h0Z"/>
    <g>
      <path class="cls-6" d="M344.55,538.5c.01.83.14,1.73.15,2.43.04,2.07-1.63,1.55-1.6,3.36,0,.41.19.83.19,1.21.02,1.45-1.51,1.95-2.59,2.72-1.05.74-1.72,2.08-3.63,2.08-.87,0-1.87-.16-2.78-.17-1.53-.01-1.84.94-3.15.91-1.31-.02-2.54-.85-4.21-.9-1.51-.04-1.87-.78-2.89-.82-.47-.02-.96.12-1.47.1-1.13-.05-3.79-1.78-3.78-1.98,0-.1.14-.17.16-.46.02-.49-.72-1.85-.67-2.86.08-1.55.7-3,1.34-3.69,1.1-1.19,2.25-.13,2.43-4.4.04-1.03-.49-3.08-.39-5.27.07-1.52.89-2.45.96-4.26.1-2.3-.21-5.76-.07-8.86.07-1.65.47-3.12.47-4.23,0-.82-.47-1.65-.44-2.35.12-2.74,1.94-2.7,5.17-2.89,1.06-.06,2.14-.85,3.25-.82.07,0,.11,0,.18,0,1.17.02,2.55.28,3.73.29,1.05,0,2.17-.22,2.91-.22,1.07,0,1.32.84,2.48,1.85.94.82,1.24.69,1.89,1.79.59,1.02,1.82,3.54,1.83,4.48.01.72-.21,1.18-.33,2.08-.16,1.21-.03,2.91-.45,3.91-.56,1.35-2.82,2.8-4.7,2.81.17.91,1.11,1.01,1.58,1.47.4.38.78,1.12,1.2,1.65.41.51,1.09.89,1.34,1.31.18.3.24,1.01.42,1.42.76,1.88,1.54,2.33,1.69,5.07,0,.08,0,.12,0,.21.01.8-.24,1.92-.22,3.03ZM333.3,513.3c-1.75-.02-5.9.03-5.98,2.87-.04,1.24.21,2.96.21,3.79,0,.57-.17,1.47-.18,2.12-.01.49.02.73.33.73.7.02,3.78-.84,4.71-.83.12,0,.25,0,.35.03.1.03.19.03.25.03.07-.03.11-.04.19-.07.62-.23,2.73-1.06,3.06-1.55.21-.26.77-2.92.77-3.28,0-2.9-1.6-3.81-3.69-3.83ZM334.16,528.94c-.64-1.02-.49-1.01-2.08-1.04-.5,0-.74-.01-1.24-.02-1.42-.03-3.35.07-3.43.23-.4.88.09,2.02.07,2.77-.04,1.48-.15,2.2-.16,2.79-.02.59.09,1.25.05,2.67-.03.91-.14,1.78-.15,2.43-.04,1.4,1.61,1.49,2.28,1.51.28,0,.96-.06,1.45-.05.67.01,3-.58,3.7-1.32.65-.69.94-2.43.95-4.29.01-2.04-.35-4.14-.75-5.05-.08-.18-.46-.34-.69-.63Z"/>
      <path class="cls-6" d="M367.22,541.44c.51,6.55-5.41,7.6-11.16,7.87-1.13.05-2.22.07-3.11-.02-1.11-.11-1.97-.73-2.8-.91-1.35-.3-3.84.1-3.88-1.5,0-.31.07-.67.3-1.17,0,.02,0,.03,0,.05.06,0,.53-.61.72-.95.04-.05.09-.13.09-.13.21-.19.44-.28.62-.3.35-.03.65-.15.81-.67.06-.26.09-.73.07-1.4-.07-2.35-.32-5.3-.34-5.71-.04-1.58-.05-3.34-.11-5.2-.1-3.39-.71-6.87-.79-9.79-.05-1.86.51-3.07.46-4.83-.04-1.22-.27-2.27-.3-3.49-.07-2.35.1-3.44,1.53-3.49,1.83-.06,2.55,1.15,3.81,1.64,1.68.66,2.13-.2,2.84,1.99.19.61.49,2.07.57,3.52.09,1.76,0,3.84.09,5.59.05.91.23,1.79.26,2.63.18,4.88-.31,9.96-.03,15.49.01.28,0,.47,0,.6,0,.13-.02.52.52.49,2.67-.14,5.91-1.78,7.14-1.86.97-.07,2.28-.01,2.5.7.09.28.13.56.15.84Z"/>
      <path class="cls-6" d="M391.11,538.14c-.11.93.22,1.88-.33,2.66-.15.2-.36.39-.67.56-.31.17-.97.47-2.04.93-.35.15-.66.32-.93.49-.81.57-1.32,2.13-2.48,2.61-.42.23-1.17.37-1.73.55-1.09.35-3.27,1.1-5.1,1.29-1.87.19-2.03-.57-3.13-.91-1.63-.5-3.42.19-5.22-1.66-.19-.19-.47-1.13-.64-1.43-.67-.93-1.61-1.01-1.71-2.3-.07-.9,1-2.21,1.69-2.26.13-.01.19-.02.32-.03.73-.06.88-1.14.82-1.83-.06-.72-.29-1.61-.39-2.82-.05-.59-.04-1.22-.09-1.76-.07-.85-.37-1.35-.49-1.98-.28-1.56-.5-3.49-.68-5.53-.16-1.86-.1-4.15-.21-5.46-.07-.82-2.05-.45-2.25-3.06-.22-2.73,3.06-5.13,4.91-5.31,1.59-.15,3.39.19,5.14,0,.69-.08,1.71-.76,3.39-.96,1.05-.13,1.24.61,2.21,1.11.32.17.82.19,1.16.35.37.17.72.43.98.5,1.92.58,2.95-.22,3.33,2.5.53,3.77-.89,3.76-3.47,4.46-1.17.32-2.26.57-3.59.73-1.61.19-3.69.03-5.65.23-1.04.11-1.24.12-1.08,1.77.11,1.16.44,2.61.57,2.8.56.65,3.23.37,4.27.25,1.26-.14,1.93-1.08,2.73-1.17.89-.11.88.39,1.18.56.71.46.85.6.99,1.75.48,3.85-.21,4.08-4.25,4.7-1.49.23-1.79.35-1.69,1.3.17,1.62.19,2.03.2,2.11.16,1.52.59,2.13,2.38,1.93,1.88-.21,4-.92,5.64-1.54,1.37-.52,2.13-1.5,3.4-1.68,1.52-.21,2.5.75,2.79,2.77.08.59.1,1.27,0,1.88-.04.32-.27.56-.29.9Z"/>
      <path class="cls-6" d="M414.13,527.43c.3,1.44.34,3.1.68,4.72.12.58.3,1.23.44,1.92.35,1.7.47,3.63-1.33,4-1.03.21-1.74-.57-2.94-.34-.49.1-1.2.34-1.91.47-1.95.37-1.54-.42-2.31-1.67-.2-.25-.56-.42-.87-.79-.64-.83-.67-1.36-1.46-1.89-.74-.5-.91-.57-1.58-1.4-.51-.63-1.06-1.49-1.65-2.23-.6-.76-1.47-1.19-1.93-1.82-.73-.93-1.34-2.5-1.97-3.66.18.99.37,2.01.54,3.03.11.68.17,1.03.28,1.71.19,1.12.39,2.25.64,3.36.25,1.14.61,2,.8,3.15.17,1,0,2.39.1,3.94.15,2.36.6,3.24-1.56,3.58-.63.1-1.78.02-2.11-.14-.17-.08-.42-.72-.72-1.07-.6-.59-.99-.82-1.22-2.38-.26-1.71-.28-3.65-.53-5.28-.1-.69-.56-1.75-.72-2.8-.2-1.36-.36-2.67-.55-3.97-.35-2.35-.97-4.56-1.3-6.79-.25-1.71.31-2.77-.03-5.07-.07-.43-.19-.89-.26-1.3-.33-2.23.58-3.46,2.25-3.73,1.47-.23,4.12.22,4.71.93.3.34.46,1.16.85,1.69.44.61,1.13,1.04,1.43,1.41.19.26.27.82.62,1.41.27.45.85.9,1.34,1.42.42.44.79,1.09,1.17,1.47.92.88,1.93,1.46,2.71,2.29,1.22,1.38,2.1,3.37,2.51,3.29.23-.04.12-.71-.05-1.6-.25-1.3-.74-3.12-.84-3.66-.1-.53.05-1.14-.12-2.03-.27-1.4-.75-2.86-1.05-4.38-.41-2.11-.03-3.84-.36-5.49-.33-1.67-.96-2.61-1.16-3.62-.21-1.09.2-2.25,1.21-2.46.23-.05,2.22-.35,2.88,2.82.14.68.16,1.37.35,2.25.67,3.24,1.77,6.24,2.27,8.62.42,2.03.58,4.11.86,5.45.42,2,1.16,4.12,1.68,5.89.06.28.15.5.21.78Z"/>
      <path class="cls-6" d="M442.34,519.84c.21.72.41,1.25.57,1.77.35,1.19.79,4.36.32,5.65-.13.55-1.67,1.75-2.12,2.49-.47.78-1.15,2.69-1.77,3.5-.24.39-.72.68-1.11,1.19-.53.73-.45,1.38-1.13,1.56-1.09.29-3.03.37-4.61.77-1.26.32-2.15,1.39-2.91,1.58-.88.22-2.18-.05-3.32-.05-.95,0-2.47.26-3.38.12-.53-.08-.97-.71-1.92-.92-2.06-.39-2.74.31-3.42-2.88-.35-1.62-.33-2.76.2-2.88.5-.11,1.31.32,1.65.25.93-.21.58-2.62.11-4.74-.45-1.99-1.03-4.01-1.26-5.05-.19-.83,0-1.35-.23-2.39-.32-1.41-.89-3.22-1.26-4.84-.19-.83-.41-2.75-.59-3.55-.25-1.11-2.82.76-3.41-1.98-.51-2.35,3.74-4.91,4.83-5.92.75-.68,1.42-1.53,1.86-1.64.45-.11.88.21,1.25.09.58-.18,1.02-1.13,1.85-1.34,1.21-.31,1.77.57,2.82.8.56.18,1.09-.01,1.59.09,2.49.57,3.99,1.5,5.95,3.32.68.64,1.62,1.03,2.18,1.59.82.87,2.22,2.95,3.14,4.38,1.08,1.69,2.81,4.44,3.7,7.09.03.09.04.13.07.22.15.49.2,1.13.37,1.7ZM433,519.05c-.12-.45-.25-.87-.43-1.28-.17-.41-.55-1.17-1.12-2.27-.2-.35-.37-.73-.54-1.14-.75-1.7-1.11-3.21-1.99-4.37-.26-.33-.68-.61-1.03-.93-.36-.33-.67-.84-.97-1.06-.29-.21-.96-.23-1.63-.62-1.16-.69-1.56-1.79-2.68-1.52-.8.2-1.58.84-1.52,1.09.13.55.65,1.98.73,2.33.42,1.88.81,4.36,1.31,6.45.62,2.54,1.57,3.97,2.33,6.3.57,1.77,1.35,3.37,1.65,4.58.22.9.36,2.01.63,3.1.12.5.28.97.48,1.43.22-.08.85-.26,1.92-.53,1.43-.36,2.56-.76,2.99-3.46.1-.54.02-1.88.03-3.17.01-1.05.19-2.2.12-3.11-.05-.65-.14-1.25-.28-1.8Z"/>
      <path class="cls-6" d="M468.33,518.69c.09.93.61,1.79.24,2.67-.1.23-.28.46-.54.69-.26.23-.85.67-1.8,1.34-.32.22-.58.45-.81.67-.67.73-.85,2.36-1.89,3.07-.36.32-1.07.6-1.58.9-.99.58-2.97,1.77-4.72,2.34-1.79.58-2.11-.13-3.25-.23-1.7-.15-3.31.9-5.46-.53-.23-.15-.69-1.01-.93-1.26-.85-.77-1.79-.65-2.15-1.89-.26-.87.51-2.37,1.17-2.57.12-.04.19-.06.31-.09.7-.21.62-1.3.41-1.97-.21-.69-.62-1.52-.98-2.68-.17-.57-.29-1.18-.45-1.7-.25-.82-.65-1.24-.89-1.84-.6-1.46-1.23-3.3-1.82-5.26-.54-1.78-.97-4.03-1.35-5.29-.24-.79-2.1-.02-2.84-2.52-.78-2.63,1.92-5.66,3.69-6.22,1.53-.48,3.36-.53,5.03-1.08.67-.22,1.51-1.1,3.12-1.65,1-.34,1.34.33,2.4.62.35.1.84.02,1.21.1.4.09.8.27,1.06.28,2.01.16,2.85-.84,3.79,1.74,1.3,3.57-.09,3.87-2.47,5.09-1.08.55-2.1,1.04-3.36,1.47-1.54.52-3.61.81-5.49,1.41-1,.32-1.19.38-.69,1.96.35,1.11.98,2.46,1.14,2.62.69.51,3.24-.32,4.23-.65,1.21-.4,1.66-1.46,2.43-1.72.85-.29.95.2,1.27.3.79.3.96.41,1.34,1.51,1.28,3.67.64,4.03-3.18,5.49-1.41.54-1.68.72-1.38,1.63.51,1.55.62,1.95.64,2.02.47,1.45,1.02,1.96,2.74,1.38,1.79-.6,3.72-1.74,5.21-2.69,1.24-.8,1.77-1.92,2.98-2.35,1.45-.52,2.61.2,3.32,2.12.21.56.36,1.22.4,1.84.03.32-.15.61-.09.94Z"/>
      <path class="cls-6" d="M484.66,497.19c-.43,1.1-2.46,2.14-2.09,3,.38.88,2.06,2.47,2.38,2.78.71.73,1.85,1.62,2.57,2.46.58.68,1.08,1.69,1.65,2.47.59.81,1.28,1.44,1.62,2.22.61,1.37-.26,3.99-1,5.01-.39.54-1.87,2.13-3.22,2.69-2.37.99-4.54-4.02-6.96-7.67-.62-.89-1.3-1.79-2.21-2.98-1.2-1.57-1.77-3-2.71-2.62-1.7.68-1.6,1.06-1.14,2.23.07.18.11.27.18.46.18.46.37,1.03.57,1.72.46,1.59.93,3.53,1.66,5.38.43,1.08,1.1,1.96,1.39,2.7.84,2.12-.31,3.6-1.89,4.21-1.97.76-3.43,1.25-4.48-1.54-1.42-3.8-1.29-7.12-2.61-10.6-.39-1.04-.89-2.12-1.32-3.26-.85-2.25-1.19-3.98-2.41-7.19-.67-1.77-.9-2.26-1.9-2.77-.42-.26-.87.05-1.32-1.16-.34-.92-.29-2.51.54-3.49.18-.21.43-.36.73-.47.02,0,.08,0,.14-.03.3-.11.56-.27.79-.47.55-.41,1-.99,1.3-1.2.53-.37,1.25-.66,1.94-.93.5-.2,1.01-.35,1.47-.53,2.76-1.11,4.94-2.93,6.71-3.68,1.05-.45,1.1-.47,2.97.43,1.22.62,1.52.6,2.64,1.92.23.27.44.6.62,1,.22.5.42.95.73,1.4.94,1.57,1.77,2.47,2.27,3.58.28.64.5,1.28.56,2.18.05.77.02,2.2-.18,2.74ZM478.62,492.64c-.65-.53-.9-1.16-1.25-1.35-.67-.36-1.71-.26-2.52.08-.47.2-1.13.51-1.82.89-.34.19-1.07.64-2.16,1.3-.72.44-2.77,1.69-2.5,2.36.2.5.63,1.16.82,1.51.56,1.04.89,2.15,1.4,2.81.4-.35.83-.55,1.22-.71.52-.21,1.02-.35,1.64-.6,1.31-.53,3.08-1.81,4.56-2.47.35-.16.73-.25,1.03-.38.75-.32,1.63-1.43,1.13-2.57-.02-.04-.02-.06-.04-.09-.2-.31-.84-.25-1.51-.79Z"/>
    </g>
    <path class="cls-6" d="M297.01,561.81s35.42,40.63,80.07,46.92c44.65,6.3,107.51-15.24,107.51-15.24,0,0-22.71,83.83-29.31,95.69,0,0-131.26-46.84-174.8-39.15,0,0,12.16-69.91,16.52-88.22Z"/>
    <g>
      <path class="cls-28" d="M376.29,584.53c-.54.8.09,1.43-.29,1.98-2.15,3.13-10.21,4.56-19.95,4.95-7.52.3-19.96.81-27.49.29-7.19-.5-20.96-2.83-22.91-5.19-.3-.47.07-1.7.7-2.34,1.46-1.49,6.27-2.51,12.29-1.92,1.59.15,6.89,1.78,9.22,2.29,1.19.27,2.75.32,3.53.56,2.66.62,3.28,1.58,8.45,1.79,2.03.08,3.98-.06,6.01-.01,2.46.06,4.37.25,6.32.27,5.09.05,7.69-1.19,8.38-2.12-3.19-8.7-26.62-5.8-25.96-7.56.91-2.44,20.02.84,28.3-4.59.59-.83-.77-2.23.37-3.87.25-.35.37-.53.61-.89.46-.67,1.99-5.35-3.51-5.29-5.03.06-5.53.74-6.32,1.84-.23.32-.38.63-.62.97-.34.48-.82,1.03-1.43,1.63-1.19,1.18-2.22,1.8-3.15,2.7-.33.44-.42.78-.72,1.18-1.26,1.67-2.69,2.4-10.7,2.01-2.21-.11-4.41-.55-6.94-.72-3.26-.22-6.82-.04-8.45-.19-.16-.02-.24-.02-.41-.04-1.71-.16-2.82-.44-3.25-1.11-.45-.71-4.27-2.05-2.98-3.48.58-.66,2.19-1.28,2.77-1.94,2.26-2.27,3.52-4.81,8.55-6.13.88-.25,2.87-.34,4.14-.67,3.32-.83,1.84-1.28,15.11-1.44,6.86-.08,15.49-1.06,19.65-1.17,2.2-.06,10.2-.03,12.79.31,1.39.21,2.6.72,4.15,1.02,1.8.35,4.2.42,4.89.65,3.27,1.1,1.4,6.58-1.33,11.05-1.9,3.1-4.84,5.54-10.38,7.01-1.91.47-8.56,1.32-8.82,1.7-.13.19,6.51.9,6.51.9,5.13.78,7.88.91,6.9,2.84-.43.84-3.27,1.62-4.02,2.72Z"/>
      <path class="cls-28" d="M474.53,573.78c-.79,2.01-4.63,5.05-15.13,7.82-14.18,3.74-14.45,2.59-12.91-.7.33-.7.84-1.47,1.44-2.3-4.61,1.5-9.09,2.8-15.76,4.44-2.34.58-4.65,1.55-6.62,1.9-1.28.23-2.63.3-3.92.51-2.99.5-6.63,1.53-8.94,1.86-2.06.29-4.24.12-7.75.55-1.2.15-1.8.22-3,.36-9.09,1.05-16.68-1.45-16.44-1.81-.28-.19.59-2.34.71-2.57.11-.23.37-.82.89-1.63,1.41-2.21,3.74-4.17,5.22-6.59.36-.59.57-1.2.96-1.85.63-1.04,2.03-1.45,2.89-2.26.35-.2.54-.4.67-.63.07-.11.05-.22.12-.33.13-.23.48-.46.88-.73.41-.28.75-.47,4.24-1.96.52-.25,1.04-.5,1.47-.74,2.62-1.45,3.5-2.72,5.69-3.43,1.44-.47,6.63-1.44,10.15-2.31,5.03-1.25,12.64-3.02,19.26-4.51,9.42-2.12,13.12-1.64,19.7-3.04,1.15-1.72,2.25-4.14,3.09-6.48.87-2.43.46-4.69.98-6.23.38-1.11,4.13-4.36,8.4-5.77,3.28-1.09,7.42-1.51,7.13-.51-.16.53-1.06,1.36-1.13,1.96-.05.44,1.05.98,1.2,1.52.37,1.34-2.31,7.16-1.86,10.56.17,1.26,3.05.82,2.43,2.67-.25.75-.85,1.71-1.21,2.75-1,4.63-1.57,10.43-2.35,15.55-.3,1.56-.01,2.73-.49,3.95ZM444.47,564.17c-2.91.47-2.95.07-5.64.67-4.15.92-8.42,1.85-10.86,2.85-2.51,1.03-6.07,4.55-7.44,7.17-1.34,2.56-.42,3.29,4.27,2.46,4.19-.74,10.22-2.73,12.86-3.4,2.52-.64,14.23-3.82,15.24-4.46.38-.21.76-.74,1.01-1.33.45-1.07.61-2.51.71-2.76.04-.09,1.65-1.89,2.09-2.96.16-.4.13-.69-.1-.82-.87-.18-7.09,1.74-12.13,2.58Z"/>
    </g>
    <path class="cls-30" d="M343.63,160.6c-2.98,26.23-5.96,52.45-8.94,78.68-.89,7.82,7.53,15.33,15,15,8.89-.4,14.05-6.62,15-15,2.98-26.23,5.96-52.45,8.94-78.68.89-7.82-7.53-15.33-15-15-8.89.4-14.05,6.62-15,15h0Z"/>
    <g>
      <circle class="cls-9" cx="636.41" cy="440.23" r="106.81"/>
      <circle class="cls-26" cx="635.5" cy="428.45" r="106.81"/>
      <path class="cls-10" d="M405.75,265.45s66.75-65.67,112.9-28.65c62.55,50.18-41.41,93.6-47.65,154.52-4.72,46.18,37.74,31.07,37.74,31.07"/>
      <circle class="cls-32" cx="543.34" cy="424.62" r="11.96"/>
      <path class="cls-30" d="M537.84,416.46c-10.13,0-20.25,0-30.38,0-9.65,0-9.67,15,0,15,10.13,0,20.25,0,30.38,0s9.67-15,0-15h0Z"/>
      <path class="cls-34" d="M410.37,272.67c4.04-3.76,8.07-7.52,12.11-11.28,2.97-2.76,2.79-7.81,0-10.61-2.96-2.96-7.63-2.77-10.61,0-4.04,3.76-8.07,7.52-12.11,11.28-2.97,2.76-2.79,7.81,0,10.61,2.96,2.96,7.63,2.77,10.61,0h0Z"/>
      <text class="cls-20" transform="translate(617.67 450.3) rotate(-75.01)"><tspan class="cls-16"><tspan class="cls-6" x="0" y="0">2</tspan><tspan class="cls-4" x="24.05" y="0">D</tspan></tspan><tspan class="cls-33"><tspan class="cls-3" x="-67.49" y="40.8">I</tspan><tspan class="cls-21" x="-58.18" y="40.8">L</tspan><tspan class="cls-6" x="-42.09" y="40.8">L</tspan><tspan class="cls-3" x="-26" y="40.8">U</tspan><tspan class="cls-21" x="-9.42" y="40.8">S</tspan><tspan class="cls-3" x="9.72" y="40.8">T</tspan><tspan class="cls-2" x="28.25" y="40.8">R</tspan><tspan class="cls-1" x="47.42" y="40.8">A</tspan><tspan class="cls-22" x="66.88" y="40.8">T</tspan><tspan class="cls-6" x="85.04" y="40.8">O</tspan><tspan class="cls-3" x="102.92" y="40.8">R</tspan></tspan></text>
    </g>
    <g>
      <rect class="cls-31" x="34.71" y="443.03" width="259.66" height="134.16" rx="15.22" ry="15.22" transform="translate(-317.78 276.34) rotate(-46.26)"/>
      <rect class="cls-31" x="228.14" y="393.28" width="54.57" height="34.69" rx="17.35" ry="17.35" transform="translate(-217.85 311.3) rotate(-46.26)"/>
      <rect class="cls-6" x="48.21" y="460.36" width="232.66" height="96.33" rx="15.22" ry="15.22" transform="translate(-316.64 275.85) rotate(-46.26)"/>
      <circle class="cls-6" cx="262.29" cy="404.77" r="8.98"/>
    </g>
    <path class="cls-30" d="M269.78,404.01c10.07-12.63,20.15-25.25,30.22-37.88,3.97-4.98-3.06-12.1-7.07-7.07-10.07,12.63-20.15,25.25-30.22,37.88-3.97,4.98,3.06,12.1,7.07,7.07h0Z"/>
    <text class="cls-19" transform="translate(106.01 587.28) rotate(-46.26) scale(.85 1)"><tspan x="0" y="0">ANIM</tspan><tspan class="cls-23" x="101.48" y="0">A</tspan><tspan x="128.38" y="0">TION</tspan></text>
    <g>
      <path class="cls-28" d="M178.51,218.86L9.44,259.63c-5.85,1.41-9.82,6.85-9.42,12.89l6.92,102.45c.22,3.31,1.75,6.39,4.24,8.57l18.03,15.74c3.01,2.63,7.09,3.64,10.96,2.72l167.73-39.84c5.8-1.38,9.79-6.73,9.47-12.72l-5.42-102.24c-.17-3.24-1.6-6.29-3.98-8.5l-18.2-16.88c-3.04-2.82-7.27-3.93-11.28-2.96Z"/>
      <g>
        <path class="cls-8" d="M180.34,229.89l9.99,106.1c.07.72-.4,1.38-1.11,1.55l-168.93,40.66c-.86.21-1.7-.39-1.79-1.26-1.37-13.79-10.77-109.11-9.65-109.39s152.39-34.97,169.72-38.94c.86-.2,1.68.41,1.77,1.28Z"/>
        <polygon class="cls-25" points="180.02 227.92 196.47 244.97 205.15 351.49 189.68 335.8 180.02 227.92"/>
        <polygon class="cls-5" points="190.44 336.81 205.15 351.05 38.42 392.73 18.66 378.15 190.44 336.81"/>
      </g>
      <rect class="cls-28" x="200.74" y="274.99" width="34.84" height="34.84" rx="17.42" ry="17.42" transform="translate(490.51 49.67) rotate(85.02)"/>
      <text class="cls-7" transform="translate(125.51 243) rotate(85.02) scale(.45 1)"><tspan class="cls-17" x="0" y="0">V</tspan><tspan x="31.83" y="0">S CODE</tspan></text>
      <circle class="cls-6" cx="219.2" cy="292.15" r="12.05"/>
      <path class="cls-6" d="M77.01,251.83s-22.02,12.26-18.53,31.16c3.49,18.9,28.14,23.91,31.14,42.98,2.99,19.07-9.25,36.65-9.25,36.65l-62.16,15.57-9.81-110.6,68.62-15.76Z"/>
      <g>
        <path class="cls-29" d="M94.85,336.05s-5.94-13.56-19.63-9.28c-8.21,2.57-11.95,25.39,5.14,26.21s16.3-10.91,14.49-16.93Z"/>
        <path class="cls-27" d="M72.98,333.49s1.23-5.51,7.05-4.65c5.82.86-2.71,1.73-4.33,3.4-1.62,1.66-3.11,3.33-2.72,1.25Z"/>
        <path class="cls-24" d="M90.49,339.73s8.8.88,10.97-.93c0,0,1.1.89.27,1.88s-11.14-.11-11.14-.11l6.27,3.89s-5.32-2.94-6.07-2.78,1.62,7.39,1.62,7.39l-3.88-7.76-6.65-1.98s6.22,1.02,6.77.68c.56-.34-1.72-8.64-1.72-8.64l3.47,6.81s4.99-1.49,5.84-3.1c0,0-1.28,3.45-5.76,4.65Z"/>
        <path class="cls-27" d="M73.28,338.27s.29-1.35-.55-1.98-1.94,1.33-1.1,2.3,1.6.24,1.65-.32Z"/>
      </g>
      <g>
        <path class="cls-29" d="M76.94,308.27s.42-14.8-13.79-16.78c-8.52-1.19-21.65,17.86-6.55,25.9,15.1,8.04,19.4-2.91,20.33-9.12Z"/>
        <path class="cls-27" d="M58.26,296.61s3.46-4.45,8.36-1.19c4.9,3.26-3.19.41-5.36,1.23-2.17.81-4.24,1.68-3-.03Z"/>
        <path class="cls-24" d="M71.43,309.74s7.58,4.56,10.32,3.84c0,0,.62,1.28-.56,1.82-1.18.54-10.02-4.85-10.02-4.85l4.01,6.19s-3.56-4.93-4.3-5.11c-.75-.18-1.69,7.37-1.69,7.37l-.19-8.67-5.16-4.63s5.18,3.58,5.83,3.51,2.14-8.55,2.14-8.55l.23,7.64s5.15.79,6.61-.31c0,0-2.63,2.57-7.2,1.75Z"/>
        <path class="cls-27" d="M56.48,301.06s.84-1.09.35-2.03-2.32.37-1.97,1.61c.35,1.24,1.35.9,1.63.41Z"/>
      </g>
      <g>
        <path class="cls-29" d="M98.86,283.26s.39-14.01-13.05-15.88c-8.07-1.12-20.49,16.9-6.2,24.51,14.3,7.61,18.36-2.75,19.25-8.63Z"/>
        <path class="cls-27" d="M81.18,272.22s3.28-4.21,7.91-1.13c4.63,3.09-3.02.39-5.08,1.16s-4.01,1.59-2.83-.03Z"/>
        <path class="cls-24" d="M93.64,284.65s7.18,4.32,9.76,3.64c0,0,.59,1.21-.53,1.72s-9.49-4.59-9.49-4.59l3.79,5.86s-3.37-4.66-4.07-4.84c-.71-.17-1.6,6.98-1.6,6.98l-.18-8.21-4.89-4.38s4.91,3.39,5.52,3.32c.62-.06,2.02-8.09,2.02-8.09l.22,7.23s4.87.75,6.25-.29c0,0-2.49,2.44-6.81,1.65Z"/>
        <path class="cls-27" d="M79.5,276.43s.79-1.03.33-1.92-2.19.35-1.87,1.53c.33,1.17,1.27.85,1.54.39Z"/>
      </g>
      <g>
        <path class="cls-29" d="M56.83,333.89s-5.94-13.56-19.63-9.28c-8.21,2.57-11.95,25.39,5.14,26.21s16.3-10.91,14.49-16.93Z"/>
        <path class="cls-27" d="M34.96,331.33s1.23-5.51,7.05-4.65c5.82.86-2.71,1.73-4.33,3.4s-3.11,3.33-2.72,1.25Z"/>
        <path class="cls-24" d="M52.48,337.57s8.8.88,10.97-.93c0,0,1.1.89.27,1.88-.84,1-11.14-.11-11.14-.11l6.27,3.89s-5.32-2.94-6.07-2.78,1.62,7.39,1.62,7.39l-3.88-7.76-6.65-1.98s6.22,1.02,6.77.68-1.72-8.64-1.72-8.64l3.47,6.81s4.99-1.49,5.84-3.1c0,0-1.28,3.45-5.76,4.65Z"/>
        <path class="cls-27" d="M35.26,336.11s.29-1.35-.55-1.98-1.94,1.33-1.1,2.3c.84.97,1.6.24,1.65-.32Z"/>
      </g>
      <g>
        <path class="cls-29" d="M53.98,285.39s.42-14.8-13.79-16.78c-8.52-1.19-21.65,17.86-6.55,25.9,15.1,8.04,19.4-2.91,20.33-9.12Z"/>
        <path class="cls-27" d="M35.3,273.73s3.46-4.45,8.36-1.19c4.9,3.26-3.19.41-5.36,1.23-2.17.81-4.24,1.68-3-.03Z"/>
        <path class="cls-24" d="M48.46,286.86s7.58,4.56,10.32,3.84c0,0,.62,1.28-.56,1.82s-10.02-4.85-10.02-4.85l4.01,6.19s-3.56-4.93-4.3-5.11-1.69,7.37-1.69,7.37l-.19-8.67-5.16-4.63s5.18,3.58,5.83,3.51,2.14-8.55,2.14-8.55l.23,7.64s5.15.79,6.61-.31c0,0-2.63,2.57-7.2,1.75Z"/>
        <path class="cls-27" d="M33.52,278.19s.84-1.09.35-2.03-2.32.37-1.97,1.61,1.35.9,1.63.41Z"/>
      </g>
      <line class="cls-14" x1="115.37" y1="242.82" x2="130.11" y2="351.59"/>
      <line class="cls-13" x1="108.7" y1="244.52" x2="126.04" y2="352.91"/>
      <g>
        <path class="cls-29" d="M113.6,311.58s-5.94-13.56-19.63-9.28c-8.21,2.57-11.95,25.39,5.14,26.21,17.09.82,16.3-10.91,14.49-16.93Z"/>
        <path class="cls-27" d="M91.73,309.02s1.23-5.51,7.05-4.65-2.71,1.73-4.33,3.4-3.11,3.33-2.72,1.25Z"/>
        <path class="cls-24" d="M109.24,315.27s8.8.88,10.97-.93c0,0,1.1.89.27,1.88-.84,1-11.14-.11-11.14-.11l6.27,3.89s-5.32-2.94-6.07-2.78c-.75.16,1.62,7.39,1.62,7.39l-3.88-7.76-6.65-1.98s6.22,1.02,6.77.68-1.72-8.64-1.72-8.64l3.47,6.81s4.99-1.49,5.84-3.1c0,0-1.28,3.45-5.76,4.65Z"/>
        <path class="cls-27" d="M92.03,313.8s.29-1.35-.55-1.98c-.84-.63-1.94,1.33-1.1,2.3.84.97,1.6.24,1.65-.32Z"/>
      </g>
    </g>
    <path class="cls-30" d="M229.22,301.86c14.75-.28,29.5-.57,44.25-.85,12.85-.25,12.9-20.25,0-20-14.75.28-29.5.57-44.25.85-12.85.25-12.9,20.25,0,20h0Z"/>
  </g>
</svg>