<?xml version="1.0" encoding="UTF-8"?>
<svg id="Layer_2" data-name="Layer 2" xmlns="http://www.w3.org/2000/svg" viewBox="0 0 743.23 719.82">
  <defs>
    <style>
      .cls-1 {
        fill: #80c7ce;
      }

      .cls-2 {
        fill: #8bd4e0;
      }

      .cls-3 {
        fill: #f48ca4;
      }

      .cls-4 {
        fill: #37489e;
      }

      .cls-5 {
        stroke: #37489e;
        stroke-width: 6px;
      }

      .cls-5, .cls-6, .cls-7, .cls-8, .cls-9 {
        fill: none;
      }

      .cls-5, .cls-6, .cls-7, .cls-8, .cls-9, .cls-10 {
        stroke-miterlimit: 10;
      }

      .cls-6 {
        stroke: #aaa;
      }

      .cls-6, .cls-7 {
        stroke-width: 32px;
      }

      .cls-11 {
        fill: #f5bc18;
      }

      .cls-12 {
        fill: #ee2c25;
      }

      .cls-13 {
        fill: #74a535;
      }

      .cls-14 {
        fill: #fff099;
      }

      .cls-7 {
        stroke: #d1d1d1;
      }

      .cls-15 {
        fill: #017348;
      }

      .cls-8, .cls-9 {
        stroke: #fff099;
      }

      .cls-16 {
        fill: #b2f2f9;
      }

      .cls-17 {
        fill: #ffa4bc;
      }

      .cls-18 {
        fill: #efd7bc;
      }

      .cls-19 {
        fill: #f36c32;
      }

      .cls-20 {
        fill: #ed2a25;
      }

      .cls-21 {
        fill: #a5a5a5;
      }

      .cls-9 {
        stroke-width: 4px;
      }

      .cls-22 {
        fill: #027248;
      }

      .cls-10 {
        fill: #fff8ee;
        stroke: #ee2c25;
        stroke-width: 15px;
      }

      .cls-23 {
        fill: #72311a;
      }

      .cls-24 {
        fill: #d1d1d1;
      }
    </style>
  </defs>
  <g id="Layer_1-2" data-name="Layer 1">
    <circle class="cls-10" cx="344.93" cy="310.42" r="78.11"/>
    <path class="cls-6" d="M391.08,201.61l-10.64-7.76c-12.64-9.22-29.44-10.37-43.22-2.97l-11.6,6.23c-18.88,10.15-40.48-7.93-33.82-28.3l4.09-12.51c4.86-14.87.77-31.2-10.53-42.02l-9.51-9.1c-15.49-14.82-4.97-40.95,16.47-40.91l13.17.03c15.64.03,29.91-8.91,36.71-23l5.72-11.86c9.31-19.31,37.41-17.38,43.99,3.02l4.04,12.53c4.8,14.89,17.72,25.7,33.22,27.8l13.05,1.77c21.24,2.89,28.09,30.21,10.72,42.77l-10.67,7.72c-12.67,9.17-18.96,24.79-16.18,40.18l2.35,12.96c3.82,21.09-20.05,36.05-37.37,23.41Z"/>
    <path class="cls-7" d="M384.07,207.38l-10.64-7.76c-12.64-9.22-29.44-10.37-43.22-2.97l-11.6,6.23c-18.88,10.15-40.48-7.93-33.82-28.3l4.09-12.51c4.86-14.87.77-31.2-10.53-42.02l-9.51-9.1c-15.49-14.82-4.97-40.95,16.47-40.91l13.17.03c15.64.03,29.91-8.91,36.71-23l5.72-11.86c9.31-19.31,37.41-17.38,43.99,3.02l4.04,12.53c4.8,14.89,17.72,25.7,33.22,27.8l13.05,1.77c21.24,2.89,28.09,30.21,10.72,42.77l-10.67,7.72c-12.67,9.17-18.96,24.79-16.18,40.18l2.35,12.96c3.82,21.09-20.05,36.05-37.37,23.41Z"/>
    <g>
      <path class="cls-11" d="M337.99,421.32h0c-2.08-4.67,2.15-9.69,7.11-8.41l162.88,41.76c4.37,1.12,6.06,6.42,3.16,9.87l-2.27,2.7c-.77.91-1.25,2.02-1.39,3.21-1.27,10.72-8.41,67.62-23.12,126.2-14.49,57.73-31.67,101.64-35.35,110.79-.47,1.16-.56,2.42-.28,3.64l.29,1.26c1.02,4.46-3.03,8.43-7.47,7.3l-163.04-41.44c-4.37-1.11-6.08-6.4-3.19-9.86l1.63-1.94c.7-.84,1.16-1.84,1.34-2.92,1.95-11.74,14.07-83.64,23.77-120.43,10.13-38.4,28.95-98.15,36.08-117.09.57-1.5.51-3.16-.14-4.63Z"/>
      <g>
        <path class="cls-14" d="M345.95,427.49c-.48,2.3-.96,4.59-1.44,6.89-.07.33-.14.65-.2.98-.14.66-.1,1.33.25,1.93.3.52.9,1.01,1.49,1.15,1.25.29,2.79-.38,3.08-1.75.48-2.3.96-4.59,1.44-6.89.07-.33.14-.65.2-.98.14-.66.1-1.33-.25-1.93-.3-.52-.9-1.01-1.49-1.15-1.25-.29-2.79.38-3.08,1.75h0Z"/>
        <path class="cls-14" d="M358.74,431.03c-.48,2.3-.96,4.59-1.44,6.89-.07.33-.14.65-.2.98-.14.66-.1,1.33.25,1.93.3.52.9,1.01,1.49,1.15,1.25.29,2.79-.38,3.08-1.75.48-2.3.96-4.59,1.44-6.89.07-.33.14-.65.2-.98.14-.66.1-1.33-.25-1.93-.3-.52-.9-1.01-1.49-1.15-1.25-.29-2.79.38-3.08,1.75h0Z"/>
        <path class="cls-14" d="M372.42,434.66c-.48,2.3-.96,4.59-1.44,6.89-.07.33-.14.65-.2.98-.14.66-.1,1.33.25,1.93.3.52.9,1.01,1.49,1.15,1.25.29,2.79-.38,3.08-1.75.48-2.3.96-4.59,1.44-6.89.07-.33.14-.65.2-.98.14-.66.1-1.33-.25-1.93-.3-.52-.9-1.01-1.49-1.15-1.25-.29-2.79.38-3.08,1.75h0Z"/>
        <path class="cls-14" d="M386.23,437.94c-.48,2.3-.96,4.59-1.44,6.89-.07.33-.14.65-.2.98-.14.66-.1,1.33.25,1.93.3.52.9,1.01,1.49,1.15,1.25.29,2.79-.38,3.08-1.75.48-2.3.96-4.59,1.44-6.89.07-.33.14-.65.2-.98.14-.66.1-1.33-.25-1.93-.3-.52-.9-1.01-1.49-1.15-1.25-.29-2.79.38-3.08,1.75h0Z"/>
        <path class="cls-14" d="M399.02,441.48c-.48,2.3-.96,4.59-1.44,6.89-.07.33-.14.65-.2.98-.14.66-.1,1.33.25,1.93.3.52.9,1.01,1.49,1.15,1.25.29,2.79-.38,3.08-1.75.48-2.3.96-4.59,1.44-6.89.07-.33.14-.65.2-.98.14-.66.1-1.33-.25-1.93-.3-.52-.9-1.01-1.49-1.15-1.25-.29-2.79.38-3.08,1.75h0Z"/>
        <path class="cls-14" d="M412.69,445.11c-.48,2.3-.96,4.59-1.44,6.89-.07.33-.14.65-.2.98-.14.66-.1,1.33.25,1.93.3.52.9,1.01,1.49,1.15,1.25.29,2.79-.38,3.08-1.75.48-2.3.96-4.59,1.44-6.89.07-.33.14-.65.2-.98.14-.66.1-1.33-.25-1.93-.3-.52-.9-1.01-1.49-1.15-1.25-.29-2.79.38-3.08,1.75h0Z"/>
        <path class="cls-14" d="M426.26,449.01c-.48,2.3-.96,4.59-1.44,6.89-.07.33-.14.65-.2.98-.14.66-.1,1.33.25,1.93.3.52.9,1.01,1.49,1.15,1.25.29,2.79-.38,3.08-1.75.48-2.3.96-4.59,1.44-6.89.07-.33.14-.65.2-.98.14-.66.1-1.33-.25-1.93-.3-.52-.9-1.01-1.49-1.15-1.25-.29-2.79.38-3.08,1.75h0Z"/>
        <path class="cls-14" d="M439.05,452.55c-.48,2.3-.96,4.59-1.44,6.89-.07.33-.14.65-.2.98-.14.66-.1,1.33.25,1.93.3.52.9,1.01,1.49,1.15,1.25.29,2.79-.38,3.08-1.75.48-2.3.96-4.59,1.44-6.89.07-.33.14-.65.2-.98.14-.66.1-1.33-.25-1.93-.3-.52-.9-1.01-1.49-1.15-1.25-.29-2.79.38-3.08,1.75h0Z"/>
        <path class="cls-14" d="M452.72,456.18c-.48,2.3-.96,4.59-1.44,6.89-.07.33-.14.65-.2.98-.14.66-.1,1.33.25,1.93.3.52.9,1.01,1.49,1.15,1.25.29,2.79-.38,3.08-1.75.48-2.3.96-4.59,1.44-6.89.07-.33.14-.65.2-.98.14-.66.1-1.33-.25-1.93-.3-.52-.9-1.01-1.49-1.15-1.25-.29-2.79.38-3.08,1.75h0Z"/>
        <path class="cls-14" d="M466.53,459.46c-.48,2.3-.96,4.59-1.44,6.89-.07.33-.14.65-.2.98-.14.66-.1,1.33.25,1.93.3.52.9,1.01,1.49,1.15,1.25.29,2.79-.38,3.08-1.75.48-2.3.96-4.59,1.44-6.89.07-.33.14-.65.2-.98.14-.66.1-1.33-.25-1.93-.3-.52-.9-1.01-1.49-1.15-1.25-.29-2.79.38-3.08,1.75h0Z"/>
        <path class="cls-14" d="M479.32,463c-.48,2.3-.96,4.59-1.44,6.89-.07.33-.14.65-.2.98-.14.66-.1,1.33.25,1.93.3.52.9,1.01,1.49,1.15,1.25.29,2.79-.38,3.08-1.75.48-2.3.96-4.59,1.44-6.89.07-.33.14-.65.2-.98.14-.66.1-1.33-.25-1.93-.3-.52-.9-1.01-1.49-1.15-1.25-.29-2.79.38-3.08,1.75h0Z"/>
        <path class="cls-14" d="M493,466.63c-.48,2.3-.96,4.59-1.44,6.89-.07.33-.14.65-.2.98-.14.66-.1,1.33.25,1.93.3.52.9,1.01,1.49,1.15,1.25.29,2.79-.38,3.08-1.75.48-2.3.96-4.59,1.44-6.89.07-.33.14-.65.2-.98.14-.66.1-1.33-.25-1.93-.3-.52-.9-1.01-1.49-1.15-1.25-.29-2.79.38-3.08,1.75h0Z"/>
      </g>
      <g>
        <path class="cls-14" d="M288.06,659.45c-.48,2.3-.96,4.59-1.44,6.89-.07.33-.14.65-.2.98-.14.66-.1,1.33.25,1.93.3.52.9,1.01,1.49,1.15,1.25.29,2.79-.38,3.08-1.75.48-2.3.96-4.59,1.44-6.89.07-.33.14-.65.2-.98.14-.66.1-1.33-.25-1.93-.3-.52-.9-1.01-1.49-1.15-1.25-.29-2.79.38-3.08,1.75h0Z"/>
        <path class="cls-14" d="M300.85,662.99c-.48,2.3-.96,4.59-1.44,6.89-.07.33-.14.65-.2.98-.14.66-.1,1.33.25,1.93.3.52.9,1.01,1.49,1.15,1.25.29,2.79-.38,3.08-1.75.48-2.3.96-4.59,1.44-6.89.07-.33.14-.65.2-.98.14-.66.1-1.33-.25-1.93-.3-.52-.9-1.01-1.49-1.15-1.25-.29-2.79.38-3.08,1.75h0Z"/>
        <path class="cls-14" d="M314.53,666.62c-.48,2.3-.96,4.59-1.44,6.89-.07.33-.14.65-.2.98-.14.66-.1,1.33.25,1.93.3.52.9,1.01,1.49,1.15,1.25.29,2.79-.38,3.08-1.75.48-2.3.96-4.59,1.44-6.89.07-.33.14-.65.2-.98.14-.66.1-1.33-.25-1.93-.3-.52-.9-1.01-1.49-1.15-1.25-.29-2.79.38-3.08,1.75h0Z"/>
        <path class="cls-14" d="M328.34,669.9c-.48,2.3-.96,4.59-1.44,6.89-.07.33-.14.65-.2.98-.14.66-.1,1.33.25,1.93.3.52.9,1.01,1.49,1.15,1.25.29,2.79-.38,3.08-1.75.48-2.3.96-4.59,1.44-6.89.07-.33.14-.65.2-.98.14-.66.1-1.33-.25-1.93-.3-.52-.9-1.01-1.49-1.15-1.25-.29-2.79.38-3.08,1.75h0Z"/>
        <path class="cls-14" d="M341.13,673.44c-.48,2.3-.96,4.59-1.44,6.89-.07.33-.14.65-.2.98-.14.66-.1,1.33.25,1.93.3.52.9,1.01,1.49,1.15,1.25.29,2.79-.38,3.08-1.75.48-2.3.96-4.59,1.44-6.89.07-.33.14-.65.2-.98.14-.66.1-1.33-.25-1.93-.3-.52-.9-1.01-1.49-1.15-1.25-.29-2.79.38-3.08,1.75h0Z"/>
        <path class="cls-14" d="M354.8,677.07c-.48,2.3-.96,4.59-1.44,6.89-.07.33-.14.65-.2.98-.14.66-.1,1.33.25,1.93.3.52.9,1.01,1.49,1.15,1.25.29,2.79-.38,3.08-1.75.48-2.3.96-4.59,1.44-6.89.07-.33.14-.65.2-.98.14-.66.1-1.33-.25-1.93-.3-.52-.9-1.01-1.49-1.15-1.25-.29-2.79.38-3.08,1.75h0Z"/>
        <path class="cls-14" d="M368.37,680.97c-.48,2.3-.96,4.59-1.44,6.89-.07.33-.14.65-.2.98-.14.66-.1,1.33.25,1.93.3.52.9,1.01,1.49,1.15,1.25.29,2.79-.38,3.08-1.75.48-2.3.96-4.59,1.44-6.89.07-.33.14-.65.2-.98.14-.66.1-1.33-.25-1.93-.3-.52-.9-1.01-1.49-1.15-1.25-.29-2.79.38-3.08,1.75h0Z"/>
        <path class="cls-14" d="M381.16,684.51c-.48,2.3-.96,4.59-1.44,6.89-.07.33-.14.65-.2.98-.14.66-.1,1.33.25,1.93.3.52.9,1.01,1.49,1.15,1.25.29,2.79-.38,3.08-1.75.48-2.3.96-4.59,1.44-6.89.07-.33.14-.65.2-.98.14-.66.1-1.33-.25-1.93-.3-.52-.9-1.01-1.49-1.15-1.25-.29-2.79.38-3.08,1.75h0Z"/>
        <path class="cls-14" d="M394.83,688.14c-.48,2.3-.96,4.59-1.44,6.89-.07.33-.14.65-.2.98-.14.66-.1,1.33.25,1.93.3.52.9,1.01,1.49,1.15,1.25.29,2.79-.38,3.08-1.75.48-2.3.96-4.59,1.44-6.89.07-.33.14-.65.2-.98.14-.66.1-1.33-.25-1.93-.3-.52-.9-1.01-1.49-1.15-1.25-.29-2.79.38-3.08,1.75h0Z"/>
        <path class="cls-14" d="M408.64,691.42c-.48,2.3-.96,4.59-1.44,6.89-.07.33-.14.65-.2.98-.14.66-.1,1.33.25,1.93.3.52.9,1.01,1.49,1.15,1.25.29,2.79-.38,3.08-1.75.48-2.3.96-4.59,1.44-6.89.07-.33.14-.65.2-.98.14-.66.1-1.33-.25-1.93-.3-.52-.9-1.01-1.49-1.15-1.25-.29-2.79.38-3.08,1.75h0Z"/>
        <path class="cls-14" d="M421.43,694.96c-.48,2.3-.96,4.59-1.44,6.89-.07.33-.14.65-.2.98-.14.66-.1,1.33.25,1.93.3.52.9,1.01,1.49,1.15,1.25.29,2.79-.38,3.08-1.75.48-2.3.96-4.59,1.44-6.89.07-.33.14-.65.2-.98.14-.66.1-1.33-.25-1.93-.3-.52-.9-1.01-1.49-1.15-1.25-.29-2.79.38-3.08,1.75h0Z"/>
        <path class="cls-14" d="M435.11,698.59c-.48,2.3-.96,4.59-1.44,6.89-.07.33-.14.65-.2.98-.14.66-.1,1.33.25,1.93.3.52.9,1.01,1.49,1.15,1.25.29,2.79-.38,3.08-1.75.48-2.3.96-4.59,1.44-6.89.07-.33.14-.65.2-.98.14-.66.1-1.33-.25-1.93-.3-.52-.9-1.01-1.49-1.15-1.25-.29-2.79.38-3.08,1.75h0Z"/>
      </g>
    </g>
    <circle class="cls-23" cx="355.39" cy="434.1" r="13.27"/>
    <path class="cls-21" d="M362.82,430.56c-1.28-16.34-2.57-32.68-3.85-49.03-.75-9.56-15.76-9.64-15,0,1.28,16.34,2.57,32.68,3.85,49.03.75,9.56,15.76,9.64,15,0h0Z"/>
    <g>
      <path class="cls-14" d="M344.55,538.5c.01.83.14,1.73.15,2.43.04,2.07-1.63,1.55-1.6,3.36,0,.41.19.83.19,1.21.02,1.45-1.51,1.95-2.59,2.72-1.05.74-1.72,2.08-3.63,2.08-.87,0-1.87-.16-2.78-.17-1.53-.01-1.84.94-3.15.91-1.31-.02-2.54-.85-4.21-.9-1.51-.04-1.87-.78-2.89-.82-.47-.02-.96.12-1.47.1-1.13-.05-3.79-1.78-3.78-1.98,0-.1.14-.17.16-.46.02-.49-.72-1.85-.67-2.86.08-1.55.7-3,1.34-3.69,1.1-1.19,2.25-.13,2.43-4.4.04-1.03-.49-3.08-.39-5.27.07-1.52.89-2.45.96-4.26.1-2.3-.21-5.76-.07-8.86.07-1.65.47-3.12.47-4.23,0-.82-.47-1.65-.44-2.35.12-2.74,1.94-2.7,5.17-2.89,1.06-.06,2.14-.85,3.25-.82.07,0,.11,0,.18,0,1.17.02,2.55.28,3.73.29,1.05,0,2.17-.22,2.91-.22,1.07,0,1.32.84,2.48,1.85.94.82,1.24.69,1.89,1.79.59,1.02,1.82,3.54,1.83,4.48.01.72-.21,1.18-.33,2.08-.16,1.21-.03,2.91-.45,3.91-.56,1.35-2.82,2.8-4.7,2.81.17.91,1.11,1.01,1.58,1.47.4.38.78,1.12,1.2,1.65.41.51,1.09.89,1.34,1.31.18.3.24,1.01.42,1.42.76,1.88,1.54,2.33,1.69,5.07,0,.08,0,.12,0,.21.01.8-.24,1.92-.22,3.03ZM333.3,513.3c-1.75-.02-5.9.03-5.98,2.87-.04,1.24.21,2.96.21,3.79,0,.57-.17,1.47-.18,2.12-.01.49.02.73.33.73.7.02,3.78-.84,4.71-.83.12,0,.25,0,.35.03.1.03.19.03.25.03.07-.03.11-.04.19-.07.62-.23,2.73-1.06,3.06-1.55.21-.26.77-2.92.77-3.28,0-2.9-1.6-3.81-3.69-3.83ZM334.16,528.94c-.64-1.02-.49-1.01-2.08-1.04-.5,0-.74-.01-1.24-.02-1.42-.03-3.35.07-3.43.23-.4.88.09,2.02.07,2.77-.04,1.48-.15,2.2-.16,2.79-.02.59.09,1.25.05,2.67-.03.91-.14,1.78-.15,2.43-.04,1.4,1.61,1.49,2.28,1.51.28,0,.96-.06,1.45-.05.67.01,3-.58,3.7-1.32.65-.69.94-2.43.95-4.29.01-2.04-.35-4.14-.75-5.05-.08-.18-.46-.34-.69-.63Z"/>
      <path class="cls-14" d="M367.22,541.44c.51,6.55-5.41,7.6-11.16,7.87-1.13.05-2.22.07-3.11-.02-1.11-.11-1.97-.73-2.8-.91-1.35-.3-3.84.1-3.88-1.5,0-.31.07-.67.3-1.17,0,.02,0,.03,0,.05.06,0,.53-.61.72-.95.04-.05.09-.13.09-.13.21-.19.44-.28.62-.3.35-.03.65-.15.81-.67.06-.26.09-.73.07-1.4-.07-2.35-.32-5.3-.34-5.71-.04-1.58-.05-3.34-.11-5.2-.1-3.39-.71-6.87-.79-9.79-.05-1.86.51-3.07.46-4.83-.04-1.22-.27-2.27-.3-3.49-.07-2.35.1-3.44,1.53-3.49,1.83-.06,2.55,1.15,3.81,1.64,1.68.66,2.13-.2,2.84,1.99.19.61.49,2.07.57,3.52.09,1.76,0,3.84.09,5.59.05.91.23,1.79.26,2.63.18,4.88-.31,9.96-.03,15.49.01.28,0,.47,0,.6,0,.13-.02.52.52.49,2.67-.14,5.91-1.78,7.14-1.86.97-.07,2.28-.01,2.5.7.09.28.13.56.15.84Z"/>
      <path class="cls-14" d="M391.11,538.14c-.11.93.22,1.88-.33,2.66-.15.2-.36.39-.67.56-.31.17-.97.47-2.04.93-.35.15-.66.32-.93.49-.81.57-1.32,2.13-2.48,2.61-.42.23-1.17.37-1.73.55-1.09.35-3.27,1.1-5.1,1.29-1.87.19-2.03-.57-3.13-.91-1.63-.5-3.42.19-5.22-1.66-.19-.19-.47-1.13-.64-1.43-.67-.93-1.61-1.01-1.71-2.3-.07-.9,1-2.21,1.69-2.26.13-.01.19-.02.32-.03.73-.06.88-1.14.82-1.83-.06-.72-.29-1.61-.39-2.82-.05-.59-.04-1.22-.09-1.76-.07-.85-.37-1.35-.49-1.98-.28-1.56-.5-3.49-.68-5.53-.16-1.86-.1-4.15-.21-5.46-.07-.82-2.05-.45-2.25-3.06-.22-2.73,3.06-5.13,4.91-5.31,1.59-.15,3.39.19,5.14,0,.69-.08,1.71-.76,3.39-.96,1.05-.13,1.24.61,2.21,1.11.32.17.82.19,1.16.35.37.17.72.43.98.5,1.92.58,2.95-.22,3.33,2.5.53,3.77-.89,3.76-3.47,4.46-1.17.32-2.26.57-3.59.73-1.61.19-3.69.03-5.65.23-1.04.11-1.24.12-1.08,1.77.11,1.16.44,2.61.57,2.8.56.65,3.23.37,4.27.25,1.26-.14,1.93-1.08,2.73-1.17.89-.11.88.39,1.18.56.71.46.85.6.99,1.75.48,3.85-.21,4.08-4.25,4.7-1.49.23-1.79.35-1.69,1.3.17,1.62.19,2.03.2,2.11.16,1.52.59,2.13,2.38,1.93,1.88-.21,4-.92,5.64-1.54,1.37-.52,2.13-1.5,3.4-1.68,1.52-.21,2.5.75,2.79,2.77.08.59.1,1.27,0,1.88-.04.32-.27.56-.29.9Z"/>
      <path class="cls-14" d="M414.13,527.43c.3,1.44.34,3.1.68,4.72.12.58.3,1.23.44,1.92.35,1.7.47,3.63-1.33,4-1.03.21-1.74-.57-2.94-.34-.49.1-1.2.34-1.91.47-1.95.37-1.54-.42-2.31-1.67-.2-.25-.56-.42-.87-.79-.64-.83-.67-1.36-1.46-1.89-.74-.5-.91-.57-1.58-1.4-.51-.63-1.06-1.49-1.65-2.23-.6-.76-1.47-1.19-1.93-1.82-.73-.93-1.34-2.5-1.97-3.66.18.99.37,2.01.54,3.03.11.68.17,1.03.28,1.71.19,1.12.39,2.25.64,3.36.25,1.14.61,2,.8,3.15.17,1,0,2.39.1,3.94.15,2.36.6,3.24-1.56,3.58-.63.1-1.78.02-2.11-.14-.17-.08-.42-.72-.72-1.07-.6-.59-.99-.82-1.22-2.38-.26-1.71-.28-3.65-.53-5.28-.1-.69-.56-1.75-.72-2.8-.2-1.36-.36-2.67-.55-3.97-.35-2.35-.97-4.56-1.3-6.79-.25-1.71.31-2.77-.03-5.07-.07-.43-.19-.89-.26-1.3-.33-2.23.58-3.46,2.25-3.73,1.47-.23,4.12.22,4.71.93.3.34.46,1.16.85,1.69.44.61,1.13,1.04,1.43,1.41.19.26.27.82.62,1.41.27.45.85.9,1.34,1.42.42.44.79,1.09,1.17,1.47.92.88,1.93,1.46,2.71,2.29,1.22,1.38,2.1,3.37,2.51,3.29.23-.04.12-.71-.05-1.6-.25-1.3-.74-3.12-.84-3.66-.1-.53.05-1.14-.12-2.03-.27-1.4-.75-2.86-1.05-4.38-.41-2.11-.03-3.84-.36-5.49-.33-1.67-.96-2.61-1.16-3.62-.21-1.09.2-2.25,1.21-2.46.23-.05,2.22-.35,2.88,2.82.14.68.16,1.37.35,2.25.67,3.24,1.77,6.24,2.27,8.62.42,2.03.58,4.11.86,5.45.42,2,1.16,4.12,1.68,5.89.06.28.15.5.21.78Z"/>
      <path class="cls-14" d="M442.34,519.84c.21.72.41,1.25.57,1.77.35,1.19.79,4.36.32,5.65-.13.55-1.67,1.75-2.12,2.49-.47.78-1.15,2.69-1.77,3.5-.24.39-.72.68-1.11,1.19-.53.73-.45,1.38-1.13,1.56-1.09.29-3.03.37-4.61.77-1.26.32-2.15,1.39-2.91,1.58-.88.22-2.18-.05-3.32-.05-.95,0-2.47.26-3.38.12-.53-.08-.97-.71-1.92-.92-2.06-.39-2.74.31-3.42-2.88-.35-1.62-.33-2.76.2-2.88.5-.11,1.31.32,1.65.25.93-.21.58-2.62.11-4.74-.45-1.99-1.03-4.01-1.26-5.05-.19-.83,0-1.35-.23-2.39-.32-1.41-.89-3.22-1.26-4.84-.19-.83-.41-2.75-.59-3.55-.25-1.11-2.82.76-3.41-1.98-.51-2.35,3.74-4.91,4.83-5.92.75-.68,1.42-1.53,1.86-1.64.45-.11.88.21,1.25.09.58-.18,1.02-1.13,1.85-1.34,1.21-.31,1.77.57,2.82.8.56.18,1.09-.01,1.59.09,2.49.57,3.99,1.5,5.95,3.32.68.64,1.62,1.03,2.18,1.59.82.87,2.22,2.95,3.14,4.38,1.08,1.69,2.81,4.44,3.7,7.09.03.09.04.13.07.22.15.49.2,1.13.37,1.7ZM433,519.05c-.12-.45-.25-.87-.43-1.28-.17-.41-.55-1.17-1.12-2.27-.2-.35-.37-.73-.54-1.14-.75-1.7-1.11-3.21-1.99-4.37-.26-.33-.68-.61-1.03-.93-.36-.33-.67-.84-.97-1.06-.29-.21-.96-.23-1.63-.62-1.16-.69-1.56-1.79-2.68-1.52-.8.2-1.58.84-1.52,1.09.13.55.65,1.98.73,2.33.42,1.88.81,4.36,1.31,6.45.62,2.54,1.57,3.97,2.33,6.3.57,1.77,1.35,3.37,1.65,4.58.22.9.36,2.01.63,3.1.12.5.28.97.48,1.43.22-.08.85-.26,1.92-.53,1.43-.36,2.56-.76,2.99-3.46.1-.54.02-1.88.03-3.17.01-1.05.19-2.2.12-3.11-.05-.65-.14-1.25-.28-1.8Z"/>
      <path class="cls-14" d="M468.33,518.69c.09.93.61,1.79.24,2.67-.1.23-.28.46-.54.69-.26.23-.85.67-1.8,1.34-.32.22-.58.45-.81.67-.67.73-.85,2.36-1.89,3.07-.36.32-1.07.6-1.58.9-.99.58-2.97,1.77-4.72,2.34-1.79.58-2.11-.13-3.25-.23-1.7-.15-3.31.9-5.46-.53-.23-.15-.69-1.01-.93-1.26-.85-.77-1.79-.65-2.15-1.89-.26-.87.51-2.37,1.17-2.57.12-.04.19-.06.31-.09.7-.21.62-1.3.41-1.97-.21-.69-.62-1.52-.98-2.68-.17-.57-.29-1.18-.45-1.7-.25-.82-.65-1.24-.89-1.84-.6-1.46-1.23-3.3-1.82-5.26-.54-1.78-.97-4.03-1.35-5.29-.24-.79-2.1-.02-2.84-2.52-.78-2.63,1.92-5.66,3.69-6.22,1.53-.48,3.36-.53,5.03-1.08.67-.22,1.51-1.1,3.12-1.65,1-.34,1.34.33,2.4.62.35.1.84.02,1.21.1.4.09.8.27,1.06.28,2.01.16,2.85-.84,3.79,1.74,1.3,3.57-.09,3.87-2.47,5.09-1.08.55-2.1,1.04-3.36,1.47-1.54.52-3.61.81-5.49,1.41-1,.32-1.19.38-.69,1.96.35,1.11.98,2.46,1.14,2.62.69.51,3.24-.32,4.23-.65,1.21-.4,1.66-1.46,2.43-1.72.85-.29.95.2,1.27.3.79.3.96.41,1.34,1.51,1.28,3.67.64,4.03-3.18,5.49-1.41.54-1.68.72-1.38,1.63.51,1.55.62,1.95.64,2.02.47,1.45,1.02,1.96,2.74,1.38,1.79-.6,3.72-1.74,5.21-2.69,1.24-.8,1.77-1.92,2.98-2.35,1.45-.52,2.61.2,3.32,2.12.21.56.36,1.22.4,1.84.03.32-.15.61-.09.94Z"/>
      <path class="cls-14" d="M484.66,497.19c-.43,1.1-2.46,2.14-2.09,3,.38.88,2.06,2.47,2.38,2.78.71.73,1.85,1.62,2.57,2.46.58.68,1.08,1.69,1.65,2.47.59.81,1.28,1.44,1.62,2.22.61,1.37-.26,3.99-1,5.01-.39.54-1.87,2.13-3.22,2.69-2.37.99-4.54-4.02-6.96-7.67-.62-.89-1.3-1.79-2.21-2.98-1.2-1.57-1.77-3-2.71-2.62-1.7.68-1.6,1.06-1.14,2.23.07.18.11.27.18.46.18.46.37,1.03.57,1.72.46,1.59.93,3.53,1.66,5.38.43,1.08,1.1,1.96,1.39,2.7.84,2.12-.31,3.6-1.89,4.21-1.97.76-3.43,1.25-4.48-1.54-1.42-3.8-1.29-7.12-2.61-10.6-.39-1.04-.89-2.12-1.32-3.26-.85-2.25-1.19-3.98-2.41-7.19-.67-1.77-.9-2.26-1.9-2.77-.42-.26-.87.05-1.32-1.16-.34-.92-.29-2.51.54-3.49.18-.21.43-.36.73-.47.02,0,.08,0,.14-.03.3-.11.56-.27.79-.47.55-.41,1-.99,1.3-1.2.53-.37,1.25-.66,1.94-.93.5-.2,1.01-.35,1.47-.53,2.76-1.11,4.94-2.93,6.71-3.68,1.05-.45,1.1-.47,2.97.43,1.22.62,1.52.6,2.64,1.92.23.27.44.6.62,1,.22.5.42.95.73,1.4.94,1.57,1.77,2.47,2.27,3.58.28.64.5,1.28.56,2.18.05.77.02,2.2-.18,2.74ZM478.62,492.64c-.65-.53-.9-1.16-1.25-1.35-.67-.36-1.71-.26-2.52.08-.47.2-1.13.51-1.82.89-.34.19-1.07.64-2.16,1.3-.72.44-2.77,1.69-2.5,2.36.2.5.63,1.16.82,1.51.56,1.04.89,2.15,1.4,2.81.4-.35.83-.55,1.22-.71.52-.21,1.02-.35,1.64-.6,1.31-.53,3.08-1.81,4.56-2.47.35-.16.73-.25,1.03-.38.75-.32,1.63-1.43,1.13-2.57-.02-.04-.02-.06-.04-.09-.2-.31-.84-.25-1.51-.79Z"/>
    </g>
    <path class="cls-14" d="M297.01,561.81s35.42,40.63,80.07,46.92c44.65,6.3,107.51-15.24,107.51-15.24,0,0-22.71,83.83-29.31,95.69,0,0-131.26-46.84-174.8-39.15,0,0,12.16-69.91,16.52-88.22Z"/>
    <g>
      <path class="cls-19" d="M376.29,584.53c-.54.8.09,1.43-.29,1.98-2.15,3.13-10.21,4.56-19.95,4.95-7.52.3-19.96.81-27.49.29-7.19-.5-20.96-2.83-22.91-5.19-.3-.47.07-1.7.7-2.34,1.46-1.49,6.27-2.51,12.29-1.92,1.59.15,6.89,1.78,9.22,2.29,1.19.27,2.75.32,3.53.56,2.66.62,3.28,1.58,8.45,1.79,2.03.08,3.98-.06,6.01-.01,2.46.06,4.37.25,6.32.27,5.09.05,7.69-1.19,8.38-2.12-3.19-8.7-26.62-5.8-25.96-7.56.91-2.44,20.02.84,28.3-4.59.59-.83-.77-2.23.37-3.87.25-.35.37-.53.61-.89.46-.67,1.99-5.35-3.51-5.29-5.03.06-5.53.74-6.32,1.84-.23.32-.38.63-.62.97-.34.48-.82,1.03-1.43,1.63-1.19,1.18-2.22,1.8-3.15,2.7-.33.44-.42.78-.72,1.18-1.26,1.67-2.69,2.4-10.7,2.01-2.21-.11-4.41-.55-6.94-.72-3.26-.22-6.82-.04-8.45-.19-.16-.02-.24-.02-.41-.04-1.71-.16-2.82-.44-3.25-1.11-.45-.71-4.27-2.05-2.98-3.48.58-.66,2.19-1.28,2.77-1.94,2.26-2.27,3.52-4.81,8.55-6.13.88-.25,2.87-.34,4.14-.67,3.32-.83,1.84-1.28,15.11-1.44,6.86-.08,15.49-1.06,19.65-1.17,2.2-.06,10.2-.03,12.79.31,1.39.21,2.6.72,4.15,1.02,1.8.35,4.2.42,4.89.65,3.27,1.1,1.4,6.58-1.33,11.05-1.9,3.1-4.84,5.54-10.38,7.01-1.91.47-8.56,1.32-8.82,1.7-.13.19,6.51.9,6.51.9,5.13.78,7.88.91,6.9,2.84-.43.84-3.27,1.62-4.02,2.72Z"/>
      <path class="cls-19" d="M474.53,573.78c-.79,2.01-4.63,5.05-15.13,7.82-14.18,3.74-14.45,2.59-12.91-.7.33-.7.84-1.47,1.44-2.3-4.61,1.5-9.09,2.8-15.76,4.44-2.34.58-4.65,1.55-6.62,1.9-1.28.23-2.63.3-3.92.51-2.99.5-6.63,1.53-8.94,1.86-2.06.29-4.24.12-7.75.55-1.2.15-1.8.22-3,.36-9.09,1.05-16.68-1.45-16.44-1.81-.28-.19.59-2.34.71-2.57.11-.23.37-.82.89-1.63,1.41-2.21,3.74-4.17,5.22-6.59.36-.59.57-1.2.96-1.85.63-1.04,2.03-1.45,2.89-2.26.35-.2.54-.4.67-.63.07-.11.05-.22.12-.33.13-.23.48-.46.88-.73.41-.28.75-.47,4.24-1.96.52-.25,1.04-.5,1.47-.74,2.62-1.45,3.5-2.72,5.69-3.43,1.44-.47,6.63-1.44,10.15-2.31,5.03-1.25,12.64-3.02,19.26-4.51,9.42-2.12,13.12-1.64,19.7-3.04,1.15-1.72,2.25-4.14,3.09-6.48.87-2.43.46-4.69.98-6.23.38-1.11,4.13-4.36,8.4-5.77,3.28-1.09,7.42-1.51,7.13-.51-.16.53-1.06,1.36-1.13,1.96-.05.44,1.05.98,1.2,1.52.37,1.34-2.31,7.16-1.86,10.56.17,1.26,3.05.82,2.43,2.67-.25.75-.85,1.71-1.21,2.75-1,4.63-1.57,10.43-2.35,15.55-.3,1.56-.01,2.73-.49,3.95ZM444.47,564.17c-2.91.47-2.95.07-5.64.67-4.15.92-8.42,1.85-10.86,2.85-2.51,1.03-6.07,4.55-7.44,7.17-1.34,2.56-.42,3.29,4.27,2.46,4.19-.74,10.22-2.73,12.86-3.4,2.52-.64,14.23-3.82,15.24-4.46.38-.21.76-.74,1.01-1.33.45-1.07.61-2.51.71-2.76.04-.09,1.65-1.89,2.09-2.96.16-.4.13-.69-.1-.82-.87-.18-7.09,1.74-12.13,2.58Z"/>
    </g>
    <path class="cls-21" d="M343.63,160.6c-2.98,26.23-5.96,52.45-8.94,78.68-.89,7.82,7.53,15.33,15,15,8.89-.4,14.05-6.62,15-15,2.98-26.23,5.96-52.45,8.94-78.68.89-7.82-7.53-15.33-15-15-8.89.4-14.05,6.62-15,15h0Z"/>
    <g>
      <circle class="cls-3" cx="636.41" cy="440.23" r="106.81"/>
      <circle class="cls-17" cx="635.5" cy="428.45" r="106.81"/>
      <path class="cls-5" d="M405.75,265.45s66.75-65.67,112.9-28.65c62.55,50.18-41.41,93.6-47.65,154.52-4.72,46.18,37.74,31.07,37.74,31.07"/>
      <circle class="cls-23" cx="543.34" cy="424.62" r="11.96"/>
      <path class="cls-21" d="M537.84,416.46c-10.13,0-20.25,0-30.38,0-9.65,0-9.67,15,0,15,10.13,0,20.25,0,30.38,0s9.67-15,0-15h0Z"/>
      <path class="cls-24" d="M410.37,272.67c4.04-3.76,8.07-7.52,12.11-11.28,2.97-2.76,2.79-7.81,0-10.61-2.96-2.96-7.63-2.77-10.61,0-4.04,3.76-8.07,7.52-12.11,11.28-2.97,2.76-2.79,7.81,0,10.61,2.96,2.96,7.63,2.77,10.61,0h0Z"/>
      <g>
        <path class="cls-14" d="M620.52,426.96c.87.23,1.76.28,2.27.42,1.35.36,1.03,3.63.69,4.87-.14.51-.2.66-.58,1.63-.07.17-.15.37-.21.59-.46,1.73-.39,3.41-.79,4.9-.6,1.62-1.38,2.84-1.66,3.88-.2.73-.02,1.3-.18,1.9l-.04.16c-.02.07-.06.13-.09.17-.06.22-1.54,2.01-1.89,2.16-.81.38-1.88.02-2.83-.16-.71-.12-1.5-.16-2.19-.35-1.51-.4-2.12-3.09-3.24-5.74-.91-2.1-2.44-4.65-3.03-6.71-.57-1.86-.34-4.06-2.78-4.71-1.46-.39-2.38.43-3.48.14-.29-.08-.54-.19-.81-.26-.53-.14-1.09.18-1.94-.04-.16-.04-.23-.11-.39-.15-.33-.09-.75-.15-.95.62-.62,2.31-.89,4.04,1.02,4.55,2,.53,2.13.05,3.3.36,1.89.5,3.15,2.08,2.6,4.14-.12.44-.29.9-.41,1.34-.17.64-.03,1.7-.28,2.66-.41,1.53-2.8,1.06-3.93.75-.27-.07-1.66-.54-1.79-.58-3.77-1.01-4.83-1.48-5.53-3.57-.31-.96-.78-2.61-.76-3.82-.01-.57.14-1.06.12-1.61-.05-.8-.57-1.87-.42-2.42.6-2.24,2.27-4.67,3.68-5.93,1.46-1.2,1.99-1.06,4.37-1.06.78.02,2-.27,2.74-.19.23.01.48.06.77.14.27.07.53.16.77.23.33.09.69.16,1.04.18,1,.1,1.62-.09,2.3.09,1.07.29,1.42,1.28,2.16,2.31.93,1.25,1.56,1.7,1.92,2.77.83,2.15,1.42,5.09,2.68,7.47.41-1.79.76-3.55,1.21-5.22.28-1.04.56-1.99.97-2.9.28-.61.88-1.05.99-1.49l.02-.09c.09-.33.12-.89.25-1.36.31-1.15,1.44-.78,2.63-.84.44.12,1,.6,1.69.79Z"/>
        <path class="cls-4" d="M620.43,395.43c.64.17,1.14.26,1.61.38,1.07.29,3.64,1.5,4.38,2.57.34.4.45,2.4.81,3.19.34.85,1.45,2.39,1.77,3.35.18.4.16.99.36,1.59.3.84.83,1.08.64,1.79-.3,1.13-1.17,2.94-1.61,4.59-.35,1.31.06,2.63-.15,3.41-.24.91-1.03,1.98-1.58,3.05-.43.91-.92,2.39-1.45,3.2-.31.46-.99.59-1.58,1.38-1.23,1.76-.99,2.71-3.78,1.96-1.42-.38-2.3-.9-2.15-1.46.14-.53.84-1.11.94-1.46.26-.98-1.77-1.73-3.63-2.23-1.75-.47-3.58-.82-4.5-1.06-.73-.2-1.05-.61-1.96-.86-1.24-.33-2.91-.59-4.33-.97-.73-.2-2.31-.86-3.02-1.05-.98-.26-.74,3.2-3.13,2.56-2.06-.55-2-6.1-2.26-7.71-.15-1.11-.48-2.2-.34-2.71s.56-.78.69-1.24c.12-.73-.36-1.59-.1-2.55.37-1.4,1.31-1.53,2.02-2.48.41-.48.54-1.12.87-1.57,1.69-2.23,3.16-3.27,5.52-4.28.83-.35,1.59-1.07,2.31-1.33,1.07-.36,3.33-.63,4.87-.79,1.82-.15,4.74-.4,7.17.13l.2.05c.44.12.94.39,1.45.53ZM615.15,403.88c-.4-.11-.78-.19-1.18-.22-.39-.04-1.15-.05-2.27-.04-.36.02-.73,0-1.13-.04-1.66-.11-2.98-.51-4.29-.22-.38.09-.77.39-1.22.55-.44.24-.97.24-1.28.44-.31.18-.65.85-1.28,1.32-1.1.82-2.13.69-2.47,1.95-.24.91-.13,2.01.09,2.07.49.13,1.82.3,2.13.38,1.66.54,3.72,1.28,5.56,1.78,2.24.6,3.79.33,5.94.71,1.64.27,3.22.29,4.29.58.8.21,1.72.6,2.67.86.44.12.88.19,1.32.21.04-.25.2-.92.5-2.05.4-1.51.64-2.75-1.21-4.46-.36-.36-1.42-.93-2.39-1.57-.79-.52-1.57-1.25-2.3-1.64-.52-.28-1.01-.49-1.5-.62Z"/>
        <path class="cls-4" d="M626.7,513.99c.62.17,1.3.28,1.86.43,1.75.47.91,1.55,3.19,2.16,1.52.41,3.15.71,4.96,1.19,1.19.32,2.04.79,3.13,1.35,1.24.64,1.95.88,1.43,2.82-.37,1.4-1.64.73-3.09.89-.86.13-.91.63-2.29.26-1.12-.3-2.51-.95-3.88-1.31-1.22-.33-1.74-.04-2.96-.36-1.19-.32-1.23-.72-1.97-.92-.38-.1-.81.08-1.2.25-.39.19-.74.33-.98.27l-.06-.02c-.34-.09-.9-.57-1.39-.7-.88-.24-1.77-.11-2.53-.32l-.16-.04s-.11-.05-.15-.07c-.49-.22-1.56-1.57-1.47-1.89.03-.13.1-.23.13-.34.12-.43.18-1.19.37-1.91.29-1.07.68-2.17,1.12-2.45.13-.1,1.91-.38,2.17-.4.39.03,1.12.16,1.85.36.26.07.55.18.81.25.39.16.64.38,1.14.51Z"/>
        <path class="cls-12" d="M642.99,500.48c4.07,1.09,3.28,5.52,2.17,9.69-.22.82-.46,1.58-.7,2.22-.33.79-.88,1.28-1.16,1.84-.47.92-.75,2.79-1.74,2.52-.19-.05-.4-.18-.66-.43h.03s-.26-.49-.43-.69c-.02-.04-.06-.09-.06-.09-.07-.19-.08-.36-.05-.51.07-.27.05-.5-.24-.72-.15-.09-.43-.2-.84-.31-1.46-.39-3.32-.75-3.58-.82-.98-.26-2.06-.59-3.21-.9-2.1-.56-4.37-.74-6.19-1.23-1.15-.31-1.77-.97-2.86-1.26-.75-.2-1.46-.22-2.21-.42-1.46-.39-2.09-.73-1.78-1.89.39-1.48,1.31-1.8,1.91-2.72.82-1.21.39-1.73,1.9-1.84.42-.03,1.38.04,2.28.28,1.09.29,2.33.79,3.42,1.09.56.15,1.13.2,1.66.34,3.04.95,5.99,2.27,9.42,3.19.18.05.29.09.37.12s.31.12.42-.28c.53-1.97.31-4.68.55-5.59.19-.72.55-1.66,1.03-1.67.19,0,.37.03.55.08Z"/>
        <path class="cls-14" d="M647.15,484.94c4.07,1.09,3.28,5.52,2.17,9.69-.22.82-.46,1.58-.7,2.22-.33.79-.88,1.28-1.16,1.84-.47.92-.75,2.79-1.74,2.52-.19-.05-.4-.18-.66-.43h.03s-.26-.49-.43-.69c-.02-.04-.06-.08-.06-.08-.07-.19-.08-.36-.05-.51.07-.27.05-.5-.24-.72-.15-.09-.43-.2-.84-.31-1.46-.39-3.32-.75-3.58-.82-.98-.26-2.06-.59-3.21-.9-2.1-.56-4.37-.74-6.19-1.23-1.15-.31-1.77-.97-2.86-1.26-.75-.2-1.46-.22-2.21-.42-1.46-.39-2.09-.73-1.78-1.89.4-1.48,1.31-1.8,1.91-2.72.82-1.21.39-1.73,1.9-1.84.42-.03,1.38.04,2.28.28,1.09.29,2.33.79,3.42,1.09.56.15,1.13.2,1.66.34,3.04.95,5.99,2.27,9.42,3.19.18.05.29.09.37.12s.31.12.42-.28c.53-1.97.31-4.68.55-5.59.19-.72.55-1.66,1.03-1.67.19,0,.37.03.55.08Z"/>
        <path class="cls-4" d="M646.76,468.68c.37.1.75.17,1.11.26.91.24,1.26.87,2.14,1.38.7.41,1.6.69,2,1.07,1.18,1.05,1.57,3.58,1.49,3.87-.12.46-.37.88-.51,1.38-.24.9-.25,1.91-.5,2.82-.3,1.14-.71,1.49-2.76,3.18-1,.83-1.24,1.22-3.62.99-.11-.03-.19-.02-.3-.04-.34-.09-.64-.24-1.01-.34-.72-.19-1.36.15-1.97.04-.18-.05-.51-.34-.85-.43l-.54-.15c-.56-.15-.77-.67-1.38-.83-.69-.18-1.44-.13-2.13-.31-.58-.15-1.12-.71-1.93-1.19-.58-.34-1.32-.59-1.93-.95-.85-.48-1.59-.98-2.6-1.57-.4-.23-.72-.52-1.02-.6-.24-.06-.48-.06-.67-.11-.34-.09-.63-.55-.46-1.17.32-1.2,1.6-1.99,2.37-1.79.71.19,1.72.82,2.23,1.04,2.33,1.12,5.12,2.37,7.4,2.98l.35.09c.71.19,1.42.35,2.16.48.69.1,1.81.54,2.3.39.33-.08,1.27-1.34,1.55-2.4.3-1.14-.43-1.49-1.21-1.7l-.46-.12c-.22-.06-.45-.12-.67-.2-.8-.27-1.44-.64-1.96-.78l-.21-.06c-.8-.16-1.89-.11-2.94-.32-.37-.1-.73-.3-1.06-.39-.56-.15-1.71-.29-2.77-.57-1.35-.36-2.2-.83-1.94-1.79.04-.16.17-.52.39-1.08.1-.37.14-.89.26-1.34.16-.59.99-1.44,2.43-1.43.61.03,1.32.25,1.98.31.76.07,1.56.07,2.19.24.4.11.79.25,1.18.35.69.19,1.16.02,1.77.13l.19.05c.59.16,1.32.46,1.92.62Z"/>
        <path class="cls-12" d="M653.8,450.92c.26.07.71.12,1.17.25,1.6.43,2.05,2.35,2.77,4.09.54,1.25,1.41,1.55.76,3.97-.35,1.32-1.25,2.73-1.53,3.79-.12.45-.1.88-.21,1.29-.09.35-1.06,1.71-2.11,2.1-.48.2-.96.05-1.45.14-.61.16-1.19.59-1.98.78-.71.15-1.71.09-2.64.17-1.24.08-2.26.3-2.89.14-1.41-.38-3.22-1.76-2.98-2.66.06-.24.26-.46.33-.73.05-.38-.13-.66-.06-.93.15-.56,1.05-2.12,1.41-2.51.52-.6,2.27-1.15,3.13-.91.24.06.47.16.71.22.43.12.9.04,1.46.06,1.25.15,2.13.54,2.99.15.68-.28,1.26-1.04,1.46-1.79.25-.93-.39-1.25-.58-1.89-.29-.99.04-1.71-1.45-2.11-.59-.16-1.37-.02-2.08-.14-1.21-.19-1.59-.46-2.72-.09-.22.13-1.98.86-2.19,1.63-.05.18-.05.33-.1.5-.36,1.36-2.14,2.54-3.32,3.87-.99,1.13-1.92,3.18-3.3,2.81-.42-.11-3.11-1.33-3.7-2.16-.56-.79-.89-2.39-.84-2.58.05-.19.15-.36.2-.55.22-.82-.17-1.18-.23-1.78-.05-.41.15-.96.18-1.5.07-1.29.29-4.11.48-4.82l.03-.11c.06-.21.2-.48.6-.51.27-.22.41-.63.67-.82.36-.25.99-.47,1.39-.71l.53-.32c.5-.26.78-.36,1.3-.22,1.35.36,2.55,1.25,2.08,3.03-.14.53-.45,1.17-.78,1.61-.32.48-1.08.76-1.46,1.34-.4.6-.97,2.08-1.15,2.75-.24.88-.3,1.84.59,2.08.53.14.79-.2,1.45-.8.6-.53,1.38-.94,1.83-1.56.24-.37.36-.85.52-1.17,1.27-2.36,3.56-3.79,5.66-4.46,1.06-.32,1.45-.28,2.61.03.66.18,1.35.16,1.85.29.58.21,1.04.59,1.57.73Z"/>
        <path class="cls-4" d="M647.21,428.72c2.31.62,2.63,1.6,2.13,3.47-.23.85-.68,1.18-1.03,2.51-.18.69-.34,1.46-.48,1.98-.24.88-.49,1.81.17,1.99,1.24.33,2.37.38,3.27.62,1.03.27,1.95.61,3.04.9,1.09.29,2.37.38,3.27.62.87.23,1.18.54,1.47.62.32.09.84,0,.97.04,1.85.58,2.52,1.26,1.88,3.63-.17.62-.73,1.71-1.27,1.84-.49.14-1.46-.34-2.33-.3-1.1.07-1.47.98-2.33.75-1.52-.41-4.31-2.19-5.79-2.58l-.79-.21c-.82-.22-1.69-.8-2.38-.98-.75-.2-1.04.22-1.23.94l-.18.69c-.12.43-.26.84-.59,1.1-.2.12-2.3.49-2.47.44-.37-.1-.54-.44-.93-.68-1.53-.89-2.44-.65-1.76-3.2.14-.53.66-.84.79-1.35.38-1.41-1.91-.65-1.17-3.41.48-1.3,1.62-.46,2.29-1.24.11-.09.64-1.56.73-1.88.12-.43.13-.88.25-1.31.22-.82.92-1.14,1.26-2.38.18-.69.24-1.29.38-1.79.21-.77.57-1.17,1.72-1.05.35.04.74.13,1.11.23Z"/>
        <path class="cls-14" d="M656.65,413.43c.34.78-.03,2.54.55,2.69.59.16,2.09-.18,2.38-.24.67-.11,1.59-.42,2.31-.48.58-.05,1.27.12,1.91.1.67.02,1.25-.13,1.78.01.93.25,1.84,1.94,2.03,2.83.1.47.26,2.06-.03,3.12-.5,1.86-3.9,1.02-6.73.95-.71,0-1.43.03-2.41.09-1.29.07-2.24-.19-2.44.58-.37,1.39-.14,1.49.64,1.7l.3.08c.3.08.67.21,1.1.38.99.4,2.16.92,3.39,1.25.72.19,1.44.14,1.94.28,1.41.38,1.69,1.71,1.36,2.94-.41,1.54-.75,2.65-2.59,2.16-2.52-.67-4.15-2.14-6.46-2.76-.69-.18-1.44-.32-2.2-.52-1.49-.4-2.51-.91-4.64-1.48-1.17-.31-1.52-.37-2.19.08-.31.18-.34.62-1.14.4-.61-.16-1.39-.89-1.54-1.89-.03-.21,0-.45.07-.7,0-.02.03-.06.05-.11.07-.26.1-.51.1-.75.03-.56-.05-1.1-.05-1.42.09-.58.21-1.15.36-1.74.12-.43.26-.84.37-1.24.63-2.37.7-4.68,1.11-6.22.24-.91.26-.96,1.52-1.77.84-.51.97-.72,2.1-.83.23-.02.48,0,.76.06.34.09.64.17,1,.18,1.17.12,1.97.01,2.73.21.43.12.84.28,1.3.66.39.33,1.07,1.01,1.25,1.38ZM651.81,415.21c-.55.2-.96.05-1.2.19-.47.27-.87,1-1.05,1.69-.11.4-.22.97-.34,1.61-.05.31-.15.99-.28,2.02-.1.68-.33,2.59.12,2.71.34.09.83.1,1.1.12.77.12,1.45.35,2,.31,0-.42.07-.79.16-1.11.12-.43.25-.83.39-1.34.29-1.09.43-2.77.73-4.07.08-.3.19-.58.26-.84.17-.63,0-1.7-.76-1.91l-.06-.02c-.24-.01-.48.44-1.04.62Z"/>
        <path class="cls-4" d="M668.62,395.94c1.11.3,2.27,1.14,3.08,1.67,1.47.98,1.54.91,1.35,1.62-.3,1.14-1.51,2.29-2.72,2.28-.13-.03-.42-.25-.78-.35-.71-.12-3.79-.55-3.91-.1-.3,1.11.54.99.3,1.89-.23.85-1.01,1.91-1.49,3.71-.12.46-.22.9-.15,1.06.26.58,2.4,1,3.1,1.46.09.11.63.8,1.1,1.17,1.02.82,3.03,1.46,2.7,2.7-.21.8-1.29,1.23-1.46,1.22-1.02.28-1.31.8-2.12.58-.32-.09-1.07-.37-1.38-.54-.19-.14-.34-.66-.58-.72-.18-.05-.34.06-.52.01-.05-.01-.04-.04-.09-.06-1.17-.78-1.98-1.97-3.56-2.48-.75-.2-1.9-.49-2.49-.98-.11-.08-.37-1.01-1.28-1.25-.24-.06-.51-.07-.77-.14-.59-.16-.65-.66-1.12-.97-.8-.59-2.02-.54-2.83-1.12-.36-.18-.33-.83-.81-.96-.18-.05-.37-.05-.57-.1-.98-.26-1.81-1.65-2.63-1.87l-.32-.09c-.82-.22-1.43-1.93-.97-3.61.25-.93.96-1.26,1.32-2.45.18-.69.04-1.62.23-2.34.11-.4.84-1.17,1.52-1.45,1.16-.5,3.3.45,4.84.23.62-.06,1-.44,1.97-.18.59.16,1.19.42,1.75.57.91.25,1.22-.26,1.81-.1.4.11.89.45,1.39.58.46.12.84.02,1.14.1l.13.03c.8.27,1.44,1.05,2.17,1.25.59.16,1.27-.4,1.96-.4.21,0,.43.05.67.11ZM661.77,400.72c-.61-.16-1.75.06-1.96,0-.21-.06-.39-.21-.63-.27-1.12-.3-2.68.45-2.96.51-.77.12-1.49-.26-1.91.26,2.34,1.54,4.37,3.32,7.15,4.61.09-.78.31-1.55.42-2.48.03-.29.3-2.33.23-2.45-.08-.09-.2-.16-.34-.2Z"/>
        <path class="cls-12" d="M661.99,373.51c2.31.62,2.63,1.6,2.13,3.47-.23.85-.68,1.18-1.03,2.51-.18.69-.34,1.46-.48,1.98-.24.88-.49,1.81.17,1.99,1.24.33,2.37.38,3.27.62,1.03.27,1.95.61,3.04.9,1.09.29,2.37.38,3.27.62.87.23,1.18.54,1.47.62.32.09.84,0,.97.04,1.85.58,2.52,1.26,1.88,3.63-.17.63-.73,1.71-1.27,1.84-.49.14-1.46-.34-2.33-.3-1.1.07-1.47.98-2.33.75-1.52-.41-4.31-2.19-5.79-2.58l-.79-.21c-.82-.22-1.69-.8-2.38-.98-.75-.2-1.04.22-1.23.94l-.18.69c-.12.43-.26.84-.59,1.1-.2.12-2.29.49-2.47.44-.37-.1-.54-.44-.93-.68-1.53-.89-2.44-.65-1.76-3.2.14-.53.65-.84.79-1.35.38-1.41-1.91-.65-1.17-3.41.48-1.3,1.62-.46,2.29-1.24.11-.09.64-1.56.73-1.88.12-.43.13-.88.25-1.31.22-.82.92-1.14,1.26-2.38.18-.69.24-1.29.38-1.79.21-.77.57-1.17,1.72-1.05.35.04.74.13,1.11.23Z"/>
        <path class="cls-14" d="M680.7,362.38c.96.86,1.39,1.08,1.87,2.01.5.91.14,1.03.06,2.53-.02.6.1,1.11.06,1.46-.13.5-.54.97-.73,1.7-.12.43-.2.89-.33,1.36-.18.69-.38,1.34-.74,1.98-.39.74-.83,1.12-1.3,1.63-.28.39-.64,1.17-.89,1.27-.46.22-2.21-.23-3.45-.15-.82.05-1.12.34-2.16.06-1.09-.29-2.18-.84-3.06-1.08-.5-.13-1.03-.19-1.5-.31-.85-.23-1.72-.89-2.74-1.44-1.25-.66-2.27-1.09-3.36-1.64-1.27-.67-1.85-2.16-1.57-3.91.01-.05-.08-.07-.05-.19.78-2.92,1.33-5.62,4.18-6.32.32-.1.66.02,1.02-.07.6-.12,1.08-.5,1.58-.63.56-.11,1.16-.03,1.77-.2,1.42-.36,2.75-1.03,3.73-.77.3.08.58.19.91.28.4.11.83.03,1.25.09.63.17,1.24.5,1.93.69.51.14,1.47.02,2.04.17l.13.04c.31.17.68.91,1.37,1.45ZM673.4,365.77c-.42-.03-.84-.14-1.31-.13-.47.01-.98.13-1.43.07-.21-.06-.38-.14-.62-.2-1.73-.46-4.23.12-4.52,1.23-.11.42-.2,1.06-.2,1.05,0,.03-.01.05-.03.04.08.21.3.29.61.37.24.06.54.11.86.2.5.13,1.36.59,2.28.97.72.33,1.63.59,2.07.8.18.08.62.75.87.87.24.13.49.23.76.31,2.42.65,3.12-.11,3.79-2.61.12-.43.19-.79.13-1.01-.11-.44-1.55-1.77-1.99-1.94-.5-.13-.76,0-1.29,0Z"/>
        <path class="cls-4" d="M675.96,341.3c.34.78-.03,2.54.55,2.69.59.16,2.09-.18,2.38-.24.67-.11,1.59-.42,2.31-.48.58-.05,1.27.12,1.91.1.67.02,1.25-.13,1.78.01.93.25,1.84,1.93,2.03,2.83.1.47.26,2.06-.03,3.12-.5,1.86-3.9,1.02-6.73.95-.71,0-1.43.03-2.41.09-1.29.07-2.24-.19-2.44.58-.37,1.4-.14,1.49.64,1.7l.3.08c.3.08.67.21,1.1.38.99.4,2.16.92,3.39,1.25.72.19,1.44.14,1.94.28,1.41.38,1.69,1.71,1.36,2.94-.41,1.54-.75,2.65-2.59,2.16-2.52-.67-4.15-2.14-6.46-2.76-.69-.19-1.45-.32-2.2-.52-1.49-.4-2.5-.91-4.64-1.48-1.17-.31-1.52-.37-2.19.08-.3.18-.34.61-1.14.4-.61-.16-1.39-.89-1.54-1.89-.03-.21,0-.45.07-.7,0-.02.03-.06.05-.11.07-.26.1-.5.1-.75.03-.56-.05-1.1-.05-1.42.09-.58.21-1.15.36-1.74.12-.43.26-.84.37-1.24.64-2.37.7-4.68,1.11-6.22.24-.91.26-.96,1.52-1.77.84-.51.97-.72,2.1-.83.23-.02.48,0,.76.07.34.09.64.17,1,.18,1.17.12,1.97.01,2.73.21.43.12.84.28,1.3.66.39.33,1.07,1.01,1.25,1.38ZM671.12,343.08c-.55.2-.96.05-1.2.19-.47.27-.87,1-1.05,1.69-.11.4-.23.97-.34,1.61-.05.31-.15.99-.28,2.02-.1.68-.33,2.59.12,2.71.34.09.83.1,1.1.12.77.12,1.45.35,2,.31,0-.42.07-.79.16-1.11.12-.43.25-.83.39-1.34.29-1.09.43-2.77.73-4.07.08-.3.19-.58.26-.84.17-.63,0-1.7-.76-1.91l-.06-.02c-.24-.01-.48.44-1.04.62Z"/>
      </g>
    </g>
    <g>
      <rect class="cls-22" x="34.71" y="443.03" width="259.66" height="134.16" rx="15.22" ry="15.22" transform="translate(-317.78 276.34) rotate(-46.26)"/>
      <rect class="cls-22" x="228.14" y="393.28" width="54.57" height="34.69" rx="17.35" ry="17.35" transform="translate(-217.85 311.3) rotate(-46.26)"/>
      <rect class="cls-14" x="48.21" y="460.36" width="232.66" height="96.33" rx="15.22" ry="15.22" transform="translate(-316.64 275.85) rotate(-46.26)"/>
      <circle class="cls-14" cx="262.29" cy="404.77" r="8.98"/>
    </g>
    <path class="cls-21" d="M269.78,404.01c10.07-12.63,20.15-25.25,30.22-37.88,3.97-4.98-3.06-12.1-7.07-7.07-10.07,12.63-20.15,25.25-30.22,37.88-3.97,4.98,3.06,12.1,7.07,7.07h0Z"/>
    <g>
      <path class="cls-13" d="M115.25,566.34c1.14,1.09,2.07,2.82,2.74,3.94,1.22,2.08,1.33,2.06.74,2.68-.96,1-2.99,1.39-4.41.52-.13-.13-.36-.56-.74-.92-.77-.63-4.16-3.25-4.54-2.86-.93.97.12,1.44-.64,2.23-.72.75-2.2,1.33-3.71,2.92-.39.41-.74.81-.73,1.03,0,.8,2.29,2.76,2.87,3.74.05.18.31,1.3.67,2.02.76,1.59,2.79,3.7,1.75,4.78-.68.71-2.17.41-2.37.28-1.34-.42-1.97-.07-2.8-.86-.33-.32-1.06-1.15-1.34-1.55-.15-.28-.05-.94-.3-1.18-.18-.17-.44-.17-.62-.35-.05-.05-.02-.08-.07-.12-.96-1.65-1.29-3.5-2.88-5.16-.78-.75-1.97-1.86-2.41-2.79-.09-.17.1-1.34-.84-2.24-.25-.24-.57-.43-.83-.69-.61-.59-.42-1.16-.8-1.82-.63-1.2-2.09-2-2.73-3.18-.33-.45.05-1.12-.45-1.59-.18-.17-.41-.31-.62-.51-1.01-.97-1.25-3.04-2.1-3.85l-.33-.32c-.84-.81-.66-3.07.76-4.55.78-.82,1.79-.67,2.85-1.68.58-.61.9-1.71,1.51-2.34.34-.35,1.61-.65,2.56-.48,1.63.29,3.64,2.8,5.56,3.64.76.37,1.4.23,2.41,1.2.61.59,1.18,1.29,1.76,1.85.94.9,1.57.58,2.18,1.17.41.4.82,1.1,1.33,1.6.48.46.98.61,1.29.91l.13.13c.8.85,1.13,2.14,1.89,2.87.61.59,1.71.47,2.52.95.24.15.49.36.73.59ZM104.67,566.64c-.63-.6-2.09-1.16-2.31-1.37-.22-.21-.35-.5-.6-.74-1.16-1.11-3.39-1.4-3.75-1.53-.97-.41-1.62-1.33-2.38-1.06,1.94,3.29,3.38,6.62,5.97,9.96.52-.77,1.19-1.44,1.81-2.36.18-.29,1.58-2.28,1.56-2.46-.05-.15-.15-.31-.3-.45Z"/>
      <path class="cls-13" d="M128.93,547.3c.95.91,1.8,2.1,2.86,3.12.38.37.84.75,1.29,1.18,1.11,1.06,2.16,2.42,1.03,3.61-.65.68-1.57.48-2.32,1.27-.31.33-.71.87-1.15,1.34-1.23,1.29-1.34.5-2.54,0-.28-.08-.63,0-1.04-.11-.89-.26-1.17-.6-2.05-.58-.82.06-.93.14-1.89-.15-.75-.15-1.54-.48-2.38-.7-.86-.2-1.71-.04-2.37-.24-1.03-.25-2.31-1.04-3.39-1.51.66.61,1.34,1.23,2,1.86l1.11,1.06c.73.7,1.47,1.38,2.24,2.04.79.67,1.5,1.09,2.25,1.8.65.62,1.27,1.7,2.17,2.75,1.36,1.6,2.15,1.97.81,3.37-.39.41-1.25.97-1.57,1.04-.16.04-.69-.28-1.08-.36-.74-.09-1.14-.04-2.15-1-1.11-1.06-2.17-2.41-3.24-3.42-.45-.43-1.35-.91-2.03-1.56-.88-.84-1.7-1.68-2.54-2.49-1.53-1.46-3.17-2.66-4.62-4.04-1.11-1.06-1.25-2.15-2.74-3.57-.28-.27-.62-.51-.89-.77-1.44-1.38-1.41-2.81-.27-4,1-1.05,3.27-2.29,4.09-2.12.41.07.94.58,1.53.73.66.2,1.4.1,1.81.19.28.08.63.44,1.21.67.44.17,1.11.17,1.75.26.55.09,1.16.35,1.64.41,1.15.13,2.21-.02,3.22.16,1.62.33,3.29,1.31,3.56,1.02.15-.16-.27-.58-.85-1.14-.84-.81-2.14-1.88-2.49-2.22-.35-.33-.54-.87-1.12-1.42-.91-.87-2.01-1.68-3.01-2.63-1.38-1.32-1.95-2.81-3.02-3.84-1.09-1.05-2.06-1.37-2.72-2.01-.71-.68-.96-1.79-.26-2.52.16-.17,1.61-1.55,3.68.44.45.43.8.93,1.38,1.48,2.12,2.03,4.46,3.64,6.01,5.13,1.33,1.27,2.48,2.72,3.36,3.56,1.31,1.25,2.93,2.42,4.2,3.45.18.17.36.29.54.46Z"/>
      <path class="cls-13" d="M129.22,531.82c.65.62,1.38,1.21,1.96,1.77,1.81,1.73.25,2.29,2.6,4.55,1.58,1.51,3.33,2.97,5.2,4.76,1.23,1.17,1.98,2.28,2.96,3.64,1.12,1.55,1.82,2.31.19,4.02-1.18,1.23-2.31-.37-4.11-1.22-1.08-.46-1.4.04-2.83-1.33-1.16-1.11-2.45-2.78-3.86-4.13-1.26-1.21-2.03-1.26-3.29-2.47-1.23-1.17-1.07-1.64-1.83-2.37-.4-.38-.99-.49-1.54-.58-.56-.08-1.05-.16-1.3-.4l-.07-.06c-.35-.33-.75-1.24-1.27-1.73-.91-.87-2.02-1.37-2.8-2.11l-.17-.16s-.1-.12-.14-.19c-.46-.58-1-2.77-.73-3.05.11-.11.24-.18.33-.28.37-.38.84-1.15,1.45-1.78.91-.95,1.95-1.84,2.61-1.83.21-.02,2.44.93,2.76,1.1.44.31,1.24.97,1.98,1.68.27.25.55.58.82.84.38.44.55.85,1.06,1.34Z"/>
      <path class="cls-13" d="M161.75,525.14c-.14.68-.99,2.2-1.88,3.13-.59.62-2.35,1.36-3.42.32-.45-.43-.94-.84-1.39-1.27-1.44-1.38-2.93-2.91-4.54-4.45-1.51-1.44-3.07-2.83-4.83-4.18-.18,1.51.94,3.47,1.44,5.17.24.78.08,1.51.31,2.17.23.65.7,1.02.87,1.48.18.47.05.97-.69,1.75l-.14.14c-1.1,1.15-2.21.19-4.15-.31-.54-.11-.98-.04-1.46-.17-1.31-.36-3.09-1.12-4.4-1.64.89.77,1.76,1.58,2.74,2.51l1.89,1.81c.81.78,1.64,1.57,2.46,2.27.95.83,2.36,1.55,3.3,2.46.89.86.52.98.69,2.2.15,1.23.83,2.52-.08,3.47-1.14,1.19-3.37,1.89-4.69.62-.85-.81-1.85-2.28-3.24-3.62-1.06-1.02-1.09-1.58-1.86-2.54-1.15-1.45-2.96-3.21-4.57-4.88-.76-.8-1.21-1.7-2.2-2.65-.93-.89-1.82-1.15-3.05-2.32-.8-.76-1.49-2.29-2.33-3.67-.43-.71-1.17-1.2-1.2-1.47-.1-.23.38-1.42.48-1.6.26-.27.67-.17,1.12-.47,1.31-.83,2.16-2.13,3.27-1.99,1.16.11,3.04,1.17,4.45,1.66.65.22,1.29.21,1.82.42.36.12.68.49,1.05.6.41.17,4.27,1.38,4.43,1.21.43-.45-.99-2.38-1.53-3.85-.3-.85-.36-1.72-.75-2.61-.77-1.71-4.04-5.84-2.59-7.35.46-.48.96-.24,1.89-.68.83-.43,1.48-1.18,2.23-1.14.86.09,1.93,1.04,3,1.98.75.71,1.4,1.45,2.02,2.04,1.01.97,1.69.96,3.11,2.33.68.65,1.4,1.45,2.08,2.1,1.69,1.62,2.22,1.23,3.32,1.77.47.24,1.64,1.11,2.16,1.53,2.49,2.38,5.19,6.13,4.83,7.73Z"/>
      <path class="cls-13" d="M175.07,503.82c1.14,1.09,2.07,2.82,2.74,3.94,1.22,2.08,1.33,2.06.74,2.68-.96,1-2.99,1.39-4.41.52-.13-.13-.36-.56-.74-.92-.77-.63-4.16-3.25-4.54-2.86-.93.97.12,1.44-.64,2.23-.72.75-2.2,1.34-3.71,2.92-.39.41-.74.81-.73,1.03,0,.8,2.29,2.76,2.87,3.74.05.18.31,1.3.67,2.02.76,1.6,2.79,3.7,1.74,4.78-.68.71-2.17.41-2.37.28-1.34-.42-1.97-.07-2.8-.86-.33-.32-1.06-1.15-1.34-1.55-.15-.28-.05-.94-.3-1.18-.18-.17-.44-.17-.62-.35-.05-.05-.02-.08-.07-.12-.96-1.65-1.29-3.5-2.88-5.16-.78-.75-1.97-1.86-2.41-2.79-.09-.17.1-1.34-.84-2.24-.25-.24-.57-.43-.83-.69-.61-.59-.42-1.16-.8-1.82-.63-1.2-2.09-2-2.73-3.18-.33-.45.05-1.12-.45-1.59-.18-.17-.41-.31-.62-.51-1.01-.97-1.25-3.04-2.1-3.85l-.33-.32c-.84-.81-.66-3.07.76-4.55.78-.82,1.79-.67,2.85-1.68.58-.61.9-1.71,1.51-2.34.34-.35,1.61-.65,2.56-.48,1.63.29,3.64,2.8,5.56,3.65.76.37,1.4.23,2.41,1.2.61.59,1.18,1.29,1.76,1.85.94.9,1.57.58,2.18,1.17.41.4.82,1.11,1.33,1.6.48.46.98.61,1.29.91l.13.13c.81.85,1.13,2.14,1.89,2.87.61.59,1.71.47,2.52.95.24.15.48.36.73.59ZM164.49,504.12c-.63-.6-2.09-1.16-2.31-1.37-.22-.21-.35-.5-.6-.74-1.16-1.11-3.39-1.4-3.75-1.53-.97-.41-1.62-1.33-2.38-1.06,1.94,3.29,3.38,6.62,5.97,9.96.52-.77,1.19-1.44,1.81-2.36.18-.29,1.58-2.28,1.56-2.46-.05-.15-.15-.31-.3-.45Z"/>
      <path class="cls-13" d="M179.15,475.16c2.39,2.28,2.25,3.56.67,5.21-.72.75-1.42.78-2.54,1.96-.58.61-1.17,1.32-1.62,1.79-.74.78-1.53,1.6-.85,2.25,1.28,1.22,2.59,2.07,3.52,2.96,1.06,1.01,1.97,2.02,3.1,3.1,1.13,1.08,2.59,2.07,3.52,2.96.9.86,1.1,1.41,1.4,1.69.33.32.99.59,1.12.72,1.87,1.93,2.29,3.12.29,5.21-.53.55-1.77,1.31-2.46,1.08-.65-.19-1.53-1.39-2.58-1.95-1.33-.7-2.24.02-3.14-.84-1.58-1.51-3.92-5.37-5.44-6.83l-.81-.78c-.85-.81-1.57-2.04-2.28-2.73-.78-.75-1.34-.49-1.95.14l-.58.61c-.37.38-.75.72-1.27.76-.3-.02-2.95-1.09-3.14-1.27-.38-.37-.4-.84-.74-1.39-1.33-2.03-2.52-2.41-.37-4.66.45-.47,1.21-.44,1.65-.89,1.19-1.24-1.9-2.03.43-4.46,1.25-1.05,2.15.64,3.35.28.18-.02,1.58-1.22,1.85-1.5.37-.38.62-.84.98-1.22.69-.72,1.69-.57,2.73-1.66.58-.61.97-1.21,1.39-1.65.65-.68,1.29-.85,2.58.09.39.29.8.66,1.18,1.02Z"/>
      <path class="cls-13" d="M187.96,470.43c.65.62,1.38,1.21,1.96,1.77,1.81,1.73.25,2.29,2.6,4.55,1.58,1.51,3.33,2.96,5.2,4.76,1.23,1.17,1.98,2.28,2.96,3.64,1.12,1.56,1.82,2.31.19,4.02-1.18,1.23-2.31-.37-4.11-1.22-1.08-.46-1.4.04-2.83-1.33-1.16-1.11-2.45-2.78-3.86-4.13-1.26-1.21-2.03-1.26-3.29-2.47-1.23-1.17-1.07-1.64-1.83-2.37-.4-.38-.99-.49-1.54-.58-.56-.08-1.05-.17-1.3-.4l-.07-.06c-.35-.33-.75-1.24-1.27-1.73-.91-.87-2.02-1.37-2.8-2.11l-.17-.16s-.1-.12-.14-.19c-.46-.58-1-2.77-.73-3.05.11-.11.24-.18.33-.28.37-.38.84-1.14,1.45-1.78.91-.95,1.95-1.84,2.61-1.83.21-.02,2.44.93,2.76,1.1.43.31,1.24.97,1.98,1.68.27.25.55.58.82.84.37.44.55.85,1.06,1.34Z"/>
      <path class="cls-13" d="M214.91,468.16c.67,1.59,1.07,2.14,1.13,3.47.11,1.32-.39,1.2-1.26,2.75-.34.62-.47,1.25-.71,1.6-.42.44-1.14.66-1.75,1.3-.36.38-.71.81-1.1,1.22-.58.61-1.15,1.17-1.92,1.6-.84.52-1.57.61-2.38.83-.53.22-1.37.8-1.72.74-.65-.08-2.47-1.8-3.97-2.58-1-.52-1.49-.43-2.57-1.46-1.13-1.08-2.12-2.43-3.03-3.31-.51-.49-1.11-.93-1.59-1.39-.88-.84-1.55-2.16-2.46-3.47-1.12-1.59-2.09-2.76-3.08-4.11-1.14-1.6-1.03-3.61.23-5.28.04-.04-.06-.14.03-.24,2.46-2.57,4.54-5.08,8.26-3.82.43.12.77.49,1.23.64.76.3,1.53.22,2.19.44.72.28,1.38.78,2.18,1.03,1.86.62,3.78.83,4.79,1.8.31.3.59.62.92.93.41.4.96.62,1.42.98.65.62,1.19,1.41,1.9,2.09.53.51,1.72,1.05,2.3,1.61l.13.13c.28.41.33,1.45.84,2.51ZM204.53,466.66c-.48-.33-.91-.74-1.47-1.05-.56-.31-1.22-.55-1.71-.93-.21-.21-.37-.41-.62-.65-1.79-1.71-5.03-2.84-5.97-1.86-.35.37-.8,1-.78.98-.03.03-.04.04-.06.03-.02.28.2.52.52.82.25.24.58.5.91.81.51.49,1.28,1.58,2.17,2.64.67.86,1.6,1.78,2.02,2.31.17.22.34,1.24.56,1.54.21.31.45.59.73.86,2.5,2.4,3.73,2.08,5.84-.13.37-.38.65-.71.69-.99.11-.55-.89-2.99-1.31-3.47-.51-.49-.89-.53-1.51-.91Z"/>
      <path class="cls-13" d="M225.92,445.93c.95.91,1.8,2.1,2.86,3.12.38.37.84.75,1.29,1.18,1.11,1.06,2.16,2.42,1.03,3.61-.65.68-1.57.48-2.32,1.27-.31.33-.71.87-1.15,1.33-1.23,1.29-1.34.5-2.54,0-.28-.08-.63,0-1.04-.11-.89-.26-1.17-.6-2.05-.58-.82.06-.93.14-1.89-.15-.75-.15-1.54-.48-2.38-.7-.86-.2-1.71-.04-2.37-.24-1.03-.25-2.31-1.04-3.39-1.51.66.6,1.34,1.23,2,1.86l1.11,1.06c.73.7,1.47,1.38,2.24,2.04.79.67,1.5,1.09,2.25,1.8.65.62,1.27,1.7,2.17,2.75,1.36,1.6,2.15,1.97.81,3.37-.39.41-1.25.97-1.57,1.04-.16.04-.69-.28-1.08-.36-.74-.09-1.14-.04-2.15-1-1.11-1.06-2.18-2.41-3.24-3.42-.45-.43-1.35-.91-2.03-1.56-.88-.84-1.7-1.68-2.54-2.49-1.53-1.46-3.17-2.66-4.62-4.04-1.11-1.06-1.25-2.14-2.74-3.57-.28-.27-.62-.51-.89-.77-1.44-1.38-1.41-2.81-.27-4,1-1.05,3.27-2.29,4.09-2.12.41.07.94.58,1.53.73.66.2,1.4.1,1.81.19.28.08.63.44,1.21.67.44.17,1.11.17,1.75.27.55.09,1.16.35,1.64.41,1.15.13,2.21-.02,3.22.16,1.62.33,3.29,1.31,3.56,1.02.15-.16-.27-.58-.85-1.14-.84-.81-2.14-1.88-2.49-2.22-.35-.33-.54-.87-1.12-1.42-.91-.87-2.01-1.68-3.01-2.63-1.38-1.32-1.95-2.81-3.03-3.84-1.09-1.05-2.05-1.37-2.72-2-.71-.68-.96-1.79-.26-2.52.16-.17,1.61-1.55,3.68.44.45.43.8.93,1.38,1.48,2.12,2.03,4.46,3.64,6.01,5.13,1.33,1.27,2.48,2.72,3.36,3.56,1.31,1.25,2.93,2.42,4.2,3.45.18.17.36.29.54.46Z"/>
    </g>
    <g>
      <path class="cls-19" d="M178.51,218.86L9.44,259.63c-5.85,1.41-9.82,6.85-9.42,12.89l6.92,102.45c.22,3.31,1.75,6.39,4.24,8.57l18.03,15.74c3.01,2.63,7.09,3.64,10.96,2.72l167.73-39.84c5.8-1.38,9.79-6.73,9.47-12.72l-5.42-102.24c-.17-3.24-1.6-6.29-3.98-8.5l-18.2-16.88c-3.04-2.82-7.27-3.93-11.28-2.96Z"/>
      <g>
        <path class="cls-2" d="M180.34,229.89l9.99,106.1c.07.72-.4,1.38-1.11,1.55l-168.93,40.66c-.86.21-1.7-.39-1.79-1.26-1.37-13.79-10.77-109.11-9.65-109.39s152.39-34.97,169.72-38.94c.86-.2,1.68.41,1.77,1.28Z"/>
        <polygon class="cls-16" points="180.02 227.92 196.47 244.97 205.15 351.49 189.68 335.8 180.02 227.92"/>
        <polygon class="cls-1" points="190.44 336.81 205.15 351.05 38.42 392.73 18.66 378.15 190.44 336.81"/>
      </g>
      <rect class="cls-19" x="200.74" y="274.99" width="34.84" height="34.84" rx="17.42" ry="17.42" transform="translate(490.51 49.67) rotate(85.02)"/>
      <g>
        <path class="cls-14" d="M158.72,253.76c-.62-.04-1.21.04-1.71,0-1.28-.1-2.45-.38-4.59-.19-.91.08-1.86.27-2.71.34-.76.07-1.76-.19-3.15-.24-1.03-.02-2.18.06-3.21.04-1.69-.06-3.52-.46-4.96-.33h-.15c-.35.04-.64.11-.99.14-2.34.2-5.19-.36-6.98-.21l-.73.06c-.35.03-.62.04-.94.03-.77-.06-3.24-.94-3.45-1.29-.13-.13-.15-.33-.17-.63-.22-2.49.02-3.16,3.5-4.13.34-.12,1.05-.16,1.6-.3.95-.27,1.44-.41,2.8-.68,1.39-.29,2.35-.82,2.93-.88.23-.02.53-.02.79-.04,2.4-.21,7.95-2.26,10.52-2.48.73-.06,1.39.05,2.18-.02,1.79-.16,1.33-.98,2.7-1.56.45-.21,2.55-.53,3.85-.85,1.13-.27,3.16-.64,4.95-.8,1.49-.13,2.88-.09,3.6.3.34.22.24,1.01.68,1.36.58.54,2.05.15,2.23,2.27.04.46.05.88-.25,1.15-1.09,1-6.66,1.42-10.47,2.07-1.95.31-2.78.59-4.95.78l-1.73.15c-3.92.34-7.71,1.54-11.54,1.98.02.26,6.28.24,9.75.51.56.04.99.14,1.49.19.33,0,.68,0,1-.02l.29-.03c.35-.03.65-.03.92.01.75.11,1.37.47,2.35.56,1.19.11,2.85-.14,4.48-.08,2.46.1,6.19.26,6.27,1.2-.09.64-2.09,1.71-3.05,1.86l-.17.02c-.73.06-1.76-.16-2.97-.25Z"/>
        <path class="cls-14" d="M138.12,270.54c-.47.04-1.25.16-2.1.24-2.93.26-4.69-.97-6.81-1.97-1.57-.71-3.18-.62-3.35-2.59-.09-1.07.68-2.4.6-3.26-.03-.37-.29-.67-.32-1-.03-.29.89-1.6,2.46-2.25.71-.31,1.59-.38,2.37-.61.94-.33,1.7-.85,2.93-1.26,1.12-.36,2.83-.67,4.36-1.05,2.05-.49,3.66-1.02,4.8-1.12,2.58-.22,6.35.13,6.42.86.02.2-.2.43-.18.65.11.29.57.42.59.64.04.46-.66,1.9-1.07,2.3-.57.62-3.22,1.62-4.8,1.76-.44.04-.88.05-1.32.09-.79.07-1.54.29-2.5.47-2.18.33-3.86.36-5.11.95-.99.44-1.58,1.19-1.52,1.8.07.76,1.31.77,1.96,1.16,1,.61.82,1.24,3.54,1.01,1.08-.1,2.32-.46,3.57-.63,2.13-.29,2.93-.23,4.64-.89.31-.17,2.89-1.32,2.84-1.95-.01-.14-.08-.26-.09-.4-.1-1.11,2.28-2.58,3.58-3.96,1.08-1.16,1.57-2.97,4.09-3.19.76-.06,5.95-.14,7.37.25,1.36.37,2.75,1.41,2.76,1.56s-.06.31-.05.46c.06.67.9.79,1.31,1.2.29.28.24.74.48,1.14.55.95,1.65,3.07,1.7,3.64v.09c.02.17-.07.41-.74.58-.33.25-.36.6-.7.82-.47.3-1.41.69-1.98,1l-.73.42c-.71.36-1.13.53-2.07.61-2.46.21-4.96,0-5.08-1.45-.04-.43.15-1,.46-1.44.29-.46,1.42-.93,1.76-1.48.36-.57.55-1.84.5-2.39-.06-.72-.45-1.43-2.09-1.29-.96.08-1.23.42-2.03,1.09-.74.59-1.85,1.16-2.27,1.76-.21.35-.17.74-.26,1.03-.9,2.14-4.02,3.98-7.22,5.21-1.63.6-2.3.71-4.4.9-1.2.11-2.36.36-3.27.44-1.08.05-2.07-.06-3.04.03Z"/>
        <path class="cls-14" d="M152.79,289.93c-.7-.24-.84-.78-1.23-1.21-.71-.69-2.37-1.45-2.43-2.21-.05-.54.96-1.47,4.07-1.74.97-.08,2.05-.12,3.08-.21,2.2-.19,5.94-.86,5.91-1.27-.01-.16-.26-.33-.29-.59-.05-.62.68-.64.65-.95-.07-.85-1.88-.57-3.8-.65-.68-.03-1.53-.25-2.44-.28-.92-.06-2.01-.02-3.16-.08-1.96-.11-6.37-.27-8.88-.05-1.79.16-3.55.89-4.62,1.82-.3.28-.37.78-.78,1.23-.78.83-1.67,1.12-1.55,2.48.11,1.25,1.52,2.59,2.75,3.08.4.18,3.1.69,3.17,1.54.02.17-.22.85-1.98,1-1.14.1-2.42,0-3.5.1-.47.04-1.23.13-1.9.19-1.38.12-2.78-.09-4.38-.89-.5-.26-.83-.7-1.42-1.06-.62-.37-1.4-.84-1.42-1.11-.02-.26.19-.54.16-.9-.05-.56-.21-1.06-.26-1.62-.05-.56-.03-1.41.15-1.99.05-.41.1-1.19.24-1.34.21-.27,1.34-.51,1.98-.94.33-.24.34-.54.64-.73.6-.26,1.39-.62,1.98-.92.94-.36,2.11-.57,2.76-.88.45-.25.78-.87,1.52-1.21.17-.12,1.4-.52,1.95-.68.14-.05.23-.08.23-.1.12-.01.27,0,.48.02.54.06,1.26.22,1.67.18.67-.06,1.1-.21,1.77-.31,2.66-.23,9.04-.56,13.03-.46,1.57.06,3.32.22,4.76.1.5-.04,1.02-.14,1.52-.19,2.14-.19,2.16,1.1,3.74,1.65.51.14,1.89,0,2.25.12.3.08.12.4.62.71.5.31,1.02.25,1.05.58v.08c.02.2-.02.41,0,.57.02.26.11.54.13.84.09.99-.99,1.22-1.22,1.92-.33,1,.25,1.87-.46,2.79-.21.27-.89.59-1.42.95-.47.34-.76.76-1.19.95-.43.14-1.45.29-2.02.49-1.26.44-2.58,1.24-4.59,1.48l-.18.02c-1.2.11-5.59.2-7.11-.3Z"/>
        <path class="cls-14" d="M135.7,305.7c-2.06-.28-2.92-.29-4.2-.79-1.31-.48-.77-.7-1.42-1.8-.27-.44-.75-.76-.86-1.03-.04-.41.39-.89.34-1.48-.03-.35-.12-.71-.15-1.09-.05-.56-.07-1.1.21-1.69.27-.67.82-1.1,1.33-1.63.26-.38.47-1.07.84-1.23.65-.32,3.84-.61,5.89-1.11,1.36-.33,1.71-.64,3.62-.8,1.99-.17,4.12-.16,5.73-.3.91-.08,1.84-.23,2.69-.3,1.55-.13,3.37.04,5.38.07,2.45.04,4.39-.02,6.52,0,2.48.03,4.24.91,4.68,2.26,0,.04.18.02.19.12.21,2.38.69,4.52-3.75,6.03-.49.19-1.13.21-1.67.41-.95.29-1.56.74-2.33,1.01-.89.28-1.94.43-2.88.76-2.21.76-4.1,1.71-5.89,1.87-.56.05-1.09.07-1.67.12-.73.06-1.42.27-2.15.37-1.14.1-2.35.07-3.61.18-.94.08-2.49.51-3.52.6l-.23.02c-.62-.01-1.63-.41-3.06-.56ZM146.24,300.7c.73-.13,1.49-.2,2.27-.37.78-.17,1.58-.44,2.37-.55.38-.03.71-.04,1.14-.07,3.16-.28,7.06-1.58,6.98-2.48-.03-.34-.22-.84-.22-.82,0-.03,0-.04.03-.04-.25-.12-.66-.1-1.21-.05-.44.04-.96.11-1.55.16-.91.08-2.59.06-4.36.1-1.38.02-3.06.15-3.91.16-.35,0-1.44-.32-1.92-.32-.47-.01-.94,0-1.44.05-4.42.38-5.21,1.18-5.03,3.21.03.35.08.64.3.78.41.28,3.54.73,4.37.7.91-.08,1.27-.27,2.17-.45Z"/>
        <path class="cls-14" d="M147.3,323.03c-.85.07-1.49.16-2.11.21-1.41.12-5,.15-6.3-.23-.57-.12-1.46-1.13-2.19-1.45-.74-.36-2.67-.87-3.42-1.29-.37-.16-.57-.48-1.04-.74-.68-.36-1.42-.35-1.45-.77-.06-.67.31-1.83.23-2.79-.07-.77-1.06-1.36-1.1-1.81-.05-.54.51-1.29.77-1.99.19-.58.22-1.48.56-2.04.21-.32.98-.56,1.41-1.12.84-1.23.18-1.66,3.87-1.98,1.87-.16,3.14-.12,3.17.21.03.31-.61.79-.59,1,.05.57,2.81.45,5.27.24,2.31-.2,4.68-.49,5.88-.59.97-.08,1.51.05,2.71-.05,1.64-.14,3.77-.43,5.64-.6.97-.09,3.14-.14,4.08-.23,1.29-.11-.31-1.85,2.85-2.13,2.72-.24,4.75,2.67,5.67,3.44.61.54,1.42,1.02,1.44,1.32.03.3-.39.55-.37.82.12.41,1.04.74,1.09,1.3.07.82-1.02,1.13-1.52,1.8-.32.36-.23.72-.47,1.04-1.22,1.59-2.61,2.5-5.11,3.63-.88.39-1.54.96-2.31,1.28-1.17.46-3.82,1.17-5.64,1.65-2.16.54-5.63,1.41-8.79,1.75l-.26.02c-.59.05-1.29.04-1.97.09ZM150.55,317.29c.53-.04,1.02-.1,1.52-.19.49-.08,1.42-.27,2.78-.56.43-.1.9-.18,1.39-.26,2.06-.37,3.82-.49,5.31-.98.43-.14.79-.4,1.28-.6.45-.24,1.09-.37,1.4-.56.31-.17.48-.61,1.06-1.01,1.03-.71,2.34-.9,2.28-1.64-.05-.54-.6-1.08-.89-1.05-.64.06-2.33.31-2.74.34-2.23.14-5.02.28-7.45.49-2.96.26-4.74.79-7.51,1.14-2.1.28-4.04.67-5.45.79-1.05.09-2.32.12-3.58.23-.59.05-1.14.13-1.69.23.04.14.11.53.16,1.2.08.89.26,1.6,3.15,2.02.57.1,2.08.12,3.5.21,1.16.07,2.38.25,3.42.27.74.02,1.42,0,2.06-.06Z"/>
        <path class="cls-14" d="M140.63,338.93c-1.04-.05-2.14.16-2.96-.16-.21-.09-.4-.21-.57-.4-.16-.18-.43-.58-.84-1.21-.14-.21-.3-.39-.46-.55-.57-.48-2.28-.75-2.72-1.43-.23-.24-.32-.68-.47-1.03-.35-.65-.99-1.93-1.09-3.01-.1-1.11.72-1.22,1.22-1.91.62-1.04-.03-2.04,2.14-3.21.23-.12,1.3-.34,1.64-.46,1.08-.45,1.21-1.03,2.67-1.15,1.02-.09,2.46.5,2.5.91l.02.2c.04.44,1.25.48,2.04.41.82-.07,1.84-.25,3.21-.37.67-.06,1.38-.08,1.99-.13.97-.08,1.54-.29,2.27-.39,1.78-.25,3.97-.48,6.28-.68,2.11-.18,4.7-.25,6.19-.38.94-.08.59-1.34,3.55-1.6,3.1-.27,5.7,1.78,5.81,2.99.09,1.04-.39,2.25-.29,3.39.04.46.75,1.11.84,2.21.06.69-.78.83-1.43,1.48-.22.22-.25.54-.49.77-.21.27-.55.48-.65.65-.83,1.27-.04,1.94-3.14,2.21-4.3.38-4.17-.52-4.71-2.19-.27-.75-.45-1.45-.53-2.3-.09-1.03.24-2.38.13-3.63-.06-.67-.07-.8-1.94-.63-1.32.12-2.98.38-3.21.46-.76.38-.62,2.07-.56,2.72.07.8,1.08,1.2,1.12,1.71.05.56-.51.57-.73.76-.58.46-.75.55-2.07.67-4.39.38-4.6-.02-4.97-2.55-.17-.93-.27-1.11-1.36-1.01-1.84.16-2.31.19-2.4.2-1.73.15-2.44.44-2.34,1.53.1,1.15.71,2.44,1.27,3.44.46.84,1.5,1.29,1.57,2.07.08.94-1.1,1.56-3.42,1.76-.67.06-1.44.07-2.12.03-.36-.02-.6-.16-.99-.16Z"/>
      </g>
      <circle class="cls-14" cx="219.2" cy="292.15" r="12.05"/>
      <path class="cls-14" d="M77.01,251.83s-22.02,12.26-18.53,31.16c3.49,18.9,28.14,23.91,31.14,42.98,2.99,19.07-9.25,36.65-9.25,36.65l-62.16,15.57-9.81-110.6,68.62-15.76Z"/>
      <g>
        <path class="cls-20" d="M94.85,336.05s-5.94-13.56-19.63-9.28c-8.21,2.57-11.95,25.39,5.14,26.21s16.3-10.91,14.49-16.93Z"/>
        <path class="cls-18" d="M72.98,333.49s1.23-5.51,7.05-4.65c5.82.86-2.71,1.73-4.33,3.4-1.62,1.66-3.11,3.33-2.72,1.25Z"/>
        <path class="cls-15" d="M90.49,339.73s8.8.88,10.97-.93c0,0,1.1.89.27,1.88s-11.14-.11-11.14-.11l6.27,3.89s-5.32-2.94-6.07-2.78,1.62,7.39,1.62,7.39l-3.88-7.76-6.65-1.98s6.22,1.02,6.77.68c.56-.34-1.72-8.64-1.72-8.64l3.47,6.81s4.99-1.49,5.84-3.1c0,0-1.28,3.45-5.76,4.65Z"/>
        <path class="cls-18" d="M73.28,338.27s.29-1.35-.55-1.98-1.94,1.33-1.1,2.3,1.6.24,1.65-.32Z"/>
      </g>
      <g>
        <path class="cls-20" d="M76.94,308.27s.42-14.8-13.79-16.78c-8.52-1.19-21.65,17.86-6.55,25.9,15.1,8.04,19.4-2.91,20.33-9.12Z"/>
        <path class="cls-18" d="M58.26,296.61s3.46-4.45,8.36-1.19c4.9,3.26-3.19.41-5.36,1.23-2.17.81-4.24,1.68-3-.03Z"/>
        <path class="cls-15" d="M71.43,309.74s7.58,4.56,10.32,3.84c0,0,.62,1.28-.56,1.82-1.18.54-10.02-4.85-10.02-4.85l4.01,6.19s-3.56-4.93-4.3-5.11c-.75-.18-1.69,7.37-1.69,7.37l-.19-8.67-5.16-4.63s5.18,3.58,5.83,3.51,2.14-8.55,2.14-8.55l.23,7.64s5.15.79,6.61-.31c0,0-2.63,2.57-7.2,1.75Z"/>
        <path class="cls-18" d="M56.48,301.06s.84-1.09.35-2.03-2.32.37-1.97,1.61c.35,1.24,1.35.9,1.63.41Z"/>
      </g>
      <g>
        <path class="cls-20" d="M98.86,283.26s.39-14.01-13.05-15.88c-8.07-1.12-20.49,16.9-6.2,24.51,14.3,7.61,18.36-2.75,19.25-8.63Z"/>
        <path class="cls-18" d="M81.18,272.22s3.28-4.21,7.91-1.13c4.63,3.09-3.02.39-5.08,1.16s-4.01,1.59-2.83-.03Z"/>
        <path class="cls-15" d="M93.64,284.65s7.18,4.32,9.76,3.64c0,0,.59,1.21-.53,1.72s-9.49-4.59-9.49-4.59l3.79,5.86s-3.37-4.66-4.07-4.84c-.71-.17-1.6,6.98-1.6,6.98l-.18-8.21-4.89-4.38s4.91,3.39,5.52,3.32c.62-.06,2.02-8.09,2.02-8.09l.22,7.23s4.87.75,6.25-.29c0,0-2.49,2.44-6.81,1.65Z"/>
        <path class="cls-18" d="M79.5,276.43s.79-1.03.33-1.92-2.19.35-1.87,1.53c.33,1.17,1.27.85,1.54.39Z"/>
      </g>
      <g>
        <path class="cls-20" d="M56.83,333.89s-5.94-13.56-19.63-9.28c-8.21,2.57-11.95,25.39,5.14,26.21s16.3-10.91,14.49-16.93Z"/>
        <path class="cls-18" d="M34.96,331.33s1.23-5.51,7.05-4.65c5.82.86-2.71,1.73-4.33,3.4s-3.11,3.33-2.72,1.25Z"/>
        <path class="cls-15" d="M52.48,337.57s8.8.88,10.97-.93c0,0,1.1.89.27,1.88-.84,1-11.14-.11-11.14-.11l6.27,3.89s-5.32-2.94-6.07-2.78,1.62,7.39,1.62,7.39l-3.88-7.76-6.65-1.98s6.22,1.02,6.77.68-1.72-8.64-1.72-8.64l3.47,6.81s4.99-1.49,5.84-3.1c0,0-1.28,3.45-5.76,4.65Z"/>
        <path class="cls-18" d="M35.26,336.11s.29-1.35-.55-1.98-1.94,1.33-1.1,2.3c.84.97,1.6.24,1.65-.32Z"/>
      </g>
      <g>
        <path class="cls-20" d="M53.98,285.39s.42-14.8-13.79-16.78c-8.52-1.19-21.65,17.86-6.55,25.9,15.1,8.04,19.4-2.91,20.33-9.12Z"/>
        <path class="cls-18" d="M35.3,273.73s3.46-4.45,8.36-1.19c4.9,3.26-3.19.41-5.36,1.23-2.17.81-4.24,1.68-3-.03Z"/>
        <path class="cls-15" d="M48.46,286.86s7.58,4.56,10.32,3.84c0,0,.62,1.28-.56,1.82s-10.02-4.85-10.02-4.85l4.01,6.19s-3.56-4.93-4.3-5.11-1.69,7.37-1.69,7.37l-.19-8.67-5.16-4.63s5.18,3.58,5.83,3.51,2.14-8.55,2.14-8.55l.23,7.64s5.15.79,6.61-.31c0,0-2.63,2.57-7.2,1.75Z"/>
        <path class="cls-18" d="M33.52,278.19s.84-1.09.35-2.03-2.32.37-1.97,1.61,1.35.9,1.63.41Z"/>
      </g>
      <line class="cls-9" x1="115.37" y1="242.82" x2="130.11" y2="351.59"/>
      <line class="cls-8" x1="108.7" y1="244.52" x2="126.04" y2="352.91"/>
      <g>
        <path class="cls-20" d="M113.6,311.58s-5.94-13.56-19.63-9.28c-8.21,2.57-11.95,25.39,5.14,26.21,17.09.82,16.3-10.91,14.49-16.93Z"/>
        <path class="cls-18" d="M91.73,309.02s1.23-5.51,7.05-4.65-2.71,1.73-4.33,3.4-3.11,3.33-2.72,1.25Z"/>
        <path class="cls-15" d="M109.24,315.27s8.8.88,10.97-.93c0,0,1.1.89.27,1.88-.84,1-11.14-.11-11.14-.11l6.27,3.89s-5.32-2.94-6.07-2.78c-.75.16,1.62,7.39,1.62,7.39l-3.88-7.76-6.65-1.98s6.22,1.02,6.77.68-1.72-8.64-1.72-8.64l3.47,6.81s4.99-1.49,5.84-3.1c0,0-1.28,3.45-5.76,4.65Z"/>
        <path class="cls-18" d="M92.03,313.8s.29-1.35-.55-1.98c-.84-.63-1.94,1.33-1.1,2.3.84.97,1.6.24,1.65-.32Z"/>
      </g>
    </g>
    <path class="cls-21" d="M229.22,301.86c14.75-.28,29.5-.57,44.25-.85,12.85-.25,12.9-20.25,0-20-14.75.28-29.5.57-44.25.85-12.85.25-12.9,20.25,0,20h0Z"/>
  </g>
</svg>