<?xml version="1.0" encoding="UTF-8"?>
<svg id="Layer_2" data-name="Layer 2" xmlns="http://www.w3.org/2000/svg" viewBox="0 0 166.18 120.63">
  <defs>
    <style>
      .cls-1 {
        fill: #d12026;
      }
    </style>
  </defs>
  <g id="Layer_1-2" data-name="Layer 1">
    <path class="cls-1" d="M166.18,47.14c0-3.02-2.45-5.46-5.46-5.46h-50.22L92.16,1.85c-.73-1.59-2.61-2.29-4.2-1.55l-2.18,1c-1.59.73-2.28,2.62-1.55,4.2l16.66,36.18h-37.29L80.25,5.5c.73-1.59.04-3.47-1.55-4.2l-2.18-1c-1.59-.74-3.47-.04-4.2,1.55l-18.34,39.83H5.46c-1.51,0-2.87.61-3.86,1.6-.99.99-1.6,2.35-1.6,3.86,0,2.36,1.5,4.37,3.6,5.13-.16.3-.25.65-.25,1.02v.02c0,1.21.98,2.19,2.19,2.19h3.97c-.13.5-.19,1.03-.17,1.58l1.15,22.19c.03.62.18,1.22.43,1.78.25.56.6,1.07,1.04,1.51.86.86,1.38,2,1.46,3.22l1.66,25.46c.06.92.37,1.81.91,2.56l3.32,4.7c.94,1.33,2.47,2.12,4.1,2.12h119.36c1.6,0,3.11-.77,4.06-2.06l2.68-3.68c.56-.77.89-1.69.95-2.64l1.58-25.31c.06-.99.41-1.94,1.01-2.72l.79-1.04c.57-.76.92-1.66,1-2.61l2-23.33c.05-.61,0-1.2-.16-1.75h3.09c1.21,0,2.19-.98,2.19-2.19v-.02c0-.28-.06-.55-.15-.8,1.08-.22,2.04-.75,2.78-1.49.99-.99,1.6-2.35,1.6-3.86ZM24.35,105.72s0,0,0,0v1.35c0,1.1-.89,1.99-1.99,1.99s-1.99-.89-1.99-1.99v-20.3h0v-1.35c0-1.1.89-1.99,1.99-1.99.55,0,1.05.22,1.41.58.36.36.58.86.58,1.41v20.3ZM24.35,79.09s0,0,0,0v1.35c0,1.1-.89,1.99-1.99,1.99s-1.99-.9-1.99-1.99v-20.31h0v-1.35c0-1.1.89-1.99,1.99-1.99.55,0,1.05.23,1.41.58.36.36.58.86.58,1.41v20.31ZM32.45,105.72h0v1.35c0,1.1-.89,1.99-1.99,1.99s-2-.89-2-1.99v-20.3s0,0,0,0v-1.35c0-1.1.89-1.99,2-1.99.55,0,1.05.22,1.41.58.36.36.58.86.58,1.41v20.3ZM32.45,79.09h0v1.35c0,1.1-.89,1.99-1.99,1.99s-2-.9-2-1.99v-20.31s0,0,0,0v-1.35c0-1.1.89-1.99,2-1.99.55,0,1.05.23,1.41.58.36.36.58.86.58,1.41v20.31ZM40.55,105.72h0v1.35c0,1.1-.9,1.99-1.99,1.99s-2-.89-2-1.99v-20.3s0,0,0,0v-1.35c0-1.1.89-1.99,2-1.99.55,0,1.05.22,1.41.58.36.36.58.86.58,1.41v20.3ZM40.55,79.09h0v1.35c0,1.1-.9,1.99-1.99,1.99s-2-.9-2-1.99v-20.31s0,0,0,0v-1.35c0-1.1.89-1.99,2-1.99.55,0,1.05.23,1.41.58.36.36.58.86.58,1.41v20.31ZM48.65,106.08s0,0,0,0v1.35c0,1.1-.89,1.99-1.99,1.99s-1.99-.89-1.99-1.99v-20.3s0,0,0,0v-1.35c0-1.1.9-1.99,1.99-1.99.55,0,1.05.23,1.41.58s.58.86.58,1.41v20.3ZM48.65,79.44s0,0,0,0v1.35c0,1.1-.89,1.99-1.99,1.99s-1.99-.89-1.99-1.99v-20.3s0,0,0,0v-1.35c0-1.1.9-1.99,1.99-1.99.55,0,1.05.23,1.41.58s.58.86.58,1.41v20.3ZM56.74,106.08s0,0,0,0v1.35c0,1.1-.89,1.99-1.99,1.99s-1.99-.89-1.99-1.99v-20.3h0v-1.35c0-1.1.89-1.99,2-1.99.55,0,1.05.23,1.41.58s.58.86.58,1.41v20.3ZM56.74,79.44s0,0,0,0v1.35c0,1.1-.89,1.99-1.99,1.99s-1.99-.89-1.99-1.99v-20.3h0v-1.35c0-1.1.89-1.99,2-1.99.55,0,1.05.23,1.41.58s.58.86.58,1.41v20.3ZM64.84,106.08s0,0,0,0v1.35c0,1.1-.9,1.99-1.99,1.99s-1.99-.89-1.99-1.99v-20.3h0v-1.35c0-1.1.89-1.99,2-1.99.55,0,1.05.23,1.41.58.36.36.58.86.58,1.41v20.3ZM64.84,79.44s0,0,0,0v1.35c0,1.1-.9,1.99-1.99,1.99s-1.99-.89-1.99-1.99v-20.3h0v-1.35c0-1.1.89-1.99,2-1.99.55,0,1.05.23,1.41.58.36.36.58.86.58,1.41v20.3ZM72.94,106.08h0v1.35c0,1.1-.89,1.99-1.99,1.99s-2-.89-2-1.99v-20.3s0,0,0,0v-1.35c0-1.1.9-1.99,2-1.99.55,0,1.05.23,1.41.58.36.36.58.86.58,1.41v20.3ZM72.94,79.44h0v1.35c0,1.1-.89,1.99-1.99,1.99s-2-.89-2-1.99v-20.3s0,0,0,0v-1.35c0-1.1.9-1.99,2-1.99.55,0,1.05.23,1.41.58.36.36.58.86.58,1.41v20.3ZM81.04,106.08h0v1.35c0,1.1-.89,1.99-2,1.99s-1.99-.89-1.99-1.99v-20.3s0,0,0,0v-1.35c0-1.1.89-1.99,1.99-1.99.55,0,1.05.23,1.41.58.36.36.58.86.58,1.41v20.3ZM81.04,79.44h0v1.35c0,1.1-.89,1.99-2,1.99s-1.99-.89-1.99-1.99v-20.3s0,0,0,0v-1.35c0-1.1.89-1.99,1.99-1.99.55,0,1.05.23,1.41.58.36.36.58.86.58,1.41v20.3ZM89.14,106.08s0,0,0,0v1.35c0,1.1-.9,1.99-1.99,1.99s-1.99-.89-1.99-1.99v-20.3s0,0,0,0v-1.35c0-1.1.89-1.99,1.99-1.99.55,0,1.05.23,1.41.58.36.36.58.86.58,1.41v20.3ZM89.14,79.44s0,0,0,0v1.35c0,1.1-.9,1.99-1.99,1.99s-1.99-.89-1.99-1.99v-20.3s0,0,0,0v-1.35c0-1.1.89-1.99,1.99-1.99.55,0,1.05.23,1.41.58.36.36.58.86.58,1.41v20.3ZM97.24,106.08s0,0,0,0v1.35c0,1.1-.9,1.99-2,1.99s-1.99-.89-1.99-1.99v-20.3h0v-1.35c0-1.1.9-1.99,2-1.99.55,0,1.05.23,1.42.58.36.36.58.86.58,1.41v20.3ZM97.24,79.44s0,0,0,0v1.35c0,1.1-.9,1.99-2,1.99s-1.99-.89-1.99-1.99v-20.3h0v-1.35c0-1.1.9-1.99,2-1.99.55,0,1.05.23,1.42.58.36.36.58.86.58,1.41v20.3ZM105.33,106.08s0,0,0,0v1.35c0,1.1-.89,1.99-1.99,1.99s-1.99-.89-1.99-1.99v-20.3h0v-1.35c0-1.1.89-1.99,1.99-1.99.55,0,1.05.23,1.41.58.36.36.58.86.58,1.41v20.3ZM105.33,79.44s0,0,0,0v1.35c0,1.1-.89,1.99-1.99,1.99s-1.99-.89-1.99-1.99v-20.3h0v-1.35c0-1.1.89-1.99,1.99-1.99.55,0,1.05.23,1.41.58.36.36.58.86.58,1.41v20.3ZM113.43,106.08h0v1.35c0,1.1-.89,1.99-1.99,1.99s-1.99-.89-1.99-1.99v-20.3h0v-1.35c0-1.1.89-1.99,1.99-1.99.55,0,1.05.23,1.41.58s.58.86.58,1.41v20.3ZM113.43,79.44h0v1.35c0,1.1-.89,1.99-1.99,1.99s-1.99-.89-1.99-1.99v-20.3h0v-1.35c0-1.1.89-1.99,1.99-1.99.55,0,1.05.23,1.41.58s.58.86.58,1.41v20.3ZM121.53,106.08h0v1.35c0,1.1-.9,1.99-1.99,1.99s-2-.89-2-1.99v-20.3s0,0,0,0v-1.35c0-1.1.89-1.99,2-1.99.55,0,1.05.23,1.41.58.36.36.58.86.58,1.41v20.3ZM121.53,79.44h0v1.35c0,1.1-.9,1.99-1.99,1.99s-2-.89-2-1.99v-20.3s0,0,0,0v-1.35c0-1.1.89-1.99,2-1.99.55,0,1.05.23,1.41.58.36.36.58.86.58,1.41v20.3ZM129.62,106.08s0,0,0,0v1.35c0,1.1-.89,1.99-1.99,1.99s-1.99-.89-1.99-1.99v-20.3s0,0,0,0v-1.35c0-1.1.9-1.99,1.99-1.99.55,0,1.05.23,1.41.58.36.36.58.86.58,1.41v20.3ZM129.62,79.44s0,0,0,0v1.35c0,1.1-.89,1.99-1.99,1.99s-1.99-.89-1.99-1.99v-20.3s0,0,0,0v-1.35c0-1.1.9-1.99,1.99-1.99.55,0,1.05.23,1.41.58.36.36.58.86.58,1.41v20.3ZM137.72,106.08s0,0,0,0v1.35c0,1.1-.89,1.99-1.99,1.99s-1.99-.89-1.99-1.99v-20.3s0,0,0,0v-1.35c0-1.1.89-1.99,1.99-1.99.55,0,1.05.23,1.41.58.36.36.58.86.58,1.41v20.3ZM137.72,79.44s0,0,0,0v1.35c0,1.1-.89,1.99-1.99,1.99s-1.99-.89-1.99-1.99v-20.3s0,0,0,0v-1.35c0-1.1.89-1.99,1.99-1.99.55,0,1.05.23,1.41.58.36.36.58.86.58,1.41v20.3ZM145.82,106.08s0,0,0,0v1.35c0,1.1-.9,1.99-1.99,1.99s-1.99-.89-1.99-1.99v-20.3h0v-1.35c0-1.1.89-1.99,2-1.99.55,0,1.05.23,1.41.58.36.36.58.86.58,1.41v20.3ZM145.82,79.44s0,0,0,0v1.35c0,1.1-.9,1.99-1.99,1.99s-1.99-.89-1.99-1.99v-20.3h0v-1.35c0-1.1.89-1.99,2-1.99.55,0,1.05.23,1.41.58.36.36.58.86.58,1.41v20.3Z"/>
  </g>
</svg>