<?xml version="1.0" encoding="UTF-8"?>
<svg id="Layer_2" data-name="Layer 2" xmlns="http://www.w3.org/2000/svg" viewBox="0 0 1918.66 199.48">
  <defs>
    <style>
      .cls-1 {
        fill: #fff099;
      }

      .cls-2 {
        fill: #027248;
      }
    </style>
  </defs>
  <g id="Layer_1-2" data-name="Layer 1">
    <g>
      <path class="cls-2" d="M0,0h119.92v139.52c0,33.09-26.87,59.96-59.96,59.96h0C26.87,199.48,0,172.61,0,139.52V0H0Z"/>
      <path class="cls-1" d="M119.92,0h119.92v139.52c0,33.09-26.87,59.96-59.96,59.96h0c-33.09,0-59.96-26.87-59.96-59.96V0h0Z"/>
      <path class="cls-2" d="M239.83,0h119.92v139.52c0,33.09-26.87,59.96-59.96,59.96h0c-33.09,0-59.96-26.87-59.96-59.96V0h0Z"/>
      <path class="cls-1" d="M359.75,0h119.92v139.52c0,33.09-26.87,59.96-59.96,59.96h0c-33.09,0-59.96-26.87-59.96-59.96V0h0Z"/>
      <path class="cls-2" d="M479.67,0h119.92v139.52c0,33.09-26.87,59.96-59.96,59.96h0c-33.09,0-59.96-26.87-59.96-59.96V0h0Z"/>
      <path class="cls-1" d="M599.58,0h119.92v139.52c0,33.09-26.87,59.96-59.96,59.96h0c-33.09,0-59.96-26.87-59.96-59.96V0h0Z"/>
      <path class="cls-2" d="M719.5,0h119.92v139.52c0,33.09-26.87,59.96-59.96,59.96h0c-33.09,0-59.96-26.87-59.96-59.96V0h0Z"/>
      <path class="cls-1" d="M839.41,0h119.92v139.52c0,33.09-26.87,59.96-59.96,59.96h0c-33.09,0-59.96-26.87-59.96-59.96V0h0Z"/>
      <path class="cls-2" d="M959.33,0h119.92v139.52c0,33.09-26.87,59.96-59.96,59.96h0c-33.09,0-59.96-26.87-59.96-59.96V0h0Z"/>
      <path class="cls-1" d="M1079.25,0h119.92v139.52c0,33.09-26.87,59.96-59.96,59.96h0c-33.09,0-59.96-26.87-59.96-59.96V0h0Z"/>
      <path class="cls-2" d="M1199.16,0h119.92v139.52c0,33.09-26.87,59.96-59.96,59.96h0c-33.09,0-59.96-26.87-59.96-59.96V0h0Z"/>
      <path class="cls-1" d="M1319.08,0h119.92v139.52c0,33.09-26.87,59.96-59.96,59.96h0c-33.09,0-59.96-26.87-59.96-59.96V0h0Z"/>
      <path class="cls-2" d="M1439,0h119.92v139.52c0,33.09-26.87,59.96-59.96,59.96h0c-33.09,0-59.96-26.87-59.96-59.96V0h0Z"/>
      <path class="cls-1" d="M1558.91,0h119.92v139.52c0,33.09-26.87,59.96-59.96,59.96h0c-33.09,0-59.96-26.87-59.96-59.96V0h0Z"/>
      <path class="cls-2" d="M1678.83,0h119.92v139.52c0,33.09-26.87,59.96-59.96,59.96h0c-33.09,0-59.96-26.87-59.96-59.96V0h0Z"/>
      <path class="cls-1" d="M1798.75,0h119.92v139.52c0,33.09-26.87,59.96-59.96,59.96h0c-33.09,0-59.96-26.87-59.96-59.96V0h0Z"/>
    </g>
  </g>
</svg>