<?xml version="1.0" encoding="UTF-8"?>
<svg id="Layer_2" data-name="Layer 2" xmlns="http://www.w3.org/2000/svg" viewBox="0 0 415.08 434.62">
  <defs>
    <style>
      .cls-1 {
        opacity: .2;
      }

      .cls-1, .cls-2 {
        fill: #fff;
      }

      .cls-3 {
        opacity: .76;
      }

      .cls-4 {
        fill: #8bd4e0;
      }

      .cls-5 {
        fill: #fff09a;
      }

      .cls-6, .cls-7 {
        fill: #37489e;
      }

      .cls-8 {
        fill: #f5bc18;
      }

      .cls-7 {
        stroke: #fff;
        stroke-miterlimit: 10;
        stroke-width: 11px;
      }

      .cls-9 {
        fill: #fff099;
      }

      .cls-10 {
        fill: #6b6b6b;
      }

      .cls-11 {
        fill: #e5ad23;
      }
    </style>
  </defs>
  <g id="Layer_1-2" data-name="Layer 1">
    <g>
      <g>
        <rect class="cls-8" x="-8.75" y="109.31" width="432.57" height="216" rx="39.79" ry="39.79" transform="translate(-92.7 229.58) rotate(-48.66)"/>
        <path class="cls-11" d="M76.23,366.56S-.1,318.8,56.87,250.57c0,0-44.43,33.77-43.11,57.21,1,17.71,62.46,58.78,62.46,58.78Z"/>
        <path class="cls-11" d="M211.57,87.47s47.76-76.32,115.99-19.36c0,0-33.77-44.43-57.21-43.11-17.71,1-58.78,62.46-58.78,62.46Z"/>
        <path class="cls-11" d="M342.07,80.17s65.53,41.01,16.62,99.59c0,0,38.15-28.99,37.01-49.12-.86-15.21-53.63-50.47-53.63-50.47Z"/>
        <path class="cls-11" d="M78.04,372.34c5.94,5.23,11.89,10.46,17.83,15.69,9.43,8.3,18.87,16.6,28.3,24.9,2.17,1.91,4.34,3.82,6.51,5.73,1.01.89,2.54,1,3.54,0,.91-.91,1.02-2.64,0-3.54-5.94-5.23-11.89-10.46-17.83-15.69-9.43-8.3-18.87-16.6-28.3-24.9-2.17-1.91-4.34-3.82-6.51-5.73-1.01-.89-2.54-1-3.54,0-.91.91-1.02,2.64,0,3.54h0Z"/>
        <path class="cls-11" d="M185.78,107.56c-3.27,3.71-6.53,7.43-9.8,11.14-7.85,8.92-15.69,17.84-23.54,26.76-9.52,10.82-19.05,21.65-28.57,32.47-8.21,9.33-16.42,18.66-24.62,27.99-3.99,4.53-8.05,9.01-11.96,13.6-.05.06-.11.13-.17.19-.89,1.01-1,2.54,0,3.54.91.91,2.64,1.02,3.54,0,3.27-3.71,6.53-7.43,9.8-11.14,7.85-8.92,15.69-17.84,23.54-26.76,9.52-10.82,19.05-21.65,28.57-32.47,8.21-9.33,16.42-18.66,24.62-27.99,3.99-4.53,8.05-9.01,11.96-13.6.05-.06.11-.13.17-.19.89-1.01,1-2.54,0-3.54-.91-.91-2.64-1.02-3.54,0h0Z"/>
        <path class="cls-11" d="M203.07,365.13c1.26-1.43,2.52-2.87,3.79-4.3,3.43-3.9,6.87-7.81,10.3-11.71,5.06-5.75,10.11-11.49,15.17-17.24,6.19-7.04,12.38-14.07,18.57-21.11,6.78-7.71,13.56-15.42,20.35-23.13,6.82-7.75,13.64-15.5,20.46-23.25,6.38-7.26,12.77-14.51,19.15-21.77,5.39-6.13,10.79-12.26,16.18-18.39,3.86-4.39,7.73-8.78,11.59-13.17,1.84-2.09,3.7-4.16,5.52-6.27.08-.09.16-.18.24-.27.89-1.01,1-2.54,0-3.54-.91-.91-2.64-1.02-3.54,0-1.26,1.43-2.52,2.87-3.79,4.3-3.43,3.9-6.87,7.81-10.3,11.71-5.06,5.75-10.11,11.49-15.17,17.24-6.19,7.04-12.38,14.07-18.57,21.11-6.78,7.71-13.56,15.42-20.35,23.13s-13.64,15.5-20.46,23.25c-6.38,7.26-12.77,14.51-19.15,21.77-5.39,6.13-10.79,12.26-16.18,18.39-3.86,4.39-7.73,8.78-11.59,13.17-1.84,2.09-3.7,4.16-5.52,6.27-.08.09-.16.18-.24.27-.89,1.01-1,2.54,0,3.54.91.91,2.64,1.02,3.54,0h0Z"/>
        <g>
          <path class="cls-6" d="M87.8,334.69c3.34-8.47,22.99-57.86,37.59-84.7.23-.42.36-.87.39-1.34l1.77-28.23c.04-.67.28-1.3.7-1.83,5.73-7.15,48.24-59.89,57.28-60.97,4.64-.56,5.37,3.86,4.87,8.62-.32,3.05,3.33,4.84,5.51,2.69,13.9-13.66,42.02-40.08,54.04-42.52,1.2-.24,2.18-1.1,2.48-2.29l14.29-56.53c.62-2.46,3.69-3.3,5.47-1.49,10.36,10.46,38.28,38.03,56.54,50.22,1.96,1.31,1.91,4.18-.08,5.45-6.96,4.44-22.47,13-45.64,18.36-1.43.33-2.47,1.55-2.52,3.02-.35,8.79-4.32,40.76-41.03,88.82-1.6,2.09-.17,5.11,2.46,5.22,12.58.53,35.4,4.76-6.29,31.67-.09.06-.17.11-.26.15-1.43.75-13.45,6.84-32.04,8.73-.75.08-1.45.4-1.98.93-7.53,7.55-65.29,64.7-92.23,66.88-1.69.14-3.21-1.06-3.46-2.73,0-.03-.01-.07-.01-.1-.31-2.14-2.66-3.37-4.6-2.42-4.26,2.08-10.04,3.26-13.16-3.02-.4-.81-.42-1.75-.09-2.59Z"/>
          <path class="cls-5" d="M122.22,310.96c.26.23.5.47.72.73.36.42-.2-.32.04.04.1.15.2.3.29.45s.18.31.26.47c.03.07.06.14.1.2.13.23-.1-.26-.1-.25.11.36.26.7.34,1.07.03.15.07.29.09.44.1.56-.03-.45,0,0,.02.35.03.69.01,1.04,0,.15-.03.3-.04.45.03-.73.02-.21-.02,0-.07.34-.17.68-.29,1.01-.19.52.19-.36-.01.03-.07.14-.14.28-.21.41-.09.16-.18.31-.28.46-.04.07-.09.13-.13.19-.18.28.01-.05.1-.13-.28.23-.49.57-.76.81-.11.1-.26.19-.36.31.04-.04.48-.34.14-.11-.09.06-.17.12-.25.17-.28.18-.57.32-.86.48-.23.13.25-.1.25-.1-.08,0-.21.08-.28.11-.16.06-.33.11-.5.16-.31.09-.63.13-.95.2.04,0,.64-.06.22-.04-.07,0-.15.01-.22.02-.17,0-.35.01-.52.01s-.35-.01-.52-.03c-.58-.05.42.09,0,0-.34-.07-.68-.15-1.02-.26-.14-.05-.28-.12-.43-.16.05.01.55.26.18.07-.07-.04-.14-.07-.21-.1-.32-.17-.62-.37-.93-.57-.22-.14.2.14.19.15,0,0-.26-.22-.24-.21-.12-.11-.24-.21-.35-.33-.13-.13-.25-.26-.37-.4-.36-.42.18.3-.04-.04-.18-.28-.36-.55-.52-.85-.05-.09-.09-.18-.13-.27-.13-.23.1.26.1.25-.06-.19-.14-.37-.2-.56-.1-.31-.17-.62-.23-.94-.01-.07-.02-.15-.04-.22,0-.02.05.57.05.29,0-.2-.03-.4-.03-.59,0-.32.05-.65.05-.97,0-.02-.1.56-.04.29.02-.07.03-.15.04-.22.04-.2.09-.39.14-.58.05-.17.1-.34.16-.5.03-.07.06-.14.08-.21,0,0-.23.48-.1.25.17-.32.33-.64.53-.94.06-.09.12-.17.18-.26.14-.22-.15.19-.15.19.14-.11.25-.29.37-.42.11-.12.22-.23.34-.34.06-.05.12-.11.17-.16.04-.03.44-.36.11-.1-.31.24.16-.1.25-.16.17-.11.35-.21.53-.31.07-.04.13-.07.2-.1.35-.17.08-.03-.12.03.17-.05.33-.13.49-.18.38-.12.77-.2,1.16-.28.27-.05-.32.04-.3.04.09,0,.2-.02.3-.02.2-.01.4-.02.6-.01s.4.02.6.03c.42.03-.56-.1,0,0,.37.07.73.17,1.09.3.05.02.22.11.28.11-.1,0-.49-.23-.18-.07.18.09.37.18.54.29.16.09.31.19.46.29.08.05.36.27.06.04-.33-.26.08.08.12.11.99.85,2.58,1.05,3.54,0,.86-.94,1.06-2.62,0-3.54-1.67-1.44-3.58-2.28-5.77-2.52-1.92-.21-3.91.25-5.61,1.16s-3.24,2.46-4.08,4.22c-.94,1.97-1.23,4.02-.89,6.17.6,3.87,3.86,7.24,7.73,7.94,4.13.75,8.35-1.01,10.5-4.68,2.32-3.95,1.53-9.22-1.89-12.29-.97-.87-2.59-1.03-3.54,0-.88.95-1.04,2.6,0,3.54Z"/>
          <path class="cls-9" d="M154.76,317.92c-.58-1.53-1.57-3.86-3.14-6.72-6.94-12.59,30.34-43.02,41.13-52.52l75.63-82.42c1.43-1.26,3.59.3,2.83,2.05-5.18,11.92-16.75,36.25-31.73,53.67-.09.11-.17.22-.23.34-.47.94-2.11,4.97,3.91,5.1,6.81.14,26,3.03,9.99,18.27-16.01,15.24-36.01,22.43-49.92,22.22,0,0-.75-.14-1.98.93,0,0-34.15,33.11-43.78,39.91-.96.67-2.28.27-2.7-.83Z"/>
          <path class="cls-4" d="M113.36,292.89s.09,0,.14.01c.69.07-.46-.08-.14-.02.54.1,1.09.18,1.63.29,1.97.41,3.89,1.01,5.76,1.74.25.1.49.19.74.29.63.26-.48-.21.16.07.13.06.26.11.39.17.68.3,1.34.62,2,.95,1.43.72,2.82,1.52,4.17,2.4,3.12,2.02,5.82,4.32,8.43,7.1,3.73,3.97,6.72,8.54,9.16,13.4,1.45,2.88,5.76.35,4.32-2.52-6.68-13.3-18.37-24.86-33.23-28.29-1.16-.27-2.35-.49-3.53-.59-1.35-.11-2.5,1.23-2.5,2.5,0,1.44,1.15,2.39,2.5,2.5h0Z"/>
          <path class="cls-5" d="M111.37,333.81c.31-.78.1-.24-.06.05-.1.18-.21.36-.32.53-.07.1-.14.2-.21.3-.04.06-.09.12-.13.17-.19.27.28-.34.11-.15-.46.56-.94,1.08-1.49,1.55-.08.07-.17.14-.25.21-.06.05-.33.26-.07.06.27-.21-.07.05-.13.09-.1.07-.2.14-.29.21-.41.28-.84.53-1.28.76-.28.15-.57.28-.87.42s.33-.13-.08.03c-.16.06-.33.12-.49.18-.69.24-1.4.43-2.11.59-.96.21-1.61,1.38-1.31,2.31.33,1.01,1.28,1.53,2.31,1.31,3.9-.83,7.73-3.03,9.77-6.56.2-.34.36-.7.5-1.06.37-.91-.4-2.1-1.31-2.31-1.08-.25-1.91.33-2.31,1.31h0Z"/>
          <path class="cls-5" d="M140.67,227.85c-.02-.13-.04-.27-.06-.4-.05-.36.06.52,0-.02-.02-.19-.05-.39-.07-.58-.13-1.18-.22-2.37-.25-3.56-.04-1.45,0-2.89.16-4.33,0-.09.02-.17.03-.26-.02.18-.03.2,0,.07.03-.2.06-.4.1-.6.06-.33.13-.66.22-.99s.17-.63.28-.94c.05-.15.11-.3.16-.44-.17.43.09-.17.13-.25.45-.9.24-2.03-.67-2.57-.83-.49-2.11-.24-2.57.67-1.45,2.89-1.66,6.28-1.58,9.46.05,1.91.21,3.83.52,5.72.16,1,1.41,1.56,2.31,1.31,1.06-.29,1.47-1.3,1.31-2.31h0Z"/>
          <path class="cls-5" d="M150.43,217.62c-.02-.13-.04-.27-.06-.4-.05-.36.06.52,0-.02-.02-.19-.05-.39-.07-.58-.13-1.18-.22-2.37-.25-3.56-.04-1.45,0-2.89.16-4.33,0-.09.02-.17.03-.26-.02.18-.03.2,0,.07.03-.2.06-.4.1-.6.06-.33.13-.66.22-.99s.17-.63.28-.94c.05-.15.11-.3.16-.44-.17.43.09-.17.13-.25.45-.9.24-2.03-.67-2.57-.83-.49-2.11-.24-2.57.67-1.45,2.89-1.66,6.28-1.58,9.46.05,1.91.21,3.83.52,5.72.16,1,1.41,1.56,2.31,1.31,1.06-.29,1.47-1.3,1.31-2.31h0Z"/>
          <path class="cls-5" d="M161.32,205.26c-.02-.13-.04-.27-.06-.4-.05-.36.06.52,0-.02-.02-.19-.05-.39-.07-.58-.13-1.18-.22-2.37-.25-3.56-.04-1.45,0-2.89.16-4.33,0-.09.02-.17.03-.26-.02.18-.03.2,0,.07.03-.2.06-.4.1-.6.06-.33.13-.66.22-.99s.17-.63.28-.94c.05-.15.11-.3.16-.44-.17.43.09-.17.13-.25.45-.9.24-2.03-.67-2.57-.83-.49-2.11-.24-2.57.67-1.45,2.89-1.66,6.28-1.58,9.46.05,1.91.21,3.83.52,5.72.16,1,1.41,1.56,2.31,1.31,1.06-.29,1.47-1.3,1.31-2.31h0Z"/>
          <path class="cls-5" d="M171.39,193.81c-.02-.13-.04-.27-.06-.4-.05-.36.06.52,0-.02-.02-.19-.05-.39-.07-.58-.13-1.18-.22-2.37-.25-3.56-.04-1.45,0-2.89.16-4.33,0-.09.02-.17.03-.26-.02.18-.03.2,0,.07.03-.2.06-.4.1-.6.06-.33.13-.66.22-.99s.17-.63.28-.94c.05-.15.11-.3.16-.44-.17.43.09-.17.13-.25.45-.9.24-2.03-.67-2.57-.83-.49-2.11-.24-2.57.67-1.45,2.89-1.66,6.28-1.58,9.46.05,1.91.21,3.83.52,5.72.16,1,1.41,1.56,2.31,1.31,1.06-.29,1.47-1.3,1.31-2.31h0Z"/>
          <path class="cls-5" d="M182.13,182.95c-.02-.13-.04-.27-.06-.4-.05-.36.06.52,0-.02-.02-.19-.05-.39-.07-.58-.13-1.18-.22-2.37-.25-3.56-.04-1.45,0-2.89.16-4.33,0-.09.02-.17.03-.26-.02.18-.03.2,0,.07.03-.2.06-.4.1-.6.06-.33.13-.66.22-.99s.17-.63.28-.94c.05-.15.11-.3.16-.44-.17.43.09-.17.13-.25.45-.9.24-2.03-.67-2.57-.83-.49-2.11-.24-2.57.67-1.45,2.89-1.66,6.28-1.58,9.46.05,1.91.21,3.83.52,5.72.16,1,1.41,1.56,2.31,1.31,1.06-.29,1.47-1.3,1.31-2.31h0Z"/>
          <path class="cls-5" d="M265.47,114.31c1.14-3.57,2.5-7.09,3.92-10.56,2.78-6.78,5.99-13.48,10.13-19.53,1.37-2-1.88-3.87-3.24-1.89-4.27,6.24-7.51,13.15-10.39,20.13-1.47,3.57-2.87,7.19-4.04,10.86-.74,2.3,2.88,3.29,3.62,1h0Z"/>
          <path class="cls-5" d="M273.72,122.19c2.39-2.89,4.96-5.64,7.57-8.33,5.11-5.25,10.55-10.32,16.66-14.4,2-1.33.12-4.58-1.89-3.24-6.28,4.19-11.91,9.35-17.18,14.74-2.7,2.76-5.34,5.6-7.81,8.57-1.53,1.84,1.11,4.51,2.65,2.65h0Z"/>
          <path class="cls-5" d="M281.86,130.61c3.1-2.12,6.32-4.06,9.57-5.92,6.36-3.65,12.98-7,19.98-9.24,2.29-.73,1.31-4.35-1-3.62-7.19,2.3-14.03,5.72-20.58,9.45-3.35,1.91-6.68,3.91-9.87,6.09-1.98,1.35-.11,4.6,1.89,3.24h0Z"/>
        </g>
        <polygon class="cls-1" points="141.4 128.99 207.54 53.81 250.23 332.29 196.77 392.51 141.4 128.99"/>
        <g class="cls-3">
          <path class="cls-2" d="M306.79,268.6c-3.96-6.94-7.91-13.88-11.87-20.82-6.25-10.97-12.5-21.93-18.75-32.9-1.43-2.52-2.87-5.03-4.3-7.55-.8-1.4-2.96-.14-2.16,1.26,3.96,6.94,7.91,13.88,11.87,20.82,6.25,10.97,12.5,21.93,18.75,32.9,1.43,2.52,2.87,5.03,4.3,7.55.8,1.4,2.96.14,2.16-1.26h0Z"/>
        </g>
        <g class="cls-3">
          <path class="cls-2" d="M319.66,253.96c-2.8-5.25-5.6-10.5-8.41-15.74-4.47-8.37-8.94-16.74-13.41-25.11-1.03-1.93-2.06-3.86-3.09-5.78-.76-1.42-2.92-.16-2.16,1.26,2.8,5.25,5.6,10.5,8.41,15.74,4.47,8.37,8.94,16.74,13.41,25.11,1.03,1.93,2.06,3.86,3.09,5.78.76,1.42,2.92.16,2.16-1.26h0Z"/>
        </g>
        <g class="cls-3">
          <path class="cls-2" d="M85.31,193.1c11.14,5.62,22.28,11.25,33.41,16.87,1.56.79,3.11,1.57,4.67,2.36,1.43.72,2.7-1.43,1.26-2.16-11.14-5.62-22.28-11.25-33.41-16.87-1.56-.79-3.11-1.57-4.67-2.36-1.43-.72-2.7,1.43-1.26,2.16h0Z"/>
        </g>
        <g class="cls-3">
          <path class="cls-2" d="M73.53,206.96c6.38,2.27,12.76,4.54,19.14,6.81,10.22,3.63,20.43,7.27,30.65,10.9,2.34.83,4.68,1.66,7.02,2.5,1.52.54,2.17-1.87.66-2.41-6.38-2.27-12.76-4.54-19.14-6.81-10.22-3.63-20.43-7.27-30.65-10.9-2.34-.83-4.68-1.66-7.02-2.5-1.52-.54-2.17,1.87-.66,2.41h0Z"/>
        </g>
        <g class="cls-3">
          <path class="cls-2" d="M179.98,413.18c-1.68-7.65-3.36-15.29-5.04-22.94-2.68-12.19-5.36-24.39-8.03-36.58-.62-2.81-1.23-5.62-1.85-8.42-.34-1.57-2.76-.91-2.41.66,1.68,7.65,3.36,15.29,5.04,22.94,2.68,12.19,5.36,24.39,8.03,36.58.62,2.81,1.23,5.62,1.85,8.42.34,1.57,2.76.91,2.41-.66h0Z"/>
        </g>
        <g class="cls-3">
          <path class="cls-2" d="M165.06,424.77c-.86-6.13-1.72-12.26-2.58-18.39-1.37-9.79-2.75-19.57-4.12-29.36-.32-2.26-.64-4.53-.95-6.79-.22-1.59-2.63-.91-2.41.66.86,6.13,1.72,12.26,2.58,18.39,1.37,9.79,2.75,19.57,4.12,29.36.32,2.26.64,4.53.95,6.79.22,1.59,2.63.91,2.41-.66h0Z"/>
        </g>
        <g>
          <rect class="cls-2" x="303.63" y="100.73" width="55.2" height="88.02" rx="8.27" ry="8.27" transform="translate(264.14 -210.45) rotate(55.7)"/>
          <rect class="cls-10" x="304.16" y="138.76" width="10.98" height="41.41" transform="translate(-36.01 202.23) rotate(-34.3)"/>
          <rect class="cls-10" x="317.43" y="131.55" width="6.06" height="41.41" transform="translate(-30.07 207.07) rotate(-34.3)"/>
          <rect class="cls-10" x="299.93" y="144.66" width="2.14" height="41.41" transform="translate(-40.85 198.38) rotate(-34.3)"/>
          <rect class="cls-10" x="359.65" y="103.88" width="2.27" height="41.41" transform="translate(-7.46 224.98) rotate(-34.3)"/>
          <rect class="cls-10" x="325.73" y="126.51" width="4.23" height="41.41" transform="translate(-25.95 210.36) rotate(-34.3)"/>
          <rect class="cls-10" x="333.55" y="117.03" width="15.91" height="41.41" transform="translate(-18.23 216.41) rotate(-34.3)"/>
          <rect class="cls-10" x="350.91" y="109.26" width="4.47" height="41.41" transform="translate(-11.82 221.61) rotate(-34.3)"/>
          <rect class="cls-10" x="356.38" y="106.34" width="1.6" height="41.41" transform="translate(-9.48 223.38) rotate(-34.3)"/>
        </g>
      </g>
      <rect class="cls-7" x="155.53" y="142.14" width="131.63" height="131.63" rx="31.69" ry="31.69" transform="translate(-82.06 221.61) rotate(-45.79)"/>
      <g>
        <path class="cls-4" d="M209.82,232.39l14.68,13.97-9.13,9.6-42.61-40.54,14.3-15.04c10.21-10.74,19.85-11.8,28.9-3.19,4.28,4.07,6.28,8.9,5.99,14.5-.29,5.6-2.88,10.97-7.78,16.12l-4.35,4.58ZM189.25,212.83l13.28,12.64,3.59-3.77c4.86-5.11,5.06-9.8.58-14.06-4.38-4.16-9-3.69-13.86,1.42l-3.59,3.77Z"/>
        <path class="cls-4" d="M247.36,220.72l-7.61-7.24c2.4-.66,4.56-1.54,6.48-2.64,1.92-1.1,3.52-2.34,4.83-3.7,1.58-1.66,2.6-3.19,3.06-4.59s.22-2.54-.71-3.42c-.59-.57-1.3-.82-2.11-.76-.81.06-1.69.29-2.64.69-.95.4-1.93.89-2.94,1.48s-2.02,1.11-3.04,1.58c-1.61.78-3.11,1.37-4.51,1.79s-2.75.62-4.03.58-2.54-.32-3.76-.87c-1.22-.54-2.46-1.4-3.71-2.59-1.7-1.62-2.82-3.39-3.34-5.3-.52-1.91-.58-3.86-.19-5.84.4-1.98,1.17-3.95,2.32-5.89,1.15-1.94,2.55-3.78,4.19-5.5,1.28-1.35,2.69-2.62,4.21-3.8,1.53-1.19,3.13-2.27,4.81-3.24l7.25,6.9c-1.82.53-3.56,1.31-5.19,2.33-1.64,1.03-3.08,2.2-4.32,3.5-.58.62-1.08,1.25-1.49,1.89-.41.65-.71,1.28-.89,1.89-.19.62-.23,1.2-.13,1.75.1.55.36,1.02.78,1.42.55.53,1.2.8,1.94.82.74.02,1.52-.12,2.35-.42.83-.3,1.7-.7,2.6-1.18s1.79-.96,2.69-1.43c1.62-.83,3.17-1.51,4.65-2.03,1.48-.52,2.9-.81,4.29-.88,1.38-.06,2.72.16,4.02.65,1.3.5,2.59,1.36,3.88,2.59,1.8,1.71,2.97,3.57,3.5,5.57.53,2,.58,4.03.15,6.09-.43,2.06-1.27,4.11-2.51,6.15-1.25,2.04-2.73,3.98-4.47,5.8-3.19,3.35-6.65,5.96-10.39,7.83Z"/>
      </g>
    </g>
  </g>
</svg>