<?xml version="1.0" encoding="UTF-8"?>
<svg id="Layer_2" data-name="Layer 2" xmlns="http://www.w3.org/2000/svg" viewBox="0 0 584.41 131.02">
  <defs>
    <style>
      .cls-1 {
        fill: #74a535;
        opacity: .99;
      }
    </style>
  </defs>
  <g id="Layer_1-2" data-name="Layer 1">
    <g>
      <path class="cls-1" d="M69.24,84.01c-1.94.17-7.04-.66-10.69-2.03-2.43-.92-6.73-4.38-5.53-7.46.5-1.28.91-2.65,1.41-3.93,1.61-4.13,3.55-8.45,5.34-13.05,1.68-4.32,3.15-8.72,4.31-13.51-3.97.63-7.47,4.38-11.12,6.58-1.65,1.04-3.72,1.12-5.09,2.04-1.37.92-1.74,2.21-2.67,2.86-.97.68-2.42.71-5.34-.53-.21-.09-.32-.14-.53-.23-4.31-1.83-3.23-4.93-4.3-9.62-.38-1.28-1.07-2.25-1.3-3.41-.65-3.18-.81-7.66-.99-10.93-.92,2.43-1.96,4.87-3.2,7.6-.96,2.11-1.44,3.17-2.39,5.29-1.03,2.27-2.07,4.61-2.91,6.84-.98,2.61-1.15,6.24-2.34,8.88-1.13,2.51-1.94,1.73-4.92,2.69-3.02.97-5.63,3.14-9.26,1.44-4.55-2.14-9.1-7.13-7.31-10.79,1.14-2.33,3.85-5.31,5.72-9.16,1.43-2.93,2.87-3.27,4.47-5.47,2.42-3.33,4.92-8.41,7.43-12.86,1.19-2.12,2.98-3.59,4.3-6.35,1.23-2.57.93-4.75,2.57-8.14,1.06-2.2,4.15-4.56,6.67-7.19,1.31-1.35,1.88-3.23,2.38-3.49.43-.22,3.95.06,4.41.23.87.31,1.12,1.42,2.33,2.26,3.42,2.48,7.47,3.68,8.36,6.18.95,2.64.48,7.5.9,10.95.21,1.59.94,3.05,1.06,4.33.08.86-.35,1.86-.26,2.71.1.95,1.64,10.41,2.26,10.67,1.65.68,4.73-3.72,7.68-5.87,1.74-1.22,3.8-1.92,5.5-3.38,3.26-2.87,9.32-12.87,14.64-10.85,1.69.64,1.73,1.97,3.89,3.58,1.96,1.46,4.68,2.31,5.44,3.94.87,1.85-.01,5.05-.97,7.98-.7,2.12-1.71,4.15-2.34,5.92-1.04,2.92-.16,4.37-1.62,8.5-.7,1.97-1.71,4.15-2.41,6.11-1.74,4.89-.07,5.75.09,8.56.06,1.21-.46,4.51-.84,5.85-1.97,6.92-8.19,15.91-12.82,16.25Z"/>
      <path class="cls-1" d="M136.85,80.7c-.74,1.75-1.43,3.31-1.52,3.45-.57.64-1.91,1.03-2.81,2.01-.11.18-.23.42-.29.66-.05.2-.08.3-.13.49-.09.34-.27.63-.46.88-.32.41-1.02.52-1.33,1.02-3.57,5.01-7.68,13.61-10.49,16.54-1.09,1.08-3.44,1.38-4.62,2.75-.34.33-.67,1.33-1.27,1.92-.87.85-1.69.95-1.96,1.94-.11.39-.08.72-.19,1.11-.88,3.14-13.55,4.38-19.63,2.5-6.08-1.88-14.33-12.25-16.58-16.03-.12-.2.07-1.69-.57-2.94-.54-1.05-1.37-1.71-1.63-2.23-.38-1.26-.36-2.39-.05-3.3,1.54-4.42,11.88-12.42,17.98-10.42,1.76.57,3.14,1.77,3.93,3.67.2.71-.23,1.91.12,3.08.33,1.1,1.58,2.15,1.95,3.33.73,1.78.39,3.48.95,4.66.82,1.74,2.81,4.68,4.26,5.02,1.96.46,4.38-3.33,5.61-4.44.93-.84,4.36-3.08,4.82-4.7.51-1.76-4.8-3.84-7.3-6.13-7.76-6.86-6.82-11.85-8.59-19.55-.29-1.11-.91-2.12-1.19-3.44-.71-2.7-.6-4.27-1.27-7.55-.4-1.96-1.55-5.31-.86-7.33.71-2.07,2.87-2.47,4.69-1.86,4.89,1.63,4.66,6.36,6.78,12,1.03,2.62,3.32,3.92,5.53,6.03.45.62.65,1.58,1.17,2.11.63.63,1.81,1.18,2.14,1.65,2.35,3.89,4.11,13.69,7.34,14.14.66.09,4.2-8.98,4.82-11.24.39-1.42.32-5.78.63-6.43.06-.12.27-.56.46-1.25.29-1.03.56-2.43.77-3.17.83-2.99,5.17-2.01,8.5-2.65,1.25-.25,4.27-.61,5.48-.3,1.69.43,1.31,9.05.73,11.37-.56,2.22-3.13,6.04-3.9,7.94-.18.48-.88,2.05-2.01,4.69Z"/>
      <path class="cls-1" d="M211,119.16c-1.5,1.19-2.39,2.92-3.5,3.74-.09.19-3.86,1.78-3.68,1.8-.75.25-1.56.09-2.54-.06-1.86-.27-4.08-.91-6.23-1.24-2.15-.33-4.44.23-6.71-.14-1.92-.31-3.79-.53-5.71-.86-8.88-1.53-15.21-4.4-17.04-12.71-.43-1.7.51-4.21.54-6.18.04-2.65-.38-4.75-.05-6.4.73-3.59,5.65-5.02,11.15-3.98,2.95.56,3.6.68,6.72,3.87.55.77,1.79,1.61,2.12,2.08.8,1.38.6,3.61,1.77,4.85,1.25,1.32,3.74,1.6,3.34,4.06-.1.6-.29,1.09-.38,1.64-.35,2.16,2.27,3.72,4.39,4.05,2.69.42,6.38-.73,6.86-4.01.19-1.26-.43-3-.14-4.96.14-.96.42-2.05.55-2.9.69-4.68-13.68-7.25-19.56-11.41-1.06-.76-1.95-2.17-3.06-3.25-2.74-2.74-5.11-4.24-3.99-9.99,2.03-10.39,8.41-10.08,18.45-9.37,2.22.17,4.89.3,7.4.69,3.53.55,10.31,4.21,12.16,10.11.53,1.77,1.14,2.26.94,3.72-1.04,3.2-2.95,3.26-6.73,2.72-.42-.06-.62-.09-1.04-.15-.33-.05-.54-.13-.64-.2-2.94-.94-7.02-6.06-9.53-6.93-.98-.34-1.96-.63-2.77-.77-3.3-.55-5.66.48-5.97,2.23-.38,2.16,4.76,6.34,5.65,6.8.21.09.48.18.86.24.24.04.36.06.6.1.44.07.82.21,1.18.4.59.32.98.93,1.67,1.19,1.73.84,3.94,1.13,5.69,1.95,10.76,4.74,11.93,8.08,12.05,20.46,0,1.8.51,2.89.36,4.05-.07.56-.31,1.09-.68,1.71-.79,1.18-2.78,1.66-4.48,3.02Z"/>
      <path class="cls-1" d="M262.52,97.4c-.34,5.84,8.12,13.46,8.07,14.73-.04.92-.87,1.49-.96,3.42-.12,2.59,1.76,4.46,1.69,6.19-.08,1.83-1.73,1.59-4.23,2.46-2.35.81-6.83,2.35-10.67,2.1-6.7-.43-7.88-9.83-10.33-16.98-.66-1.79-1.43-5.43-1.89-7.41-.22-.68-.41-1.11-.57-1.22,0,.05-.17.04-.57.05-1.31.09-3.98.03-4.2.13-.22.11-.4.63-.45,1.19-.15,1.62.37,3.92.31,4.63-.12,4.44-.75,9.29,0,12.58.29,1.3,1.25,2.88,1.1,3.98-.4,2.89-6.42,4.11-9.05,3.84-9.56-.97-12.16-1.55-10.93-11.81.53-4.45,1.63-9.25,2.24-11.58.27-1.02.95-1.27,1.07-2.28.24-2.07-.05-4.41.18-6.38.33-2.78,3.06-3.64,3.56-7.99.13-1.11.19-1.67.32-2.78.48-4.25,2.35-9.11,2.72-12.5.14-1.21-.06-5.28.28-8.27.41-3.64,2.1-4.02,3.47-3.87.05,0,.26.08.47.1.42.04.82,0,1.17.02.69.02,4.66.68,5.32,1.61.37.6.37,6.69.25,7.44-.18,1.14-1.97,1.96-2.18,4.09-.15,1.57-.02,3.86-.11,5.67-.04.78-.48,1.59-.56,2.35-.12,1.22.52,1.99.41,3.16-.15,1.57-.47,2.56-.58,3.73-.17,1.77-.29,4.17.82,4.27,1.83.17,4.7-1.36,6.58-1.92,6.29-2.07,10.37-2.79,17.08-4.85,1.29-.48,2.65-1.16,3.19-1.2.72-.05,1.93.77,2.97.82,1.04.05,2.26-.25,3.08-.21,2.35.1,3.75,3.62,3.65,6.11-.05,1.17-.3,2.08-.77,2.77-2.37,3.73-11.86,2.33-11.94,3.8Z"/>
      <path class="cls-1" d="M286.84,130.38c-5.94-.38-8.19-4.35-8.24-9.58-.01-1.32.83-2.67.89-4.35.06-1.88-.34-3.88-.28-5.76.15-4.63,1.66-18.49,3.26-21.29,1.34-2.34,3.33-3.32,5.57-3.28,5.86.11,7.69,4.63,7.64,11.76-.01,1.58-.25,3.05-.26,4.48-.04,5.7,3.11,11.27,3.1,15.24,0,.61-.12,1.48-.12,2.09,0,2.49.8,3.97.8,5.25,0,.61-.18,1.17-.47,1.73-1.28,1.68-8.71,3.94-11.89,3.74ZM287.89,76.88c-3.94-.08-6-1.67-5.86-6.71.12-4.02,3.16-6.84,3.2-8.32,1.82-1.28,7.04-2.11,7.83-2.1,3.78.04,6.46,1.57,6.46,3.2,0,.81-.24,1.81-.22,2.44.07,1.76,1.01,4.28,1.01,6.16,0,4.99-8.64,5.4-12.42,5.32Z"/>
      <path class="cls-1" d="M335.14,119.64c.08,1.58-.72,2.68-1.37,3.89-.7,1.3-1.24,4.45-3.87,4.56-1.4.06-3.45-.06-5.03,0-1.87.07-4.66.46-7.52.53-.47.01-.7.02-1.17.03-2.98.07-6,.78-8.11.8-2.05.02-5.15-1.84-5.16-5.1-.01-2.8,6-2.44,5.97-5.34-.03-2.7-1.51-7.01-1.54-10.11-.03-2.49.07-5,.03-7.59-.16-11.37-2.01-22.75-2.17-34.09-.06-4.55,1.2-7.45,8.08-7.6,6.93-.14,9.34,2.38,9.55,8.23.09,2.64-.36,4.9-.26,7.75l.1,2.8c.12,3.36-.86,6.85-.72,10.87.18,5.5,1.05,11.22,1.25,17.28.2,5.95.08,9.07,1.63,9.01,1.15-.04,2.82-.76,4.16-.77,3.46-.05,5.99,1.66,6.16,4.86Z"/>
      <path class="cls-1" d="M367.55,117.21c.16,1.57-.59,2.72-1.18,3.95-.64,1.33-1.03,4.5-3.65,4.74-1.4.13-3.45.1-5.02.23-1.86.16-4.63.68-7.49.89-.47.03-.7.05-1.17.08-2.97.21-5.96,1.06-8.06,1.19-2.04.12-5.24-1.6-5.4-4.85-.14-2.8,5.88-2.73,5.71-5.62-.16-2.69-1.85-6.93-2.03-10.03-.15-2.49-.17-5-.33-7.58-.7-11.35-3.1-22.63-3.79-33.94-.28-4.55.85-7.5,7.72-7.98,6.92-.48,9.45,1.94,9.94,7.77.22,2.64-.13,4.91.11,7.75.09,1.12.14,1.67.23,2.79.28,3.35-.53,6.89-.2,10.89.45,5.48,1.58,11.16,2.08,17.2.49,5.94.51,9.05,2.06,8.92,1.14-.1,2.78-.89,4.12-.97,3.45-.21,6.07,1.37,6.39,4.56Z"/>
      <path class="cls-1" d="M415.8,115.21c-1.08,1.58-1.42,3.49-2.24,4.61-.03.21-3.16,2.84-2.99,2.81-.64.46-1.46.54-2.45.7-1.86.29-4.17.34-6.32.66-2.15.32-4.17,1.54-6.45,1.85-1.92.27-3.77.62-5.7.87-8.92,1.16-15.8.29-19.99-7.11-.91-1.49-.76-4.18-1.31-6.06-.75-2.54-1.77-4.43-1.93-6.1-.36-3.65,3.89-6.46,9.45-7.1,2.97-.34,3.63-.42,7.55,1.71.76.57,2.19,1.01,2.63,1.36,1.17,1.08,1.64,3.27,3.13,4.11,1.58.89,4.05.43,4.39,2.9.08.61.04,1.13.12,1.68.3,2.17,3.27,2.89,5.39,2.57,2.7-.39,5.87-2.59,5.36-5.86-.2-1.26-1.3-2.74-1.6-4.7-.15-.96-.21-2.08-.34-2.94-.72-4.68-15.21-2.88-22.04-5.12-1.24-.41-2.5-1.49-3.87-2.2-3.42-1.81-6.12-2.54-6.75-8.36-1.13-10.53,5.03-12.11,14.82-14.4,2.17-.5,4.75-1.16,7.27-1.53,3.53-.51,11.09.97,14.61,6.06,1.03,1.53,1.75,1.82,2,3.28-.05,3.36-1.85,3.99-5.63,4.59-.42.07-.62.1-1.04.17-.33.05-.55.04-.67,0-3.09-.03-8.49-3.71-11.16-3.8-1.04-.03-2.05-.02-2.87.09-3.32.45-5.26,2.13-5.03,3.9.28,2.17,6.42,4.65,7.4,4.82.23.02.51.03.9-.02.24-.03.36-.05.61-.08.44-.06.85-.05,1.24.03.66.13,1.21.6,1.95.65,1.9.29,4.1-.09,6.01.18,11.68,1.34,13.8,4.19,17.57,15.98.54,1.72,1.34,2.61,1.54,3.76.1.55.02,1.13-.14,1.83-.41,1.37-2.17,2.41-3.4,4.21Z"/>
      <path class="cls-1" d="M495.72,96.55c-.89,1.7-1,3.64-1.69,4.85,0,.21-2.82,3.2-2.65,3.15-.58.54-1.39.72-2.36.99-1.82.52-4.13.84-6.24,1.42-2.11.58-3.99,2.03-6.22,2.62-1.89.5-3.69,1.07-5.59,1.55-8.77,2.23-15.73,2.19-20.79-4.65-1.08-1.37-1.25-4.05-2.03-5.86-1.05-2.43-2.29-4.18-2.65-5.82-.79-3.58,3.12-6.89,8.58-8.19,2.92-.7,3.57-.85,7.74.79.82.48,2.3.73,2.79,1.03,1.3.93,2.03,3.05,3.61,3.7,1.68.7,4.09-.07,4.72,2.35.16.59.17,1.11.32,1.65.56,2.12,3.6,2.47,5.69,1.9,2.64-.72,5.56-3.28,4.66-6.47-.34-1.23-1.62-2.56-2.15-4.47-.26-.93-.45-2.04-.69-2.87-1.28-4.56-15.52-1.02-22.61-2.42-1.28-.26-2.67-1.18-4.13-1.72-3.63-1.38-6.41-1.79-7.72-7.49-2.38-10.32,3.57-12.63,13.07-16.08,2.11-.75,4.61-1.73,7.07-2.4,3.47-.94,11.19-.38,15.31,4.25,1.21,1.39,1.97,1.6,2.39,3.01.35,3.35-1.38,4.18-5.08,5.24-.41.12-.61.17-1.02.29-.32.09-.55.1-.67.08-3.09.34-8.92-2.66-11.59-2.42-1.04.09-2.05.23-2.85.43-3.26.85-5,2.75-4.56,4.48.53,2.12,6.96,3.84,7.96,3.9.23,0,.51-.03.89-.13.24-.06.36-.09.59-.16.43-.11.84-.15,1.24-.12.67.05,1.28.45,2.02.41,1.93.06,4.08-.58,6.02-.54,11.82-.08,14.28,2.48,19.45,13.73.74,1.64,1.65,2.43,1.99,3.55.16.54.16,1.12.07,1.84-.24,1.41-1.88,2.66-2.9,4.59Z"/>
      <path class="cls-1" d="M552.71,72.97c.81,2.03-.05,1.96-.78,4.26-.92,2.89-1.01,6.86-5.34,8.52-2.67,1.02-6.52,1.59-8.92,2.47-5.13,1.88-10.66,3.91-15.6,4.43-3.27.34-7.61,1.31-10.42.46-9.09-3.95-12.74-14.74-15.74-23.1-.75-2.1-2-4.18-2.35-5.29-.17-.53.17-2.05.1-3.07-.05-.67-.14-1.4-.34-2.03-.05-.15-.16-.32-.22-.52-.15-.49-.19-.79-.18-.96.15-1.01,1.97-3.88,2.75-5.24,3.89-6.8,15.49-12.95,23.79-16.29,2.51-1.01,7.45-.55,10.31.58.77.31,1.73,1.57,2.64,2.09,3.23,1.75,3.41,2.17,3.78,3.12.1.27.16.4.26.66.17.43.42.93.72,1.52.84,1.69,1.55,3.33,2.23,5.08,1.43,3.65-2.76,5.97-7.84,10.79-2.1,2.03-5.02,3.53-7.44,4.4l-.43.15c-.11.04-.29.05-.46.06-.06.02-.1.03-.16.06-.86.31-4.4,3.34-7.91,4.54-2.33.79-3.88,2.81-3.64,3.54.84,2.51,3.37,3.79,6.09,3.64,1.83-.1,3.74-.32,5.44-.91,2.79-.98,5.42-2.56,9.28-3.98,1.8-.66,3.09-.49,4.56-1.04,3.1-1.16,5.55-3.52,7.71-4.37,2.81-1.1,4.49.15,6.46,3.36.67,1.21,1.3,2.17,1.66,3.06ZM521.79,54.71c-1.38-3.83-3.87-5.48-4.86-5.12-2.72.97-11.04,6.23-11.58,7.97-.19.65.04,1.7.47,3.01.9,2.71,1.73,4.15,2.75,3.81,1.29-.43,3.03-1.99,3.63-2.3,3.03-1.62,9.71-3.72,9.78-6.18.04-.39-.05-.79-.18-1.18Z"/>
      <path class="cls-1" d="M583.91,19.23c1.05,2.15.55,6.14-2.36,7.53-.66.32-1.42.57-2.03.86-2.04.97-3.8,2.8-4.78,3.26-1.02.48-2.38.77-3.57,1.31-3.85,1.76-2.95,3.07-1.36,6.6,2.59,5.75,4.6,13.89,6.95,19.14.73,1.63,1.57,2.92,2.17,4.27.17.37.29.93.45,1.3.13,1,.11,8.14-.75,9.47-.46.59-1.26,1-2.31,1.45-5,2.17-7.76,1.78-8.95-1.04-.49-1.17-.82-2.62-1.29-3.66-4.14-9.15-9.7-18.11-14.2-27.38-.91.6-1.81,1.08-2.64,1.43-3.96,1.63-7.98.99-9.34-2.42-1.73-4.35,2.68-6.17,6.93-9.09-.29-.69-.43-1.04-.72-1.74-2.35-5.64-5.99-8.87-7.64-12.87-1.61-3.91-1.01-5.41,2.15-8.23,1.32-1.28,4.58-3.55,7.66-4.91,3.67-1.61,7.62-2.74,10.86,4.4.86,1.9,1.79,4.13,2.03,5.51.32,1.82-.63,3.8-.12,4.92.03.06.04.08.06.14.31.7,1.14,1.72,1.45,2.42.44.97.15,1.94.46,2.64.4.88,1.51.5,3.48-.4,5.52-2.52,7.54-4.78,11.15-6.51.8-.39,1.68-.75,2.43-.72,1.83.07,3.07.82,3.81,2.33Z"/>
    </g>
  </g>
</svg>