<?xml version="1.0" encoding="UTF-8"?>
<svg id="Layer_2" data-name="Layer 2" xmlns="http://www.w3.org/2000/svg" viewBox="0 0 1056.88 1017.99">
  <defs>
    <style>
      .cls-1 {
        fill: #f36c32;
        opacity: .99;
      }
    </style>
  </defs>
  <g id="Layer_1-2" data-name="Layer 1">
    <g>
      <path class="cls-1" d="M72.03,867.85c2.76,1.02,5.59,1.38,8.05,2.29,5.52,2.04,9.53,6.55,14.76,8.47,1.79.66,3.84.83,5.56,1.47,3.51,1.29,5.42,3.92,9.6,5.45,3.81,1.4,7.38,2.52,11.33,3.97,1.72.63,3.45,1.45,5.46,2.19,1.87.68,3.83,3.19,6.44,4.15,3.44,1.26,11.18,4.37,12.13,6.66.72,1.74-.15,5.32-1.35,8.68-1.08,3.04-2.29,6.03-2.98,8.01-.54,1.56-.21,3.68-.55,4.51-.75,1.84-7.39,7.92-9.23,8.41-3.16,1.44-7.52-.85-12.88,2.23-.72.41-.98,1.73-1.62,1.89-1.02.32-2.25-.12-3.31.14-.87.21-7.31,2.98-7.47,3.49-.65,2.8,8.29,9.08,10.22,11.45.65.85,1.01,2.91,1.46,3.33,2.93,3.41,6.8,5.76,9.73,9.45,4.16,5.22,3.04,5.23,1.45,12.58-.51,2.35-.51,5.4-1.02,7.16-.58,2.01-2.23,3.45-3.11,5.38-3.63,7.25-4.56,12.55-13.31,10.17-1.2-.33-1.8-.49-2.99-.81-4.99-1.36-12.49.21-14.87-.43-1.07-.29-3.32-2.66-5.23-3.18-3.15-.85-7.56.86-11.86-.29-1.15-.31-2.35-1.24-3.47-1.5-3.44-.79-8.17.37-12.62-.82-1.54-.41-3.18-1.04-4.64-1.43-4.22-1.13-11.66.55-17.74-1.05-3.38-.89-8.68-3.67-9.18-4.77-.44-.95.9-7.67.91-10.99.02-4.58-.22-8.61.75-12.43.45-1.78,1.27-3.86,1.79-5.67,1.02-3.53.58-7.11,1.36-9.73,1.32-4.43,7.1-3.48,12.96-1.71,4.34,1.31,8.87,3.07,12.15,4.05,2.36.71,5.19.41,7.55,1.12,2.36.71,5.02,2.39,7.14,3.31,3,1.3,6.63,2.37,8.44,3.68,1.24.9,2.19,3.08,3.64,3.65,1.09.42,3.21.11,5.11.4,1.82.27,3.71.64,5.54,1.19,2.13.64,4.04,1.21,6.27,1.51-4.73-5.24-12.3-9.69-18.61-15.07-5.61-4.79-12.06-12.6-17.05-16.35-4.14-3.11-8.81-3.09-6.21-11.12,3.83-11.83,7.96-7.44,15.16-7.93,4.16-.16,9.02-2.34,13.77-3.26,4.88-.94,9.79-1.34,14.36-1.66-1.34-.75-2.41-1.31-3.83-1.81-6.01-2.08-12.61-1.96-17.95-3.8-1.43-.49-2.87-1.18-4.3-1.68-6.24-2.15-11.66,2.15-16.48.51-2.03-.69-5.33-2.6-9.02-3.86-4.29-1.46-8.49-1.2-11.13-2.09-.27-.09-.41-.14-.68-.23-.15-.05-.35-.22-.54-.38-5.13-2.94-4.62-5.68-3.54-8.82.53-1.53.88-2.95,1.22-4.5.58-2.61,1.33-8.59,3.07-13.41,3.6-10,12.4-8.45,22.54-4.69,1.13.42,1.7.63,2.83,1.05,2.16.8,3.98,2.76,5.99,3.51Z"/>
      <path class="cls-1" d="M171.46,830.16c-3.15,7.24-8.99,5.41-17.77,1.66-4.68-2-9.44-4.42-13.31-6.07-2.71-1.16-7.9-1.53-9.95-2.4-1.39-.59-3.08-1.9-4.76-2.62-2.41-1.03-4.38-.49-5.75,2.75-.81,1.91-1.1,4.05-1.27,6.13-.01,1.07-.02,2.73,0,4.98-.16,5.4.16,10.57,3.4,11.88,1.99.8,5.36,1.12,8.28,1.99,1.19.36,2.42.79,3.53,1.24.77.31,1.15.47,1.92.78,1.25.51,2.39.87,3.52,1.04,4.71.86,6.66.51,10.56,2.1,3.46,1.41,6.98.58,11.24,2.32,8.24,3.37,4.31,13.41.27,23.81-1.97,5.08-3.67,4.43-9.83,2.07-4.6-1.76-9.77-4.67-11.65-5.59-4.01-1.97-12.75-6.04-16.46-7.47-2.6-1-5.39,5.88-10.75,3.85-7.29-2.76-.62-9.29-6.55-11.58-3.34-1.29-7.97-1.22-12.94-3.13-4.75-1.83-9.53-4.45-14.28-6.28-3.49-1.34-7.81-1.61-10.86-2.78-2.89-1.11-7.08-6.44-4.81-12.21,3.26-8.31,15.94-2.59,22.5-1.1,6.54,1.48,19.29,6.15,20.27,3.71.24-.59.28-1.47.18-2.58-.1-1.07-.38-3.49-.9-7.26-.17-1.25-.26-2.28-.2-3.05.11-4.2,1.01-9.68,4.18-17.07,5.55-12.92,10.81-10.53,18.97-16.08,1.94-1.41,3.49-3.67,5.88-2.59,1.16.53,2.46,1.51,3.83,2.14,4.05,1.84,11,.6,16.64,3.18,1.95.89,4.97,4.61,5.19,4.71,1.45.66,3.34-.41,5,.35.94.43,1.66.95,2.46,1.32,1.66.76,3.37.1,5.17.93.26.12.39.18.65.3.22.1.4.28.58.46,4.62,3.66,1.95,16.62-2.2,26.16Z"/>
      <path class="cls-1" d="M192.09,711.67c6.62,3.63,12.99,8.23,18.83,12.62,1.86,1.41,3.76,3.24,5.36,4.11,3.42,1.87,7.28,2.6,10,4.09,1.19.65,7.16,7.89,3,15.68-2.4,4.5-5.77,4.26-9.5,2.3-2.6-1.37-5.45-3.65-8.29-5.93-.76,2.62-.41,5.73-.35,8.37.65,13.62,1.02,26.32-4.95,38.93-.11.23-.6,1.42-.86,1.96-.63,1.31-2.39,4.81-4.82,6.6-6.29,2.51-17.82,2.12-18.7,1.89-.2-.05-.79-.18-1.44-.48-3.97-1.84-8.57-5.9-9.43-6.3-2.38-1.11-4.84-1.48-7.51-2.71-1.23-.57-2.63-1.32-3.88-2.58-.14-.07-4.24-5.01-4.37-5.86-.44-2.07,1.24-6.14,1.41-9.86.14-2.98-.86-5.99-.76-7.78.07-1.22.84-3.55,1.14-5.8.43-3.12,1.3-9.83,3.08-14.24.48-.96,1.63-2.18,2.65-4.18.77-1.51.98-4.02,2.49-6.96s3.65-5.66,4.44-7.16c.62-1.19-.04-1.64-.88-2.08-2.82-1.48-9.75-1.25-10.68-1.02-2.6.68-4.71,2.34-5.54,3.95-.87,1.69-1.13,3.59-2.15,5.6-.78,1.53-1.96,2.97-2.61,4.46-3.88,8.87-2.51,19.84-3.74,29.82-.37,1.52-.86,3.28-1.51,4.66-.81,1.71-6.82,5.36-9.92,3.92-4.69-2.18-2.41-8.93-2.65-13.98-.15-3.2-.22-8-.72-11.17-.54-3.4-1.84-4.76-1.86-6.71-.02-1.95,1.35-6.06,1.92-9.27.37-2.04,1.07-7.99,1.99-9.79.07-.13.1-.2.17-.33,3.36-3.45,6.82-10.33,10.63-14.85.68-.78,1.79-1.02,2.55-1.76,6.27-6.93,8.37-8.44,25.29-4.77,1.89.52,4.03-.26,5.73-.05,4.54.64,12.28,4.39,16.46,6.69ZM189.93,734.14c-4.85-2.56-6.11-2.73-6.98-1.09-.33.63-.47,1.19-.57,1.6-.06.25-.06.47-.12.74-.52.82-1.37,2.28-2.47,4.39-3.01,5.81-3.7,10.42-5.25,16.07-2.24,8.18-6.21,13.09,1.65,16.92,4,1.95,6.22.11,8.39-4.27,1.32-2.66,1.77-8.2,3.02-12.95.32-1.13.49-1.7.81-2.83.93-2.87,1.96-6.08,2.56-7.93.13-.42.64-1.9,1.68-4.26.69-1.57,1.35-3.25,1.29-3.48-.21-.8-1.99-1.84-4.03-2.92Z"/>
      <path class="cls-1" d="M208.36,627.97c3.16,2,5.72,7.75,3.03,12.07-.62.99-1.41,1.97-1.98,2.88-1.89,3.04-2.63,6.99-3.51,8.44-.93,1.53-2.45,3.11-3.52,4.87-3.47,5.74-.99,6.6,4.08,9.73,8.91,5.5,17.19,12.72,26.08,18.21,2.33,1.44,4.62,2.35,6.6,3.53.55.33,1.21.92,1.76,1.25,1.08,1.14,7.69,9.94,7.91,12.24,0,1.09-.57,2.23-1.39,3.63-3.91,6.69-7.51,8.55-11.66,6.19-1.73-.99-3.49-2.41-5.07-3.3-13.9-7.81-29.47-12.79-43.59-20.51-.56,1.63-1.22,3.11-1.92,4.36-3.34,5.92-8.86,9.21-13.88,6.45-6.41-3.53-2.72-10.39-.11-18.38-1.02-.58-1.54-.87-2.56-1.45-8.3-4.71-16.01-4.95-21.9-8.27-5.75-3.24-6.4-5.84-4.8-12.97.58-3.1,2.89-9.64,5.86-14.7,3.54-6.03,8.01-11.6,18.5-5.29,2.79,1.68,5.95,3.75,7.46,5.34,1.99,2.1,2.46,5.63,4.1,6.61.08.05.12.07.2.12,1.02.61,3.01,1.16,4.03,1.77,1.43.86,1.9,2.4,2.92,3.01,1.3.77,2.41-.78,4.23-3.8,5.09-8.44,5.92-13.24,9.37-18.77.77-1.23,1.65-2.49,2.7-3.11,2.54-1.5,4.83-1.55,7.05-.14Z"/>
      <path class="cls-1" d="M208.37,584.74c3.47,3.82,4.78,4.31,7.61,8.5,3.22,4.76,9.58,12.99,6.03,18.39-2.61,3.98-6.68,5.3-7.55,4.74-1.67-1.08-2.3-3.32-4.1-4.49-1.27-.82-2.5-1.41-3.77-2.23-1-.65-2.12-1.27-2.84-2.49-.77,1.78-1.66,3.15-2.5,4.45-5.71,8.87-11.18,7.04-15.22,4.5-4.57-2.88-8.49-7.86-8.05-11.65.36-2.19,2.88-5.09,3.7-7.53,1.49-4.66-.45-6.92,1.9-10.5,4.23-6.45,19.19-7.89,22.02-6.54.72.49,1.08,2.99,2.77,4.85Z"/>
      <path class="cls-1" d="M323.57,571.91c.52,2.85,2.23,5.34,2.56,7.4.2.26-.26,6.28-.11,6.08-.17,1.15-.94,2.05-1.8,3.2-1.62,2.17-3.97,4.54-5.83,7.06s-2.55,5.9-4.48,8.57c-1.64,2.26-3.18,4.57-4.71,6.83-6.23,9.18-15.86,17.26-27.88,14.43-2.67-.46-5.73-3.31-8.54-4.55-3.78-1.68-7.04-2.36-9.22-3.83-4.74-3.21-3.91-11.12,1.04-18.25,2.65-3.82,3.26-4.7,9.81-6.92,1.45-.26,3.44-1.41,4.31-1.54,2.46-.17,5.47,1.62,7.97.89,2.68-.79,4.72-3.97,7.88-1.68.77.56,1.32,1.16,2.02,1.68,2.77,2,6.65-.37,8.53-2.93,2.38-3.25,3.35-8.94-.8-12.03-1.6-1.19-4.41-1.66-6.9-3.51-1.21-.9-2.63-2.45-3.6-2.89-7.59-3.46-21.52,13.84-29.44,19.13-1.78,1.01-4.35,1.36-6.63,2.25-5.69,2.18-9.4,4.51-16.9-.45-13.26-8.79-7.37-22.35-.44-33.41,1.91-3.2,4.13-7.08,6.64-10.52,3.53-4.83,14.12-12.09,23.69-10.24,2.85.58,4,.12,5.84,1.51,3.52,3.91,2.06,6.6-1.62,11.51-.41.54-.61.81-1.01,1.35-.32.43-.6.67-.77.76-3.56,3.45-13.75,5.62-16.84,8.67-1.21,1.19-2.33,2.41-3.12,3.5-3.2,4.44-3.4,8.58-1.13,10.19,2.79,1.98,12.31-2.58,13.58-3.52.27-.24.6-.55.96-1.06.23-.32.34-.47.57-.79.42-.57.88-1.02,1.4-1.39.87-.61,2.01-.73,2.88-1.52,2.43-1.84,4.47-4.74,6.91-6.56,12.1-11.04,23.87-8.77,36.91-.57,2.42,1.42,4.25,1.65,5.7,2.76.69.53,1.23,1.27,1.78,2.24,1,1.96.17,4.89.77,8.14Z"/>
      <path class="cls-1" d="M371.11,526.61c-5.87,6.26-12.7,5.08-19.2.09-1.63-1.25-2.52-3.56-4.54-5.24-2.26-1.88-5.12-3.34-7.34-5.22-8.25-7.02-18.5-15.53-22.97-24.59-1.72-3.49-.69-7.46,1.69-10.25,6.2-7.28,13.56-4.92,21.97,2.37,1.86,1.62,3.37,3.39,5.06,4.85,6.73,5.83,16.45,7.86,21.12,11.94.72.63,1.62,1.65,2.34,2.27,2.93,2.56,5.46,3.18,6.95,4.49.72.63,1.21,1.4,1.59,2.29.74,3.13-3.53,13.64-6.67,16.99ZM307.44,472.49c-4.27,5.03-8.36,6.21-14.39,1.15-4.82-4.03-4.98-10.88-6.75-12.36.44-3.72,5.28-11.59,6.18-12.64,4.33-5.03,9.23-6.99,11.14-5.31.96.84,1.86,2.18,2.63,2.79,2.14,1.7,6.17,3.1,8.38,5.04,5.86,5.14-3.09,16.52-7.19,21.33Z"/>
      <path class="cls-1" d="M423.86,433.87c1.51,1.52,3.34,2.62,4.74,4.03.5.51,3.19,5.86,1.39,9.85-1.15,2.55-5,5.39-7.28,8.73-1.58,2.32-2.3,4.29-3.9,5.95-5.62,5.81-12.21-1.02-16.41-4.38-2.78-2.23-5.33-3.46-7.11-4.99-1.09-.93-1.78-2.05-2.64-2.88-4.03-3.84-7.53-6.08-13.05-.21-3.84,4.09-7.5,12.15-3.05,16.24.88.81,2.4,1.15,3.63,2.28,2.16,1.99,3.8,5.03,5.91,6.96,3.28,3.01,6.9,4.83,8.95,6.72,5.38,4.95,7.26,8.41,2.82,13.29-3.47,3.82-7.16,4.49-10.77,1.25-1.36-1.22-2.67-2.62-4.27-4.06-4.26-3.82-7.15-2.27-12.99-5.27-.18-.04-.53-.24-1.07-.72-.89-.79-1.97-2.03-3.15-3.04-7.23-6.16-16.26-10.84-23.5-17-5.93-5.04-1.67-12.84,2.84-17.81,4.33-4.77,9.7-5.53,12.97-2.51,1.11,1.02,2.1,2.42,3.32,3.55.88.81,2.46,1.91,3.36.93,1.68-1.82,6.92-13.08,7.87-14.57,1.03-1.62,2.22-3.03,3.26-4.12.32-.33.48-.5.8-.83,1.04-1.09,1.85-2.16,2.42-3.33,2.84-4.78,2.31-6.29,5.79-9.84,5.6-5.71,6.94-2.07,10.88-2.09,5.12-.03,8.61-2.88,11.41-.06,1.07,1.07,1.58,2.58,3.15,4.16,1.96,1.97,4.89,3.43,7.08,5.63,2.52,2.54,4.31,5.81,6.61,8.12Z"/>
      <path class="cls-1" d="M481.47,318.45c2.38,2.88,3.04,9.13-.85,12.38-.89.74-1.94,1.42-2.76,2.1-2.72,2.29-4.64,5.79-5.92,6.88-1.35,1.15-3.28,2.17-4.83,3.5-5.05,4.34-2.97,5.93.87,10.49,6.75,8.01,12.37,17.44,19.11,25.43,1.77,2.09,3.65,3.67,5.17,5.41.42.48.86,1.25,1.28,1.73.67,1.42,4.23,11.82,3.73,14.06-.33,1.03-1.23,1.93-2.43,2.99-5.75,5.09-9.74,5.71-12.93,2.17-1.33-1.48-2.57-3.38-3.79-4.72-10.76-11.76-23.97-21.37-34.97-33.12-1.03,1.37-2.1,2.56-3.15,3.51-4.97,4.54-11.2,5.89-15.1,1.7-4.98-5.35.6-10.66,5.52-17.39-.79-.87-1.19-1.31-1.98-2.18-6.41-7.06-13.64-9.73-18.19-14.72-4.45-4.87-4.27-7.53-.57-13.76,1.5-2.74,5.68-8.19,10.05-12.04,5.2-4.58,11.15-8.45,19.14.82,2.13,2.47,4.48,5.42,5.42,7.4,1.24,2.61.6,6.1,1.85,7.54.06.07.09.11.16.18.78.9,2.49,2.05,3.28,2.95,1.09,1.26,1.06,2.87,1.84,3.77.99,1.14,2.52.02,5.17-2.26,7.41-6.39,9.67-10.67,14.64-14.81,1.1-.92,2.33-1.84,3.52-2.1,2.87-.62,5.05.05,6.72,2.08Z"/>
      <path class="cls-1" d="M566.9,330.48c-6.21,4.65-10.37.15-16.14-7.45-3.08-4.05-6.02-8.51-8.56-11.87-1.78-2.34-6.09-5.26-7.43-7.03-.91-1.2-1.74-3.17-2.85-4.63-1.59-2.09-3.54-2.61-6.29-.5-1.62,1.24-2.9,2.93-4.05,4.62-.53.91-1.33,2.34-2.4,4.27-2.74,4.55-4.95,9.14-2.78,11.88,1.33,1.68,4.09,3.64,6.19,5.85.86.91,1.71,1.89,2.45,2.83.51.65.77.97,1.28,1.62.84,1.06,1.64,1.94,2.54,2.66,3.65,3.09,5.5,3.77,8.1,7.08,2.31,2.94,5.74,3.98,8.58,7.61,5.49,7.01-2.74,13.65-11.21,20.53-4.14,3.36-5.29,1.95-9.47-3.16-3.12-3.81-6.18-8.89-7.36-10.62-2.52-3.7-8.1-11.56-10.61-14.64-1.76-2.16-7.47,2.33-11.11-2.09-4.96-6.01,3.92-8.26-.09-13.19-2.26-2.77-6.28-5.03-9.65-9.16-3.22-3.94-6.08-8.58-9.3-12.53-2.36-2.9-5.96-5.29-8.03-7.82-1.96-2.4-3.01-9.05,1.71-12.86,6.8-5.48,14.99,5.76,19.94,10.32,4.93,4.55,13.68,14.92,15.71,13.32.49-.39.95-1.12,1.4-2.11.43-.96,1.35-3.19,2.72-6.67.46-1.16.87-2.09,1.29-2.71,2.12-3.55,5.53-7.8,11.83-12.56,11.03-8.33,14.41-3.65,24.15-4.35,2.36-.24,4.8-1.42,6.33.71.75,1.03,1.39,2.53,2.28,3.75,2.61,3.61,9.21,6,12.83,11.03,1.25,1.74,2.07,6.45,2.21,6.64.93,1.29,3.08,1.31,4.15,2.79.6.84.97,1.65,1.49,2.36,1.07,1.48,2.86,1.76,4.02,3.38.17.23.25.35.42.58.14.19.21.44.28.68,2.22,5.45-6.36,15.28-14.55,21.42Z"/>
      <path class="cls-1" d="M653.7,264.89c1.8,2.91.51,3,.19,6.63-.41,4.61.79,10.56-4.79,14.12-3.43,2.19-8.69,4.06-11.74,6.06-6.54,4.27-13.48,9.05-20.17,11.52-4.43,1.64-10.07,4.68-14.44,4.53-15.13-1.6-25.26-16.68-33.91-27.28-2.25-2.76-5.01-5.22-6.07-6.71-.51-.71-.73-3.13-1.32-4.62-.39-.97-.88-2.01-1.48-2.85-.14-.19-.39-.4-.58-.66-.46-.65-.66-1.09-.73-1.33-.25-1.58,1.21-6.85,1.8-9.25,3.05-12.24,19-27.28,31.12-35.53,3.75-2.55,11.75-3.7,16.63-2.94,1.31.21,3.19,1.84,4.79,2.33,5.61,1.63,5.98,2.25,6.83,3.6.24.38.35.57.59.94.38.61.92,1.3,1.55,2.13,1.78,2.35,3.34,4.66,4.9,7.15,3.25,5.19-2.56,9.94-8.58,18.93-2.48,3.78-6.31,7.04-9.61,9.22-.23.15-.35.23-.59.39-.15.1-.41.18-.67.25-.09.06-.13.09-.22.15-1.17.77-5.26,6.64-9.97,9.84-3.11,2.11-4.52,5.78-3.85,6.76,2.34,3.41,6.62,4.29,10.49,3.04,2.63-.84,5.32-1.87,7.56-3.36,3.67-2.45,6.9-5.74,12.06-9.1,2.4-1.56,4.37-1.7,6.34-2.97,4.15-2.67,7-6.93,9.94-8.78,3.82-2.4,6.7-.91,10.57,3.52,1.35,1.69,2.57,2.99,3.36,4.28ZM601.4,246.32c-3.49-5.31-7.94-6.86-9.36-5.92-3.88,2.57-14.6,14.16-14.69,17.02-.02,1.07.78,2.55,2,4.32,2.52,3.67,4.4,5.46,5.78,4.51,1.75-1.2,3.71-4.27,4.5-5,3.9-3.7,13.25-9.44,12.47-13.21-.08-.61-.36-1.19-.71-1.72Z"/>
      <path class="cls-1" d="M762.41,161.49c3.26,6.9,7.88,17.55,6.64,24.13-.72,4.39-7.34,9.53-8.74,13.58-.27,1.02-.58,4.71-.92,5.59-1.79,2.83-10.03,10.24-14.71,12.63-4.06,2.08-6.33,2.34-14.04,3.07-1.9.28-12.28,2.12-13.73,2.9-.91.49-.31,2.34.33,3.52,1.4,2.59,4.31,5.44,5.37,7.4,1.09,2.03.7,7.57-3.41,9.82-3.96,2.17-9.55,2.4-11.67.92-2.44-1.71-5.34-7.81-8.49-11.83-2.1-2.67-5.19-4.88-6.21-6.45-1.1-1.68-1.08-4.05-2.28-6.2-2.49-4.44-5.82-9.52-9.53-13.7-2.17-2.44-5.76-4.6-7.52-7.71-.47-.83-.47-1.93-.9-2.69-1.25-2.21-4.11-4.34-6.5-6.55-1.14-1.27-1.93-3.23-4.17-5.13-2.57-2.18-7.69-3.02-9.83-6.74-.51-.9-.83-1.81-1.31-2.64-2.14-3.72-6.55-5.31-8.66-8.96-7.36-12.76,2.3-21.76,12.87-27.46,5.21-2.81,12.12-1.02,13.98,2.4.74,1.37,1.11,2.05,1.86,3.42,6.19,9.43,14.65,28.67,19.39,29.1,1.73.16,1.63-2.69,3.07-4.81.73-.75,1.84-1.16,2.25-1.74,2.84-4.3,3.6-7.76,6.99-9.53,4.6-2.4,3.47-4.58,5.34-5.54.65-.33,1.45-.57,2.34-1.02,2.6-1.33,3.97-4.31,4.89-4.9,3.2-2.04,12.17-1,16.37-.7,2.9.2,14.73-4.66,18.43,3.09,1.92,4.02,7.43,5.54,10.24,8.78.82,1.11,1.58,2.51,2.26,3.95ZM715.45,171.12c-5.67,2.93-7.16,6.69-11.38,12.25-3.27,4.3-7.81,7.53-5.8,11.24,1.33,2.45,4.33,4.08,5.87,6.94.42.77.75,1.58.94,2.48,1.04-.29,2.01-.73,3.02-1.27,4.11-2.21,7.18-5.63,10.13-8.17,9.13-7.67,17.46-10.62,11.98-20.74-2.91-5.38-9.02-5.69-14.77-2.73Z"/>
      <path class="cls-1" d="M851,134.93c2.73,7.04,4.63,14.66,6.27,21.79.51,2.28.78,4.9,1.45,6.6,1.41,3.63,3.9,6.67,5.02,9.56.49,1.26.38,10.66-7.88,13.96-4.76,1.91-7.19-.44-8.78-4.35-1.11-2.73-1.82-6.3-2.52-9.87-2.28,1.52-4.02,4.13-5.69,6.19-8.3,10.83-16.21,20.83-28.89,26.61-.23.11-1.37.7-1.91.94-1.32.59-4.92,2.14-7.92,1.94-6.42-2.13-14.97-9.86-15.5-10.61-.12-.17-.49-.65-.8-1.3-1.85-3.96-2.76-10.03-3.17-10.89-1.11-2.38-2.75-4.25-3.99-6.91-.57-1.23-1.16-2.7-1.31-4.48-.07-.14-.03-6.56.41-7.29.99-1.86,4.88-3.89,7.4-6.63,2.02-2.19,3.19-5.13,4.42-6.44.84-.89,2.92-2.18,4.6-3.7,2.34-2.11,7.32-6.68,11.53-8.92.99-.42,2.66-.62,4.72-1.49,1.57-.67,3.34-2.45,6.41-3.73,3.06-1.28,6.46-1.99,8.04-2.64,1.25-.51,1.03-1.28.67-2.16-1.2-2.94-6.67-7.23-7.53-7.65-2.43-1.15-5.12-1.24-6.8-.54-1.76.73-3.18,2.02-5.27,2.9-1.59.67-3.42,1.01-4.88,1.73-8.67,4.29-14.69,13.56-22.05,20.41-1.26.92-2.76,1.95-4.14,2.59-1.71.78-8.64-.3-10.09-3.4-2.18-4.69,3.88-8.37,6.94-12.39,1.94-2.54,4.97-6.26,6.63-9,1.78-2.95,1.65-4.83,2.89-6.33,1.24-1.5,4.94-3.77,7.44-5.86,1.6-1.33,5.97-5.42,7.84-6.21.14-.06.2-.09.34-.14,4.8-.48,11.9-3.53,17.74-4.54,1.03-.16,2.04.37,3.09.29,9.3-1.28,11.89-1.09,22.51,12.6,1.12,1.61,3.27,2.39,4.43,3.65,3.07,3.41,6.58,11.26,8.31,15.71ZM834.76,150.77c-2.06-5.08-2.92-6.02-4.65-5.32-.66.27-1.13.61-1.47.86-.21.15-.35.32-.57.49-.93.3-2.52.86-4.73,1.78-6.06,2.52-9.56,5.6-14.39,8.93-6.99,4.82-13.18,6.02-9.63,14.02,1.81,4.07,4.68,4.09,9.16,2.13,2.72-1.19,6.63-5.13,10.67-7.97.98-.66,1.47-.99,2.45-1.64,2.56-1.6,5.43-3.4,7.09-4.43.38-.24,1.72-1.04,4.04-2.18,1.54-.76,3.14-1.62,3.24-1.84.36-.75-.34-2.7-1.2-4.83Z"/>
      <path class="cls-1" d="M946.68,140.6c3.16,12.6,1.96,23.09-9.13,32.49-4.92,3.85-14.36,10.03-20.75,12.24-2.16.75-4.76.47-8.34,1.74-4.14,1.47-8.45,3.7-12.49,5.18-9.58,3.51-13.78-.21-16.57-7.57-3.61-9.52-7.85-20.2,1.84-23.78,7.24-2.68,18.53-.45,23.51-2.19,1.39-.48,2.46-1.61,3.77-2.06,5.69-1.29,10.74.69,17.96-1.69,4.6-1.51,5.65-4.44,4.41-8.29-.76-2.35-2.11-4.83-3.12-7.93-.37-1.13-.6-2.14-.77-3.51-9.38,4.47-18.99,8.27-28.7,11.93-16.06,6.06-32.9,7.73-39.7-11.3-2.7-7.55-6.11-21.26-3.65-27.18,4.26-10.27,15.11-19.29,25.89-23.21,3.06-1.12,6.55-1.81,11.07-2.28,6.4-.67,12.19-2.39,18.13-2.22-.27-.83-.31-1.57-.61-2.48-.41-1.29-.98-2.44-1.4-3.73-1.29-4.01-1.5-7.05,3.99-8.79,2.83-.9,10.86-.32,11.69.1,1.03.51,1.75,2.21,2.38,4.26,2.22,7.22,3.66,13.77,5.69,20.38,1.85,6,3.75,11.57,5.43,17.05.91,2.96,2.8,5.46,3.66,8.27.91,2.96.8,6.24,1.53,8.6.91,2.96,2.62,4.93,3.3,7.14.26.85.39,1.28.65,2.13.38,2.13-.18,4.68.33,6.72ZM905.37,97.79c-5.46.75-12.97,1.58-17.77,3.24-9.69,3.35-13.65,9.2-11.09,16.31,1.11,3.07,4.64,7.35,11.8,4.83,4.21-1.48,8.87-4.68,11.33-5.52,3.81-1.3,9.2-1.85,13.53-3.27,3.49-1.15,5.08-1.74,5.47-2.87.19-.56-.22-2.44-1.27-5.69-.76-2.35-1.64-4.48-1.83-5.09-2-4.7-4.44-2.73-10.16-1.95Z"/>
      <path class="cls-1" d="M1038.75,62.25c1.19,5.52-1.64,6.36-7.31,10.24-2,1.51-3.41,3.13-4.95,4.13-4.93,3.33-10.04,5.36-11.1,8.31-.47.77.49,3.47.24,5.67-.22,1.9-1.45,3.95-1.71,5.56-.4,4.43,2.8,8.55-3.33,10.06-3.45.85-9.05.87-13.44,2-2.67.69-5.34,1.72-7.66,2.33-3.86,1.02-6.46-.08-7.14-2.61-.64-2.38.37-5.12.51-7.38.53-6.32.57-10.7,4.98-14.97,3.11-2.78,8.76-6.23,13.59-9.21,8.07-4.97,14.85-5.39,11.86-18.08-.93-3.95-2.35-8.33-2.75-10.87-.27-1.69.29-4.89-.2-6.98-1.05-4.49-9.51-4.29-15.53-2.81-2.46.61-3.38,2.4-8.46,4.82-2.73,1.3-7.55,2.59-8.25,3.6-1.62,2.31.5,15.81,1.31,18.89.87,3.31,2.81,6.95,3,9.24.8,9.64-18.6,14.55-27.73,17.14-4.59,1.3-9.3,2.06-10.59-2.28-1.34-4.5-1.06-8.06-2.17-11.8-.88-2.97-1.87-6.03-2.82-8.87-6.54-19.49,5.75-29.72,23.58-36.42,6.35-2.62,13.66-4.84,19.21-7.08,4.66-1.88,8.06-3.82,11.11-4.57,2.5-.61,10.76-.46,15.69.59,2.35.43,4.14,2.31,6.28,2.72,6.39,1.15,6.67-1.06,11.01,3.24,4.16,4.12,5.49,11.41,6.37,15.45.4,1.83.6,2.75,1,4.58.39,1.79.83,3.52,1.33,5.24.86,2.93,3.29,6.45,4.08,10.1ZM1014.08,138.7c-1.76.44-4.06.27-5.87.83-2.76.86-3.82,2.87-5.74,3.37-3.26.85-5.39-2.12-8.66-3.63-2.13-.91-6.07-.83-6.59-2.75-.82-2.99.51-16.53,3.32-17.28.41-.11.61-.16,1.02-.27.6-.16,1.32-.51,2.6-.85,7.17-1.89,22.28-2.61,22.69-.91.15.62.22,1.66.45,2.59.64,2.63,3.14,3.25,3.36,4.17,1.14,4.71-5.25,14.39-6.6,14.73Z"/>
    </g>
  </g>
</svg>