<?xml version="1.0" encoding="UTF-8"?>
<svg id="Layer_2" data-name="Layer 2" xmlns="http://www.w3.org/2000/svg" viewBox="0 0 197.42 224.52">
  <defs>
    <style>
      .cls-1 {
        fill: #8bd4e0;
      }

      .cls-2 {
        fill: #37489e;
      }

      .cls-3 {
        fill: #017348;
      }

      .cls-4 {
        fill: #4fb0ba;
      }

      .cls-5 {
        fill: #efd7bc;
      }

      .cls-6 {
        fill: #ed2a25;
      }

      .cls-7 {
        fill: #fff3f3;
      }
    </style>
  </defs>
  <g id="Layer_1-2" data-name="Layer 1">
    <g>
      <g>
        <path class="cls-6" d="M15.62,60.56s-52.02,94.93,33.82,155.16c51.51,36.14,200.41-44.06,128.91-146.72C106.85-33.68,42.39,23.24,15.62,60.56Z"/>
        <path class="cls-5" d="M98.35,198.69s-37.38,17.44-58.38-20.1c-21-37.53,22.14,7.96,39,9.9,16.86,1.94,33.16,3.19,19.38,10.2Z"/>
        <path class="cls-3" d="M56.4,69.37S22.25,14.42,2.07,9.97C2.07,9.97,2.29-.4,11.8.01c9.5.41,49.05,65,49.05,65l-5.43-53.64s6.72,43.93,10.98,47.6,35.55-42.37,35.55-42.37l-27.65,57.08,18.17,47.35s-21.81-40.57-26.27-42.29c-4.46-1.72-42.4,48.52-42.4,48.52l23.97-50.51S16.88,54.45,3.73,56.75c0,0,25.72-7.97,52.67,12.62Z"/>
      </g>
      <g>
        <rect class="cls-7" x="69.6" y="72.23" width="104.55" height="104.55" rx="27.57" ry="27.57" transform="translate(-51.46 142.03) rotate(-51.39)"/>
        <g>
          <path class="cls-2" d="M87.02,117.54h62.99v14.92h-64.74c-3.11,0-5.64-2.53-5.64-5.64v-1.88c0-4.08,3.31-7.4,7.4-7.4Z" transform="translate(15.05 262.33) rotate(-101.44)"/>
          <path class="cls-4" d="M94.87,125.67h62.99v14.92h-64.74c-3.11,0-5.64-2.53-5.64-5.64v-1.88c0-4.08,3.31-7.4,7.4-7.4Z" transform="translate(-8.86 8.74) rotate(-3.94)"/>
          <polygon class="cls-1" points="165.03 116.87 158.36 138.07 100.58 91.91 118.04 79.34 165.03 116.87"/>
        </g>
      </g>
    </g>
  </g>
</svg>